<?xml version="1.0" encoding="UTF-8"?>
<svg width="2051px" height="2497px" viewBox="0 0 2051 2497" version="1.1" xmlns="http://www.w3.org/2000/svg" xmlns:xlink="http://www.w3.org/1999/xlink">
    <!-- Generator: Sketch 54.1 (76490) - https://sketchapp.com -->
    <title>amazon_cloudformation</title>
    <desc>Created with Sketch.</desc>
    <g id="Page-1" stroke="none" stroke-width="1" fill="none" fill-rule="evenodd">
        <g id="amazon_cloudformation" fill-rule="nonzero">
            <polyline id="Path" fill="#B7CA9D" points="132.121254 1726.76574 149.554754 1746.55469 1030.16282 1996.17581 1034.15266 1841.44548 417.410547 1686.6751 387.230402 1675.78718 132.121254 1726.76574"></polyline>
            <polyline id="Path" fill="#B7CA9D" points="1918.8467 1726.76574 1019.49121 2026.96484 1016.8153 1841.44548 1633.54939 1686.6751 1660.42871 1656.42285 1918.8467 1726.76574"></polyline>
            <polyline id="Path" fill="#3C4929" points="1016.8153 666.29459 1633.54939 810.032836 1904.78613 797.166016 1918.8467 769.982254 1059.5498 460.673828 1016.8153 666.29459"></polyline>
            <polyline id="Path" fill="#759C3E" points="417.410547 1686.6751 132.121254 1726.76574 124.181641 1697.14642 124.181641 801.171875 132.121254 769.982254 389.906316 789.154297 417.410547 810.064883 417.410547 1686.6751"></polyline>
            <polyline id="Path" fill="#3C4929" points="1034.15266 666.29459 417.410547 810.032836 132.121254 769.982254 142.87298 753.101562 1030.16282 500.572188 1034.15266 666.29459"></polyline>
            <path d="M1024.2662,0 L0,517.004223 L0.488714844,1980.04822 L1024.2662,2496.78004 L1039.52051,2473.61816 L1039.52051,30.0439453 L1024.2662,0 Z M724.756102,1904.6259 L132.121254,1726.76574 L132.121254,769.982254 L724.756102,592.186191 L724.756102,1904.6259 Z M1633.54939,1686.6751 L1918.8467,1726.76574 L1934.83008,1698.48438 L1934.83008,797.166016 L1918.8467,769.982254 L1633.54939,810.064883 L1633.54939,1686.6751 L1633.54939,1686.6751 Z" id="Shape" fill="#4B612C"></path>
            <path d="M1024.2662,2496.78004 L2050.51129,1980.08027 L2051,517.044281 L1024.2662,0 L1024.2662,2496.78004 Z M1326.20384,592.186191 L1918.8467,769.982254 L1918.8467,1726.76574 L1326.20384,1904.6259 L1326.20384,592.186191 Z" id="Shape" fill="#759C3E"></path>
        </g>
    </g>
</svg>