<?xml version="1.0" encoding="UTF-8"?>
<svg width="60px" height="84px" viewBox="0 0 60 84" version="1.1" xmlns="http://www.w3.org/2000/svg" xmlns:xlink="http://www.w3.org/1999/xlink">
    <!-- Generator: Sketch 54.1 (76490) - https://sketchapp.com -->
    <title>amazon_beanstalk</title>
    <desc>Created with Sketch.</desc>
    <g id="Page-1" stroke="none" stroke-width="1" fill="none" fill-rule="evenodd">
        <g id="amazon_beanstalk" transform="translate(0.260000, 0.840000)" fill-rule="nonzero">
            <polygon id="Path" fill="#9D5025" points="19.54 5.1 19.54 41.16 15.33 41.16 15.33 75.12 29.74 82.32 38.41 41.16 29.74 0"></polygon>
            <polygon id="Path" fill="#F58536" points="29.74 0 29.74 41.16 29.74 82.32 39.94 77.22 39.94 41.16 44.15 41.16 44.15 7.2"></polygon>
            <polygon id="Path" fill="#6B3A19" points="59.48 30.64 41.25 32.36 35.26 31.61 54.26 12.26"></polygon>
            <polygon id="Path" fill="#F58536" points="54.26 12.26 59.48 14.87 59.48 30.64 54.26 29.6"></polygon>
            <polygon id="Path" fill="#9D5025" points="35.26 31.61 54.26 29.6 54.26 12.26 35.26 17.4"></polygon>
            <polygon id="Path" fill="#FBBF93" points="0 51.68 18.23 49.96 24.22 50.71 5.22 70.06"></polygon>
            <polygon id="Path" fill="#9D5025" points="5.22 70.06 0 67.45 0 51.68 5.22 52.78"></polygon>
            <polygon id="Path" fill="#F58536" points="24.22 50.71 5.22 52.78 5.22 70.06 24.22 64.92"></polygon>
        </g>
    </g>
</svg>