<?xml version="1.0" encoding="UTF-8"?>
<svg width="256px" height="310px" viewBox="0 0 256 310" version="1.1" xmlns="http://www.w3.org/2000/svg" xmlns:xlink="http://www.w3.org/1999/xlink">
    <!-- Generator: Sketch 54.1 (76490) - https://sketchapp.com -->
    <title>amazon_s3</title>
    <desc>Created with Sketch.</desc>
    <g id="Page-1" stroke="none" stroke-width="1" fill="none" fill-rule="evenodd">
        <g id="amazon_s3" fill-rule="nonzero">
            <polyline id="Path" fill="#8C3123" points="20.624 53.686 0 64 0 245.02 20.624 255.274 20.748 255.125 20.748 53.828 20.624 53.686"></polyline>
            <polyline id="Path" fill="#E05243" points="131 229 20.624 255.274 20.624 53.686 131 79.387 131 229"></polyline>
            <polyline id="Path" fill="#8C3123" points="81.178 187.866 127.996 193.826 128.29 193.148 128.553 116.378 127.996 115.778 81.178 121.652 81.178 187.866"></polyline>
            <polyline id="Path" fill="#8C3123" points="127.996 229.295 235.367 255.33 235.536 255.061 235.533 53.866 235.363 53.686 127.996 79.682 127.996 229.295"></polyline>
            <polyline id="Path" fill="#E05243" points="174.827 187.866 127.996 193.826 127.996 115.778 174.827 121.652 174.827 187.866"></polyline>
            <polyline id="Path" fill="#5E1F18" points="174.827 89.631 127.996 98.166 81.178 89.631 127.937 77.375 174.827 89.631"></polyline>
            <polyline id="Path" fill="#F2B0A9" points="174.827 219.801 127.996 211.21 81.178 219.801 127.939 232.854 174.827 219.801"></polyline>
            <polyline id="Path" fill="#8C3123" points="81.178 89.631 127.996 78.045 128.375 77.928 128.375 0.313 127.996 0 81.178 23.413 81.178 89.631"></polyline>
            <polyline id="Path" fill="#E05243" points="174.827 89.631 127.996 78.045 127.996 0 174.827 23.413 174.827 89.631"></polyline>
            <polyline id="Path" fill="#8C3123" points="127.996 309.428 81.173 286.023 81.173 219.806 127.996 231.388 128.685 232.171 128.498 308.077 127.996 309.428"></polyline>
            <polyline id="Path" fill="#E05243" points="127.996 309.428 174.823 286.023 174.823 219.806 127.996 231.388 127.996 309.428"></polyline>
            <polyline id="Path" fill="#E05243" points="235.367 53.686 256 64 256 245.02 235.367 255.33 235.367 53.686"></polyline>
        </g>
    </g>
</svg>