<?xml version="1.0" encoding="UTF-8"?>
<svg width="865px" height="468px" viewBox="0 0 865 468" version="1.1" xmlns="http://www.w3.org/2000/svg" xmlns:xlink="http://www.w3.org/1999/xlink">
    <!-- Generator: Sketch 54.1 (76490) - https://sketchapp.com -->
    <title>anynines</title>
    <desc>Created with Sketch.</desc>
    <g id="Page-1" stroke="none" stroke-width="1" fill="none" fill-rule="evenodd">
        <g id="anynines" fill="#E98052" fill-rule="nonzero">
            <path d="M506,0.8 C435.5,0.8 378.3,58 378.3,128.5 C378.3,141.1 380.1,153.2 383.5,164.7 L434.1,164.7 C428.6,153.8 425.5,141.5 425.5,128.5 C425.5,84.1 461.5,48 506,48 C550.4,48 586.5,84 586.5,128.5 C586.5,172.9 550.5,209 506,209 L406.8,209 L362.7,209 L353.4,209 C322.9,209 298.2,184.3 298.2,153.8 C298.2,123.3 322.9,98.6 353.4,98.6 C355.4,71.9 372,50.4 372,50.4 L353.4,50.4 C296.6,50.4 250.5,96.5 250.5,153.3 C250.5,210.1 296.6,256.2 353.4,256.2 L506,256.2 C529.4,256.2 551.4,249.9 570.2,238.9 C608.2,216.8 633.7,175.6 633.7,128.5 C633.7,58 576.5,0.8 506,0.8 Z" id="Path"></path>
            <g id="Group" transform="translate(0.000000, 299.000000)">
                <path d="M75.6,100.4 L75.1,100.4 C67.6,112.2 53.9,117 40,117 C19.3,117 0.6,105.2 0.6,82.8 C0.6,44.5 47.1,43.9 75.5,43.9 C75.5,31.8 65.5,24.1 53.6,24.1 C42.4,24.1 33.1,29.1 25.8,37.3 L7.6,18.6 C20.1,6.8 38.3,0.8 56.3,0.8 C96.2,0.8 106.9,21.1 106.9,58 L106.9,114.3 L75.5,114.3 L75.5,100.4 L75.6,100.4 Z M67.1,65.8 C56.6,65.8 33.4,66.7 33.4,81.7 C33.4,89.9 42.1,93.8 49.6,93.8 C63,93.8 75.6,86.7 75.6,73.1 L75.6,65.8 L67.1,65.8 Z" id="Shape"></path>
                <path d="M122.7,3.6 L155.5,3.6 L155.5,18.6 L156,18.6 C160.6,9.9 171.7,0.8 188.3,0.8 C222.9,0.8 229.3,23.6 229.3,53.2 L229.3,114.2 L195.1,114.2 L195.1,60 C195.1,47.2 194.9,30.8 177.3,30.8 C159.5,30.8 156.8,44.7 156.8,59 L156.8,114.1 L122.6,114.1 L122.6,3.6 L122.7,3.6 Z" id="Path"></path>
                <path d="M303.7,132.3 C294.6,155.8 289.3,169 256.8,169 C248.1,169 239.5,167.6 231.3,164.9 L235.9,136.9 C241.1,139.2 246.1,140.3 251.8,140.3 C267.3,140.3 269.8,133.7 274.6,121.6 L277.1,115.2 L228.6,3.6 L265.5,3.6 L294,76.7 L294.5,76.7 L318.9,3.6 L354,3.6 L303.7,132.3 Z" id="Path"></path>
                <path d="M358.7,3.6 L391.5,3.6 L391.5,18.6 L392,18.6 C396.6,9.9 407.7,0.8 424.3,0.8 C458.9,0.8 465.3,23.6 465.3,53.2 L465.3,114.2 L431.1,114.2 L431.1,60 C431.1,47.2 430.9,30.8 413.3,30.8 C395.5,30.8 392.8,44.7 392.8,59 L392.8,114.1 L358.6,114.1 L358.6,3.6 L358.7,3.6 Z" id="Path"></path>
                <polygon id="Path" points="482.1 3.6 516.3 3.6 516.3 114.3 482.1 114.3"></polygon>
                <path d="M533.8,3.6 L566.6,3.6 L566.6,18.6 L567.1,18.6 C571.7,9.9 582.8,0.8 599.4,0.8 C634,0.8 640.4,23.6 640.4,53.2 L640.4,114.2 L606.2,114.2 L606.2,60 C606.2,47.2 606,30.8 588.4,30.8 C570.6,30.8 567.9,44.7 567.9,59 L567.9,114.1 L533.7,114.1 L533.7,3.6 L533.8,3.6 Z" id="Path"></path>
                <path d="M760.2,95.1 C749.3,109 731.3,117 713.5,117 C679.3,117 652,94.2 652,58.9 C652,23.6 679.3,0.8 713.5,0.8 C745.4,0.8 765.4,23.6 765.4,58.9 L765.4,69.6 L686.1,69.6 C688.8,82.6 698.6,91 711.8,91 C723,91 730.5,85.3 736.2,77.6 L760.2,95.1 Z M731.3,46.4 C731.5,35 722.6,25.4 710.4,25.4 C695.4,25.4 687.2,35.6 686.3,46.4 L731.3,46.4 Z" id="Shape"></path>
                <path d="M838.9,36.2 C833.9,30.1 827.3,26.9 819.1,26.9 C813.4,26.9 806.6,29.4 806.6,36 C806.6,52.4 864.2,38.5 864.2,80.6 C864.2,108.8 836.9,117 813.2,117 C797.7,117 780.6,113.1 769.7,102 L790.4,79 C796.8,86.7 804.3,91.1 814.5,91.1 C822.2,91.1 830,89.1 830,83.1 C830,65.3 772.4,80.4 772.4,38.2 C772.4,12.2 795.6,0.9 818.9,0.9 C833.5,0.9 849.6,4.5 859.9,15.5 L838.9,36.2 Z" id="Path"></path>
            </g>
        </g>
    </g>
</svg>