<?xml version="1.0" encoding="UTF-8"?>
<svg width="280px" height="170px" viewBox="0 0 280 170" version="1.1" xmlns="http://www.w3.org/2000/svg" xmlns:xlink="http://www.w3.org/1999/xlink">
    <!-- Generator: Sketch 54.1 (76490) - https://sketchapp.com -->
    <title>artifactory</title>
    <desc>Created with Sketch.</desc>
    <g id="Page-1" stroke="none" stroke-width="1" fill="none" fill-rule="evenodd">
        <g id="artifactory" transform="translate(139.999996, 85.093336) scale(-1, 1) rotate(-180.000000) translate(-139.999996, -85.093336) translate(-0.666667, -0.239996)" fill="#61A63A" fill-rule="nonzero">
            <g id="g20" transform="translate(0.186667, 3.156133)">
                <path d="M5.3333332,38.6666657 L11.589333,38.6666657 L11.589333,13.9946663 C11.589333,10.0306664 11.457333,9.23599977 11.1479997,8.0039998 C10.2679997,4.25999989 6.78799983,1.87999995 4.0119999,0.821333313 L1.1493333,3.9959999 C2.73333326,4.96399988 4.14533323,6.46133317 4.71733322,7.69599981 C5.2013332,8.79599978 5.3333332,10.0306664 5.3333332,13.3346663 L5.3333332,38.6666657 Z" id="path22"></path>
            </g>
            <g id="g24" transform="translate(14.995200, 11.068000)">
                <polygon id="path26" points="0 30.6666659 16.6093329 30.6666659 15.9053329 25.6879994 6.16799985 25.6879994 6.16799985 18.6839995 13.965333 18.6839995 13.965333 13.661333 6.16799985 13.661333 6.16799985 0.135999997 0 0.135999997"></polygon>
            </g>
            <g id="g28" transform="translate(30.197599, 10.213200)">
                <path d="M0,22.6666661 L5.28666653,24.0759994 C5.81466652,23.1506661 6.12399985,22.1359994 6.21199984,20.8599995 C7.04799982,22.0039994 8.45866646,23.1946661 9.55866643,23.7226661 C10.0439997,23.9439994 10.8373331,24.0759994 11.4986664,24.0759994 C12.3786664,24.0759994 12.7746663,23.9879994 13.701333,23.5906661 L12.0706664,18.3919995 C11.4986664,18.6999995 11.0146664,18.8319995 10.3519997,18.8319995 C9.03066644,18.8319995 7.84266647,18.2159995 6.73999983,16.9399996 L6.73999983,0.990666642 L0.835999979,0.990666642 L0.835999979,16.0573329 C0.835999979,19.0973329 0.483999988,21.3879995 0,22.6666661" id="path30"></path>
            </g>
            <g id="g32" transform="translate(42.531466, 9.840266)">
                <path d="M10.6666664,19.9999995 C9.2573331,19.9999995 8.11066646,19.1173329 7.62666648,17.7093329 C7.23066649,16.5186663 7.01066649,14.933333 7.01066649,12.685333 C7.01066649,10.0866664 7.27466648,8.1479998 7.75866647,7.00266649 C8.28799979,5.77066652 9.61066643,5.15199987 10.7546664,5.15199987 C13.3106663,5.15199987 14.4106663,7.44266648 14.4106663,12.7746663 C14.4106663,15.8133329 14.0146663,17.7973329 13.2226663,18.8093329 C12.649333,19.5573328 11.7226664,19.9999995 10.6666664,19.9999995 M10.5786664,24.3599994 C13.7946663,24.3599994 16.3053329,23.2599994 18.2453329,20.9679995 C20.0493328,18.8533329 20.8439995,16.3866663 20.8439995,12.7306663 C20.8439995,8.85333311 19.9613328,6.21066651 18.0253329,4.00666657 C16.3053329,2.06799995 14.0586663,0.879999978 10.5786664,0.879999978 C4.45466656,0.879999978 0.445333322,5.45999986 0.445333322,12.553333 C0.445333322,19.6453328 4.49866655,24.3599994 10.5786664,24.3599994" id="path34"></path>
            </g>
            <g id="g36" transform="translate(63.460932, 1.840267)">
                <path d="M10.6666664,27.9999993 C8.41999979,27.9999993 7.14266649,26.7653327 7.14266649,24.6506661 C7.14266649,22.3613328 8.55199979,21.4346661 10.6226664,21.4346661 C12.957333,21.4346661 14.2346663,22.5813328 14.2346663,24.6506661 C14.2346663,26.7653327 12.913333,27.9999993 10.6666664,27.9999993 M22.2093328,33.1973325 L24.6759994,29.4533326 C23.3999994,28.2639993 22.1653328,27.7799993 20.5359995,27.7799993 C19.9613328,27.7799993 19.7413328,27.8239993 18.9933329,27.9119993 C19.8733328,26.8533327 20.3133328,25.7093327 20.3133328,24.2093327 C20.3133328,20.3333328 16.7906662,17.5146662 11.9879997,17.5146662 C11.7226664,17.5146662 11.5466664,17.5146662 11.1066664,17.5586662 C9.61066643,16.8533329 8.77199978,16.3239996 8.77199978,15.7066663 C8.77199978,15.3986663 9.12399977,15.1786663 9.74266642,15.1786663 L12.913333,15.1346663 C16.3493329,15.0906663 18.1573329,14.5626663 19.7413328,13.1079997 C21.0639995,11.8746664 21.6813328,10.3319997 21.6813328,8.30666646 C21.6813328,6.41199984 21.1079995,4.95733321 19.8733328,3.63733324 C17.8919996,1.5213333 14.4986663,0.729333315 10.9746664,0.729333315 C7.75866647,0.729333315 4.45466656,1.2573333 2.42799994,3.15199992 C1.19599997,4.29733323 0.577333319,5.61999986 0.577333319,7.15999982 C0.577333319,8.39466646 0.886666645,9.01199977 1.10799997,9.45199976 L6.5706665,9.45199976 C6.39466651,8.96799978 6.30399984,8.79199978 6.30399984,7.99866647 C6.30399984,6.19199985 7.80266647,5.22399987 10.5346664,5.22399987 C12.209333,5.22399987 13.4866663,5.44399986 14.2786663,5.97199985 C15.117333,6.49999984 15.6893329,7.38133315 15.6893329,8.26266646 C15.6893329,9.14399977 15.249333,9.93599975 14.6306663,10.2879997 C14.0146663,10.5959997 13.1786663,10.8626664 11.5466664,10.9506664 C11.2386664,10.9506664 10.4026664,10.9946664 9.03599977,10.9946664 C6.39466651,11.0386664 4.67599988,11.3026664 3.61866658,11.6986664 C3.08799992,11.9186664 2.64799993,12.3159997 2.33999994,12.7999997 C2.07599995,13.3279997 1.89999995,13.9466663 1.89999995,14.6506663 C1.89999995,15.4866663 2.11999995,16.1919996 2.60399993,16.7213329 C3.26399992,17.4706662 4.71999988,18.1306662 6.03999985,18.4386662 C2.77999993,19.2773329 1.19599997,21.3466661 1.19599997,24.694666 C1.19599997,29.3213326 4.93999988,32.3159992 10.7106664,32.3159992 C11.9879997,32.3159992 13.1346663,32.1839992 14.7626663,31.7439992 C16.3933329,31.3479992 16.7906662,31.2599992 17.5386662,31.2599992 C19.1693329,31.2599992 20.8439995,31.9639992 22.2093328,33.1973325" id="path38"></path>
            </g>
            <g id="g40" transform="translate(92.146531, 10.249466)">
                <path d="M10.6666664,13.333333 L16.6573329,13.333333 C16.6573329,13.333333 15.6453329,16.5506663 14.985333,19.5026662 C14.677333,20.9119995 13.7506663,24.9213327 13.7506663,24.9213327 C13.7506663,24.9213327 12.869333,21.3079995 12.297333,19.0159995 C11.725333,16.8146662 11.3293331,15.3599996 10.6666664,13.333333 L10.6666664,13.333333 Z M10.6226664,31.6613325 L17.2759996,31.6613325 L26.9239993,0.954666643 L20.3159995,0.954666643 L18.1573329,8.22399979 L9.1693331,8.22399979 L7.01066649,0.954666643 L0.578666652,0.954666643 L10.6226664,31.6613325 Z" id="path42"></path>
            </g>
            <g id="g44" transform="translate(118.855997, 10.213200)">
                <path d="M0,22.6666661 L5.28666653,24.0759994 C5.81466652,23.1506661 6.12399985,22.1359994 6.21199984,20.8599995 C7.04799982,22.0039994 8.45866646,23.1946661 9.55866643,23.7226661 C10.0439997,23.9439994 10.8373331,24.0759994 11.4986664,24.0759994 C12.3786664,24.0759994 12.7746663,23.9879994 13.701333,23.5906661 L12.0706664,18.3919995 C11.4986664,18.6999995 11.0146664,18.8319995 10.3519997,18.8319995 C9.03066644,18.8319995 7.84266647,18.2159995 6.73999983,16.9399996 L6.73999983,0.990666642 L0.835999979,0.990666642 L0.835999979,16.0573329 C0.835999979,19.0973329 0.483999988,21.3879995 0,22.6666661" id="path46"></path>
            </g>
            <g id="g48" transform="translate(131.990530, 9.804400)">
                <path d="M14.6666663,23.9999994 L13.1679997,20.0799995 L9.37999977,20.0799995 L9.37999977,8.58133312 C9.37999977,5.71866652 9.90799975,4.96799988 11.9346664,4.96799988 C12.4639997,4.96799988 12.9919997,5.09999987 14.0506663,5.40799986 L14.7986663,1.88399995 C13.0799997,1.17999997 11.5386664,0.871999978 9.99599975,0.871999978 C6.99999982,0.871999978 4.57733322,2.19199995 3.91733324,4.17466656 C3.56399991,5.14399987 3.51999991,5.58399986 3.51999991,7.65466648 L3.51999991,20.0799995 L1.2733333,20.0799995 L1.2733333,23.9119994 L3.51999991,23.9119994 C3.51999991,26.114666 3.51999991,27.6119993 3.74133324,29.2866659 L9.73199976,30.7839992 C9.51199976,28.7146659 9.37999977,26.290666 9.37999977,23.9999994 L14.6666663,23.9999994 Z" id="path50"></path>
            </g>
            <g id="g52" transform="translate(147.132796, 10.697466)">
                <path d="M1.3333333,22.6666661 L7.23599982,23.5906661 L7.23599982,0.506666654 L1.3333333,0.506666654 L1.3333333,22.6666661 Z M4.37333322,32.9306658 C6.35599984,32.9306658 7.94133313,31.3013326 7.94133313,29.2746659 C7.94133313,27.246666 6.31199984,25.618666 4.28533323,25.618666 C2.30133328,25.618666 0.673333316,27.246666 0.673333316,29.2746659 C0.673333316,31.3013326 2.34533327,32.9306658 4.37333322,32.9306658 L4.37333322,32.9306658 Z" id="path54"></path>
            </g>
            <g id="g56" transform="translate(156.370396, 10.783066)">
                <path d="M13.333333,27.9999993 C12.0546664,28.6159993 11.6146664,28.7479993 10.9106664,28.7479993 C9.41066643,28.7479993 8.44266646,27.8239993 8.44266646,26.1933327 L8.44266646,23.0213328 L14.169333,23.0213328 L12.673333,18.8813329 L8.48666645,18.8813329 L8.48666645,0.421333323 L2.71599993,0.421333323 L2.71599993,18.8813329 L0.687999983,18.8813329 L0.687999983,23.0213328 L2.84799993,23.0213328 C2.71599993,23.9453327 2.62799993,25.0479994 2.62799993,26.0613327 C2.62799993,30.5119992 5.27066653,33.0666658 9.89733309,33.0666658 C11.8346664,33.0666658 13.421333,32.6679992 15.2279996,31.6559992 L13.333333,27.9999993 Z" id="path58"></path>
            </g>
            <g id="g60" transform="translate(168.753196, 9.071466)">
                <path d="M13.333333,11.9999997 L13.069333,11.9999997 C8.97066644,11.9999997 7.56266648,11.2519997 7.56266648,8.56399979 C7.56266648,6.8026665 8.66266645,5.61199986 10.1613331,5.61199986 C11.2626664,5.61199986 12.3626664,6.18533318 13.245333,7.15599982 L13.333333,11.9999997 Z M1.74666662,22.0013328 C3.19999992,22.9253328 3.8159999,23.2346661 5.40266653,23.8519994 C7.60666648,24.7773327 9.49866643,25.1733327 11.5706664,25.1733327 C15.3599996,25.1733327 17.9573329,23.7639994 18.8399995,21.2533328 C19.1479995,20.3266662 19.2359995,19.6226662 19.2359995,17.1986662 L19.1039995,9.62266643 L19.1039995,9.22666644 C19.1039995,6.8026665 19.5013328,5.87599985 21.2199995,4.59999988 L18.0893329,0.987999975 C16.7253329,1.55999996 15.4919996,2.57333327 14.9186663,3.71999991 C14.081333,2.92533326 13.993333,2.83733326 13.553333,2.52933327 C12.4506664,1.73599996 10.8653331,1.29599997 9.01466644,1.29599997 C3.9919999,1.29599997 1.2613333,3.8519999 1.2613333,8.34399979 C1.2613333,13.6306663 4.91866654,16.0986663 12.0986664,16.0986663 C12.5386664,16.0986663 12.805333,16.0986663 13.421333,16.0546663 L13.421333,16.9786662 C13.421333,19.4906662 12.937333,20.3266662 10.7773331,20.3266662 C8.88266644,20.3266662 6.67999983,19.4026662 4.25866656,17.7733329 L1.74666662,22.0013328 Z" id="path62"></path>
            </g>
            <g id="g64" transform="translate(189.868929, 10.488000)">
                <path d="M17.3333329,21.3333328 L14.4679996,17.4573329 C13.2786663,18.5573329 12.0026664,19.2199995 10.8999997,19.2199995 C8.25599979,19.2199995 7.06799982,16.9293329 7.06799982,11.6426664 C7.06799982,8.69066645 7.41999981,6.92799983 8.21199979,5.95866652 C8.82933311,5.16666654 9.84266642,4.67999988 10.8559997,4.67999988 C12.2226664,4.67999988 13.4546663,5.25466654 14.9106663,6.5306665 L15.2626663,6.83999983 L17.9493329,3.27199992 C17.0666662,2.39066661 16.6706662,2.08133328 15.8786663,1.59599996 C14.2919996,0.671999983 12.5306664,0.187999995 10.3719997,0.187999995 C4.1599999,0.187999995 0.547999986,4.50399989 0.547999986,11.8186664 C0.547999986,17.0173329 2.52933327,20.4533328 5.1733332,22.2599994 C6.67199983,23.2719994 8.87466644,23.9333327 10.7679997,23.9333327 C12.2666664,23.9333327 13.8519997,23.5359994 15.1306663,22.9199994 C15.9666663,22.4799994 16.3626663,22.1719994 17.3333329,21.3333328" id="path66"></path>
            </g>
            <g id="g68" transform="translate(207.209595, 9.804400)">
                <path d="M14.6666663,23.9999994 L13.1679997,20.0799995 L9.37999977,20.0799995 L9.37999977,8.58133312 C9.37999977,5.71866652 9.90799975,4.96799988 11.9346664,4.96799988 C12.4639997,4.96799988 12.9919997,5.09999987 14.0506663,5.40799986 L14.7986663,1.88399995 C13.0799997,1.17999997 11.5386664,0.871999978 9.99599975,0.871999978 C6.99999982,0.871999978 4.57733322,2.19199995 3.91733324,4.17466656 C3.56399991,5.14399987 3.51999991,5.58399986 3.51999991,7.65466648 L3.51999991,20.0799995 L1.2733333,20.0799995 L1.2733333,23.9119994 L3.51999991,23.9119994 C3.51999991,26.114666 3.51999991,27.6119993 3.74133324,29.2866659 L9.73199976,30.7839992 C9.51199976,28.7146659 9.37999977,26.290666 9.37999977,23.9999994 L14.6666663,23.9999994 Z" id="path70"></path>
            </g>
            <g id="g72" transform="translate(221.917461, 9.840266)">
                <path d="M10.6666664,19.9999995 C9.2573331,19.9999995 8.11066646,19.1173329 7.62666648,17.7093329 C7.23066649,16.5186663 7.01066649,14.933333 7.01066649,12.685333 C7.01066649,10.0866664 7.27466648,8.1479998 7.75866647,7.00266649 C8.28799979,5.77066652 9.61066643,5.15199987 10.7546664,5.15199987 C13.3106663,5.15199987 14.4106663,7.44266648 14.4106663,12.7746663 C14.4106663,15.8133329 14.0146663,17.7973329 13.2226663,18.8093329 C12.649333,19.5573328 11.7226664,19.9999995 10.6666664,19.9999995 M10.5786664,24.3599994 C13.7946663,24.3599994 16.3053329,23.2599994 18.2453329,20.9679995 C20.0493328,18.8533329 20.8439995,16.3866663 20.8439995,12.7306663 C20.8439995,8.85333311 19.9613328,6.21066651 18.0253329,4.00666657 C16.3053329,2.06799995 14.0586663,0.879999978 10.5786664,0.879999978 C4.45466656,0.879999978 0.445333322,5.45999986 0.445333322,12.553333 C0.445333322,19.6453328 4.49866655,24.3599994 10.5786664,24.3599994" id="path74"></path>
            </g>
            <g id="g76" transform="translate(244.394527, 10.213200)">
                <path d="M0,22.6666661 L5.28666653,24.0759994 C5.81466652,23.1506661 6.12399985,22.1359994 6.21199984,20.8599995 C7.04799982,22.0039994 8.45866646,23.1946661 9.55866643,23.7226661 C10.0439997,23.9439994 10.8373331,24.0759994 11.4986664,24.0759994 C12.3786664,24.0759994 12.7746663,23.9879994 13.701333,23.5906661 L12.0706664,18.3919995 C11.4986664,18.6999995 11.0146664,18.8319995 10.3519997,18.8319995 C9.03066644,18.8319995 7.84266647,18.2159995 6.73999983,16.9399996 L6.73999983,0.990666642 L0.835999979,0.990666642 L0.835999979,16.0573329 C0.835999979,19.0973329 0.483999988,21.3879995 0,22.6666661" id="path78"></path>
            </g>
            <g id="g80" transform="translate(257.967994, 0.030800)">
                <path d="M0,33.3333325 L6.03466652,34.0373325 L9.95733308,20.9079995 C10.3533331,19.5439995 11.1466664,16.2399996 11.1466664,16.2399996 C11.1466664,16.2399996 11.5866664,18.7519995 11.8506664,19.8519995 C12.2026664,21.2626661 12.2906664,21.4826661 12.733333,22.9799994 L16.1253329,33.6853325 L22.3359994,33.6853325 L14.141333,10.8213331 C12.601333,6.45866651 11.4546664,4.56533322 9.82533309,3.37466658 C8.32666646,2.27466661 6.38799984,1.56933329 4.36266656,1.3053333 L2.33466661,5.1813332 C3.61199991,5.53466653 5.11066654,6.06266652 5.99066652,6.6786665 C6.65199983,7.16533315 7.18133315,7.78133314 7.66666648,8.52933312 C8.23866646,9.45466643 8.41466646,9.85199975 8.94266644,11.1733331 L7.44666648,11.1733331 C7.09333316,12.229333 6.91599983,12.6719997 6.51999984,13.817333 C6.07866651,15.181333 5.37466653,17.4279996 5.33066653,17.5173329 L0,33.3333325 Z" id="path82"></path>
            </g>
            <g id="g84" transform="translate(99.443998, 87.918131)">
                <path d="M41.3333323,74.6666648 C22.9866661,74.6666648 8.06266647,59.7426652 8.06266647,41.395999 C8.06266647,23.0506661 22.9866661,8.12666646 41.3333323,8.12666646 C59.6799985,8.12666646 74.6039981,23.0506661 74.6039981,41.395999 C74.6039981,59.7426652 59.6799985,74.6666648 41.3333323,74.6666648 M41.3333323,0.954666643 C19.0333329,0.954666643 0.890666644,19.0959995 0.890666644,41.395999 C0.890666644,63.6959984 19.0333329,81.8386646 41.3333323,81.8386646 C63.6333317,81.8386646 81.775998,63.6959984 81.775998,41.395999 C81.775998,19.0959995 63.6333317,0.954666643 41.3333323,0.954666643" id="path86"></path>
            </g>
            <polygon id="path88" points="181.305329 65.3999984 100.882664 65.3999984 100.882664 72.5719982 181.305329 72.5719982"></polygon>
        </g>
    </g>
</svg>