<?xml version="1.0" encoding="UTF-8"?>
<svg width="384px" height="611px" viewBox="0 0 384 611" version="1.1" xmlns="http://www.w3.org/2000/svg" xmlns:xlink="http://www.w3.org/1999/xlink">
    <!-- Generator: Sketch 54.1 (76490) - https://sketchapp.com -->
    <title>backblaze-b2-logo</title>
    <desc>Created with Sketch.</desc>
    <g id="Page-1" stroke="none" stroke-width="1" fill="none" fill-rule="evenodd">
        <g id="backblaze-b2-logo" transform="translate(0.316101, 0.152172)" fill="#CC0404" fill-rule="nonzero">
            <path d="M81.2578019,165.637575 C127.334386,116.234162 137.231702,87.7066018 128.415605,31.7327014 C121.845118,-6.6921753 121.845118,-6.6921753 143.80219,13.0192874 C197.613651,61.3414808 207.510968,112.907333 181.145847,190.921476 C165.759262,233.671231 165.759262,244.649767 181.145847,294.05318 C194.286822,340.212934 195.451212,354.435129 183.308286,378.637811 C171.24853,402.757322 162.515604,407.165371 122.926337,406.084151 C38.4248767,405.002932 -8.81609724,326.988788 25.2839015,246.895376 C34.016828,226.019524 59.3007296,189.757086 81.2578019,165.637575 Z M214.081456,295.21757 C194.286822,229.346353 198.694871,204.062451 238.200967,151.332209 C252.506332,132.701966 266.811698,116.234162 268.974137,116.234162 C271.136576,116.234162 270.055356,143.680502 266.811698,176.616111 C260.158039,235.91684 260.158039,236.99806 311.807062,287.482692 C340.334622,314.929033 368.862182,350.110251 374.35145,365.413665 C410.613888,460.976832 331.518525,553.21317 243.690235,515.869513 C199.77609,497.156099 189.961944,459.895613 213.000236,400.594883 C229.46804,358.843177 229.46804,350.110251 214.081456,295.21757 Z M58.2195101,553.21317 C31.8543891,526.099513 12.4756093,483.266587 3.69482223e-13,424.714394 L3.69482223e-13,394.024395 C30.9395111,409.161468 48.1558519,417.561712 51.5658518,419.225126 C79.0121922,433.530492 114.19341,445.590247 128.415605,445.590247 C146.0478,445.590247 154.780726,453.241954 160.269994,471.955368 C172.32975,522.440001 215.162675,549.886341 279.952673,548.805122 C329.356086,548.805122 337.007793,550.967561 327.193647,564.191706 C272.300966,630.062924 127.334386,624.573655 58.2195101,553.21317 Z" id="Combined-Shape"></path>
        </g>
    </g>
</svg>