<?xml version="1.0" encoding="UTF-8"?>
<svg width="66px" height="66px" viewBox="0 0 66 66" version="1.1" xmlns="http://www.w3.org/2000/svg" xmlns:xlink="http://www.w3.org/1999/xlink">
    <!-- Generator: Sketch 54.1 (76490) - https://sketchapp.com -->
    <title>bluemix</title>
    <desc>Created with Sketch.</desc>
    <g id="Page-1" stroke="none" stroke-width="1" fill="none" fill-rule="evenodd">
        <g id="bluemix" fill-rule="nonzero">
            <path d="M20,32.9 C20,35.3 20.5,37.6 21.4,39.8 C22.3,41.9 23.6,43.8 25.2,45.5 C25.6,45.9 25.9,46.2 26.3,46.5 L26.3,19.2 C25.9,19.5 25.5,19.9 25.2,20.2 C23.6,21.8 22.3,23.7 21.4,25.9 C20.4,28.1 20,30.4 20,32.9 Z" id="Path" fill="#1D3649"></path>
            <path d="M50.4,20.2 C48.8,18.6 46.9,17.3 44.7,16.4 C42.5,15.5 40.2,15 37.8,15 C35.7,15 33.7,15.4 31.7,16.1 L55.4,29.8 C55.2,28.5 54.8,27.2 54.3,26 C53.4,23.8 52.1,21.9 50.4,20.2 L50.4,20.2 Z M29.5,17 C29.5,17 29.5,17.1 29.5,17 L38.2,32.1 L55.6,32.1 L55.6,31.5 L30.1,16.8 C29.9,16.9 29.7,17 29.5,17 Z" id="Shape" fill="#00B4A0"></path>
            <path d="M55.7,33.6 L38.3,33.6 L29.6,48.7 C29.8,48.8 29.9,48.9 30.1,49 L55.7,34.2 C55.6,34 55.6,33.8 55.7,33.6 L55.7,33.6 Z M44.8,49.3 C46.9,48.4 48.8,47.1 50.5,45.5 C52.1,43.9 53.4,42 54.3,39.8 C54.8,38.6 55.2,37.3 55.4,35.9 L31.7,49.6 C33.7,50.3 35.7,50.7 37.8,50.7 C40.2,50.7 42.6,50.2 44.8,49.3 L44.8,49.3 Z" id="Shape" fill="#5AAAFA"></path>
            <path d="M36.9,32.9 L28.2,17.8 C28.1,17.8 27.7,18.1 27.7,18.1 L27.7,47.6 C27.9,47.7 28,47.8 28.2,47.9 L36.9,32.9 L36.9,32.9 Z" id="Path" fill="#1D3649"></path>
            <path d="M37.8,13.6 C47.7,13.6 55.8,21 56.9,30.6 C56.9,30.9 57,31.1 57,31.4 L65.8,16.2 L56.6,0.3 L38.2,0.3 L29.4,15.6 C29.7,15.5 29.9,15.3 30.2,15.2 C32.5,14.2 35.1,13.6 37.8,13.6 Z" id="Path" fill="#00B4A0"></path>
            <path d="M57,34.2 C57,34.5 57,34.8 56.9,35 C55.8,44.6 47.7,52 37.8,52 C35.1,52 32.5,51.4 30.2,50.4 C29.9,50.3 29.7,50.2 29.4,50 L38.2,65.3 L56.6,65.3 L65.8,49.4 L57,34.2 Z" id="Path" fill="#5AAAFA"></path>
            <path d="M27.1,16.9 L9.4,16.9 L0.2,32.8 L9.4,48.7 L27,48.7 C26.8,48.5 26.5,48.4 26.3,48.2 C21.6,44.7 18.6,39.1 18.6,32.8 C18.6,26.5 21.6,20.9 26.3,17.4 C26.6,17.3 26.8,17.1 27.1,16.9 Z" id="Path" fill="#1D3649"></path>
        </g>
    </g>
</svg>