<?xml version="1.0" encoding="UTF-8"?>
<svg width="32px" height="32px" viewBox="0 0 32 32" version="1.1" xmlns="http://www.w3.org/2000/svg" xmlns:xlink="http://www.w3.org/1999/xlink">
    <!-- Generator: Sketch 54.1 (76490) - https://sketchapp.com -->
    <title>captains_log</title>
    <desc>Created with Sketch.</desc>
    <g id="Page-1" stroke="none" stroke-width="1" fill="none" fill-rule="evenodd">
        <g id="captains_log" fill="#CC0000" fill-rule="nonzero">
            <path d="M16,0 C7.2,0 0,7.2 0,16 C0,24.8 7.2,32 16,32 C24.8,32 32,24.8 32,16 C32,7.2 24.8,0 16,0 M16,26.7 C10.1,26.7 5.2,21.8 5.2,15.9 C5.2,10 10.1,5 16,5 C21.9,5 26.7,9.9 26.7,15.8 C26.7,21.7 21.9,26.7 16,26.7" id="Shape"></path>
            <path d="M16,10.5 C13,10.5 10.5,12.9 10.5,16 C10.5,19.1 12.9,21.5 16,21.5 C19.1,21.5 21.5,19.1 21.5,16 C21.5,12.9 19,10.5 16,10.5" id="Path"></path>
        </g>
    </g>
</svg>