<?xml version="1.0" encoding="UTF-8"?>
<svg width="283px" height="284px" viewBox="0 0 283 284" version="1.1" xmlns="http://www.w3.org/2000/svg" xmlns:xlink="http://www.w3.org/1999/xlink">
    <!-- Generator: Sketch 54.1 (76490) - https://sketchapp.com -->
    <title>chef_supermarket</title>
    <desc>Created with Sketch.</desc>
    <g id="Page-1" stroke="none" stroke-width="1" fill="none" fill-rule="evenodd">
        <g id="chef_supermarket" fill-rule="nonzero">
            <path d="M141.7,206.2 C106.5,206.2 77.9,177.6 77.9,142.4 C77.9,107.2 106.5,78.6 141.7,78.6 C170.7,78.6 195.3,98.1 203,124.7 L227.7,124.7 C219.5,84.8 184.1,54.7 141.7,54.7 C93.3,54.7 54,94.1 54,142.4 C54,190.8 93.4,230.1 141.7,230.1 C184,230.1 219.4,200 227.7,160.1 L202.9,160.1 C195.2,186.7 170.7,206.2 141.7,206.2" id="Path" fill="#435363"></path>
            <path d="M98.7,185.4 C109.7,196.4 124.9,203.2 141.7,203.2 L141.7,177.8 C131.9,177.8 123.1,173.8 116.7,167.4 L98.7,185.4 Z" id="Path" fill="#435363"></path>
            <path d="M80.8,142.4 C80.8,151.1 82.7,159.4 86,166.9 L109.3,156.7 C107.4,152.3 106.3,147.5 106.3,142.4 C106.3,122.8 122.2,107 141.7,107 L141.7,81.6 C108.1,81.6 80.8,108.9 80.8,142.4" id="Path" fill="#F38B00"></path>
            <path d="M163.7,85.7 L154.5,109.4 C162,112.3 168.3,117.8 172.3,124.7 L199.9,124.7 C194.4,106.9 181,92.5 163.7,85.7" id="Path" fill="#435363"></path>
            <path d="M154.5,175.4 L163.7,199.1 C181,192.4 194.4,178 199.8,160.1 L172.3,160.1 C168.3,167 162,172.5 154.5,175.4" id="Path" fill="#F38B00"></path>
            <path d="M141.7,260 C109.3,260 79.9,246.8 58.6,225.5 L41.6,242.5 C67.2,268.1 102.6,284 141.7,284 C213.9,284 273.5,229.9 282.2,160.1 L257.9,160.1 C249.4,216.6 200.5,260 141.7,260" id="Path" fill="#F38B00"></path>
            <path d="M141.7,24.8 C168,24.8 192.4,33.5 212,48.2 L226.4,28.9 C202.7,11.3 173.4,0.8 141.7,0.8 C81.6,0.8 30.3,38.2 9.7,91.1 L32.1,99.8 C49.2,55.9 91.9,24.8 141.7,24.8" id="Path" fill="#F38B00"></path>
            <path d="M257.9,124.7 L282.2,124.7 C279.6,103.9 272.5,84.4 261.8,67.4 L241.4,80.1 C249.7,93.5 255.5,108.6 257.9,124.7" id="Path" fill="#435363"></path>
            <path d="M230.6,124.7 L254.9,124.7 C248.6,83.9 220.6,50.2 183.2,35.6 L174.5,57.9 C203,69 224.5,94.1 230.6,124.7" id="Path" fill="#F38B00"></path>
            <path d="M141.7,51.7 L141.7,51.7 L141.7,27.7 L141.7,27.7 C93.1,27.7 51.5,58.1 34.9,100.8 L57.2,109.5 C70.3,75.7 103.2,51.7 141.7,51.7" id="Path" fill="#435363"></path>
            <path d="M51,142.4 L51,142.4 L27,142.4 L27,142.4 C27,190.6 56.9,231.9 99.1,248.8 L108,226.6 C74.6,213.2 51,180.5 51,142.4" id="Path" fill="#F38B00"></path>
            <path d="M141.7,233.1 L141.7,257.1 C198.9,257.1 246.4,215 255,160.1 L230.7,160.1 C222.4,201.7 185.6,233.1 141.7,233.1" id="Path" fill="#435363"></path>
            <path d="M12,199.4 C4,181.3 0,161.8 0,142.4 L24.1,142.4 C24.1,158.5 27.4,174.7 34,189.7 L12,199.4 Z" id="Path" fill="#435363"></path>
        </g>
    </g>
</svg>