<?xml version="1.0" encoding="UTF-8"?>
<svg width="2501px" height="795px" viewBox="0 0 2501 795" version="1.1" xmlns="http://www.w3.org/2000/svg" xmlns:xlink="http://www.w3.org/1999/xlink">
    <!-- Generator: Sketch 54.1 (76490) - https://sketchapp.com -->
    <title>clair</title>
    <desc>Created with Sketch.</desc>
    <g id="Page-1" stroke="none" stroke-width="1" fill="none" fill-rule="evenodd">
        <g id="clair" transform="translate(-6.000000, 0.000000)" fill-rule="nonzero">
            <path d="M1166.66667,210.416667 C1229.86111,210.416667 1273.61111,236.805556 1306.25,267.361111 L1265.97222,319.444444 C1237.5,295.138889 1207.63889,277.083333 1169.44444,277.083333 C1082.63889,277.083333 1020.13889,352.083333 1020.13889,461.805556 C1020.13889,570.833333 1079.86111,644.444444 1167.36111,644.444444 C1212.5,644.444444 1250.69444,621.527778 1279.16667,596.527778 L1315.27778,649.305556 C1272.22222,687.5 1216.66667,711.111111 1159.72222,711.111111 C1032.63889,711.111111 935.416667,619.444444 935.416667,461.111111 C936.805556,302.083333 1043.75,210.416667 1166.66667,210.416667 L1166.66667,210.416667 Z M1379.16667,0 L1459.72222,0 L1459.72222,609.722222 C1459.72222,635.416667 1470.83333,645.138889 1482.63889,645.138889 C1487.5,645.138889 1491.66667,645.138889 1500,643.055556 L1511.11111,704.166667 C1500,709.027778 1486.80556,711.805556 1464.58333,711.805556 C1403.47222,711.805556 1379.16667,673.611111 1379.16667,603.472222 L1379.16667,0 Z M1858.33333,397.222222 C1858.33333,336.111111 1837.5,277.083333 1759.72222,277.083333 C1703.47222,277.083333 1654.86111,302.777778 1617.36111,328.472222 L1584.72222,272.222222 C1629.16667,243.75 1695.83333,210.416667 1772.22222,210.416667 C1888.88889,210.416667 1938.19444,288.194444 1938.19444,406.944444 L1938.19444,700 L1871.52778,700 L1864.58333,643.055556 L1862.5,643.055556 C1815.97222,680.555556 1763.19444,711.805556 1704.16667,711.805556 C1623.61111,711.805556 1563.88889,661.805556 1563.88889,576.388889 C1564.58333,471.527778 1654.86111,419.444444 1858.33333,397.222222 L1858.33333,397.222222 Z M1727.77778,646.527778 C1774.30556,646.527778 1812.5,623.611111 1858.33333,582.638889 L1858.33333,450 C1697.91667,469.444444 1643.75,509.027778 1643.75,570.138889 C1644.44444,624.305556 1680.55556,646.527778 1727.77778,646.527778 Z M2036.11111,71.5277778 C2036.11111,40.2777778 2060.41667,19.4444444 2092.36111,19.4444444 C2123.61111,19.4444444 2148.61111,40.2777778 2148.61111,71.5277778 C2148.61111,102.083333 2124.30556,123.611111 2092.36111,123.611111 C2061.11111,123.611111 2036.11111,102.083333 2036.11111,71.5277778 Z M2051.38889,222.222222 L2131.94444,222.222222 L2131.94444,700 L2051.38889,700 L2051.38889,222.222222 Z M2243.75,222.222222 L2310.41667,222.222222 L2317.36111,309.027778 L2320.13889,309.027778 C2352.77778,249.305556 2401.38889,210.416667 2455.55556,210.416667 C2476.38889,210.416667 2490.97222,213.194444 2506.94444,220.138889 L2490.97222,290.972222 C2475,286.111111 2464.58333,283.333333 2444.44444,283.333333 C2404.16667,283.333333 2356.25,312.5 2323.61111,393.75 L2323.61111,700.694444 L2243.05556,700.694444 L2243.05556,222.222222 L2243.75,222.222222 Z" id="Shape" fill="#000000"></path>
            <g id="Group" transform="translate(0.000000, 76.388889)">
                <path d="M370.833333,0.694444444 C172.916667,-2.08333333 9.72222222,156.25 6.94444444,354.166667 C4.16666667,552.083333 162.5,715.277778 361.111111,718.055556 L659.027778,718.055556 C702.777778,718.055556 725.694444,695.833333 725.694444,654.861111 L725.694444,361.805556 C726.388889,165.277778 568.75,3.47222222 370.833333,0.694444444 Z M361.111111,634.722222 C209.722222,632.638889 88.8888889,508.333333 90.9722222,356.944444 C93.0555556,205.555556 217.361111,84.7222222 368.75,86.8055556 C520.138889,88.8888889 640.972222,213.194444 638.888889,364.583333 C636.805556,515.972222 512.5,636.805556 361.111111,634.722222 Z" id="Shape" fill="#56A3D9"></path>
                <path d="M268.75,314.583333 C277.777778,295.138889 293.055556,278.472222 313.194444,267.361111 C332.638889,256.944444 354.166667,252.777778 374.305556,254.861111 L403.472222,147.916667 C356.25,139.583333 305.555556,145.833333 260.416667,171.527778 C213.194444,197.916667 179.861111,238.888889 162.5,285.416667 L268.75,314.583333 L268.75,314.583333 Z M318.75,457.638889 C299.305556,448.611111 281.944444,433.333333 270.833333,413.194444 C260.416667,393.75 256.25,372.222222 258.333333,352.083333 L151.388889,322.916667 C142.361111,370.138889 149.305556,420.833333 175,466.666667 C201.388889,513.194444 243.055556,546.527778 289.583333,563.888889 L318.75,457.638889 L318.75,457.638889 Z" id="Shape" fill="#56A3D9"></path>
                <path d="M461.111111,406.944444 C452.083333,426.388889 436.805556,443.75 416.666667,454.861111 C397.222222,465.277778 376.388889,469.444444 356.25,467.361111 L326.388889,574.305556 C373.611111,582.638889 424.305556,575.694444 469.444444,550.694444 C516.666667,524.305556 550,483.333333 567.361111,436.111111 L461.111111,406.944444 L461.111111,406.944444 Z" id="Path" fill="#F1626E"></path>
            </g>
        </g>
    </g>
</svg>