<?xml version="1.0" encoding="UTF-8"?>
<svg width="281px" height="421px" viewBox="0 0 281 421" version="1.1" xmlns="http://www.w3.org/2000/svg" xmlns:xlink="http://www.w3.org/1999/xlink">
    <!-- Generator: Sketch 54.1 (76490) - https://sketchapp.com -->
    <title>cloudfoundry</title>
    <desc>Created with Sketch.</desc>
    <g id="Page-1" stroke="none" stroke-width="1" fill="none" fill-rule="evenodd">
        <g id="cloudfoundry" fill="#008CDB" fill-rule="nonzero">
            <path d="M75.2,129.8 C75.1,146 82.9,160.6 95.6,171 C111.3,183.8 124.2,209.6 124.9,237.9 C125.7,269.2 123.6,305.5 122.3,323.9 C105.5,326.3 93.7,331.9 93.7,338.4 C93.7,347.1 114.6,357.1 140.3,357.1 C166,357.1 186.9,347.1 186.9,338.4 C186.9,331.9 175.1,326.3 158.3,323.9 C157,305.5 154.8,269.2 155.7,237.9 C156.5,209.7 169.3,183.8 185,171 C197.7,160.7 205.5,146 205.4,129.8 C205.1,99 176,74.1 140.3,74.1 C104.6,74.1 75.4,99 75.2,129.8 L75.2,129.8 Z M264.2,353.2 C266.7,352.2 269.3,351.4 271.9,351 C274.8,350.4 277.8,350 280.8,349.9 C280.8,349.9 280.7,348.9 280.4,347.4 C280.1,345.5 279.6,343.7 278.9,342 C278.5,341 278.2,340.1 277.9,339.2 C277.6,338.3 277,337.5 276.7,336.8 L275.4,334.5 C272.3,334 269.2,333.3 266.2,332.4 C263.4,331.6 260.6,330.7 257.9,329.5 C253.2,327.4 248.8,325.1 246.4,322.5 C244.2,320.8 243,318.1 243.2,315.3 C243.4,314.1 243.9,313 244.7,312.1 C245.6,311 246.8,310.1 248,309.5 L245.2,307.9 C244.4,307.4 243.4,306.9 242.4,306.4 L239,305 C236.6,303.9 234.3,302.8 232.4,302 L229.3,300.7 C226.9,301 224.5,301.2 222.1,301.2 C219.5,301.2 216.9,301.2 214.3,301 C209.4,300.7 204.4,299.8 199.7,298.5 C197.6,298 195.6,297.3 193.7,296.4 C192.1,295.8 190.6,295 189.2,294 C186.8,292.3 185.2,290.6 185.3,288.8 L181.8,288.2 C179.6,287.8 174.9,287.2 172,286.8 C171.9,287.3 171.6,287.8 171.5,288.6 L170.7,292.2 C169.1,299.5 173.4,306.8 180.5,308.9 C198,314 211.2,322.4 215,332.7 C222.7,353.5 190.3,373.9 141,373.9 C91.7,373.9 59.3,353.6 67,332.7 C70.7,322.7 83.4,314.4 100.3,309.3 C107.8,307 112.2,299.4 110.6,291.7 L109.6,286.7 C107.6,286.9 105.4,287.2 103,287.5 C100.1,287.8 97.3,288.3 95.1,288.7 L91.5,289.3 C91.7,291 90.4,292.9 88.1,294.5 C86.8,295.4 85.4,296.3 83.9,297 C82,297.8 80.1,298.6 78.1,299.2 C75.8,299.9 73.5,300.4 71.1,300.8 C68.6,301.3 66.1,301.6 63.5,301.8 C58.4,302.3 53.3,302.3 48.2,301.7 L47.3,302.1 C46.8,302.3 45.9,302.6 45.1,303.1 L38.6,306.2 C36.3,307.4 34.2,308.6 32.5,309.6 L30.5,310.7 L29.8,311.2 C33.1,312.7 34.9,314.8 35.3,317 C36.1,319.3 35,321.8 32.8,324.4 C31.4,325.8 29.8,327.1 28.2,328.2 C26.1,329.6 23.9,330.8 21.6,331.7 C16,334.2 10.1,336.1 4.1,337.1 C3.7,337.8 3.3,338.6 3.1,339.4 C2.6,340.8 1.9,342.7 1.2,344.7 C0.9,346.7 0.6,348.7 0.4,350.2 C0.2,351 0.2,351.9 0.2,352.7 C6.1,352.7 12,353.7 17.5,355.7 C21.8,357 25.7,359.6 28.4,363.2 C30.3,366.6 31.1,370.2 29.4,374.4 C28.2,378.5 24.9,383 19.5,387.1 L20.3,387.8 L22.7,389.6 C24.8,391.1 27.6,393.1 30.7,395 L40,400.1 C41.3,400.8 42.6,401.3 43.4,401.7 L44.7,402.3 C52.4,399.2 60.5,397.2 68.7,396.5 C72.7,396.1 76.7,396 80.6,396.2 C84.5,396.3 88.4,396.8 92.2,397.6 C95.8,398.4 99.2,399.5 102.6,400.9 C105.6,402.3 108.6,404 111.3,405.9 C116.7,409.6 120.8,414.8 122.6,420.2 L129.5,420.5 C133.7,420.6 139.2,421 144.8,420.7 C150.4,420.4 155.9,420.4 160,420.2 L166.8,419.6 C167.4,416.7 168.6,414 170.4,411.7 C171.3,410.5 172.2,409.3 173.3,408.3 C174.4,407.2 175.5,406.1 176.7,405.1 C179.2,403.1 182,401.4 185,400.1 C188.2,398.5 191.5,397.3 195,396.5 C198.7,395.7 202.5,395.1 206.3,394.7 C210.3,394.5 214.2,394.5 218.2,394.7 C226.5,395.2 234.7,396.9 242.5,399.8 L246.7,397.4 C249.7,395.8 252.5,394.1 255.2,392.1 C257.9,390.1 260.8,388.2 262.5,386.6 L265.3,384 C260.6,380.9 256.8,376.7 254.3,371.8 C253.5,370 253,368.1 253,366.1 C252.8,364.3 253.3,362.4 254.3,360.9 C256.1,357.6 259.9,355.2 264.2,353.2 L264.2,353.2 Z M97.6,250.9 C97.6,250.9 104.9,223.2 73.1,187.4 L72,186.3 C40.6,149.1 45.3,93.5 82.5,62.1 C98.4,48.6 118.6,41.3 139.5,41.3 L141.5,41.3 C190.2,41.2 229.7,80.5 229.8,129.2 C229.8,150.1 222.5,170.3 209,186.2 C208.9,186.4 208.5,186.8 207.9,187.3 C179.7,215.6 183.4,250.8 183.4,250.8 C235,233 269.7,184.7 270.1,130.1 C270.5,62.1 215.6,4.1 147.8,0.9 L145.3,0.9 C144.3,0.9 140.5,1 140.5,1 C140.5,1 136.7,0.9 135.7,0.9 L133.2,0.9 C65.4,4.2 10.5,62.1 10.8,130.1 C11.2,184.8 46,233.2 97.6,250.9 L97.6,250.9 Z" id="Shape"></path>
        </g>
    </g>
</svg>