<?xml version="1.0" encoding="UTF-8"?>
<svg width="199px" height="40px" viewBox="0 0 199 40" version="1.1" xmlns="http://www.w3.org/2000/svg" xmlns:xlink="http://www.w3.org/1999/xlink">
    <!-- Generator: Sketch 54.1 (76490) - https://sketchapp.com -->
    <title>codacy</title>
    <desc>Created with Sketch.</desc>
    <g id="Page-1" stroke="none" stroke-width="1" fill="none" fill-rule="evenodd">
        <g id="codacy" transform="translate(-13.000000, 0.000000)" fill="#000000" fill-rule="nonzero">
            <path d="M77.8,26.91 C74.2357529,26.7716022 71.4176335,23.8419331 71.4176335,20.275 C71.4176335,16.7080669 74.2357529,13.7783978 77.8,13.64 C79.6728898,13.6106776 81.4520174,14.4577051 82.61,15.93 L80.71,17.63 C79.9885995,16.7502046 78.9266766,16.2192432 77.79,16.17 C75.6311716,16.3206872 73.9568798,18.1159189 73.9568798,20.28 C73.9568798,22.4440811 75.6311716,24.2393128 77.79,24.39 C78.9664237,24.3463114 80.0638685,23.7866146 80.79,22.86 L82.79,24.48 C81.6117543,26.0423266 79.7564882,26.9457929 77.8,26.91 L77.8,26.91 Z" id="Path"></path>
            <path d="M97.52,20.26 C97.6296049,16.727178 100.562071,13.9406195 104.095886,14.0113032 C107.629701,14.0819869 110.448392,16.9835806 110.416638,20.5179597 C110.384884,24.0523388 107.514514,26.9028203 103.98,26.91 C100.360793,26.8551692 97.4699252,23.8792755 97.52,20.26 L97.52,20.26 Z M107.76,20.26 C107.565428,18.2101173 105.777377,16.6857257 103.722526,16.8178767 C101.667674,16.9500277 100.089618,18.6908993 100.159226,20.7488187 C100.228833,22.8067382 101.920916,24.4369998 103.98,24.43 C105.046813,24.4143027 106.059276,23.9566101 106.775837,23.1661186 C107.492398,22.375627 107.848795,21.323227 107.76,20.26 L107.76,20.26 Z" id="Shape"></path>
            <path d="M126.08,26.72 L126.08,13.8 L130.03,13.8 C134.03,13.8 136.51,15.67 136.51,20.1 C136.51,24.33 134.03,26.73 130.51,26.73 L126.06,26.73 L126.08,26.72 Z M133.92,20.07 C133.92,17.21 132.57,16.23 130.03,16.23 L128.67,16.23 L128.67,24.3 L130.46,24.3 C132.73,24.3 133.95,22.7 133.95,20.07 L133.92,20.07 Z" id="Shape"></path>
            <path d="M158.31,23.66 L154.54,23.66 L153.66,26.73 L150.95,26.73 L155.01,13.81 L157.86,13.81 L161.91,26.73 L159.18,26.73 L158.31,23.66 Z M155.13,21.59 L157.71,21.59 L157.33,20.2 C156.99,18.93 156.56,17.41 156.41,16.58 C156.175482,17.8020097 155.875043,19.0104412 155.51,20.2 L155.13,21.59 Z" id="Shape"></path>
            <path d="M182.53,26.91 C178.965753,26.7716022 176.147633,23.8419331 176.147633,20.275 C176.147633,16.7080669 178.965753,13.7783978 182.53,13.64 C184.40289,13.6106776 186.182017,14.4577051 187.34,15.93 L185.44,17.63 C184.718599,16.7502046 183.656677,16.2192432 182.52,16.17 C180.361172,16.3206872 178.68688,18.1159189 178.68688,20.28 C178.68688,22.4440811 180.361172,24.2393128 182.52,24.39 C183.696424,24.3463114 184.793869,23.7866146 185.52,22.86 L187.52,24.48 C186.341754,26.0423266 184.486488,26.9457929 182.53,26.91 L182.53,26.91 Z" id="Path"></path>
            <path d="M205.63,26.72 L205.63,21.27 L202.08,13.79 L204.95,13.79 L206.51,17.69 C206.666088,18.0593341 206.802938,18.4365062 206.92,18.82 C207.030205,18.4342514 207.167204,18.0566669 207.33,17.69 L209.07,13.79 L211.95,13.79 L208.2,21.29 L208.2,26.72 L205.65,26.72 L205.63,26.72 Z" id="Path"></path>
            <path d="M19.48,16.37 C20.4429042,12.7826067 22.7919401,9.72490307 26.01,7.87 L23.01,2.67 C18.4128278,5.31891101 15.0565969,9.68596808 13.68,14.81 L19.48,16.37 Z" id="Path"></path>
            <path d="M29.4,6.47 C30.5812253,6.15724803 31.7980726,5.99925956 33.02,6 L33.02,-1.87976266e-05 C31.2748668,-0.0023884598 29.5368751,0.222844505 27.85,0.67 L29.4,6.47 Z" id="Path"></path>
            <path d="M36.66,6.48 C40.2419579,7.44286748 43.2954301,9.78781906 45.15,13 L50.35,10 C47.6963929,5.41311489 43.3356317,2.06255477 38.22,0.68 L36.66,6.48 Z" id="Path"></path>
            <path d="M13,20 C13.0000734,21.7456242 13.2286827,23.483727 13.68,25.17 L19.48,23.62 C19.1660164,22.439017 19.0080069,21.2220076 19.01,20 L13.01,20 L13,20 Z" id="Path"></path>
            <path d="M15.68,30 C16.5552993,31.5094928 17.6243764,32.8979482 18.86,34.13 L23.11,29.89 C22.245594,29.0264721 21.4960867,28.0551376 20.88,27 L15.68,30 Z" id="Path"></path>
            <path d="M23.01,37.32 C26.0483241,39.0803931 29.4985371,40.0050501 33.01,40.0000206 L33.01,34 C30.5526293,34.0045505 28.1377229,33.3594255 26.01,32.13 L23.01,37.32 Z" id="Path"></path>
            <path d="M45.14,27 C43.2811068,30.2104824 40.2239543,32.5519015 36.64,33.51 L38.19,39.31 C43.3076323,37.9322093 47.6720713,34.5851807 50.33,30 L45.14,27 Z" id="Path"></path>
            <path d="M52.35,25.37 C53.2617267,21.9734523 53.2617267,18.3965477 52.35,15 L46.53,16.55 C47.1683876,18.9278989 47.1683876,21.4321011 46.53,23.81 L52.35,25.37 Z" id="Path"></path>
        </g>
    </g>
</svg>