<?xml version="1.0" encoding="UTF-8"?>
<svg width="605px" height="106px" viewBox="0 0 605 106" version="1.1" xmlns="http://www.w3.org/2000/svg" xmlns:xlink="http://www.w3.org/1999/xlink">
    <!-- Generator: Sketch 54.1 (76490) - https://sketchapp.com -->
    <title>coveralls</title>
    <desc>Created with Sketch.</desc>
    <g id="Page-1" stroke="none" stroke-width="1" fill="none" fill-rule="evenodd">
        <g id="coveralls" transform="translate(-1.000000, -1.000000)" fill="#354A57" fill-rule="nonzero">
            <path d="M64.3,32.8 C62.8333594,31.0828008 61.1136226,29.5991063 59.2,28.4 C57.1192205,27.2628783 54.7695127,26.7100058 52.4,26.8 C49.1111485,26.7283355 45.8748465,27.6331081 43.1,29.4 C40.5224956,31.1943917 38.3154797,33.4693157 36.6,36.1 C34.78446,38.8163008 33.3699165,41.7801062 32.4,44.9 C31.43124,47.803466 30.6955746,50.7795668 30.2,53.8 C30,55.2 29.9,56.5 29.7,57.9 C29.5,59.3 29.5,60.6 29.5,62.1 C29.4753636,64.4519684 29.7101151,66.7994838 30.2,69.1 C30.565365,71.2163427 31.3107082,73.2490971 32.4,75.1 C33.3715811,76.8713142 34.8286858,78.3284189 36.6,79.3 C38.6580543,80.4020123 40.9660784,80.9531822 43.3,80.9 C46.1266062,80.9594775 48.9300032,80.3782855 51.5,79.2 C54.1431563,77.8900888 56.6262595,76.2794273 58.9,74.4 L52.9,102.9 C50.1340839,104.118323 47.2530171,105.056345 44.3,105.7 C41.4407113,106.311408 38.5238979,106.613148 35.6,106.6 C30.9576753,106.64285 26.3472491,105.829245 22,104.2 C17.8411984,102.605042 14.0853334,100.112513 11,96.9 C7.72424876,93.3623514 5.23615849,89.1700898 3.7,84.6 C1.79474921,79.0702495 0.880721512,73.2475545 1,67.4 C1,65.3 1.1,63.3 1.3,61.2 C1.5,59.1 1.7,56.9 2.1,54.6 C3.06131341,47.7882419 4.91036174,41.1316679 7.6,34.8 C9.81638778,29.6825282 12.6363812,24.8482537 16,20.4 C18.9118006,16.6893024 22.3477552,13.421777 26.2,10.7 C29.5357973,8.36815843 33.1254277,6.42237746 36.9,4.9 C40.1138616,3.56089523 43.4683455,2.58809489 46.9,2 C49.5764705,1.53316605 52.2839176,1.26576387 55,1.2 C57.4080457,1.2172169 59.8126888,1.384206 62.2,1.7 C64.4665934,2.07366698 66.6816627,2.71133844 68.8,3.6 L64.3,32.8 Z" id="Path"></path>
            <path d="M67,53.9 C68.0564843,47.5087597 69.7654183,41.2426683 72.1,35.2 C74.3829301,29.0828268 77.5865139,23.3500978 81.6,18.2 C85.4521751,13.2565773 90.2017867,9.08370435 95.6,5.9 C101.255605,2.66701065 107.68747,1.0417546 114.2,1.2 C120,1.2 124.9,2.3 128.9,4.5 C132.834682,6.63032589 136.223058,9.64221575 138.8,13.3 C141.385569,17.2026009 143.248529,21.5382165 144.3,26.1 C145.424735,30.9870112 145.995002,35.9852335 146,41 C146,43.2 145.9,45.3 145.7,47.5 C145.5,49.7 145.2,51.8 144.9,53.8 C143.855987,60.1939578 142.146706,66.461322 139.8,72.5 C137.51707,78.6171732 134.313486,84.3499022 130.3,89.5 C126.447825,94.4434227 121.698213,98.6162956 116.3,101.8 C110.644395,105.032989 104.21253,106.658245 97.7,106.5 C91.8,106.5 86.9,105.4 82.9,103.2 C79.0239204,101.064271 75.7018849,98.050466 73.2,94.4 C70.6064578,90.5133665 68.7740412,86.1698605 67.8,81.6 C66.6640821,76.6471582 66.0937681,71.5814282 66.1,66.5 C66.1,64.4 66.2,62.3 66.3,60.2 C66.4,58.1 66.7,56 67,53.9 Z M95.1,53.9 C94.9,55.2 94.7,56.9 94.4,59.2 C94.1088192,61.5886225 93.9751969,63.9938228 94,66.4 C93.9974015,68.1709822 94.0975698,69.9406232 94.3,71.7 C94.4615493,73.3180664 94.8660946,74.9025352 95.5,76.4 C96.0136753,77.6821632 96.8384798,78.8162694 97.9,79.7 C98.9481657,80.6131747 100.312134,81.0797954 101.7,81 C103.403784,81.0213684 105.063144,80.4564799 106.4,79.4 C107.873651,78.3002725 109.100087,76.9034982 110,75.3 C111.038673,73.5380587 111.941297,71.699381 112.7,69.8 C113.5,67.8 114.1,65.8 114.7,63.8 C115.3,61.8 115.7,60 116,58.2 C116.3,56.4 116.6,55 116.7,53.9 C116.9,52.6 117.1,50.9 117.4,48.6 C117.722734,46.2133932 117.889754,43.8083073 117.9,41.4 C117.902599,39.6290178 117.80243,37.8593768 117.6,36.1 C117.426244,34.5163926 117.021971,32.9666818 116.4,31.5 C115.886325,30.2178368 115.06152,29.0837306 114,28.2 C112.942988,27.3022747 111.585395,26.8378348 110.2,26.9 C108.496216,26.8786316 106.836856,27.4435201 105.5,28.5 C104.026349,29.5997275 102.799913,30.9965018 101.9,32.6 C100.861327,34.3619413 99.9587033,36.200619 99.2,38.1 C98.4,40.1 97.8,42.1 97.2,44.1 C96.6,46.1 96.2,47.9 95.8,49.7 C95.4,51.5 95.3,52.8 95.1,53.9 L95.1,53.9 Z" id="Shape"></path>
            <path d="M156.8,104.8 L149.2,3 L178.1,3 L178.1,44.9 C178,49 177.9,53.1 177.7,57.2 C177.5,61.3 177.3,65.4 177.2,69.5 L177.5,69.5 C178.8,65.4 179.9,61.3 180.9,57.2 C181.9,53.1 183.1,49.1 184.5,44.9 L198.5,3 L228.4,3 L184.9,104.8 L156.8,104.8 Z" id="Path"></path>
            <polygon id="Path" points="232.2 3 283.4 3 279.8 27 256.2 27 253.9 41.2 275.1 41.2 271.3 65.2 250.1 65.2 247.7 80.7 271.3 80.7 267.7 104.7 216.5 104.7"></polygon>
            <path d="M316.8,104.8 L308.2,62.4 L307.8,62.7 C307.5,65.2 307.3,67.7 307,70.2 C306.7,72.7 306.4,75.2 305.9,77.7 L301.7,104.8 L274.1,104.8 L290,3 L316.6,3 C321.525683,2.96883745 326.444585,3.37038044 331.3,4.2 C335.38109,4.86060104 339.310222,6.24934582 342.9,8.3 C346.100042,10.1989709 348.726278,12.9288733 350.5,16.2 C352.3,19.5 353.2,23.8 353.2,28.9 C353.2,30.2 353.1,31.4 353,32.7 C352.9,34 352.7,35.4 352.5,36.8 C351.630875,42.3213641 349.547474,47.5810985 346.4,52.2 C343.062427,56.9334629 338.296145,60.4731282 332.8,62.3 L346.7,104.7 L316.8,104.8 L316.8,104.8 L316.8,104.8 Z M312,50.1 C313.727048,50.1033349 315.433812,49.7278469 317,49 C318.508495,48.3013907 319.866972,47.3164944 321,46.1 C322.125032,44.837737 323.067539,43.423977 323.8,41.9 C324.48068,40.3621626 324.983926,38.7517768 325.3,37.1 C325.415629,36.6077563 325.482617,36.1053432 325.5,35.6 C325.5,35.2 325.6,34.7 325.6,34.2 C325.6,31 324.7,28.6 322.8,27 C320.651215,25.3694353 317.993477,24.5543954 315.3,24.7 L314.2,24.7 L310.3,49.8 L312,50.1 Z" id="Shape"></path>
            <path d="M398.8,104.8 L398.8,91.7 L380.3,91.7 L376,104.8 L347.6,104.8 L387.8,3 L421.4,3 L427.2,104.8 L398.8,104.8 Z M398.9,70.1 L399.6,46.5 C399.7,43.3 399.8,40.2 400,36.9 C400.2,33.6 400.4,30.5 400.5,27.3 L400.2,27.3 C399.3,30.5 398.4,33.6 397.5,36.9 C396.6,40.2 395.7,43.3 394.7,46.5 L387.3,70.1 L398.9,70.1 Z" id="Shape"></path>
            <polygon id="Path" points="432.2 104.8 448 3 475.6 3 463.4 80.8 484.1 80.8 480.5 104.8"></polygon>
            <polygon id="Path" points="485.7 104.8 501.5 3 529.1 3 516.9 80.8 537.6 80.8 534 104.8"></polygon>
            <path d="M545.9,70.5 C546.656003,71.9875027 547.560613,73.3946729 548.6,74.7 C549.645279,76.0453418 550.854658,77.2547207 552.2,78.3 C553.526414,79.3322944 554.969666,80.2049587 556.5,80.9 C558.094559,81.5141946 559.791355,81.8196177 561.5,81.8 C563.517188,81.7491608 565.48451,81.1624157 567.2,80.1 C569.457306,78.6789164 570.789987,76.1658604 570.7,73.5 C570.689509,71.9706262 570.160716,70.4900077 569.2,69.3 C568.718301,68.5655373 568.147266,67.8937308 567.5,67.3 C566.8,66.7 566.1,66 565.3,65.4 C563,63.3 560.8,61.3 558.7,59.2 C556.718828,57.1585102 555.005102,54.8735426 553.6,52.4 C552.569558,50.5819708 551.795556,48.6301394 551.3,46.6 C550.764073,44.3731753 550.495512,42.090403 550.5,39.8 C550.49483,38.0256023 550.628572,36.2535224 550.9,34.5 C551.500297,30.9509505 552.541697,27.4908147 554,24.2 C555.671981,20.2278516 557.967552,16.5481875 560.8,13.3 C563.887979,9.77584501 567.578947,6.82984316 571.7,4.6 C576.413102,2.12438234 581.677506,0.885699075 587,1 C590.347645,1.02338735 593.677137,1.49422471 596.9,2.4 C600.038022,3.26649175 603.059905,4.50882108 605.9,6.1 L601,37 C600.345317,35.6471824 599.540235,34.372469 598.6,33.2 C597.623613,31.8905102 596.480645,30.713925 595.2,29.7 C593.93411,28.6837892 592.558965,27.8117459 591.1,27.1 C589.629077,26.4156427 588.022119,26.0737368 586.4,26.1 C584.613214,26.1358225 582.87564,26.6918461 581.4,27.7 C579.757996,28.7211295 578.630109,30.3947673 578.3,32.3 L578.3,33.1 C578.294296,34.9142062 578.972742,36.663881 580.2,38 C580.794755,38.8270337 581.501508,39.5674424 582.3,40.2 C583.1,40.9 583.8,41.5 584.5,42.2 C586.86905,44.0808819 589.138776,46.0835814 591.3,48.2 C593.180483,50.0840801 594.765083,52.2418327 596,54.6 C597.969217,58.1044438 598.937798,62.0825438 598.8,66.1 C598.782562,68.1759977 598.615462,70.2480364 598.3,72.3 C597.637122,76.9738821 596.111203,81.4838219 593.8,85.6 C591.603584,89.6312997 588.766603,93.2788462 585.4,96.4 C582.071709,99.5014006 578.209425,101.974617 574,103.7 C569.687605,105.472307 565.06204,106.356606 560.4,106.3 C553.511655,106.326952 546.695613,104.895583 540.4,102.1 L545.9,70.5 Z" id="Path"></path>
        </g>
    </g>
</svg>