<?xml version="1.0" encoding="UTF-8"?>
<svg width="608px" height="429px" viewBox="0 0 608 429" version="1.1" xmlns="http://www.w3.org/2000/svg" xmlns:xlink="http://www.w3.org/1999/xlink">
    <!-- Generator: Sketch 54.1 (76490) - https://sketchapp.com -->
    <title>crowdin</title>
    <desc>Created with Sketch.</desc>
    <g id="Page-1" stroke="none" stroke-width="1" fill="none" fill-rule="evenodd">
        <g id="crowdin" transform="translate(-0.000000, 0.000000)">
            <g id="g10" transform="translate(303.999990, 215.000010) scale(-1, 1) rotate(-180.000000) translate(-303.999990, -215.000010) translate(-0.000002, 0.333349)">
                <g id="g12" transform="translate(0.000000, 0.933333)">
                    <path d="M607.998651,378.615991 C607.998651,378.615991 192.611995,423.733323 150.443996,240.063994 C89.7053311,-24.6653327 351.623991,36.0066658 351.623991,36.0066658 C351.623991,36.0066658 -4.25306656,-115.50413 34.3311991,236.234661 C60.4479985,474.494655 528.44532,417.01199 607.998651,378.615991 L607.998651,378.615991" id="path14" fill="#30642B"></path>
                    <path d="M571.842652,283.595993 C571.842652,283.595993 383.589324,285.745326 372.214657,204.263995 C355.842658,86.8599978 470.898655,124.18533 470.898655,124.18533 C470.898655,124.18533 317.425325,43.5039989 320.258659,197.725328 C322.178659,302.211992 534.57732,296.919993 571.842652,283.595993 L571.842652,283.595993" id="path16" fill="#30642B"></path>
                    <path d="M575.535986,331.702658 C575.535986,331.702658 290.451993,334.931992 273.265327,211.619995 C248.46666,33.8186658 422.655989,90.3239977 422.655989,90.3239977 C422.655989,90.3239977 190.286662,-31.8333325 194.587995,201.722662 C197.485328,359.887991 519.10132,351.889325 575.535986,331.702658 L575.535986,331.702658" id="path18" fill="#30642B"></path>
                    <path d="M469.658655,123.767997 C469.658655,123.767997 319.235992,44.8666655 306.394659,179.942662 C324.987992,177.182662 342.122658,175.139996 358.655991,175.067996 C367.035991,76.1706648 469.658655,123.767997 469.658655,123.767997 L469.658655,123.767997" id="path20" fill="#ACD11C"></path>
                    <path d="M363.895991,220.249328 C362.541324,215.063995 359.790658,203.210662 358.993324,198.645328 C326.930658,202.250662 340.481325,198.918662 305.871992,204.626662 C306.111992,206.785328 306.970659,217.946661 307.395992,220.157328 C325.795992,314.719992 537.20132,296.875993 571.842652,283.595993 C571.842652,283.595993 384.658657,298.915993 363.895991,220.249328 L363.895991,220.249328" id="path22" fill="#ACD11C"></path>
                    <path d="M420.842656,89.7133311 C420.842656,89.7133311 192.995995,-29.7733326 173.626662,174.787996 C201.737328,170.586662 227.667994,167.466662 252.729327,167.403996 C265.391993,17.6746662 420.842656,89.7133311 420.842656,89.7133311 L420.842656,89.7133311" id="path24" fill="#ACD11C"></path>
                    <path d="M260.69866,235.770661 C258.64666,227.983994 254.435994,210.034661 253.26666,203.058662 C204.707995,208.521328 207.657328,207.125328 172.807996,212.143995 C173.131996,215.415995 174.490662,232.291994 175.103996,235.655994 C202.986662,378.865324 523.102654,351.815991 575.531986,331.699992 C575.535986,331.702658 292.094659,354.894658 260.69866,235.770661 L260.69866,235.770661" id="path26" fill="#ACD11C"></path>
                    <path d="M348.819991,35.3039991 C348.819991,35.3039991 0,-112.778664 0,198.569328 C40.449999,188.253329 77.8639981,179.942662 114.378664,176.257329 C112.149331,-51.4226654 348.819991,35.3039991 348.819991,35.3039991 L348.819991,35.3039991" id="path28" fill="#ACD11C"></path>
                    <path d="M135.46133,278.275993 C131.38133,266.845327 122.78933,240.319994 120.087997,230.009328 C50.0293321,245.091994 68.3133316,238.679994 3.9863999,255.06266 C4.96306654,259.94266 9.23226644,285.24666 10.6254664,290.166659 C71.0853316,502.314654 534.34132,416.378656 607.999985,378.619991 C607.998651,378.615991 197.722662,453.607989 135.46133,278.275993 L135.46133,278.275993" id="path30" fill="#ACD11C"></path>
                </g>
            </g>
        </g>
    </g>
</svg>