<?xml version="1.0" encoding="UTF-8"?>
<svg width="24px" height="22px" viewBox="0 0 24 22" version="1.1" xmlns="http://www.w3.org/2000/svg" xmlns:xlink="http://www.w3.org/1999/xlink">
    <!-- Generator: Sketch 54.1 (76490) - https://sketchapp.com -->
    <title>default-plugin</title>
    <desc>Created with Sketch.</desc>
    <g id="Page-1" stroke="none" stroke-width="1" fill="none" fill-rule="evenodd">
        <g id="default-plugin" fill="#393E59" fill-rule="nonzero">
            <path d="M11.871,5.936 C11.950598,5.98292858 12.049402,5.98292858 12.129,5.936 L16.643,3.227 C16.7181904,3.18193833 16.7641473,3.10065914 16.764,3.013 C16.7639044,2.92514027 16.7180554,2.84367309 16.643,2.798 L12.515,0.321 C12.1983155,0.130987172 11.8026845,0.130987172 11.486,0.321 L7.357,2.8 C7.28194462,2.84567309 7.23609565,2.92714027 7.236,3.015 C7.2358527,3.10265914 7.28180962,3.18393833 7.357,3.229 L11.871,5.936 Z" id="Path"></path>
            <path d="M12.5,7.154 L12.5,11.571 C12.499661,11.6613224 12.548261,11.744746 12.627,11.789 C12.7049691,11.8340155 12.8010309,11.8340155 12.879,11.789 L17.379,9.089 C17.4540554,9.04332691 17.4999044,8.96185973 17.5,8.874 L17.5,4.454 C17.5001891,4.36397773 17.4515805,4.28092206 17.373,4.237 C17.2950309,4.19198454 17.1989691,4.19198454 17.121,4.237 L12.621,6.937 C12.5450342,6.98275319 12.4989915,7.06532565 12.5,7.154 Z" id="Path"></path>
            <path d="M11.121,11.786 C11.1989691,11.8310155 11.2950309,11.8310155 11.373,11.786 C11.451739,11.741746 11.500339,11.6583224 11.5,11.568 L11.5,7.154 C11.4999484,7.06639313 11.4540431,6.98520514 11.379,6.94 L6.879,4.24 C6.80103093,4.19498454 6.70496907,4.19498454 6.627,4.24 C6.54841948,4.28392206 6.49981086,4.36697773 6.5,4.457 L6.5,8.871 C6.50009565,8.95885973 6.54594462,9.04032691 6.621,9.086 L11.121,11.786 Z" id="Path"></path>
            <path d="M13.236,13.013 C13.2358527,13.1006591 13.2818096,13.1819383 13.357,13.227 L17.871,15.936 C17.950598,15.9829286 18.049402,15.9829286 18.129,15.936 L22.643,13.227 C22.7181904,13.1819383 22.7641473,13.1006591 22.764,13.013 C22.7639044,12.9251403 22.7180554,12.8436731 22.643,12.798 L18.129,10.09 C18.049402,10.0430714 17.950598,10.0430714 17.871,10.09 L13.357,12.8 C13.2825489,12.8453006 13.2367887,12.9258536 13.236,13.013 L13.236,13.013 Z" id="Path"></path>
            <path d="M18.5,17.154 L18.5,21.571 C18.499661,21.6613224 18.548261,21.744746 18.627,21.789 C18.7049691,21.8340155 18.8010309,21.8340155 18.879,21.789 L23.015,19.3 C23.3158613,19.1192425 23.4999332,18.7939854 23.5,18.443 L23.5,14.454 C23.5001891,14.3639777 23.4515805,14.2809221 23.373,14.237 C23.2950309,14.1919845 23.1989691,14.1919845 23.121,14.237 L18.621,16.937 C18.5450342,16.9827532 18.4989915,17.0653257 18.5,17.154 Z" id="Path"></path>
            <path d="M12.627,14.237 C12.5484195,14.2809221 12.4998109,14.3639777 12.5,14.454 L12.5,18.871 C12.5000956,18.9588597 12.5459446,19.0403269 12.621,19.086 L17.121,21.786 C17.1989691,21.8310155 17.2950309,21.8310155 17.373,21.786 C17.451739,21.741746 17.500339,21.6583224 17.5,21.568 L17.5,17.154 C17.4999484,17.0663931 17.4540431,16.9852051 17.379,16.94 L12.879,14.24 C12.8015679,14.1940527 12.705504,14.192909 12.627,14.237 Z" id="Path"></path>
            <path d="M5.871,15.936 C5.95059799,15.9829286 6.04940201,15.9829286 6.129,15.936 L10.643,13.227 C10.7181904,13.1819383 10.7641473,13.1006591 10.764,13.013 C10.7639044,12.9251403 10.7180554,12.8436731 10.643,12.798 L6.129,10.09 C6.04940201,10.0430714 5.95059799,10.0430714 5.871,10.09 L1.357,12.8 C1.28194462,12.8456731 1.23609565,12.9271403 1.236,13.015 C1.2358527,13.1026591 1.28180962,13.1839383 1.357,13.229 L5.871,15.936 Z" id="Path"></path>
            <path d="M11.373,14.237 C11.2950309,14.1919845 11.1989691,14.1919845 11.121,14.237 L6.621,16.937 C6.54595693,16.9822051 6.50005157,17.0633931 6.5,17.151 L6.5,21.568 C6.49966101,21.6583224 6.54826097,21.741746 6.627,21.786 C6.70496907,21.8310155 6.80103093,21.8310155 6.879,21.786 L11.379,19.086 C11.4540554,19.0403269 11.4999044,18.9588597 11.5,18.871 L11.5,14.454 C11.5001891,14.3639777 11.4515805,14.2809221 11.373,14.237 Z" id="Path"></path>
            <path d="M0.986,19.3 L5.121,21.782 C5.19896907,21.8270155 5.29503093,21.8270155 5.373,21.782 C5.45173903,21.737746 5.50033899,21.6543224 5.5,21.564 L5.5,17.154 C5.49994843,17.0663931 5.45404307,16.9852051 5.379,16.94 L0.879,14.24 C0.801030929,14.1949845 0.704969071,14.1949845 0.627,14.24 C0.548419478,14.2839221 0.499810859,14.3669777 0.5,14.457 L0.5,18.45 C0.502722801,18.7986887 0.686882797,19.1207792 0.986,19.3 L0.986,19.3 Z" id="Path"></path>
        </g>
    </g>
</svg>