<?xml version="1.0" encoding="UTF-8"?>
<svg width="396px" height="396px" viewBox="0 0 396 396" version="1.1" xmlns="http://www.w3.org/2000/svg" xmlns:xlink="http://www.w3.org/1999/xlink">
    <!-- Generator: Sketch 54.1 (76490) - https://sketchapp.com -->
    <title>dingtalk</title>
    <desc>Created with Sketch.</desc>
    <g id="Page-1" stroke="none" stroke-width="1" fill="none" fill-rule="evenodd">
        <g id="dingtalk" fill-rule="nonzero">
            <circle id="Oval" fill="#41A0D7" cx="198.003" cy="198.003" r="197.176"></circle>
            <path d="M90.363,71.438 C90.366,67.516 92.333,63.857 95.602,61.69 C98.871,59.523 103.005,59.141 106.62,60.663 L294.345,139.705 C299.17,141.737 302.905,145.722 304.62,150.669 C306.334,155.615 305.868,161.057 303.335,165.64 L260.865,242.49 L300.372,242.49 L230.091,332.317 L243.398,269.936 L218.446,268.689 L225.932,230.429 L192.667,242.126 C189.628,243.195 186.284,242.999 183.39,241.584 C175.359,237.655 158.725,228.412 147.016,214.384 C145.39,212.436 144.939,209.763 145.835,207.39 C146.731,205.016 148.837,203.315 151.344,202.927 L212.624,193.418 L139.929,193.418 C136.572,193.418 133.362,192.013 131.086,189.546 C125.311,183.288 114.252,169.953 107.645,153.334 C106.413,150.235 106.979,146.71 109.12,144.153 C111.261,141.597 114.63,140.427 117.897,141.093 L211.377,160.148 L113.401,127.75 C108.951,126.278 105.218,123.182 102.952,119.079 C98.023,110.154 90.344,92.816 90.363,71.438 Z" id="Path" fill="#FFFFFF"></path>
        </g>
    </g>
</svg>