<?xml version="1.0" encoding="UTF-8"?>
<svg width="462px" height="299px" viewBox="0 0 462 299" version="1.1" xmlns="http://www.w3.org/2000/svg" xmlns:xlink="http://www.w3.org/1999/xlink">
    <!-- Generator: Sketch 54.1 (76490) - https://sketchapp.com -->
    <title>docker</title>
    <desc>Created with Sketch.</desc>
    <g id="Page-1" stroke="none" stroke-width="1" fill="none" fill-rule="evenodd">
        <g id="docker">
            <path d="M240.133,94.481 L287.279,94.481 L287.279,142.675 L311.116,142.675 C322.124,142.675 333.446,140.713 343.871,137.181 C348.994,135.445 354.743,133.027 359.797,129.988 C353.141,121.299 349.744,110.327 348.743,99.512 C347.385,84.802 350.352,65.657 360.307,54.144 L365.263,48.412 L371.168,53.159 C386.035,65.105 398.54,81.797 400.745,100.824 C418.646,95.558 439.666,96.804 455.446,105.912 L461.921,109.646 L458.513,116.298 C445.168,142.344 417.267,150.411 389.989,148.985 C349.172,250.648 260.309,298.779 152.561,298.779 C96.895,298.779 45.823,277.969 16.74,228.582 L16.263,227.775 L12.025,219.154 C2.195,197.415 -1.07,173.6 1.145,149.803 L1.809,142.676 L42.124,142.676 L42.124,94.482 L89.267,94.482 L89.267,47.337 L183.559,47.337 L183.559,0.191 L240.133,0.191 L240.133,94.481 Z" id="outline_7_" fill="#0091EA"></path>
            <path d="M59.093,245.89 C65.116,245.89 70.856,245.733 76.312,245.426 C76.788,245.4 77.244,245.363 77.714,245.334 C77.719,245.332 77.722,245.332 77.726,245.332 C91.598,244.477 103.602,242.624 113.628,239.762 C113.63,239.76 113.632,239.76 113.634,239.76 C115.457,239.239 117.222,238.69 118.916,238.104 C120.81,237.447 121.812,235.379 121.157,233.486 C120.501,231.591 118.435,230.587 116.539,231.246 C103.805,235.658 87.004,238.088 66.414,238.544 C66.412,238.544 66.41,238.544 66.409,238.544 C55.932,238.776 44.479,238.5 32.057,237.701 C32.057,237.701 32.057,237.701 32.056,237.701 C31.421,237.663 30.797,237.626 30.156,237.583 C28.161,237.455 26.425,238.957 26.287,240.958 C26.151,242.957 27.663,244.688 29.662,244.824 C32.199,244.997 34.692,245.145 37.152,245.277 C37.544,245.298 37.922,245.311 38.31,245.331 L38.31,245.331 C45.566,245.697 52.504,245.89 59.093,245.89 Z" id="Path" fill="#2196F3" fill-rule="nonzero"></path>
            <g id="Containers_8_" transform="translate(49.000000, 8.000000)" fill="#FFFFFF">
                <path d="M35.209,97.744 L38.436,97.744 L38.436,131.796 L35.209,131.796 L35.209,97.744 Z M29.02,97.744 L32.374,97.744 L32.374,131.796 L29.02,131.796 L29.02,97.744 Z M22.828,97.744 L26.182,97.744 L26.182,131.796 L22.828,131.796 L22.828,97.744 Z M16.636,97.744 L19.99,97.744 L19.99,131.796 L16.636,131.796 L16.636,97.744 Z M10.446,97.744 L13.8,97.744 L13.8,131.796 L10.446,131.796 L10.446,97.744 Z M4.384,97.744 L7.608,97.744 L7.608,131.796 L4.384,131.796 L4.384,97.744 Z M0.981,94.338 L41.839,94.338 L41.839,135.198 L0.981,135.198 L0.981,94.338 Z" id="Shape"></path>
                <path d="M82.354,50.598 L85.583,50.598 L85.583,84.649 L82.354,84.649 L82.354,50.598 Z M76.165,50.598 L79.519,50.598 L79.519,84.649 L76.165,84.649 L76.165,50.598 Z M69.973,50.598 L73.327,50.598 L73.327,84.649 L69.973,84.649 L69.973,50.598 Z M63.781,50.598 L67.135,50.598 L67.135,84.649 L63.781,84.649 L63.781,50.598 Z M57.593,50.598 L60.945,50.598 L60.945,84.649 L57.593,84.649 L57.593,50.598 Z M51.531,50.598 L54.753,50.598 L54.753,84.649 L51.531,84.649 L51.531,50.598 Z M48.124,47.193 L88.987,47.193 L88.987,88.052 L48.124,88.052 L48.124,47.193 Z" id="Shape"></path>
                <path d="M82.354,97.744 L85.583,97.744 L85.583,131.796 L82.354,131.796 L82.354,97.744 Z M76.165,97.744 L79.519,97.744 L79.519,131.796 L76.165,131.796 L76.165,97.744 Z M69.973,97.744 L73.327,97.744 L73.327,131.796 L69.973,131.796 L69.973,97.744 Z M63.781,97.744 L67.135,97.744 L67.135,131.796 L63.781,131.796 L63.781,97.744 Z M57.593,97.744 L60.945,97.744 L60.945,131.796 L57.593,131.796 L57.593,97.744 Z M51.531,97.744 L54.753,97.744 L54.753,131.796 L51.531,131.796 L51.531,97.744 Z M48.124,94.338 L88.987,94.338 L88.987,135.198 L48.124,135.198 L48.124,94.338 Z" id="Shape"></path>
                <path d="M129.501,97.744 L132.726,97.744 L132.726,131.796 L129.501,131.796 L129.501,97.744 Z M123.31,97.744 L126.665,97.744 L126.665,131.796 L123.31,131.796 L123.31,97.744 Z M117.12,97.744 L120.474,97.744 L120.474,131.796 L117.12,131.796 L117.12,97.744 Z M110.928,97.744 L114.282,97.744 L114.282,131.796 L110.928,131.796 L110.928,97.744 Z M104.736,97.744 L108.09,97.744 L108.09,131.796 L104.736,131.796 L104.736,97.744 Z M98.676,97.744 L101.898,97.744 L101.898,131.796 L98.676,131.796 L98.676,97.744 Z M95.271,94.338 L136.132,94.338 L136.132,135.198 L95.271,135.198 L95.271,94.338 Z" id="Shape"></path>
                <path d="M129.501,50.598 L132.726,50.598 L132.726,84.649 L129.501,84.649 L129.501,50.598 Z M123.31,50.598 L126.665,50.598 L126.665,84.649 L123.31,84.649 L123.31,50.598 Z M117.12,50.598 L120.474,50.598 L120.474,84.649 L117.12,84.649 L117.12,50.598 Z M110.928,50.598 L114.282,50.598 L114.282,84.649 L110.928,84.649 L110.928,50.598 Z M104.736,50.598 L108.09,50.598 L108.09,84.649 L104.736,84.649 L104.736,50.598 Z M98.676,50.598 L101.898,50.598 L101.898,84.649 L98.676,84.649 L98.676,50.598 Z M95.271,47.193 L136.132,47.193 L136.132,88.052 L95.271,88.052 L95.271,47.193 Z" id="Shape"></path>
                <path d="M176.647,97.744 L179.873,97.744 L179.873,131.796 L176.647,131.796 L176.647,97.744 Z M170.457,97.744 L173.811,97.744 L173.811,131.796 L170.457,131.796 L170.457,97.744 Z M164.265,97.744 L167.619,97.744 L167.619,131.796 L164.265,131.796 L164.265,97.744 Z M158.073,97.744 L161.427,97.744 L161.427,131.796 L158.073,131.796 L158.073,97.744 Z M151.884,97.744 L155.238,97.744 L155.238,131.796 L151.884,131.796 L151.884,97.744 Z M145.821,97.744 L149.045,97.744 L149.045,131.796 L145.821,131.796 L145.821,97.744 Z M142.416,94.338 L183.277,94.338 L183.277,135.198 L142.416,135.198 L142.416,94.338 Z" id="Shape"></path>
                <path d="M176.647,50.598 L179.873,50.598 L179.873,84.649 L176.647,84.649 L176.647,50.598 Z M170.457,50.598 L173.811,50.598 L173.811,84.649 L170.457,84.649 L170.457,50.598 Z M164.265,50.598 L167.619,50.598 L167.619,84.649 L164.265,84.649 L164.265,50.598 Z M158.073,50.598 L161.427,50.598 L161.427,84.649 L158.073,84.649 L158.073,50.598 Z M151.884,50.598 L155.238,50.598 L155.238,84.649 L151.884,84.649 L151.884,50.598 Z M145.821,50.598 L149.045,50.598 L149.045,84.649 L145.821,84.649 L145.821,50.598 Z M142.416,47.193 L183.277,47.193 L183.277,88.052 L142.416,88.052 L142.416,47.193 Z" id="Shape"></path>
                <path d="M176.647,3.451 L179.873,3.451 L179.873,37.504 L176.647,37.504 L176.647,3.451 Z M170.457,3.451 L173.811,3.451 L173.811,37.504 L170.457,37.504 L170.457,3.451 Z M164.265,3.451 L167.619,3.451 L167.619,37.504 L164.265,37.504 L164.265,3.451 Z M158.073,3.451 L161.427,3.451 L161.427,37.504 L158.073,37.504 L158.073,3.451 Z M151.884,3.451 L155.238,3.451 L155.238,37.504 L151.884,37.504 L151.884,3.451 Z M145.821,3.451 L149.045,3.451 L149.045,37.504 L145.821,37.504 L145.821,3.451 Z M142.416,0.048 L183.277,0.048 L183.277,40.908 L142.416,40.908 L142.416,0.048 Z" id="Shape"></path>
                <path d="M223.792,97.744 L227.016,97.744 L227.016,131.796 L223.792,131.796 L223.792,97.744 Z M217.602,97.744 L220.954,97.744 L220.954,131.796 L217.602,131.796 L217.602,97.744 Z M211.408,97.744 L214.762,97.744 L214.762,131.796 L211.408,131.796 L211.408,97.744 Z M205.218,97.744 L208.572,97.744 L208.572,131.796 L205.218,131.796 L205.218,97.744 Z M199.026,97.744 L202.38,97.744 L202.38,131.796 L199.026,131.796 L199.026,97.744 Z M192.964,97.744 L196.191,97.744 L196.191,131.796 L192.964,131.796 L192.964,97.744 Z M189.561,94.338 L230.421,94.338 L230.421,135.198 L189.561,135.198 L189.561,94.338 L189.561,94.338 Z" id="Shape"></path>
            </g>
            <path d="M135.428,209.445 C141.653,209.445 146.699,214.494 146.699,220.717 C146.699,226.942 141.653,231.988 135.428,231.988 C129.202,231.988 124.156,226.942 124.156,220.717 C124.156,214.494 129.202,209.445 135.428,209.445" id="Path" fill="#FFFFFF"></path>
            <path d="M135.428,212.644 C136.459,212.644 137.443,212.838 138.351,213.19 C137.367,213.759 136.701,214.825 136.701,216.044 C136.701,217.864 138.177,219.337 139.997,219.337 C141.244,219.337 142.326,218.644 142.887,217.622 C143.282,218.575 143.502,219.621 143.502,220.719 C143.502,225.177 139.887,228.792 135.429,228.792 C130.971,228.792 127.355,225.177 127.355,220.719 C127.354,216.258 130.971,212.644 135.428,212.644" id="Path" fill="#0091EA"></path>
            <path d="M165.394,290.677 C137.478,277.43 122.155,259.421 113.629,239.762 C103.259,242.723 90.794,244.614 76.312,245.426 C70.855,245.733 65.116,245.89 59.093,245.89 C52.151,245.89 44.833,245.685 37.153,245.277 C62.753,270.862 94.247,290.56 152.561,290.922 C156.866,290.921 161.14,290.837 165.394,290.677 Z" id="Path" fill="#FFFFFF" fill-rule="nonzero"></path>
        </g>
    </g>
</svg>