<?xml version="1.0" encoding="UTF-8"?>
<svg width="64px" height="64px" viewBox="0 0 64 64" version="1.1" xmlns="http://www.w3.org/2000/svg" xmlns:xlink="http://www.w3.org/1999/xlink">
    <!-- Generator: Sketch 54.1 (76490) - https://sketchapp.com -->
    <title>download</title>
    <desc>Created with Sketch.</desc>
    <g id="Page-1" stroke="none" stroke-width="1" fill="none" fill-rule="evenodd">
        <g id="download" fill-rule="nonzero">
            <circle id="Oval" fill="#C75C5C" cx="32" cy="32" r="32"></circle>
            <g id="Group" opacity="0.2" transform="translate(23.000000, 10.000000)" fill="#231F20">
                <g transform="translate(16.000000, 0.000000)" id="Path">
                    <path d="M1,1.2 C1,1.2 1,1.1 1,1.2 C1,1 1,1 1,1.2 Z"></path>
                </g>
                <g id="Path">
                    <path d="M1,1.1 C1,1.1 1,1.2 1,1.1 C1,1 1,1 1,1.1 Z"></path>
                </g>
            </g>
            <g id="Group" transform="translate(8.000000, 8.000000)">
                <path d="M40,22 C40,15.5 36.2,10 30.6,7.5 C28.9,6.7 28,8 28,9.1 L28,17.6 C28,18.4 28.7,19 29.5,19 L32.6,19 C34.1,19 34.5,20.1 33.5,21.4 L25.8,31.2 C24.8,32.4 23.2,32.4 22.3,31.2 L14.6,21.4 C13.6,20.2 14,19 15.5,19 L18.6,19 C19.4,19 20.1,18.4 20.1,17.6 L20.1,9.1 C20.1,8 18.6,7 17.3,7.5 C17.3,7.5 17.3,7.5 17.3,7.5 C13,9.5 9.7,13.4 8.6,18.1 C3.7,18.9 0,23 0,28 C0,33.5 4.5,38 10,38 L40,38 C44.4,38 48,34.4 48,30 C48,25.6 44.4,22 40,22 Z" id="Path" fill="#FFFFFF"></path>
                <path d="M32,1.2 C32,1.2 32,1.1 32,1.2 C32,1 32,1 32,1.2 Z" id="Path" fill="#8C81D4"></path>
                <path d="M16,1.1 C16,1.1 16,1.2 16,1.1 C16,1 16,1 16,1.1 Z" id="Path" fill="#8C81D4"></path>
            </g>
        </g>
    </g>
</svg>