<?xml version="1.0" encoding="UTF-8"?>
<svg width="27px" height="27px" viewBox="0 0 27 27" version="1.1" xmlns="http://www.w3.org/2000/svg" xmlns:xlink="http://www.w3.org/1999/xlink">
    <!-- Generator: Sketch 54.1 (76490) - https://sketchapp.com -->
    <title>drone</title>
    <desc>Created with Sketch.</desc>
    <g id="Page-1" stroke="none" stroke-width="1" fill="none" fill-rule="evenodd">
        <g id="drone" fill="#2B3A4F" fill-rule="nonzero">
            <path d="M5.43890989,2.61626589 L5.32299373,2.73218205 L10.0543225,7.46351082 C9.38532196,8.50802977 9,9.79083544 9,11.25 C9,15.3064903 11.9779412,18 15.75,18 C17.1595122,18 18.4581412,17.6239035 19.5319438,16.9411321 L24.2874018,21.6965901 C21.8234253,24.9510225 17.9081086,27 13.5,27 C6.04532967,27 6.57252031e-14,21.1401099 6.57252031e-14,13.5 C6.57252031e-14,8.95649077 2.13797985,5.0425707 5.43890989,2.61626589 Z M7.68939897,1.28021066 C9.44937285,0.456284557 11.4198168,0 13.5,0 C20.9546703,0 27,5.85989011 27,13.5 C27,15.6013941 26.5426635,17.5681125 25.7244549,19.3152666 L21.4456774,15.0364891 C22.114678,13.9919702 22.5,12.7091646 22.5,11.25 C22.5,7.19350962 19.5220588,4.5 15.75,4.5 C14.3404878,4.5 13.0418587,4.87609651 11.9680561,5.5588678 L7.68939897,1.28021066 Z M15.75,15.3 C13.4867647,15.3 11.7,13.6838942 11.7,11.25 C11.7,8.81610577 13.4867647,7.2 15.75,7.2 C18.0132352,7.2 19.8,8.81610577 19.8,11.25 C19.8,13.6838942 18.0132352,15.3 15.75,15.3 Z" id="path-1"></path>
        </g>
    </g>
</svg>