<?xml version="1.0" encoding="UTF-8"?>
<svg width="20px" height="24px" viewBox="0 0 20 24" version="1.1" xmlns="http://www.w3.org/2000/svg" xmlns:xlink="http://www.w3.org/1999/xlink">
    <!-- Generator: Sketch 54.1 (76490) - https://sketchapp.com -->
    <title>ftps</title>
    <desc>Created with Sketch.</desc>
    <g id="Page-1" stroke="none" stroke-width="1" fill="none" fill-rule="evenodd">
        <g id="ftps" transform="translate(0.000000, -1.000000)" fill-rule="nonzero">
            <path d="M9.5,6.5 C10.0522847,6.5 10.5,6.05228475 10.5,5.5 L10.5,4.75 C10.5,4.61192881 10.6119288,4.5 10.75,4.5 L12,4.5 C12.2025089,4.50036232 12.3852385,4.37853713 12.4627843,4.19146329 C12.5403301,4.00438944 12.4973768,3.78901419 12.354,3.646 L9.854,1.146 C9.76019574,1.0519583 9.63282726,0.999106216 9.5,0.999106216 C9.36717274,0.999106216 9.23980426,1.0519583 9.146,1.146 L6.646,3.646 C6.50262316,3.78901419 6.45966986,4.00438944 6.53721569,4.19146329 C6.61476152,4.37853713 6.79749112,4.50036232 7,4.5 L8.25,4.5 C8.38807119,4.5 8.5,4.61192881 8.5,4.75 L8.5,5.5 C8.5,6.05228475 8.94771525,6.5 9.5,6.5 Z" id="Path" fill="#393E59"></path>
            <path d="M15.25,11.25 C15.1119288,11.25 15,11.3619288 15,11.5 L15,12.5 C15,12.6380712 15.1119288,12.75 15.25,12.75 L15.75,12.75 C16.1642136,12.75 16.5,12.4142136 16.5,12 C16.5,11.5857864 16.1642136,11.25 15.75,11.25 L15.25,11.25 Z" id="Path" fill="#000000"></path>
            <path d="M0,9 L0,17 C0,17.8284271 0.671572875,18.5 1.5,18.5 L18.5,18.5 C19.3284271,18.5 20,17.8284271 20,17 L20,9 C20,8.17157288 19.3284271,7.5 18.5,7.5 L1.5,7.5 C0.671572875,7.5 0,8.17157288 0,9 Z M13.5,10.5 C13.5,10.0857864 13.8357864,9.75 14.25,9.75 L15.75,9.75 C16.9926407,9.75000003 18,10.7573593 18,12 C18,13.2426407 16.9926407,14.25 15.75,14.25 L15.25,14.25 C15.1119288,14.25 15,14.3619288 15,14.5 L15,15.5 C15,15.9142136 14.6642136,16.25 14.25,16.25 C13.8357864,16.25 13.5,15.9142136 13.5,15.5 L13.5,10.5 Z M8.75,11.25 C8.33578644,11.25 8,10.9142136 8,10.5 C8,10.0857864 8.33578644,9.75 8.75,9.75 L11.75,9.75 C12.1642136,9.75 12.5,10.0857864 12.5,10.5 C12.5,10.9142136 12.1642136,11.25 11.75,11.25 L11.25,11.25 C11.1119288,11.25 11,11.3619288 11,11.5 L11,15.5 C11,15.9142136 10.6642136,16.25 10.25,16.25 C9.83578644,16.25 9.5,15.9142136 9.5,15.5 L9.5,11.5 C9.5,11.3619288 9.38807119,11.25 9.25,11.25 L8.75,11.25 Z M5.25,12.25 C5.66421356,12.25 6,12.5857864 6,13 C6,13.4142136 5.66421356,13.75 5.25,13.75 L4.25,13.75 C4.11192881,13.75 4,13.8619288 4,14 L4,15.5 C4,15.9142136 3.66421356,16.25 3.25,16.25 C2.83578644,16.25 2.5,15.9142136 2.5,15.5 L2.5,11.5 C2.50110216,10.5339586 3.28395859,9.75110216 4.25,9.75 L6.25,9.75 C6.66421356,9.75 7,10.0857864 7,10.5 C7,10.9142136 6.66421356,11.25 6.25,11.25 L4.25,11.25 C4.11192881,11.25 4,11.3619288 4,11.5 L4,12 C4,12.1380712 4.11192881,12.25 4.25,12.25 L5.25,12.25 Z" id="Shape" fill="#393E59"></path>
            <path d="M9.5,19.5 C8.94771525,19.5 8.5,19.9477153 8.5,20.5 L8.5,21.25 C8.5,21.3880712 8.38807119,21.5 8.25,21.5 L7,21.5 C6.79793047,21.5000428 6.61575047,21.6217104 6.53829561,21.808346 C6.46084075,21.9949816 6.5033389,22.209892 6.646,22.353 L9.146,24.853 C9.23980426,24.9470417 9.36717274,24.9998938 9.5,24.9998938 C9.63282726,24.9998938 9.76019574,24.9470417 9.854,24.853 L12.354,22.353 C12.4966611,22.209892 12.5391593,21.9949816 12.4617044,21.808346 C12.3842495,21.6217104 12.2020695,21.5000428 12,21.5 L10.75,21.5 C10.6119288,21.5 10.5,21.3880712 10.5,21.25 L10.5,20.5 C10.5,19.9477153 10.0522847,19.5 9.5,19.5 Z" id="Path" fill="#393E59"></path>
        </g>
    </g>
</svg>