<?xml version="1.0" encoding="UTF-8"?>
<svg width="93px" height="93px" viewBox="0 0 93 93" version="1.1" xmlns="http://www.w3.org/2000/svg" xmlns:xlink="http://www.w3.org/1999/xlink">
    <!-- Generator: Sketch 54.1 (76490) - https://sketchapp.com -->
    <title>git</title>
    <desc>Created with Sketch.</desc>
    <g id="Page-1" stroke="none" stroke-width="1" fill="none" fill-rule="evenodd">
        <g id="git" fill="#F05133" fill-rule="nonzero">
            <path d="M90.71,42.408 L50.591,2.291 C48.281,-0.02 44.534,-0.02 42.222,2.291 L33.892,10.623 L44.459,21.19 C46.915,20.36 49.731,20.917 51.688,22.875 C53.657,24.845 54.209,27.685 53.358,30.15 L63.544,40.335 C66.009,39.485 68.851,40.035 70.819,42.006 C73.569,44.756 73.569,49.212 70.819,51.964 C68.067,54.715 63.611,54.715 60.858,51.964 C58.79,49.894 58.278,46.854 59.327,44.306 L49.827,34.807 L49.827,59.804 C50.497,60.136 51.13,60.578 51.688,61.136 C54.438,63.886 54.438,68.342 51.688,71.095 C48.938,73.844 44.479,73.844 41.731,71.095 C38.981,68.341 38.981,63.885 41.731,61.136 C42.411,60.457 43.198,59.943 44.038,59.599 L44.038,34.369 C43.198,34.025 42.413,33.516 41.731,32.832 C39.648,30.75 39.147,27.692 40.215,25.134 L29.798,14.715 L2.288,42.222 C-0.023,44.535 -0.023,48.282 2.288,50.593 L42.409,90.711 C44.719,93.022 48.465,93.022 50.778,90.711 L90.71,50.779 C93.021,48.468 93.021,44.719 90.71,42.408 Z" id="Path"></path>
        </g>
    </g>
</svg>