<?xml version="1.0" encoding="UTF-8"?>
<svg width="30px" height="30px" viewBox="0 0 30 30" version="1.1" xmlns="http://www.w3.org/2000/svg" xmlns:xlink="http://www.w3.org/1999/xlink">
    <!-- Generator: Sketch 54.1 (76490) - https://sketchapp.com -->
    <title>github</title>
    <desc>Created with Sketch.</desc>
    <g id="Page-1" stroke="none" stroke-width="1" fill="none" fill-rule="evenodd">
        <g id="github" fill="#181616">
            <path d="M15,0 C6.7,0 0,6.7 0,15 C0,21.6 4.3,27.2 10.3,29.2 C11.1,29.3 11.3,28.9 11.3,28.5 L11.3,25.9 C7.1,26.8 6.2,23.9 6.2,23.9 C5.5,22.2 4.5,21.7 4.5,21.7 C3.1,20.8 4.6,20.8 4.6,20.8 C6.1,20.9 6.9,22.3 6.9,22.3 C8.2,24.6 10.4,23.9 11.3,23.5 C11.4,22.5 11.8,21.9 12.3,21.5 C9,21.1 5.5,19.8 5.5,14.1 C5.5,12.5 6.1,11.1 7,10.1 C6.8,9.7 6.3,8.2 7.1,6.1 C7.1,6.1 8.4,5.7 11.2,7.6 C12.4,7.3 13.7,7.1 15,7.1 C16.3,7.1 17.6,7.3 18.8,7.6 C21.7,5.7 22.9,6.1 22.9,6.1 C23.7,8.2 23.2,9.7 23,10.1 C24,11.1 24.5,12.5 24.5,14.1 C24.5,19.9 21,21.1 17.7,21.5 C18.2,22 18.7,22.9 18.7,24.3 L18.7,28.4 C18.7,28.8 19,29.3 19.7,29.1 C25.7,27.1 29.9,21.5 29.9,14.9 C30,6.7 23.3,0 15,0 Z" id="Path"></path>
        </g>
    </g>
</svg>