<?xml version="1.0" encoding="UTF-8"?>
<svg width="128px" height="115px" viewBox="0 0 128 115" version="1.1" xmlns="http://www.w3.org/2000/svg" xmlns:xlink="http://www.w3.org/1999/xlink">
    <!-- Generator: Sketch 54.1 (76490) - https://sketchapp.com -->
    <title>google_gcs</title>
    <desc>Created with Sketch.</desc>
    <defs>
        <linearGradient x1="50%" y1="-3.89783073e-15%" x2="50%" y2="99.8449958%" id="linearGradient-1">
            <stop stop-color="#4387FD" offset="0%"></stop>
            <stop stop-color="#4683EA" offset="100%"></stop>
        </linearGradient>
    </defs>
    <g id="Page-1" stroke="none" stroke-width="1" fill="none" fill-rule="evenodd">
        <g id="google_gcs" transform="translate(-1.000000, 0.000000)" fill-rule="nonzero">
            <g id="BASE" fill="url(#linearGradient-1)">
                <path d="M28.7906,108.2166 L2.54,62.7493 C0.4859,59.1915 0.4859,54.8081 2.54,51.2503 L28.7906,5.7831 C30.8447,2.2253 34.6409,0.0336 38.7491,0.0336 L91.2503,0.0336 C95.3585,0.0336 99.1547,2.2253 101.2088,5.7831 L127.4594,51.2503 C129.5135,54.8081 129.5135,59.1915 127.4594,62.7493 L101.2088,108.2165 C99.1547,111.7743 95.3585,113.966 91.2503,113.966 L38.7491,113.966 C34.6409,113.9661 30.8448,111.7744 28.7906,108.2166 Z" id="Path"></path>
            </g>
            <g id="shadow" transform="translate(43.000000, 43.000000)" fill="#000000" opacity="0.07">
                <polygon id="Path" points="76.9375 33.9999 43.488 0.5503 7.3125 3.8749 0.3021 10.8645 6.2604 16.8228 0.362 27.2994 44.9974 71.9348 55.8125 71.9374"></polygon>
            </g>
            <g id="art" transform="translate(43.000000, 43.000000)" fill="#FFFFFF">
                <g id="Group">
                    <path d="M42.6999,0.2691 L1.2639,0.2703 C0.5967,0.2703 0.051,0.816 0.051,1.4832 L0.0522,10.0495 C0.0522,10.7153 0.5979,11.2612 1.2639,11.2612 L42.6988,11.2612 C43.3659,11.2612 43.9116,10.7154 43.9116,10.0495 L43.9116,1.482 C43.9115,0.816 43.3669,0.2691 42.6999,0.2691 M36.2839,8.2442 C34.917,8.2442 33.8085,7.1302 33.806,5.7645 C33.8085,4.3927 34.9133,3.2873 36.2839,3.2873 C37.6533,3.2873 38.763,4.3904 38.763,5.7645 C38.763,7.1327 37.6533,8.2442 36.2839,8.2442" id="Shape"></path>
                    <path d="M42.6999,16.7361 L1.2639,16.7373 C0.5967,16.7373 0.051,17.2836 0.051,17.9519 L0.0522,26.5165 C0.0522,27.1823 0.5979,27.7294 1.2639,27.7294 L42.6988,27.7294 C43.3659,27.7294 43.9116,27.1823 43.9116,26.5165 L43.9116,17.95 C43.9115,17.2837 43.3669,16.7361 42.6999,16.7361 M36.2839,24.7113 C34.917,24.7113 33.8085,23.5979 33.806,22.2316 C33.8085,20.8599 34.9133,19.755 36.2839,19.755 C37.6533,19.755 38.763,20.8592 38.763,22.2316 C38.763,23.6014 37.6533,24.7113 36.2839,24.7113" id="Shape"></path>
                </g>
            </g>
        </g>
    </g>
</svg>