<?xml version="1.0" encoding="UTF-8"?>
<svg width="1500px" height="1564px" viewBox="0 0 1500 1564" version="1.1" xmlns="http://www.w3.org/2000/svg" xmlns:xlink="http://www.w3.org/1999/xlink">
    <!-- Generator: Sketch 54.1 (76490) - https://sketchapp.com -->
    <title>helm</title>
    <desc>Created with Sketch.</desc>
    <g id="Page-1" stroke="none" stroke-width="1" fill="none" fill-rule="evenodd">
        <g id="helm" fill="#000000" fill-rule="nonzero">
            <g id="Group" transform="translate(750.000000, 781.950000) scale(-1, 1) rotate(-180.000000) translate(-750.000000, -781.950000) translate(0.000000, 0.200000)">
                <path d="M747,1562.3 C740.9,1560.3 737.4,1558 732.4,1552.4 C728.1,1547.7 719,1533.7 719,1531.8 C719,1531.4 718.1,1529.1 716.9,1526.8 C714.9,1522.5 710.6,1510.4 708.8,1503.7 C705.2,1490.1 704.4,1485.7 701.3,1464.7 C698.7,1446.6 698.7,1391.8 701.4,1373.7 C704.5,1351.9 705.5,1347 708.1,1338.5 C709.8,1333.1 708.3,1331.7 700.6,1331.7 C697.3,1331.7 691.1,1331.2 687,1330.6 C682.9,1330 675.9,1329.2 671.5,1328.7 C659.5,1327.2 650,1325.8 647.6,1325.1 C646.5,1324.7 643.1,1324.1 640,1323.7 C637,1323.2 631.4,1322.1 627.5,1321.2 C623.7,1320.3 618.7,1319.1 616.5,1318.7 C614.3,1318.2 610.3,1317.3 607.5,1316.8 C604.8,1316.2 601.4,1315.3 600,1314.8 C598.6,1314.3 595.5,1313.4 593,1312.7 C574.7,1307.7 534.7,1293.8 527.3,1289.8 C525,1288.6 517,1285.1 511.1,1282.7 C503.1,1279.5 470.7,1262.6 465,1258.7 C460.6,1255.7 453,1251.7 451.6,1251.7 C450.4,1251.7 448.8,1254.4 446.1,1261.2 C444.5,1265 434,1286.2 430.9,1291.7 C415.6,1319.1 396.2,1344.6 373.1,1367.8 C355.8,1385 341.3,1396.2 326.7,1403.6 C314.7,1409.7 307.9,1411.7 299,1411.7 C287,1411.7 279.9,1406.4 275.7,1394.1 C272.8,1385.7 274.3,1357.8 278.1,1350.5 C278.6,1349.5 279,1347.9 279,1347 C279.1,1344.9 282.4,1335 283.4,1334 C283.7,1333.7 284,1332.5 284,1331.5 C284,1330.5 284.4,1328.9 285,1327.9 C285.5,1327 286.6,1324.6 287.4,1322.7 C291.1,1313.7 298.7,1297.7 301.3,1293.2 C302,1292.1 304,1288.9 305.8,1286 C307.5,1283 309,1280.4 309,1280.1 C309,1279.8 312.5,1274.3 316.7,1267.8 C331.2,1245.9 348.4,1225.1 365.7,1208.5 C370.4,1203.9 374.9,1199.6 375.6,1198.9 C377.7,1196.9 377.4,1196.1 373.3,1192.5 C368.6,1188.4 354.9,1175.3 346.1,1166.7 C339.2,1159.8 320.3,1138.7 313.4,1130.2 C298.8,1112.2 282.2,1089.5 276.7,1080.1 C276.1,1079.1 281.3,1074.8 285.5,1072.7 C286.6,1072.2 293.2,1067.9 307,1058.8 C311.7,1055.7 316.2,1052.8 317.2,1052.2 C324.7,1047.7 345.1,1034.4 345.5,1033.6 C346.7,1031.7 349.6,1032.8 351.4,1035.9 C352.5,1037.6 353.9,1039.8 354.6,1040.6 C355.3,1041.5 358.3,1045.7 361.2,1049.9 C368.5,1060.5 382.4,1078.1 388.6,1084.7 C391.4,1087.7 395.4,1092.2 397.5,1094.7 C409.6,1108.9 440.2,1136.7 458.5,1150.1 C460.7,1151.8 462.7,1153.4 463,1153.7 C463.6,1154.4 473.7,1161.7 476.2,1163.2 C477.2,1163.8 482.4,1167.2 487.9,1171 C493.4,1174.7 498.2,1177.7 498.5,1177.7 C498.8,1177.7 501.5,1179.2 504.3,1181.1 C511.5,1185.6 518.3,1189.4 533,1196.7 C553.6,1206.9 555.1,1207.7 556.1,1207.7 C556.5,1207.7 559.5,1208.9 562.7,1210.3 C572.9,1214.9 574.8,1215.7 575.9,1215.7 C576.5,1215.7 577.8,1216.1 578.8,1216.6 C581,1217.9 593,1222.2 600,1224.2 C603,1225.1 606.5,1226.3 607.8,1226.8 C609.1,1227.3 611.1,1227.7 612.3,1227.7 C613.6,1227.7 615,1228.1 615.6,1228.6 C616.5,1229.5 622.7,1231.3 629.5,1232.7 C631.7,1233.1 636.7,1234.3 640.5,1235.2 C647.7,1236.9 650,1237.4 665.5,1240.2 C679.6,1242.7 705.3,1245.3 729.3,1246.5 C753.2,1247.7 797.9,1244.7 822.5,1240.2 C827.5,1239.3 833.8,1238.2 836.5,1237.7 C839.3,1237.2 844.4,1236.1 848,1235.2 C851.6,1234.3 856.3,1233.2 858.5,1232.7 C860.7,1232.3 865,1231.2 868,1230.3 C871,1229.4 874.9,1228.2 876.5,1227.7 C878.2,1227.2 882,1226.1 885,1225.2 C888,1224.3 891.6,1223.3 893,1223 C894.4,1222.7 896,1222.1 896.5,1221.7 C897.1,1221.3 901.8,1219.5 907,1217.7 C912.2,1215.9 916.9,1214 917.4,1213.6 C918,1213.1 919,1212.7 919.8,1212.7 C920.5,1212.7 923.7,1211.5 926.8,1210.1 C929.9,1208.7 934.8,1206.5 937.5,1205.2 C952.9,1198.2 971.5,1188.6 981.5,1182.6 C983.2,1181.6 985.9,1180 987.5,1179.1 C992.1,1176.6 1009.5,1165.1 1019,1158.3 C1054.5,1133 1095.7,1092.7 1119,1060.7 C1122,1056.6 1125.2,1052.4 1126.1,1051.4 C1127.9,1049.4 1131.8,1043.7 1140.4,1030.5 C1143.5,1025.6 1146.5,1021.7 1147.1,1021.7 C1147.7,1021.7 1154.5,1025.6 1162.3,1030.5 C1178.1,1040.2 1179.2,1040.9 1183.7,1043.2 C1185.5,1044.1 1187.4,1045.5 1188.1,1046.3 C1188.7,1047.1 1189.6,1047.7 1190.1,1047.7 C1190.6,1047.7 1196.5,1051.1 1203.3,1055.2 C1210,1059.4 1216.1,1063.1 1216.9,1063.6 C1220.6,1065.5 1220.2,1067.1 1213.8,1076.8 C1210.2,1082.1 1207.1,1087 1206.7,1087.8 C1206.2,1089.2 1199.8,1098 1187.6,1114.3 C1182.4,1121.3 1172.4,1133.4 1163.5,1143.6 C1158,1149.9 1130.7,1178.6 1130,1178.9 C1129.6,1179.1 1127.1,1181.2 1124.5,1183.6 C1120.9,1186.9 1120,1188.3 1120.6,1189.7 C1121.1,1190.6 1126.2,1195.5 1132,1200.4 C1149.2,1215.2 1165.5,1233.6 1182.1,1256.7 C1189.5,1267 1195.9,1276.7 1197.3,1279.7 C1197.7,1280.5 1198.8,1282.6 1199.8,1284.2 C1207.2,1296.3 1220,1322 1220,1324.8 C1220,1325.3 1220.4,1326.5 1220.9,1327.5 C1223,1331.7 1225,1336.9 1225,1338.2 C1225,1339.1 1225.4,1340.5 1225.9,1341.5 C1226.9,1343.5 1228.7,1349.9 1230.2,1357.2 C1231.9,1365.3 1232.3,1389.6 1230.9,1394.2 C1227,1406.5 1219.9,1411.7 1207.3,1411.7 C1195.4,1411.7 1180.5,1405.8 1164.5,1394.7 C1125.7,1367.9 1082.8,1312.8 1060.6,1261.5 C1059.7,1259.4 1058.3,1256.2 1057.5,1254.3 C1056.7,1252.4 1056,1250.2 1056,1249.4 C1056,1248.5 1055.6,1247.5 1055,1247.2 C1054.5,1246.9 1054,1245.7 1054,1244.7 C1054,1243.7 1053.6,1242.6 1053.1,1242.2 C1052,1241.6 1046.1,1244.7 1036,1251.2 C1032.4,1253.5 1026.8,1256.9 1023.5,1258.7 C1020.2,1260.5 1015.9,1262.9 1014,1264 C1012.1,1265.1 1006,1268.3 1000.5,1271.2 C995,1274 989.6,1276.8 988.5,1277.4 C985.9,1278.8 975.1,1283.7 974.5,1283.7 C974,1283.7 957,1291.5 954.8,1292.7 C953.8,1293.3 952.2,1293.7 951.2,1293.7 C950.2,1293.7 949,1294.1 948.5,1294.6 C947.9,1295.1 944.6,1296.5 941,1297.7 C929.9,1301.6 928.1,1302.3 927.4,1303 C927,1303.4 925.8,1303.7 924.8,1303.7 C923.8,1303.7 922.2,1304.1 921.2,1304.6 C920.3,1305.1 917,1306.3 914,1307.1 C903.1,1310.3 897.5,1312 895.5,1312.8 C894.4,1313.2 892.4,1313.8 891,1314.1 C889.6,1314.4 885.6,1315.4 882,1316.2 C878.4,1317.1 873.7,1318.3 871.5,1318.7 C869.3,1319.2 864.6,1320.4 861,1321.2 C857.4,1322.1 853.2,1323.1 851.5,1323.3 C843.9,1324.4 829.1,1326.9 825.2,1327.8 C822.9,1328.3 818.8,1328.7 816.2,1328.7 C811.1,1328.8 798.4,1331 797.3,1332 C797,1332.4 797.3,1335 797.9,1337.9 C805.1,1369.8 806.4,1382.8 806.4,1419.7 C806.4,1448.4 805.5,1463.1 802.5,1478.7 C801.6,1483.4 800.5,1489.2 800,1491.7 C799.6,1494.2 798.4,1498.7 797.5,1501.7 C796.6,1504.7 795.6,1508.3 795.3,1509.7 C795,1511.1 794.2,1513.6 793.4,1515.4 C792.6,1517.1 792,1519 792,1519.6 C792,1520.2 791.6,1521.5 791.1,1522.5 C790.6,1523.4 788.8,1527.1 787.1,1530.7 C779.9,1545.7 771.7,1556.4 764.8,1559.9 C757.1,1563.8 753,1564.3 747,1562.3 Z" id="Path"></path>
                <path d="M0,768.7 C0,657.6 0,566.4 0,566 C0,565.5 23.6,565.1 52.5,564.9 L105,564.7 L105,645 C105,706.1 105.3,725.6 106.2,726.5 C107.1,727.4 121.9,727.7 167,727.7 C199.7,727.7 227.1,727.3 227.7,726.9 C228.7,726.3 229,708.5 229.2,645.6 L229.5,565.2 L282,565.2 L334.5,565.2 L334.8,764.7 C334.9,874.4 334.8,965.7 334.5,967.5 L333.9,970.7 L281.7,970.5 L229.5,970.2 L229,894.7 L228.5,819.2 L167,819.2 L105.5,819.2 L105.2,895 L105,970.7 L52.5,970.7 L0,970.7 L0,768.7 Z" id="Path"></path>
                <path d="M424.5,969.5 C424.2,968.8 424.1,877.5 424.2,766.7 L424.5,565.2 L558,565.2 L691.5,565.2 L691.8,608.6 C692,642.7 691.8,652.2 690.8,652.9 C690.1,653.3 653.6,653.7 609.8,653.7 L530,653.7 L530,690.2 C530,725.4 530.1,726.7 532,727.7 C533.3,728.4 555,728.7 597.6,728.7 C648.3,728.7 661.5,728.9 662.2,729.9 C662.6,730.6 663,750.2 663,773.5 L663,815.7 L597.8,815.7 C561.9,815.7 531.9,816.1 531.2,816.5 C530.3,817.2 530,824.5 530.2,849.8 L530.5,882.2 L607.8,882.5 L685,882.7 L685,926.7 L685,970.7 L555,970.7 C451.9,970.7 424.8,970.4 424.5,969.5 Z" id="Path"></path>
                <path d="M774.5,969.5 C774.2,968.8 774.1,877.5 774.2,766.7 L774.5,565.2 L904,565.2 L1033.5,565.2 L1033.8,608.6 C1034,642.7 1033.8,652.2 1032.8,652.9 C1032.1,653.3 997.4,653.7 955.8,653.7 L880,653.7 L880,812.2 L880,970.7 L827.5,970.7 C786.4,970.7 774.8,970.4 774.5,969.5 Z" id="Path"></path>
                <path d="M1107,767.7 L1107,564.7 L1153.5,564.9 L1200.1,565.2 L1200,643 C1200,689 1199.6,722.7 1199,725.5 C1198.5,728.1 1197.5,736.1 1196.9,743.2 C1194.8,767.7 1194.3,773.2 1193.1,782.2 C1192.5,787.2 1191.5,793.7 1191,796.8 C1190.4,799.8 1190,804.3 1190,806.8 C1190,809.2 1189.3,814.6 1188.4,818.7 C1186.8,826.6 1187.1,830.7 1189.4,830.7 C1191.4,830.7 1194,827.9 1194,825.9 C1194,824.9 1194.9,821.7 1196.1,818.7 C1197.2,815.7 1198.5,811.9 1199,810.2 C1199.4,808.6 1200.5,805.2 1201.4,802.7 C1202.4,800.2 1203.5,796.9 1203.9,795.2 C1204.4,793.6 1205.5,790.2 1206.4,787.7 C1207.4,785.2 1208.5,781.9 1208.9,780.2 C1209.4,778.6 1210.5,775.2 1211.4,772.7 C1212.4,770.2 1213.5,766.9 1213.9,765.2 C1214.4,763.6 1215.5,760.2 1216.4,757.7 C1217.4,755.2 1218.5,751.9 1218.9,750.2 C1219.4,748.6 1220.5,745.2 1221.4,742.7 C1222.4,740.2 1223.5,736.9 1224,735.2 C1225.4,730.1 1227.2,725.2 1228.1,724.3 C1228.6,723.7 1229,722.5 1229,721.5 C1229,720.5 1229.4,718.9 1229.9,717.9 C1230.7,716.4 1232.6,711.5 1235,705.2 C1235.4,704.1 1236.5,701.5 1237.4,699.4 C1238.3,697.3 1239,695 1239,694.2 C1239,693.3 1239.4,691.9 1239.9,690.9 C1240.7,689.4 1242,686.1 1245,678.2 C1245.4,677.1 1246.3,674.9 1247,673.2 C1247.7,671.6 1249,667.7 1250,664.7 C1251,661.7 1252.3,657.9 1253,656.2 C1253.7,654.6 1254.6,652.3 1255,651.2 C1255.4,650.1 1256.3,647.9 1257,646.2 C1257.7,644.6 1259,640.7 1260,637.7 C1261,634.7 1262.3,630.9 1263,629.2 C1263.7,627.6 1264.6,625.3 1265,624.2 C1265.4,623.1 1266.3,620.9 1267,619.2 C1267.6,617.6 1268.9,614.2 1269.7,611.7 C1270.5,609.2 1272.1,605.3 1273.1,603 L1275,598.7 L1302,598.7 C1325.1,598.7 1329.1,598.9 1330.4,600.3 C1331.3,601.1 1332,602.5 1332,603.2 C1332,604 1332.7,606.3 1333.6,608.4 C1334.5,610.5 1335.6,613.1 1336,614.2 C1336.4,615.3 1337.3,617.5 1337.9,619.2 C1338.6,620.8 1340.1,624.8 1341.2,628.2 C1342.3,631.5 1343.6,634.6 1344.1,635.2 C1344.6,635.7 1345,636.9 1345,637.9 C1345,638.9 1345.4,640.5 1345.9,641.5 C1346.7,643 1348,646.3 1351,654.2 C1351.4,655.3 1352.3,657.6 1353,659.2 C1353.7,660.9 1355,664.7 1356,667.7 C1357,670.7 1358.3,674.6 1359,676.2 C1359.7,677.9 1360.6,680.1 1361,681.2 C1361.4,682.3 1362.3,684.6 1363,686.2 C1363.7,687.9 1365,691.7 1366,694.7 C1367,697.7 1368.3,701.6 1369,703.2 C1369.7,704.9 1370.6,707.1 1371,708.2 C1371.4,709.3 1372.3,711.6 1373,713.2 C1373.7,714.9 1375,718.7 1376,721.7 C1377,724.7 1378.3,728.6 1379,730.2 C1381.3,735.8 1381.8,737.2 1382.3,739.2 C1382.6,740.3 1384.3,745 1386,749.7 C1387.7,754.4 1389.4,759.1 1389.7,760.2 C1389.9,761.3 1390.5,763.1 1391,764.2 C1391.5,765.3 1392.1,767.1 1392.3,768.2 C1392.6,769.3 1394.3,774 1396,778.7 C1397.7,783.4 1399.4,788.1 1399.7,789.2 C1399.9,790.3 1400.5,792.1 1401,793.2 C1401.5,794.3 1402.1,796.1 1402.3,797.2 C1402.6,798.3 1404.3,803 1406,807.7 C1407.7,812.4 1409.4,817.1 1409.7,818.2 C1409.9,819.3 1410.5,821.1 1411,822.2 C1411.5,823.3 1412.1,825.4 1412.4,826.9 C1413.1,829.8 1416.5,831.6 1418.3,829.8 C1419.1,829 1419,826.5 1418,821 C1416.7,813.3 1416.1,808.4 1414.1,788 C1413.6,782.3 1412.8,777.3 1412.5,776.7 C1411.9,775.7 1411.3,770.3 1409,742.4 C1408.5,735.9 1407.6,728.1 1407.1,725 C1406.4,721.5 1406,690.7 1406,642.3 L1406,565.2 L1452.7,565.2 L1499.5,565.2 L1499.8,768 L1500,970.7 L1444.1,970.7 C1400.6,970.7 1388,970.4 1387.3,969.5 C1386.8,968.8 1385.6,966 1384.7,963.2 C1383.8,960.5 1381.7,954.4 1380,949.7 C1378.3,945 1376.6,940.3 1376.3,939.2 C1376.1,938.1 1375.5,936.3 1375,935.2 C1374.5,934.1 1373.4,931 1372.5,928.2 C1371.6,925.5 1370.4,922.4 1369.9,921.5 C1369.4,920.5 1369,919.1 1369,918.2 C1369,917.4 1368.3,915.1 1367.4,913 C1365.1,907.7 1364.3,905.5 1363.7,903.2 C1363.4,902.1 1361.7,897.4 1360,892.7 C1358.3,888 1356,881.7 1355,878.7 C1354,875.7 1351.7,869.4 1350,864.7 C1348.3,860 1346.6,855.3 1346.3,854.2 C1346.1,853.1 1345.5,851.3 1345,850.2 C1344.5,849.1 1343.4,846 1342.5,843.2 C1341.6,840.5 1340.4,837.4 1339.9,836.5 C1339.4,835.5 1339,833.8 1339,832.8 C1339,831.7 1338.6,830.6 1338.1,830.2 C1337.6,829.9 1336.8,828.2 1336.4,826.5 C1336.1,824.7 1335.4,822.6 1335,821.7 C1334.6,820.9 1333.7,818.6 1333.1,816.7 C1329.6,806.4 1325.9,794.8 1325.1,792.2 C1323.5,786.3 1320.7,777.2 1320,775.2 C1319.6,774.1 1318.5,770.5 1317.5,767.2 C1316.6,763.9 1315.4,760.1 1315,758.7 C1314.6,757.3 1313.5,753.5 1312.5,750.2 C1311.6,746.9 1310.4,743.2 1309.9,741.9 C1309.4,740.6 1309,738.7 1309,737.7 C1309,736.6 1308.1,734.8 1306.9,733.6 C1304.3,731 1302.8,732.1 1301,737.9 C1300.3,740.3 1299.2,744 1298.5,746.2 C1297.8,748.4 1296.7,752.2 1296,754.7 C1295.3,757.2 1294.2,761 1293.5,763.2 C1292.8,765.4 1291.6,769.2 1291,771.7 C1290.3,774.2 1288.7,779.4 1287.5,783.2 C1286.3,787.1 1284.6,792.7 1283.7,795.7 C1281.1,804.5 1279.3,810 1278,813.2 C1277.3,814.9 1276.4,817.1 1276,818.2 C1275.6,819.3 1274.7,821.6 1274,823.2 C1273.3,824.9 1272,828.7 1270.9,831.7 C1267.9,840.8 1266.4,844.6 1265.7,845.3 C1265.3,845.7 1265,847.1 1265,848.3 C1265,849.6 1264.6,850.8 1264.1,851.2 C1263.6,851.5 1262.8,853.2 1262.4,854.9 C1262.1,856.7 1261.4,858.8 1261,859.7 C1260.6,860.5 1259.4,863.2 1258.5,865.7 C1257.6,868.2 1256.4,871 1255.9,871.9 C1255.4,872.9 1255,874.3 1255,875.2 C1255,876 1254.3,878.3 1253.4,880.4 C1252.5,882.5 1251.4,885.1 1251,886.2 C1250.6,887.3 1249.7,889.6 1249,891.2 C1248.3,892.9 1247,896.7 1245.9,899.7 C1242.9,908.8 1241.4,912.6 1240.7,913.3 C1240.3,913.7 1240,915 1240,916.2 C1240,917.3 1239.6,918.7 1239.1,919.3 C1238.6,919.8 1237.2,923.1 1236,926.7 C1232.1,937.8 1231.4,939.6 1230.7,940.3 C1230.3,940.7 1230,942.1 1230,943.3 C1230,944.6 1229.6,945.8 1229.1,946.2 C1228.6,946.5 1227.8,948.2 1227.4,949.9 C1227.1,951.7 1226.4,953.8 1226,954.7 C1225.6,955.5 1224.5,958 1223.7,960.2 C1222.8,962.4 1221.6,965.7 1220.8,967.5 L1219.5,970.7 L1163.3,970.7 L1107,970.7 L1107,767.7 Z" id="Path"></path>
                <path d="M1125.9,500.5 C1121.7,494.4 1108.2,477.3 1102.9,471.2 C1070.9,434.4 1041.8,408.8 1002,382.3 C995.1,377.8 987,372.7 984,371 C981,369.3 976,366.5 973,364.8 C967.7,361.8 936.5,346.3 932.5,344.7 C931.4,344.2 928.8,343.1 926.8,342.3 C924.7,341.4 921.3,340 919.3,339.2 C917.2,338.3 914.7,337.2 913.8,336.7 C912.8,336.1 911.1,335.7 910.1,335.7 C909,335.7 907.9,335.3 907.5,334.8 C907.2,334.3 905.5,333.5 903.8,333.1 C902,332.8 899.9,332.1 899,331.7 C896.6,330.5 884.8,326.5 881,325.6 C879.1,325.2 875,324.1 872,323.2 C869,322.2 864.9,321.1 863,320.6 C849,317.2 845.9,316.4 841.3,315.7 C838.5,315.3 835.7,314.6 835.2,314.3 C833.6,313.4 815.4,310.7 797.5,308.7 C792,308.2 784.5,307.2 780.7,306.7 C771.9,305.4 717.9,305.4 707.6,306.7 C703.1,307.3 695.2,308.2 690,308.8 C671.2,310.9 655.7,313.3 652,314.6 C650.6,315.1 647.7,315.8 645.5,316.1 C640,316.8 625.7,320.3 616,323.2 C613,324.1 609.4,325.1 608,325.4 C606.6,325.6 604.6,326.2 603.5,326.7 C602.4,327.2 598.8,328.5 595.5,329.6 C578.5,335.3 569.3,338.8 559.2,343.3 C556.3,344.6 553.7,345.7 553.3,345.7 C552.6,345.7 521.9,360.9 516.5,364 C456.7,397.7 407,441.1 367.1,494.2 C362.5,500.3 358.2,505.3 357.4,505.5 C356.7,505.7 352.8,503.5 348.8,500.7 C313,475.7 304.4,469.7 297.3,465 C292.8,462 288.6,458.9 287.9,458.1 C287,457 287.9,455.2 292.1,449.5 C295,445.5 297.6,442 297.9,441.7 C298.2,441.4 300.5,438.5 302.9,435.2 C316.8,416.4 340.4,390.5 362.8,369.3 C366.7,365.6 370,361.7 370,360.7 C370,359.8 367.2,356.3 363.8,353.1 C355.2,345 341.5,329.4 332.1,317.3 C324.7,307.6 309,284.5 309,283.3 C309,283 307.5,280.4 305.8,277.4 C304,274.5 302,271.3 301.3,270.2 C298.7,265.7 291.1,249.7 287.4,240.7 C286.6,238.8 285.5,236.4 285,235.5 C284.4,234.5 284,232.9 284,231.9 C284,230.9 283.7,229.7 283.4,229.4 C282.4,228.4 279.1,218.5 279,216.4 C279,215.5 278.6,213.9 278.1,212.9 C276.2,209.1 274.6,198.6 274.2,186.8 C274,176.9 274.2,173.5 275.7,169.3 C279.9,157 287,151.7 299,151.7 C318.7,151.7 344.3,166.9 373.1,195.6 C396.2,218.8 415.6,244.3 430.9,271.7 C434.6,278.3 444.6,298.5 445.4,301 C446.1,303.4 448.9,303.1 453,300.4 C454.9,299.1 459,296.6 462,295 C465,293.3 470,290.5 473,288.8 C478.1,285.9 515.1,267.5 519.5,265.7 C520.6,265.3 523.3,264.2 525.5,263.2 C530.7,261.1 532.6,260.3 537.5,258.3 C539.7,257.3 542.3,256.2 543.2,255.7 C544.2,255.1 545.6,254.7 546.4,254.7 C547.1,254.7 549.1,254 550.6,253.2 C552.2,252.4 554.3,251.7 555.2,251.7 C556.1,251.7 557.1,251.3 557.4,250.8 C557.7,250.3 559.2,249.7 560.7,249.4 C562.3,249.1 566,248 569,246.9 C572,245.9 577.2,244.2 580.5,243.2 C583.8,242.2 587.6,241.1 589,240.7 C590.4,240.3 594.4,239.2 598,238.2 C601.6,237.3 605.3,236.1 606.2,235.6 C607.2,235.1 609.4,234.7 611.1,234.7 C612.7,234.7 614.9,234.3 615.9,233.7 C617.6,232.8 623.3,231.6 634,229.9 C636.5,229.5 639,228.8 639.6,228.4 C640.2,228.1 644.5,227.2 649.1,226.6 C661.6,225 668.8,224 675.5,222.8 C678.8,222.2 684.2,221.7 687.5,221.7 C690.8,221.6 696.2,221 699.5,220.4 C706.3,218.9 706.1,219.3 704.1,207.7 C700,183.9 699.5,177.1 699.5,144.2 C699.5,111.3 699.8,106.4 704,81.2 C704.7,76.5 706.7,67.6 708.8,59.7 C710.6,53 714.9,40.9 716.9,36.6 C718.1,34.3 719,32 719,31.6 C719,31.3 720.9,27.7 723.2,23.7 C733.5,6 746.1,-2.4 757.8,0.7 C764.2,2.5 766.6,4.1 773.2,11 C779,17 780.4,19.2 786.8,32.2 C788.7,36.1 790.6,40 791.1,40.9 C791.6,41.9 792,43.2 792,43.8 C792,44.4 792.6,46.3 793.4,48 C794.2,49.8 795,52.3 795.3,53.7 C795.6,55.1 796.6,58.7 797.5,61.7 C798.4,64.7 799.6,69.2 800,71.7 C800.5,74.2 801.6,80 802.5,84.7 C805.5,100.3 806.4,115 806.5,143.7 C806.5,172.1 805.4,187.9 802.5,203.2 C801.6,207.6 800.7,213.5 800.4,216.2 L799.8,221.2 L809.6,222.6 C844,227.2 843.6,227.1 859,230.7 C860.9,231.1 866.1,232.3 870.5,233.2 C879.8,235.1 888.5,237.4 891.8,238.8 C893.1,239.3 895,239.7 896.1,239.7 C897.1,239.7 898.8,240.1 899.8,240.6 C900.7,241.1 904.4,242.3 908,243.2 C911.6,244.1 915.2,245.2 916,245.7 C916.9,246.1 919,246.8 920.8,247.1 C922.5,247.5 924.2,248.3 924.5,248.8 C924.9,249.3 926,249.7 927.1,249.7 C928.1,249.7 929.8,250.1 930.8,250.6 C931.7,251.1 936.1,252.8 940.5,254.2 C944.9,255.7 949.5,257.5 950.7,258.3 C951.9,259.1 953.4,259.7 953.9,259.7 C954.5,259.7 957.5,260.9 960.7,262.3 C963.9,263.7 967.4,265.3 968.5,265.7 C971.4,266.9 987.4,274.4 995,278.2 C1000.8,281 1004.5,283 1016.5,289.7 C1018.2,290.6 1022.1,292.8 1025.3,294.6 C1028.5,296.4 1036.4,301.2 1042.8,305.3 L1054.5,312.7 L1056.8,310.2 C1058,308.7 1059,306.9 1059,306.1 C1059,305.3 1059.4,303.9 1060,302.9 C1060.5,302 1063.5,295.8 1066.6,289.2 C1088.2,243.5 1129.2,193 1164.5,168.7 C1180.5,157.6 1195.4,151.7 1207.3,151.7 C1219.9,151.7 1227,156.9 1230.9,169.2 C1232.3,173.8 1231.9,198.1 1230.2,206.2 C1228.7,213.5 1226.9,219.9 1225.9,221.9 C1225.4,222.9 1225,224.3 1225,225.2 C1225,226.5 1223,231.7 1220.9,235.9 C1220.4,236.9 1220,238.1 1220,238.6 C1220,241.4 1207.2,267.1 1199.8,279.2 C1198.8,280.9 1197.7,282.9 1197.3,283.7 C1194.7,289.3 1178.1,312.9 1168.1,325.2 C1156.1,339.9 1143.6,353.2 1134,361.3 C1130.2,364.6 1127,367.9 1127,368.7 C1127,369.5 1133.8,377.1 1142,385.5 C1150.3,393.9 1162.5,407.4 1169.3,415.5 C1182,430.6 1202,456.6 1202,458 C1202,458.4 1199.6,460.3 1196.8,462.2 C1193.9,464.1 1187.7,468.3 1183,471.6 C1178.3,474.9 1170,480.6 1164.6,484.3 C1159.1,488 1149.7,494.5 1143.6,498.9 C1137.5,503.2 1132,506.7 1131.4,506.7 C1130.8,506.7 1128.3,503.9 1125.9,500.5 Z" id="Path"></path>
            </g>
        </g>
    </g>
</svg>