<?xml version="1.0" encoding="UTF-8"?>
<svg width="226px" height="312px" viewBox="0 0 226 312" version="1.1" xmlns="http://www.w3.org/2000/svg" xmlns:xlink="http://www.w3.org/1999/xlink">
    <!-- Generator: Sketch 54.1 (76490) - https://sketchapp.com -->
    <title>jenkins</title>
    <desc>Created with Sketch.</desc>
    <g id="Page-1" stroke="none" stroke-width="1" fill="none" fill-rule="evenodd">
        <g id="jenkins" transform="translate(0.000000, -1.000000)">
            <g id="g10" transform="translate(113.125000, 156.750000) scale(-1, 1) rotate(-180.000000) translate(-113.125000, -156.750000) translate(0.000000, 0.500000)">
                <g id="g3393">
                    <path d="M222.1475,161.58 C222.1475,99.794 173.17875,49.706 112.7725,49.706 C52.36725,49.706 3.3984375,99.794 3.3984375,161.58 C3.3984375,223.3675 52.36725,273.45625 112.7725,273.45625 C173.17875,273.45625 222.1475,223.3675 222.1475,161.58" id="path22" fill="#D33833"></path>
                    <path d="M7.855475,133.8725 C7.855475,133.8725 -0.0625,250.53875 107.438,253.8725 L99.9385,266.3725 L41.6055,246.78875 L24.9385,227.6225 L10.355475,199.705 L2.0214875,167.205 L4.5214875,145.53875" id="path24" fill="#EF3D3A" fill-rule="nonzero"></path>
                    <path d="M37.860375,237.89875 C18.670375,218.26375 6.7954125,191.15375 6.7954125,161.1625 L6.7954125,161.1625 C6.7954125,131.1775 18.670375,104.064 37.860375,84.432625 L37.860375,84.432625 C57.059625,64.80125 83.519,52.6875 112.771,52.6875 L112.771,52.6875 C142.02375,52.6875 168.485,64.80125 187.6825,84.432625 L187.6825,84.432625 C206.87125,104.064 218.74875,131.1775 218.74875,161.1625 L218.74875,161.1625 C218.74875,191.15375 206.87125,218.26375 187.6825,237.89875 L187.6825,237.89875 C168.485,257.52625 142.02375,269.64 112.771,269.6425 L112.771,269.6425 C83.519,269.64 57.059625,257.52625 37.860375,237.89875 L37.860375,237.89875 Z M33.002875,79.683625 C12.608375,100.541 0,129.36625 0,161.1625 L0,161.1625 C0,192.96375 12.608375,221.78625 33.002875,242.645 L33.002875,242.645 C53.392625,263.5075 81.61725,276.43875 112.771,276.435 L112.771,276.435 C143.925,276.43875 172.1525,263.5075 192.53875,242.645 L192.53875,242.645 C212.935,221.78625 225.545,192.96125 225.5425,161.1625 L225.5425,161.1625 C225.545,129.36625 212.935,100.541 192.53875,79.683625 L192.53875,79.683625 C172.1525,58.82225 143.925,45.892625 112.771,45.892625 L112.771,45.892625 C81.61725,45.892625 53.392625,58.82225 33.002875,79.683625 L33.002875,79.683625 L33.002875,79.683625 Z" id="path26" fill="#231F20" fill-rule="nonzero"></path>
                    <polyline id="path28" fill="#F0D6B7" points="158.81375 160.96 142.14625 158.46 119.646 155.96 105.062 155.54375 90.896 155.96 80.062 159.29375 70.4785 169.71 62.9785 190.96 61.312 195.54375 51.312 198.87625 45.4785 208.46 41.312 222.21 45.896 234.29375 56.7285 238.04375 65.4785 233.87625 69.646 224.71 74.646 225.54375 76.312 227.62625 74.646 237.21 74.2285 249.29375 76.7285 265.96 76.630875 275.48 84.2285 287.62625 97.562 297.21 120.896 307.21 146.72875 303.46 169.22875 287.21 179.64625 270.54375 186.3125 258.46 187.97875 228.46 182.97875 202.62625 173.8125 179.71 165.0625 167.62625"></polyline>
                    <polyline id="path30" fill="#335061" points="144.64625 88.8775 85.062 86.3775 85.062 76.3775 90.062 41.3775 87.562 38.46 45.896 52.6275 42.9785 57.6275 38.812 104.71 29.23 133.04375 27.146 139.71 60.4785 162.62625 70.896 166.79375 80.062 155.54375 87.9785 148.46 97.146 145.54375 101.312 144.29375 106.312 122.6275 110.062 118.044 119.646 121.3775 112.9785 108.46 149.22875 91.3775 144.64625 88.8775"></polyline>
                    <polyline id="path32" fill="#6D6B6D" points="45.896 234.29375 56.7285 238.04375 65.4785 233.87625 69.646 224.71 74.646 225.54375 75.896 230.54375 73.396 240.12625 75.896 263.04375 73.812 275.54375 81.312 284.29375 97.562 297.21 92.9785 303.46 70.062 292.21 60.4785 284.71 55.062 273.04375 46.7285 261.79375 44.2285 248.46 45.896 234.29375"></polyline>
                    <path d="M62.9785,273.46 C62.9785,273.46 69.2285,288.87625 94.2285,296.37625 C119.2285,303.87625 95.4785,301.79375 95.4785,301.79375 L68.396,291.37625 L57.9785,280.96 L53.396,272.62625 L62.9785,273.46" id="path34" fill="#DCD9D8"></path>
                    <path d="M50.4785,237.21 C50.4785,237.21 41.7285,266.3775 75.062,270.54375 L73.812,275.54375 L50.896,270.12625 L44.2285,248.46 L45.896,234.29375 L50.4785,237.21" id="path36" fill="#DCD9D8"></path>
                    <path d="M63.812,198.46 L69.267625,203.74625 C69.267625,203.74625 71.73,203.46 72.146,200.54375 C72.562,197.62625 73.812,171.37625 91.7285,157.20875 C93.36275,155.91625 78.396,159.29375 78.396,159.29375 L65.062,180.12625" id="path38" fill="#F7E4CD"></path>
                    <path d="M140.48125,206.37625 C140.48125,206.37625 141.4525,219.00625 144.85375,218.035 C148.255,217.06375 148.255,213.6625 148.255,213.6625 C148.255,213.6625 139.995,208.31875 140.48125,206.37625" id="path40" fill="#F7E4CD"></path>
                    <path d="M175.0625,252.62625 C175.0625,252.62625 168.195,251.17625 167.5625,245.12625 C166.93,239.075 175.0625,243.87625 176.3125,244.2925" id="path42" fill="#F7E4CD" fill-rule="nonzero"></path>
                    <path d="M124.646,252.20875 C124.646,252.20875 115.4785,250.95875 115.4785,245.12625 C115.4785,239.2925 125.89625,239.70875 128.8125,242.20875" id="path44" fill="#F7E4CD" fill-rule="nonzero"></path>
                    <path d="M67.9785,225.12625 C67.9785,225.12625 52.1445,234.71 50.4785,225.5425 C48.812,216.37625 45.061,209.70875 52.9785,200.12625 L47.562,201.7925 L42.562,214.70875 L40.896,227.20875 L50.4785,237.21 L61.312,236.37625 L67.562,231.37625 L67.9785,225.12625" id="path46" fill="#F7E4CD"></path>
                    <path d="M75.4785,251.37625 C75.4785,251.37625 82.562,288.0425 118.396,295.12625 C147.8975,300.9575 163.395,293.87625 169.22875,287.21 C169.22875,287.21 142.97875,318.45875 117.9785,308.87625 C92.9785,299.2925 74.646,281.7925 75.062,270.54375 C75.7715,251.38375 75.4785,251.37625 75.4785,251.37625" id="path48" fill="#F7E4CD"></path>
                    <path d="M172.14625,283.04375 C172.14625,283.04375 160.06375,283.46 159.64625,272.62625 C159.64625,272.62625 159.645,270.96 160.47875,269.29375 C160.47875,269.29375 170.06375,280.1275 175.89625,274.29375" id="path50" fill="#F7E4CD"></path>
                    <path d="M119.235875,268.165 C119.235875,268.165 117.15575,284.79375 102.9785,275.12625 C93.812,268.87625 94.646,260.12625 96.312,258.46 C97.9785,256.7925 97.525375,253.43625 98.794,255.74 C100.062,258.04375 99.6445,265.54375 104.2285,267.62625 C108.812,269.71 116.325625,272.0375 119.235875,268.165" id="path52" fill="#F7E4CD"></path>
                    <path d="M80.062,155.54375 L40.896,138.04375 C40.896,138.04375 57.146,73.46 48.812,53.46 L42.9785,55.5425 L42.562,80.1265 L31.73,126.7925 L27.146,139.71 L67.9785,167.20875 L80.062,155.54375" id="path54" fill="#49728B"></path>
                    <path d="M84.089375,119.82225 L89.646,113.0425 L89.646,88.0425 L82.9785,88.0425 C82.9785,88.0425 82.146,105.5425 82.146,107.6265 C82.146,109.71 82.9785,117.21 82.9785,117.21" id="path56" fill="#49728B"></path>
                    <polyline id="path58" fill="#49728B" points="84.2285 84.2925 65.4785 83.46 70.896 79.71 84.2285 77.6265"></polyline>
                    <polyline id="path60" fill="#335061" points="148.39625 88.46 163.8125 88.8765 167.5625 50.5425 151.72875 48.46 148.39625 88.46"></polyline>
                    <path d="M152.5625,88.46 L175.89625,89.71 C175.89625,89.71 185.47875,113.8765 185.47875,115.1265 C185.47875,116.3765 193.8125,150.12625 193.8125,150.12625 L175.0625,169.70875 L171.3125,173.0425 L161.3125,163.0425 L161.3125,124.2925 L152.5625,88.46" id="path62" fill="#335061"></path>
                    <path d="M162.97875,91.3765 L148.39625,88.46 L150.47875,76.7925 C155.895,74.2925 165.0625,80.96 165.0625,80.96" id="path64" fill="#49728B"></path>
                    <polyline id="path66" fill="#49728B" points="163.39625 164.2925 192.5625 142.62625 193.39625 152.62625 171.3125 173.0425 163.39625 164.2925"></polyline>
                    <polyline id="path68" fill="#FFFFFF" points="98.6885 6.3725625 90.062 41.3775 85.7715 67.206 85.062 86.3775 124.1055 88.456 148.39625 88.46 146.1875 44.706 149.9375 10.95605 149.52125 4.70605 117.8555 2.20605 98.6885 6.3725625"></polyline>
                    <path d="M142.97875,88.8765 C142.97875,88.8765 140.89625,45.5425 147.14625,14.71 C147.14625,14.71 134.64625,6.792475 116.312,4.7099625 L151.3125,5.9599625 L155.47875,8.4599625 L150.47875,76.7925 L149.22875,91.3775" id="path70" fill="#DCD9D8"></path>
                    <polyline id="path72" fill="#FFFFFF" points="168.2725 53.8725 184.5225 58.456 215.355 60.1225 219.93875 74.288625 211.605 98.8725 202.0225 100.1225 188.68875 95.956 175.89625 89.71 169.105 90.956 163.8125 88.8765"></polyline>
                    <path d="M167.97875,62.21 C167.97875,62.21 178.81125,67.209 180.47875,66.7925 L175.89625,89.71 L181.3125,91.7925 C181.3125,91.7925 185.0625,70.1265 185.0625,67.6265 C185.0625,67.6265 208.395,66.3765 210.47875,66.3765 C210.47875,66.3765 215.47875,75.96 214.22875,85.96 L218.8125,72.6265 L219.22875,65.1265 L212.5625,55.1265 L205.0625,53.46 L192.5625,53.8765 L188.39625,59.2925 L173.8125,57.21 L169.22875,55.5425" id="path74" fill="#DCD9D8"></path>
                    <path d="M151.605,91.788625 L142.43875,115.1225 L132.855,128.8725 C132.855,128.8725 134.9375,134.70625 137.855,134.70625 C140.7725,134.70625 147.43875,134.70625 147.43875,134.70625 L156.605,131.3725 L155.7725,115.956 L151.605,91.788625" id="path76" fill="#FFFFFF" fill-rule="nonzero"></path>
                    <path d="M153.39625,99.71 C153.39625,99.71 141.72875,122.209 141.72875,125.5425 C141.72875,125.5425 143.81125,130.5425 146.72875,129.2925 C149.64625,128.0425 155.89625,124.71 155.89625,124.71 L155.89625,132.62625 L141.72875,135.54375 L132.14625,134.29375 L148.39625,95.96 L151.72875,95.5425" id="path78" fill="#DCD9D8"></path>
                    <polyline id="path80" fill="#FFFFFF" fill-rule="nonzero" points="102.439 154.705 90.896 155.96 80.062 159.29375 80.062 155.54375 85.3555 149.70625 102.022 142.20625"></polyline>
                    <path d="M83.8135,153.45625 C83.8135,153.45625 96.731,148.03875 100.8975,149.28875 L101.312,144.29375 L89.6475,146.78875 L82.5635,151.78875 L83.8135,153.45625" id="path82" fill="#DCD9D8"></path>
                    <path d="M168.2275,133.2875 C161.1575,133.495 154.77,134.335 149.1775,135.9125 C149.5575,138.205 148.84625,140.455 149.4175,142.10625 C150.97625,143.22875 153.58875,143.21125 155.945,143.475 C153.9075,144.47625 151.045,144.8725 148.69375,144.29375 C148.63875,145.885 147.925,146.87125 147.4925,148.11625 C151.4675,149.535 160.85125,158.83625 166.13,155.75625 C168.645,154.29125 169.71375,145.92375 169.90875,141.855 C170.07125,138.48 169.6025,135.075 168.2275,133.2875" id="path84" fill="#D33833"></path>
                    <path d="M168.2275,133.2875 C161.1575,133.495 154.77,134.335 149.1775,135.9125 C149.5575,138.205 148.84625,140.455 149.4175,142.10625 C150.97625,143.22875 153.58875,143.21125 155.945,143.475 C153.9075,144.47625 151.045,144.8725 148.69375,144.29375 C148.63875,145.885 147.925,146.87125 147.4925,148.11625 C151.4675,149.535 160.85125,158.83625 166.13,155.75625 C168.645,154.29125 169.71375,145.92375 169.90875,141.855 C170.07125,138.48 169.6025,135.075 168.2275,133.2875 Z" id="path86" stroke="#D33833" stroke-width="2.5"></path>
                    <path d="M134.41875,144.845 C134.4,144.31 134.3775,143.77125 134.35625,143.23125 C132.14875,141.78125 128.585,141.79875 126.1625,140.58 C129.73375,140.42375 132.545,139.56375 134.9775,138.35125 C134.92375,137.00375 134.8725,135.6575 134.82,134.31 C130.77375,131.54 127.0775,127.415 122.3135,124.817375 C120.061,123.588875 112.15575,120.42775 109.75925,120.986375 C108.403375,121.30125 108.28125,122.983875 107.73925,124.569875 C106.5845,127.96625 103.92575,133.3725 103.693875,138.485 C103.3985,144.9425 102.746625,155.765 109.705625,154.435 C115.319875,153.36375 121.849625,150.7775 126.19625,148.4025 C128.8525,146.95 130.38875,145.155 134.41875,144.845" id="path88" fill="#D33833"></path>
                    <path d="M134.41875,144.845 C134.4,144.31 134.3775,143.77125 134.35625,143.23125 C132.14875,141.78125 128.585,141.79875 126.1625,140.58 C129.73375,140.42375 132.545,139.56375 134.9775,138.35125 C134.92375,137.00375 134.8725,135.6575 134.82,134.31 C130.77375,131.54 127.0775,127.415 122.3135,124.817375 C120.061,123.588875 112.15575,120.42775 109.75925,120.986375 C108.403375,121.30125 108.28125,122.983875 107.73925,124.569875 C106.5845,127.96625 103.92575,133.3725 103.693875,138.485 C103.3985,144.9425 102.746625,155.765 109.705625,154.435 C115.319875,153.36375 121.849625,150.7775 126.19625,148.4025 C128.8525,146.95 130.38875,145.155 134.41875,144.845 L134.41875,144.845 Z" id="path90" stroke="#D33833" stroke-width="2.5"></path>
                    <path d="M138.4375,137.14 C137.82,140.6575 137.10625,141.66125 137.3825,144.73 C146.76375,150.985 148.525,133.98625 138.4375,137.14" id="path92" fill="#D33833"></path>
                    <path d="M138.4375,137.14 C137.82,140.6575 137.10625,141.66125 137.3825,144.73 C146.76375,150.985 148.525,133.98625 138.4375,137.14 Z" id="path94" stroke="#D33833" stroke-width="2.5"></path>
                    <path d="M152.02125,134.28875 C152.02125,134.28875 149.10375,138.45625 151.1875,139.70625 C153.27125,140.95625 155.355,139.705 156.605,141.78875 C157.855,143.8725 156.605,145.1225 157.02125,147.6225 C157.4375,150.1225 159.5225,150.54 161.605,150.95625 C163.6875,151.3725 169.5225,152.20625 170.355,150.1225 L167.855,157.6225 L162.855,159.28875 L147.02125,150.1225 L146.1875,145.53875 L146.1875,136.3725" id="path96" fill="#EF3D3A"></path>
                    <path d="M108.2715,120.538625 C107.771,127.04125 107.24125,133.535 106.651875,140.03125 C105.77,149.73125 108.981875,148.03875 117.390125,148.03875 C118.674375,148.03875 125.2975,146.5075 125.77125,145.53875 C128.04375,140.8975 121.97125,141.92875 128.38875,138.42875 C133.80625,135.475 143.37625,140.2225 141.1875,146.78875 C139.9625,148.24875 134.805,147.24375 132.95625,148.2025 C129.70125,149.89 126.44625,151.5775 123.190875,153.265 C119.049375,155.41375 109.4775,158.54625 105.062,155.54375 C93.874,147.935 105.768125,128.92375 109.75925,120.986375" id="path98" fill="#EF3D3A"></path>
                    <path d="M119.235875,268.165 C107.879375,270.81 102.236375,263.4125 98.794,255.74 C95.72025,256.485 96.943375,260.665 97.71975,262.795 C99.7525,268.385 107.944375,275.82625 114.63775,274.8175 C117.518125,274.38375 121.416,271.75 119.235875,268.165" id="path100" fill="#231F20"></path>
                    <path d="M174.56875,255.2325 C174.7475,255.225 174.92875,255.21875 175.1075,255.21125 C177.67375,249.88 179.895,244.2325 183.1325,239.52625 C180.96375,234.475 166.71,230.005 166.93,239.075 C170.0125,240.4225 175.33375,239.35 178.06625,241.07125 C176.48625,245.4075 174.20625,249.09875 174.56875,255.2325" id="path102" fill="#231F20"></path>
                    <path d="M125.05,255.09375 C127.485,250.63 128.2775,245.94 131.73875,242.56625 C133.2975,241.0475 136.32875,239.19625 134.82625,234.9725 C134.475,233.97625 131.90875,231.755 130.4275,231.31875 C125.01625,229.72125 112.40725,230.98875 116.67725,237.735 C121.152375,237.52625 127.1675,234.82875 130.5125,238.0775 C127.94375,242.18375 123.36425,250.3075 125.05,255.09375" id="path104" fill="#231F20"></path>
                    <path d="M172.5375,209.72625 C164.39,204.4925 155.305,198.80125 141.955,200.12125 C139.1025,202.60125 138.015,208.12 140.78625,211.765 C142.22875,209.285 141.3225,204.72375 145.3425,204.0375 C152.9175,202.74125 161.73375,208.67125 167.1825,210.74375 C170.56125,216.44 166.89125,218.535 163.8475,222.20125 C157.61625,229.7125 149.2575,239.0225 149.56125,250.2675 C152.08,252.09375 152.2975,247.48 152.65875,246.64 C155.9125,239.025 164.10125,229.28625 170.0775,222.76875 C171.545,221.16375 173.96125,219.62375 174.23,218.5625 C175.005,215.47625 172.21375,211.77875 172.5375,209.72625" id="path106" fill="#231F20"></path>
                    <path d="M65.127,215.23625 C62.57325,216.69375 61.965375,223.11375 58.96725,223.29625 C54.682625,223.55625 55.463875,214.9675 55.481,209.945 C52.53175,212.6225 52.013125,220.86625 54.17975,225.1 C51.7105,226.3125 50.607875,223.7625 49.23825,222.86375 C50.9985,235.65125 67.944375,228.795 65.127,215.23625" id="path108" fill="#231F20"></path>
                    <path d="M177.725,204.40125 C173.9325,197.1825 168.5675,189.2325 157.43875,189.00125 C157.2125,191.3325 157.03875,194.88 157.45125,196.28375 C165.95875,197.10125 171.21125,201.43125 177.725,204.40125" id="path110" fill="#231F20"></path>
                    <path d="M124.40825,199.72125 C131.50625,195.98875 144.55125,195.5875 154.19875,195.87 C154.71625,193.75625 154.70375,191.145 154.72375,188.5675 C142.3225,187.94875 127.66,191.0175 124.40825,199.72125" id="path112" fill="#231F20"></path>
                    <path d="M123.059125,192.76125 C127.9675,180.4375 144.8375,181.85625 159.06375,182.19625 C158.4375,180.59625 157.08,178.70625 155.3925,178.0225 C150.83375,176.1675 138.26,174.76 131.93125,178.12125 C127.9175,180.255 125.33875,185.07625 123.139625,187.9025 C122.077625,189.2675 116.7895,192.75375 123.059125,192.76125" id="path114" fill="#231F20"></path>
                    <path d="M171.945,124.78275 C166.185,114.9175 160.67375,104.785125 153.84,96.0835 C156.705,104.507375 157.93125,118.6065 158.36375,129.355 C164.3575,132.16 169.49,128.72375 171.945,124.78275" id="path116" fill="#81B0C4"></path>
                    <path d="M202.94,89.326125 C196.49125,88.035125 191.96,81.767625 185.66875,82.169875 C189.12625,87.044 195.185,89.098625 202.94,89.326125" id="path118" fill="#231F20"></path>
                    <path d="M205.785,79.233875 C200.52875,78.67875 194.355,77.827625 189.02375,78.266125 C191.5475,82.121125 201.27125,80.791 205.785,79.233875" id="path120" fill="#231F20"></path>
                    <path d="M207.60625,70.53275 C201.69875,70.40475 194.35625,70.5225 188.74125,70.993625 C192.0625,74.561 203.775,72.317375 207.60625,70.53275" id="path122" fill="#231F20"></path>
                    <path d="M160.83,46.72125 C161.6775,39.30225 164.61875,31.785125 164.25,23.660125 C160.98375,22.558625 159.1075,21.59525 154.73125,21.601125 C154.4225,28.506375 153.49875,39.0625 153.775,45.645 C155.9275,45.5025 159.10125,47.182625 160.83,46.72125" id="path124" fill="#DCD9D8"></path>
                    <path d="M151.30625,156.06125 C148.34,154.125 145.81375,151.7075 142.965,149.64 C136.6475,149.3275 133.2,150.0775 128.55875,153.705 C128.635,153.99625 129.10125,153.86625 129.11875,154.22375 C135.88125,151.21 144.4775,155.45125 151.30625,156.06125" id="path126" fill="#F0D6B7"></path>
                    <path d="M115.805625,109.963875 C117.663625,118.015125 124.943875,122.185 131.555,126.61875 C138.37875,117.9585 142.52875,106.82125 147.09875,96.07375 C136.30125,99.328625 125.26875,104.609875 115.805625,109.963875" id="path128" fill="#81B0C4"></path>
                    <path d="M153.775,45.645 C153.49875,39.0625 154.4225,28.506375 154.73125,21.601125 C159.1075,21.59525 160.98375,22.558625 164.25,23.660125 C164.61875,31.785125 161.6775,39.30225 160.83,46.72125 C159.10125,47.182625 155.9275,45.5025 153.775,45.645 L153.775,45.645 Z M85.632375,83.081 C88.518125,56.55225 92.69775,34.2515 100.36375,10.7597625 C117.377875,5.59375 137.88875,5.14355 152.9275,9.805175 C150.16625,23.064 151.3725,39.206 149.75875,53.355 C148.5425,63.98975 149.1625,74.69 147.495,85.54 C129.2725,89.331 103.515625,86.42625 85.632375,83.081 L85.632375,83.081 Z M151.80375,85.3735 C151.65,73.98 152.31375,62.74125 153.18375,51.3335 C157.55875,51.99025 160.5275,52.42875 164.5925,53.319875 C163.2725,64.30225 163.435,76.660125 160.74625,86.375 C157.63875,86.34525 154.9025,86.411125 151.80375,85.3735 L151.80375,85.3735 Z M173.9975,87.21 C171.92125,87.686 169.50375,87.2285 167.52,87.19 C168.4525,77.902375 170.715,67.65375 171.51125,57.90475 C174.6325,57.807625 176.3,59.27975 178.8675,59.774875 C179.005,68.3325 178.12,80.1225 173.9975,87.21 L173.9975,87.21 Z M207.6025,56.506375 C214.10875,58.086375 218.2,66.055125 216.38,74.23875 C215.15875,79.73875 212.98375,90.09525 210.65625,93.61375 C208.93625,96.21625 204.2725,99.6235 200.54875,97.23875 C194.49125,93.359875 183.82,92.233875 179.4025,87.538625 C181.6175,80.163625 182.305,70.03375 183.21875,60.689 C190.78625,60.21725 200.0975,62.7715 206.39125,60.061 C201.9975,58.63775 196.29625,58.6265 192.5,56.55225 C195.6025,55.05375 202.86625,55.3565 207.6025,56.506375 L207.6025,56.506375 Z M147.09875,96.07375 C142.52875,106.82125 138.37875,117.9585 131.555,126.61875 C124.943875,122.185 117.663625,118.015125 115.805625,109.963875 C125.26875,104.609875 136.30125,99.328625 147.09875,96.07375 Z M158.36375,129.355 C157.93125,118.6065 156.705,104.507375 153.84,96.0835 C160.67375,104.785125 166.185,114.9175 171.945,124.78275 C169.49,128.72375 164.3575,132.16 158.36375,129.355 L158.36375,129.355 Z M145.59375,133.8925 C143.005,134.17125 140.8075,130.91625 137.44125,132.32375 C136.67,131.47125 135.96875,130.5475 135.1825,129.715 C142.6175,120.754875 145.99625,108.0425 151.73875,97.51275 C154.82,107.6275 154.465,118.709 155.14375,129.74875 C150.91,129.48 148.56125,133.5775 145.59375,133.8925 Z M137.3825,144.73 C137.10625,141.66125 137.82,140.6575 138.4375,137.14 C148.525,133.98625 146.76375,150.985 137.3825,144.73 Z M126.19625,148.4025 C121.849625,150.7775 115.319875,153.36375 109.705625,154.435 C102.746625,155.76625 103.3985,144.9425 103.693875,138.485 C103.92575,133.3725 106.5845,127.96625 107.73925,124.569875 C108.28125,122.983875 108.403375,121.30125 109.75925,120.986375 C112.15575,120.42775 120.061,123.588875 122.3135,124.817375 C127.0775,127.415 130.77375,131.54 134.82,134.31 C134.8725,135.6575 134.92375,137.00375 134.9775,138.35125 C132.545,139.56375 129.73375,140.42375 126.1625,140.58 C128.585,141.79875 132.14875,141.78125 134.35625,143.23125 C134.3775,143.77125 134.4,144.31 134.41875,144.845 C130.38875,145.155 128.8525,146.95 126.19625,148.4025 L126.19625,148.4025 Z M84.67925,155.94375 C81.07175,152.28125 94.797375,147.28875 99.1675,147.02 C99.143125,149.3375 100.48825,151.5225 100.21725,153.185 C95.026875,154.09625 88.205625,153.495 84.67925,155.94375 L84.67925,155.94375 Z M129.11875,154.22375 C129.10125,153.86625 128.635,153.99625 128.55875,153.705 C133.2,150.0775 136.6475,149.3275 142.965,149.64 C145.81375,151.7075 148.34,154.125 151.30625,156.06125 C144.4775,155.45125 135.88125,151.21 129.11875,154.22375 L129.11875,154.22375 Z M169.90875,141.855 C169.71375,145.92375 168.645,154.29125 166.13,155.75625 C160.85125,158.8375 151.4675,149.535 147.4925,148.11625 C147.925,146.87125 148.63875,145.885 148.69375,144.29375 C151.045,144.8725 153.9075,144.47625 155.945,143.475 C153.58875,143.21125 150.97625,143.22875 149.4175,142.10625 C148.84625,140.455 149.5575,138.205 149.1775,135.9125 C154.77,134.335 161.1575,133.495 168.2275,133.2875 C169.6025,135.075 170.07125,138.48 169.90875,141.855 L169.90875,141.855 Z M78.606,152.40125 C77.473125,153.20875 69.809625,163.18 68.75975,162.76625 C54.892625,157.2975 41.92625,147.84125 30.339375,138.8975 C41.38675,115.192375 45.84625,86.149875 46.63425,58.15775 C59.2895,52.23875 70.40525,43.706 87.578125,42.815 C85.590875,56.875 83.776875,69.419 82.648875,82.65625 C78.334,84.475125 72.1435,82.57375 68.1055,83.22025 C68.07125,88.086375 74.2725,85.351125 74.789,88.6235 C75.17825,91.098625 71.377,91.286125 72.61475,95.183625 C75.7715,94.036125 77.42925,91.5015 80.795875,90.54975 C83.872125,97.27975 80.752875,109.1875 81.19625,114.8125 C81.28025,115.868625 81.723625,120.663625 84.089375,119.82225 C86.183125,119.077625 83.96975,107.069875 84.19925,101.746125 C84.40825,96.84125 83.606875,92.09525 85.59325,89.016125 C102.1875,91.274875 119.05025,92.734875 137.005,93.2275 C133.055,94.922375 128.3625,96.526375 123.21775,99.42625 C120.42875,100.9985 111.63725,104.27 110.8325,106.919 C109.548375,111.140125 114.201625,113.388625 114.9975,117.007375 C106.621125,112.439 104.986875,121.38625 103.005375,127.725 C101.21,133.46625 100.188,137.755 99.7475,141.06625 C92.53175,144.50625 84.816875,147.99 78.606,152.40125 L78.606,152.40125 Z M162.58,161.56 C174.13375,167.1625 176.21625,140.62125 171.6875,132.07125 C172.3875,129.52125 174.795,128.545 175.7775,126.2525 C169.33,114.702625 162.16875,103.921375 155.59,92.507375 C160.48375,95.55375 167.47375,93.05225 173.2325,95.3325 C175.3375,96.165 176.86125,100.983875 178.455,104.838875 C182.83875,115.444875 187.44125,128.81625 189.48875,138.9375 C189.95125,141.24375 191.21125,146.26875 190.92875,148.32125 C190.425,151.99625 185.43875,154.72125 182.9025,156.99375 C178.23,161.19125 175.2875,164.885 170.41375,168.81 C168.4375,165.8925 164.19625,163.9325 162.58,161.56 L162.58,161.56 Z M52.182625,264.02 C46.67725,257.9625 47.829625,246.6125 48.496125,238.5375 C58.44725,244.7975 71.65525,238.0425 71.53075,227.395 C76.28175,227.52125 73.305625,233.32875 72.44625,237.07 C69.63775,249.29 77.17775,262.56625 72.788125,273.74125 C64.265125,273.095 57.263125,269.61375 52.182625,264.02 L52.182625,264.02 Z M91.57475,299.1775 C79.111375,295.645 63.138125,286.58875 58.016625,275.3925 C61.982375,275.96875 64.735375,277.96875 68.6475,278.21625 C70.126,278.3125 72.063,277.59625 73.76225,278.01875 C77.1485,278.85875 80.006375,286.45125 82.561,289.27625 C85.05125,292.035 88.044375,293.21375 90.09275,295.72875 C91.40875,296.36375 93.3545,296.32 93.42925,298.29625 C92.858875,298.90625 92.25825,299.37125 91.57475,299.1775 L91.57475,299.1775 Z M156.45375,295.855 C143.5175,303.15375 121.621125,308.64375 107.860375,301.78375 C96.756875,296.2475 81.748,287.0875 76.630875,275.48 C81.411125,264.27875 75.214875,254.015 74.819375,242.6425 C74.609375,236.59125 77.6685,231.30875 77.902875,224.72125 C76.267125,222.0225 71.2695,221.69 67.81,221.875 C66.6455,227.7025 64.606875,234.2525 58.606,234.91 C50.11475,235.83875 43.90625,228.81125 43.5205,221.4675 C43.064,212.83125 50.15375,198.5175 60.202625,199.51125 C64.0845,199.895 65.038125,203.78625 69.267625,203.74625 C71.56,199.1725 65.7315,197.73625 65.131875,194.465 C64.975625,193.62 65.61525,190.3175 65.98725,188.76875 C67.8125,181.2275 71.881375,171.4675 75.88625,165.72625 C80.96925,158.44375 90.955625,157.34625 101.69925,156.6325 C103.618125,160.76625 110.687,160.42625 115.293,159.345 C109.773,161.53125 104.641125,166.83125 100.388125,171.5225 C95.502875,176.905 90.55425,182.67875 90.30425,189.71375 C99.536125,176.90625 107.163125,165.72125 123.95025,160.0875 C136.6525,155.8275 151.4875,162.04 161.2475,168.89375 C165.2975,171.7425 167.715,176.2625 170.59375,180.4 C181.365,195.89375 186.39125,218.00875 185.28625,239.44375 C184.83125,248.28375 184.85125,257.09375 181.885,263.04125 C178.785,269.26 168.3,274.82375 162.1625,269.19875 C161.025,275.24625 167.26625,278.98625 174.5975,276.81 C169.37,283.55625 163.88375,291.6625 156.45375,295.855 L156.45375,295.855 Z M180.555,96.396 C190.66375,101.421375 209.55125,109.922375 215.88875,96.3775 C218.2275,91.38475 220.97125,82.944875 222.1825,77.791 C223.89375,70.52 220.3275,55.23725 212.85375,52.797375 C206.2525,50.642625 198.55,50.773875 190.59875,52.371125 C189.6625,53.149875 188.62,54.507375 187.89125,55.922375 C182.21375,56.142625 176.8975,55.617625 172.4125,53.28375 C172.8375,49.085 169.9975,48.411125 167.335,47.546375 C165.36125,39.72025 171.28375,29.5 169.86625,22.36375 C168.855,17.27975 162.6,16.493625 158.0025,15.5425 C157.8525,12.71725 158.20375,10.3588875 158.5175,7.96875 C157.46625,4.0952125 152.75125,1.8901375 148.28375,1.3501 C133.585,-0.41748 111.267125,-1.21142625 97.128875,3.8725625 C93.183625,13.54975 90.075625,25.319875 86.7895,36.370125 C73.0005,34.8975 61.848125,42.319875 51.3345,47.182625 C47.694375,48.870125 42.65875,49.79975 41.298875,52.69725 C39.9805,55.5025 40.52,60.878875 40.192875,65.9575 C39.360375,78.92875 38.6475,91.44 35.222125,104.72125 C33.684125,110.681125 31.003375,115.94 29.13325,121.682625 C27.40475,127.005 24.38475,133.5825 23.597125,138.89 C22.42925,146.75625 29.836375,147.19375 34.57275,150.6025 C41.8945,155.87375 47.641625,158.78875 55.57125,163.54625 C57.919875,164.955 65.0025,168.52125 65.808125,170.16375 C67.409625,173.42 63.059125,178.01125 61.896,180.56375 C60.056125,184.6 59.096625,188.02875 58.833,192.01125 C52.181125,193.0625 47.138625,197.02125 44.09275,201.485 C39.05425,208.8725 35.56,222.54 39.919375,232.93625 C40.26125,233.755 41.96625,235.365 42.21775,236.6225 C42.713875,239.09875 41.284125,242.39125 41.19525,245.025 C40.73725,258.5375 43.4815,270.18 52.578125,274.255 C56.271,288.96625 69.48825,293.8575 81.940875,301.16875 C86.59575,303.90125 91.727,305.6475 97.026375,307.5975 C116.036625,314.59375 145.20375,313.27625 160.98125,301.34375 C167.67125,296.28375 178.365,285.6 182.19,277.865 C192.2925,257.44375 191.575,223.315 184.50875,198.47375 C183.55875,195.13875 182.18125,190.23625 180.2575,186.23 C178.91625,183.4325 174.7475,177.835 175.25375,175.365 C175.775,172.81125 184.75875,165.99 186.685,164.1325 C190.15375,160.78625 196.74375,156.345 197.2775,152.1225 C197.85125,147.62875 195.2975,141.48125 194.00375,137.145 C189.67875,122.673875 185.45875,109.297375 180.555,96.396 L180.555,96.396 Z" id="path130" fill="#231F20"></path>
                    <path d="M113.11375,196.56875 C113.662125,197.29875 116.67725,198.4075 120.896,196.37625 C120.896,196.37625 115.896,195.5425 116.312,187.20625 L114.2285,187.62375 C114.2285,187.62375 112.07525,195.1825 113.11375,196.56875" id="path132" fill="#F7E4CD"></path>
                    <path d="M149.64625,124.9175 C149.64625,123.652375 148.62,122.6265 147.35375,122.6265 C146.08875,122.6265 145.0625,123.652375 145.0625,124.9175 C145.0625,126.1825 146.08875,127.21 147.35375,127.21 C148.62,127.21 149.64625,126.1825 149.64625,124.9175" id="path134" fill="#1D1919"></path>
                    <path d="M151.9375,114.2925 C151.9375,113.027375 150.91125,112.0015 149.645,112.0015 C148.38,112.0015 147.35375,113.027375 147.35375,114.2925 C147.35375,115.557625 148.38,116.585 149.645,116.585 C150.91125,116.585 151.9375,115.557625 151.9375,114.2925" id="path136" fill="#1D1919"></path>
                </g>
            </g>
        </g>
    </g>
</svg>