<?xml version="1.0" encoding="UTF-8"?>
<svg width="160px" height="160px" viewBox="0 0 160 160" version="1.1" xmlns="http://www.w3.org/2000/svg" xmlns:xlink="http://www.w3.org/1999/xlink">
    <!-- Generator: Sketch 54.1 (76490) - https://sketchapp.com -->
    <title>kaniko</title>
    <desc>Created with Sketch.</desc>
    <g id="Page-1" stroke="none" stroke-width="1" fill="none" fill-rule="evenodd">
        <g id="kaniko" transform="translate(-1.000000, -1.000000)" fill-rule="nonzero">
            <path d="M12.478,159.2342 C7.9793,157.0712 6.7029,155.9801 3.9831,151.9723 L1.7212,148.6392 L1.7212,12.3092 L4.2206,8.8589 C5.5952,6.9613 8.2092,4.4829 10.0293,3.3514 L13.3386,1.2941 L148.4486,1.2941 L151.6941,3.3119 C161.4823,9.3975 161.0164,17.2109 149.7288,36.2689 C146.4334,41.8328 146.0607,42.7793 148.083,40.4494 C149.5208,38.7928 152.5147,34.2581 154.7362,30.3724 C156.9577,26.4865 159.2593,23.1103 159.8509,22.8696 C160.70501,22.52221 160.9266,34.1476 160.9266,79.3066 C160.9266,142.2016 161.2167,139.4476 155.6852,129.0696 C144.7262,108.5086 121.5152,91.3766 94.2262,83.7066 C85.9097,81.3691 83.9302,79.6611 88.4256,78.7025 C98.4876,76.5571 115.4326,69.6935 120.0506,65.8925 C120.9972,65.1134 119.06097,65.8001 115.7479,67.4185 C108.209,71.1011 94.4529,75.5394 88.3589,76.2557 C82.3713,76.95942 82.6434,78.2431 82.6289,49.2197 C82.6212,33.7747 82.32217,25.9017 81.7566,26.2507 C81.21502,26.58542 80.89605,36.0024 80.89605,51.6577 C80.89605,80.4117 81.62784,78.3137 71.59415,78.3137 C57.38315,78.3137 55.69715,81.2165 69.37505,82.1327 C74.39775,82.46915 79.04465,82.95067 79.70205,83.2027 C80.68453,83.57971 80.89645,88.2921 80.89645,109.7647 C80.89645,126.2387 81.2139,136.0647 81.757,136.4007 C82.32285,136.75041 82.62157,128.5901 82.6293,112.5717 C82.64472,80.6067 81.73735,82.4227 95.8873,86.0417 C123.3073,93.0546 144.3913,110.2047 155.9703,134.9137 C161.8853,147.5357 160.6382,153.2287 150.7832,158.5927 L146.4948,160.9267 L81.2098,160.9078 C18.5818,160.8897 15.7848,160.8215 12.4828,159.2339 L12.478,159.2342 Z M144.678,44.9642 C145.7484,43.5993 145.718,43.5689 144.3531,44.6393 C142.9196,45.7635 142.4638,46.4702 143.1721,46.4702 C143.35079,46.4702 144.02847,45.79252 144.6781,44.9642 L144.678,44.9642 Z" id="Shape" fill="#FAECD2"></path>
            <path d="M14.721,159.6242 C10.3885,158.2732 4.656,153.1714 2.911,149.1132 C1.93156,146.8353 1.7203,134.6352 1.7203,80.3452 L1.7203,14.3462 L3.9471,10.5465 C5.2286,8.3598 7.8573,5.6792 10.1394,4.2319 L14.1049,1.717 L80.6719,1.717 C152.9049,1.717 149.4499,1.50162 154.7649,6.3355 C165.1409,15.7734 145.6099,49.1525 121.4299,63.3075 C109.7799,70.1273 92.2239,76.2505 86.2819,75.5675 L83.9037,75.29407 L83.47343,50.55207 C82.89677,17.39207 81.46573,17.48807 80.89183,50.72507 C80.39284,79.62007 81.41024,77.19107 69.48783,77.96107 C55.38783,78.87264 55.35583,82.11187 69.43985,82.83067 C81.85185,83.46414 80.89185,81.01147 80.89185,112.10267 C80.89185,132.29867 81.12299,137.74967 81.96755,137.46767 C82.78847,137.19429 83.09735,131.13107 83.27155,111.86667 C83.52171,84.21467 83.52815,84.18167 88.47485,84.94067 C116.18185,89.19367 141.46185,107.56267 153.95585,132.52067 C161.73645,148.06267 159.71835,155.81567 146.90115,159.62167 C140.71655,161.45827 20.61115,161.45967 14.72115,159.62367 L14.721,159.6242 Z M154.531,125.2682 C141.429,105.5762 123.055,91.9992 99.124,84.3252 C87.524,80.6058 87.491,80.3629 98.121,76.8852 C123.99,68.4214 142.786,52.7772 158.021,27.0292 C159.9507,23.7679 160.0683,27.15108 159.8496,79.6642 L159.62784,132.9292 L154.531,125.2682 Z" id="Shape" fill="#FDDEA7"></path>
            <path d="M14.199,158.7642 C1.727,154.35 1.732,154.3763 1.726,79.9812 L1.7212,16.6852 L3.9615,12.1894 C6.2462,7.6046 9.582,4.5131 14.2005,2.7 C16.1221,1.94571 33.5735,1.74514 82.3255,1.91706 L147.8665,2.14818 L151.5563,4.74178 C153.5857,6.16828 155.9904,8.60988 156.9002,10.16768 L158.5544,12.99998 L155.8675,20.45978 C146.3593,46.85778 124.1925,66.04378 94.5685,73.51378 C83.4425,76.31948 84.3995,78.48588 84.1315,49.87978 L83.90265,25.38378 L81.96645,25.10879 L80.03025,24.8338 L80.03025,50.2288 C80.03025,66.9548 79.72336,75.8138 79.13123,76.1798 C78.63677,76.4854 74.08663,76.99231 69.02023,77.3063 L59.80783,77.87715 L59.80783,83.04045 L68.84693,83.50418 C81.21093,84.13848 80.03093,81.19508 80.03093,111.39718 C80.03093,132.42818 80.25514,137.58718 81.18463,137.94418 C84.09693,139.06178 84.30533,137.41066 84.53573,111.39618 L84.76394,85.62218 L88.04764,85.88163 C117.18364,88.18373 151.85564,117.38963 158.74164,145.42963 C159.80254,149.75003 152.95424,157.28763 146.21164,159.22163 C141.15774,160.67103 18.38164,160.24623 14.20164,158.76483 L14.199,158.7642 Z M154.539,125.2682 C141.437,105.5762 123.063,91.9992 99.132,84.3252 C87.532,80.6058 87.499,80.3629 98.129,76.8852 C123.998,68.4214 142.794,52.7772 158.029,27.0292 C159.9587,23.7679 160.0763,27.15108 159.8576,79.6642 L159.63584,132.9292 L154.539,125.2682 Z" id="Shape" fill="#FEC661"></path>
            <path d="M13.261,157.9742 C2.271,153.1895 2.454,154.5654 2.754,79.0272 L3.01186,13.9142 L5.63166,10.1832 C7.07256,8.1311 9.97696,5.484 12.08576,4.3008 L15.91996,2.1494 L145.85996,2.1494 L149.40906,4.0479 C158.92516,9.1383 159.29446,13.6544 151.47106,29.2609 C139.92006,52.3029 107.72006,74.8659 86.38806,74.8659 C85.39447,74.8659 85.19146,70.7341 85.19146,50.5129 C85.19146,25.3579 85.02298,24.0939 81.66926,24.0939 C79.31146,24.0939 79.16766,25.651 79.16766,51.1799 C79.16766,79.2709 80.24806,76.5879 68.93566,76.5879 C53.60966,76.5879 53.53266,82.5713 68.84157,83.9025 L78.73787,84.76305 L79.16814,111.44005 L79.59841,138.11705 L81.65241,138.40747 C84.99181,138.87964 85.16491,137.54 85.17871,111.12747 L85.19191,85.85847 L89.27951,86.46999 C116.25151,90.50519 141.02851,108.86599 153.28751,133.90299 C159.97891,147.56899 159.15761,152.70799 149.53821,157.36499 C144.75141,159.68219 18.47821,160.24789 13.25821,157.97543 L13.261,157.9742 Z M154.531,125.2702 C141.429,105.5782 123.055,92.0012 99.124,84.3272 C87.524,80.6078 87.491,80.3649 98.121,76.8872 C123.99,68.4234 142.786,52.7792 158.021,27.0312 C159.9507,23.7699 160.0683,27.15308 159.8496,79.6662 L159.62784,132.9312 L154.531,125.2702 Z" id="Shape" fill="#FEBE49"></path>
            <path d="M16.134,157.9842 C2.357,154.2778 2.474,154.9734 2.769,78.6412 L3.01113,15.9192 L4.93943,12.3117 C7.08473,8.2981 10.97853,5.0412 15.40243,3.5601 C19.69863,2.1217 141.75243,2.1814 146.56243,3.62425 C158.67843,7.25435 158.91043,16.61225 147.34652,35.24625 C135.36752,54.54925 108.58252,72.12525 89.28752,73.34425 L85.62242,73.57587 L85.3941,48.84787 L85.16579,24.11987 L82.89369,23.54961 C78.52589,22.45341 78.30779,23.75105 78.30779,50.83161 L78.30779,75.51961 L68.40649,76.13826 C59.02119,76.72468 58.47929,76.86042 58.00649,78.74296 C57.07744,82.44456 58.96,84.33146 63.58229,84.33146 C65.86269,84.33146 70.10879,84.58025 73.01799,84.88433 L78.30749,85.43719 L78.30749,110.96619 C78.30749,138.51319 78.51412,139.85719 82.65839,139.27219 L84.76159,138.97532 L84.98951,112.83432 L85.21743,86.69332 L89.72253,87.28347 C117.54053,90.92747 146.83453,114.73947 155.76353,140.96747 L157.86873,147.15117 L156.18223,150.28287 C154.13443,154.08537 149.76783,157.09027 144.57023,158.27387 C138.50103,159.65587 21.37023,159.38937 16.13023,157.98172 L16.134,157.9842 Z M154.534,125.2712 C141.432,105.5792 123.058,92.0022 99.127,84.3282 C87.527,80.6088 87.494,80.3659 98.124,76.8882 C123.993,68.4244 142.789,52.7802 158.024,27.0322 C159.9537,23.7709 160.0713,27.15408 159.8526,79.6672 L159.63084,132.9322 L154.534,125.2712 Z" id="Shape" fill="#ADACAB"></path>
            <path d="M16.134,157.9842 C2.357,154.2778 2.474,154.9734 2.769,78.6412 L3.01113,15.9192 L4.93943,12.3117 C7.08473,8.2981 10.97853,5.0412 15.40243,3.5601 C19.69863,2.1217 141.75243,2.1814 146.56243,3.62425 C158.67843,7.25435 158.91043,16.61225 147.34652,35.24625 C135.36752,54.54925 108.58252,72.12525 89.28752,73.34425 L85.62242,73.57587 L85.3941,48.84787 L85.16579,24.11987 L82.89369,23.54961 C78.52589,22.45341 78.30779,23.75105 78.30779,50.83161 L78.30779,75.51961 L68.40649,76.13826 C59.02119,76.72468 58.47929,76.86042 58.00649,78.74296 C57.07744,82.44456 58.96,84.33146 63.58229,84.33146 C65.86269,84.33146 70.10879,84.58025 73.01799,84.88433 L78.30749,85.43719 L78.30749,110.96619 C78.30749,138.51319 78.51412,139.85719 82.65839,139.27219 L84.76159,138.97532 L84.98951,112.83432 L85.21743,86.69332 L89.72253,87.28347 C117.54053,90.92747 146.83453,114.73947 155.76353,140.96747 L157.86873,147.15117 L156.18223,150.28287 C154.13443,154.08537 149.76783,157.09027 144.57023,158.27387 C138.50103,159.65587 21.37023,159.38937 16.13023,157.98172 L16.134,157.9842 Z M155.024,123.3322 C144.947,106.9172 122.645,90.5122 100.2,83.0032 C96.445,81.747 93.2511,80.6039 93.1026,80.463 C92.95404,80.32214 95.4711,79.3435 98.6962,78.2883 C120.4922,71.1566 141.2232,55.5463 153.2382,37.2183 C155.798,33.3136 158.1875,30.1188 158.5482,30.1188 C159.39893,30.1188 159.4093,127.1348 158.5586,127.6488 C158.20363,127.86352 156.613,125.9212 155.0239,123.3326 L155.024,123.3322 Z" id="Shape" fill="#999999"></path>
            <path d="M16.134,157.9842 C2.357,154.2778 2.474,154.9734 2.769,78.6412 L3.01113,15.9192 L4.93943,12.3117 C7.08473,8.2981 10.97853,5.0412 15.40243,3.5601 C19.69863,2.1217 141.75243,2.1814 146.56243,3.62425 C158.67843,7.25435 158.91043,16.61225 147.34652,35.24625 C135.36752,54.54925 108.58252,72.12525 89.28752,73.34425 L85.62242,73.57587 L85.3941,48.84787 L85.16579,24.11987 L82.89369,23.54961 C78.52589,22.45341 78.30779,23.75105 78.30779,50.83161 L78.30779,75.51961 L68.40649,76.13826 C59.02119,76.72468 58.47929,76.86042 58.00649,78.74296 C57.07744,82.44456 58.96,84.33146 63.58229,84.33146 C65.86269,84.33146 70.10879,84.58025 73.01799,84.88433 L78.30749,85.43719 L78.30749,110.96619 C78.30749,138.51319 78.51412,139.85719 82.65839,139.27219 L84.76159,138.97532 L84.98951,112.83432 L85.21743,86.69332 L89.72253,87.28347 C117.54053,90.92747 146.83453,114.73947 155.76353,140.96747 L157.86873,147.15117 L156.18223,150.28287 C154.13443,154.08537 149.76783,157.09027 144.57023,158.27387 C138.50103,159.65587 21.37023,159.38937 16.13023,157.98172 L16.134,157.9842 Z" id="Path" fill="#FEA501"></path>
        </g>
    </g>
</svg>