<?xml version="1.0" encoding="UTF-8"?>
<svg width="256px" height="249px" viewBox="0 0 256 249" version="1.1" xmlns="http://www.w3.org/2000/svg" xmlns:xlink="http://www.w3.org/1999/xlink">
    <!-- Generator: Sketch 54.1 (76490) - https://sketchapp.com -->
    <title>kubernetes</title>
    <desc>Created with Sketch.</desc>
    <g id="Page-1" stroke="none" stroke-width="1" fill="none" fill-rule="evenodd">
        <g id="kubernetes" transform="translate(0.531514, 0.165161)" fill-rule="nonzero">
            <path d="M81.5536477,244.769033 C75.6078412,244.769033 69.9923574,242.126452 66.1936477,237.336774 L8.38719604,165.491613 C4.58848636,160.701936 3.10203475,154.590968 4.58848636,148.645162 L25.2336477,58.9625806 C26.554938,53.0167742 30.518809,48.2270968 35.9691316,45.5845161 L119.540744,5.61548387 C122.183325,4.29419355 125.156228,3.63354839 128.129131,3.63354839 C131.102034,3.63354839 134.074938,4.29419355 136.717518,5.61548387 L220.289131,45.4193548 C225.739454,48.0619355 229.703325,52.8516129 231.024615,58.7974193 L251.669776,148.48 C252.991067,154.425807 251.669776,160.536774 247.871067,165.326452 L190.064615,237.171613 C186.265905,241.796129 180.650421,244.603871 174.704615,244.603871 L81.5536477,244.769033 L81.5536477,244.769033 Z" id="Path" fill="#326DE6"></path>
            <path d="M127.96397,7.76258065 C130.276228,7.76258065 132.588486,8.25806452 134.735583,9.24903226 L218.307196,49.0529032 C222.601389,51.2 225.904615,55.163871 226.895583,59.7883871 L247.540744,149.470968 C248.696873,154.260645 247.540744,159.215484 244.40268,163.014194 L186.596228,234.859355 C183.623325,238.658065 178.998809,240.805162 174.209131,240.805162 L81.5536477,240.805162 C76.7639703,240.805162 72.1394541,238.658065 69.1665509,234.859355 L11.3600993,163.014194 C8.38719604,159.215484 7.23106701,154.260645 8.22203475,149.470968 L28.8671961,59.7883871 C30.0233251,54.9987097 33.1613896,51.0348387 37.4555832,49.0529032 L121.027196,9.08387097 C123.174292,8.25806452 125.651712,7.76258065 127.96397,7.76258065 L127.96397,7.76258065 Z M127.96397,0 L127.96397,0 C124.495583,0 121.027196,0.825806452 117.72397,2.31225806 L34.1523574,42.2812903 C27.5459058,45.4193548 22.9213896,51.2 21.2697767,58.3019355 L0.624615394,147.984516 C-1.02699751,155.086452 0.624615394,162.353549 5.24913152,168.134194 L63.0555832,239.979355 C67.514938,245.594839 74.2865509,248.732904 81.3884864,248.732904 L174.04397,248.732904 C181.145905,248.732904 187.917518,245.594839 192.376873,239.979355 L250.183325,168.134194 C254.807841,162.51871 256.459454,155.086452 254.807841,147.984516 L234.16268,58.3019355 C232.511067,51.2 227.886551,45.4193548 221.280099,42.2812903 L138.038809,2.31225806 C134.900744,0.825806452 131.432357,0 127.96397,0 L127.96397,0 L127.96397,0 Z" id="Shape" fill="#FFFFFF"></path>
            <path d="M211.700744,142.369033 L211.700744,142.369033 L211.700744,142.369033 C211.535583,142.369033 211.535583,142.369033 211.700744,142.369033 L211.535583,142.369033 C211.370421,142.369033 211.20526,142.369033 211.20526,142.203871 C210.874938,142.203871 210.544615,142.03871 210.214292,142.03871 C209.058163,141.873549 208.067196,141.708387 207.076228,141.708387 C206.580744,141.708387 206.08526,141.708387 205.424615,141.543226 L205.259454,141.543226 C201.791067,141.212904 198.983325,140.882581 196.340744,140.056774 C195.184615,139.561291 194.854292,138.900645 194.52397,138.24 C194.52397,138.074839 194.358809,138.074839 194.358809,137.909678 L194.358809,137.909678 L192.211712,137.249033 C193.20268,129.651613 192.872357,121.723871 191.055583,113.961291 C189.238809,106.19871 186.100744,98.9316129 181.806551,92.3251613 L183.458163,90.8387097 L183.458163,90.5083871 C183.458163,89.6825806 183.623325,88.8567742 184.28397,88.0309677 C186.265905,86.2141935 188.743325,84.7277419 191.716228,82.9109677 L191.716228,82.9109677 C192.211712,82.5806452 192.707196,82.4154839 193.20268,82.0851613 C194.193647,81.5896774 195.019454,81.0941935 196.010421,80.4335484 C196.175583,80.2683871 196.505905,80.1032258 196.836228,79.7729032 C197.001389,79.6077419 197.166551,79.6077419 197.166551,79.4425806 L197.166551,79.4425806 C199.478809,77.4606452 199.974292,74.1574193 198.32268,72.0103226 C197.496873,70.8541935 196.010421,70.1935484 194.52397,70.1935484 C193.20268,70.1935484 192.046551,70.6890322 190.890421,71.5148387 L190.890421,71.5148387 L190.890421,71.5148387 C190.72526,71.68 190.72526,71.68 190.560099,71.8451613 C190.229776,72.0103226 190.064615,72.3406452 189.734292,72.5058064 C188.908486,73.3316129 188.247841,73.9922581 187.587196,74.8180645 C187.256873,75.1483871 186.926551,75.643871 186.431067,75.9741935 L186.431067,75.9741935 C184.118809,78.4516129 181.971712,80.4335484 179.824615,81.92 C179.329131,82.2503226 178.833647,82.4154839 178.338163,82.4154839 C178.007841,82.4154839 177.677518,82.4154839 177.347196,82.2503226 L177.016873,82.2503226 L177.016873,82.2503226 L175.034938,83.5716129 C172.887841,81.2593548 170.575583,79.2774193 168.263325,77.2954839 C158.353647,69.5329032 146.296873,64.7432258 133.744615,63.5870968 L133.579454,61.44 C133.414292,61.2748387 133.414292,61.2748387 133.249131,61.1096774 C132.753647,60.6141935 132.093002,60.1187097 131.927841,58.9625806 C131.76268,56.32 132.093002,53.3470968 132.423325,50.043871 L132.423325,49.8787097 C132.423325,49.3832258 132.588486,48.7225806 132.753647,48.2270968 C132.918809,47.236129 133.08397,46.2451613 133.249131,45.0890322 L133.249131,44.0980645 L133.249131,43.6025806 L133.249131,43.6025806 L133.249131,43.6025806 C133.249131,40.6296774 130.936873,38.1522581 128.129131,38.1522581 C126.807841,38.1522581 125.486551,38.8129032 124.495583,39.803871 C123.504615,40.7948387 123.009131,42.116129 123.009131,43.6025806 L123.009131,43.6025806 L123.009131,43.6025806 L123.009131,43.9329032 L123.009131,44.923871 C123.009131,46.08 123.174292,47.0709677 123.504615,48.0619355 C123.669776,48.5574193 123.669776,49.0529032 123.834938,49.7135484 L123.834938,49.8787097 C124.16526,53.1819355 124.660744,56.1548387 124.330421,58.7974193 C124.16526,59.9535484 123.504615,60.4490322 123.009131,60.9445161 C122.84397,61.1096774 122.84397,61.1096774 122.678809,61.2748387 L122.678809,61.2748387 L122.513647,63.4219355 C119.540744,63.7522581 116.567841,64.0825806 113.594938,64.7432258 C100.877518,67.5509677 89.6465509,73.9922581 80.8930025,83.2412903 L79.2413896,82.0851613 L78.911067,82.0851613 C78.5807445,82.0851613 78.2504219,82.2503226 77.9200993,82.2503226 C77.4246154,82.2503226 76.9291316,82.0851613 76.4336477,81.7548387 C74.2865509,80.2683871 72.1394541,78.1212903 69.8271961,75.643871 L69.8271961,75.643871 C69.4968735,75.3135484 69.1665509,74.8180645 68.671067,74.4877419 C68.0104219,73.6619355 67.3497767,73.0012903 66.5239703,72.1754839 C66.358809,72.0103226 66.0284864,71.8451613 65.6981638,71.5148387 C65.5330025,71.3496774 65.3678412,71.3496774 65.3678412,71.1845161 L65.3678412,71.1845161 C64.3768735,70.3587097 63.0555832,69.8632258 61.7342929,69.8632258 C60.2478412,69.8632258 58.7613896,70.523871 57.9355832,71.68 C56.2839703,73.8270968 56.7794541,77.1303226 59.0917122,79.1122581 L59.0917122,79.1122581 L59.0917122,79.1122581 C59.2568735,79.1122581 59.2568735,79.2774193 59.4220348,79.2774193 C59.7523574,79.4425806 59.9175187,79.7729032 60.2478412,79.9380645 C61.238809,80.5987097 62.0646154,81.0941935 63.0555832,81.5896774 C63.551067,81.7548387 64.0465509,82.0851613 64.5420348,82.4154839 L64.5420348,82.4154839 C67.514938,84.2322581 69.9923574,85.7187097 71.9742929,87.5354839 C72.8000993,88.3612903 72.8000993,89.1870968 72.8000993,90.0129032 L72.8000993,90.3432258 L72.8000993,90.3432258 L74.4517122,91.8296774 C74.1213896,92.3251613 73.791067,92.6554839 73.6259058,93.1509677 C65.3678412,106.19871 62.2297767,121.55871 64.3768735,136.753549 L62.2297767,137.414194 C62.2297767,137.579355 62.0646154,137.579355 62.0646154,137.744516 C61.7342929,138.405162 61.238809,139.065807 60.2478412,139.561291 C57.7704219,140.387097 54.7975187,140.71742 51.3291316,141.047742 L51.1639703,141.047742 C50.6684864,141.047742 50.0078412,141.047742 49.5123574,141.212904 C48.5213896,141.212904 47.5304219,141.378065 46.3742929,141.543226 C46.0439703,141.543226 45.7136477,141.708387 45.3833251,141.708387 C45.2181638,141.708387 45.0530025,141.708387 44.8878412,141.873549 L44.8878412,141.873549 L44.8878412,141.873549 C41.914938,142.534194 40.0981638,145.341936 40.5936477,147.984516 C41.0891316,150.296774 43.2362283,151.783226 45.878809,151.783226 C46.3742929,151.783226 46.7046154,151.783226 47.2000993,151.618065 L47.2000993,151.618065 L47.2000993,151.618065 C47.3652606,151.618065 47.5304219,151.618065 47.5304219,151.452904 C47.8607445,151.452904 48.191067,151.287742 48.5213896,151.287742 C49.6775187,150.95742 50.5033251,150.627097 51.4942929,150.131613 C51.9897767,149.966452 52.4852606,149.636129 52.9807445,149.470968 L53.1459058,149.470968 C56.2839703,148.314839 59.0917122,147.323871 61.7342929,146.993549 L62.0646154,146.993549 C63.0555832,146.993549 63.7162283,147.489033 64.2117122,147.819355 C64.3768735,147.819355 64.3768735,147.984516 64.5420348,147.984516 L64.5420348,147.984516 L66.8542929,147.654194 C70.8181638,159.876129 78.4155832,170.776774 88.4904219,178.704516 C90.8026799,180.521291 93.114938,182.007742 95.5923574,183.494194 L94.6013896,185.641291 C94.6013896,185.806452 94.7665509,185.806452 94.7665509,185.971613 C95.0968735,186.632258 95.4271961,187.458065 95.0968735,188.614194 C94.1059058,191.091613 92.6194541,193.569033 90.8026799,196.376774 L90.8026799,196.541936 C90.4723574,197.03742 90.1420348,197.367742 89.8117122,197.863226 C89.151067,198.689033 88.6555832,199.514839 87.994938,200.505807 C87.8297767,200.670968 87.6646154,201.001291 87.4994541,201.331613 C87.4994541,201.496774 87.3342929,201.661936 87.3342929,201.661936 L87.3342929,201.661936 L87.3342929,201.661936 C86.0130025,204.469678 87.0039703,207.607742 89.4813896,208.763871 C90.1420348,209.094194 90.8026799,209.259355 91.4633251,209.259355 C93.4452606,209.259355 95.4271961,207.938065 96.4181638,206.121291 L96.4181638,206.121291 L96.4181638,206.121291 C96.4181638,205.956129 96.5833251,205.790968 96.5833251,205.790968 C96.7484864,205.460645 96.9136477,205.130323 97.078809,204.965162 C97.5742929,203.809033 97.7394541,202.983226 98.0697767,201.992258 C98.234938,201.496774 98.4000993,201.001291 98.5652606,200.505807 L98.5652606,200.505807 C99.721389,197.202581 100.547196,194.56 102.033647,192.247742 C102.694292,191.256774 103.520099,191.091613 104.180744,190.761291 C104.345905,190.761291 104.345905,190.761291 104.511067,190.596129 L104.511067,190.596129 L105.667196,188.449033 C112.934292,191.256774 120.862034,192.743226 128.789776,192.743226 C133.579454,192.743226 138.534292,192.247742 143.158809,191.091613 C146.131712,190.430968 148.939454,189.605162 151.747196,188.614194 L152.738163,190.430968 C152.903325,190.430968 152.903325,190.430968 153.068486,190.596129 C153.894292,190.761291 154.554938,191.091613 155.215583,192.082581 C156.536873,194.394839 157.527841,197.202581 158.68397,200.340645 L158.68397,200.505807 C158.849131,201.001291 159.014292,201.496774 159.179454,201.992258 C159.509776,202.983226 159.674938,203.974194 160.170421,204.965162 C160.335583,205.295484 160.500744,205.460645 160.665905,205.790968 C160.665905,205.956129 160.831067,206.121291 160.831067,206.121291 L160.831067,206.121291 L160.831067,206.121291 C161.822034,208.103226 163.80397,209.259355 165.785905,209.259355 C166.446551,209.259355 167.107196,209.094194 167.767841,208.763871 C168.92397,208.103226 169.914938,207.112258 170.24526,205.790968 C170.575583,204.469678 170.575583,202.983226 169.914938,201.661936 L169.914938,201.661936 L169.914938,201.661936 C169.914938,201.496774 169.749776,201.496774 169.749776,201.331613 C169.584615,201.001291 169.419454,200.670968 169.254292,200.505807 C168.758809,199.514839 168.098163,198.689033 167.437518,197.863226 C167.107196,197.367742 166.776873,197.03742 166.446551,196.541936 L166.446551,196.376774 C164.629776,193.569033 162.978163,191.091613 162.152357,188.614194 C161.822034,187.458065 162.152357,186.79742 162.317518,185.971613 C162.317518,185.806452 162.48268,185.806452 162.48268,185.641291 L162.48268,185.641291 L161.656873,183.659355 C170.410421,178.539355 177.84268,171.272258 183.458163,162.353549 C186.431067,157.729033 188.743325,152.609033 190.394938,147.489033 L192.376873,147.819355 C192.542034,147.819355 192.542034,147.654194 192.707196,147.654194 C193.367841,147.323871 193.863325,146.828387 194.854292,146.828387 L195.184615,146.828387 C197.827196,147.15871 200.634938,148.149678 203.773002,149.305807 L203.938163,149.305807 C204.433647,149.470968 204.929131,149.801291 205.424615,149.966452 C206.415583,150.461936 207.241389,150.792258 208.397518,151.122581 C208.727841,151.122581 209.058163,151.287742 209.388486,151.287742 C209.553647,151.287742 209.718809,151.287742 209.88397,151.452904 L209.88397,151.452904 C210.379454,151.618065 210.709776,151.618065 211.20526,151.618065 C213.68268,151.618065 215.829776,149.966452 216.490421,147.819355 C216.490421,145.83742 214.673647,143.194839 211.700744,142.369033 L211.700744,142.369033 Z M135.231067,134.276129 L127.96397,137.744516 L120.696873,134.276129 L118.880099,126.513549 L123.834938,120.23742 L131.927841,120.23742 L136.88268,126.513549 L135.231067,134.276129 L135.231067,134.276129 Z M178.338163,117.099355 C179.659454,122.714839 179.989776,128.330323 179.494292,133.780645 L154.224615,126.513549 C151.912357,125.852904 150.591067,123.540645 151.086551,121.228387 C151.251712,120.567742 151.582034,119.907097 152.077518,119.411613 L172.062034,101.409033 C174.869776,106.033549 177.016873,111.31871 178.338163,117.099355 L178.338163,117.099355 Z M164.134292,91.4993548 L142.498163,106.859355 C140.681389,108.015484 138.20397,107.685162 136.717518,105.868387 C136.222034,105.372904 136.056873,104.712258 135.891712,104.051613 L134.40526,77.1303226 C145.801389,78.4516129 156.206551,83.5716129 164.134292,91.4993548 L164.134292,91.4993548 Z M116.237518,77.956129 C118.054292,77.6258064 119.705905,77.2954839 121.52268,76.9651613 L120.036228,103.390968 C119.871067,105.703226 118.054292,107.685162 115.576873,107.685162 C114.916228,107.685162 114.090421,107.52 113.594938,107.189678 L91.6284864,91.4993548 C98.4000993,84.7277419 106.823325,80.1032258 116.237518,77.956129 L116.237518,77.956129 Z M83.7007445,101.409033 L103.354938,118.916129 C105.171712,120.402581 105.336873,123.210323 103.850421,125.027097 C103.354938,125.687742 102.694292,126.183226 101.868486,126.348387 L76.2684864,133.780645 C75.2775187,122.549678 77.754938,111.153549 83.7007445,101.409033 L83.7007445,101.409033 Z M79.2413896,146.167742 L105.502034,141.708387 C107.649131,141.543226 109.631067,143.029678 110.126551,145.176774 C110.291712,146.167742 110.291712,146.993549 109.961389,147.819355 L109.961389,147.819355 L99.886551,172.098065 C90.6375187,166.152258 83.2052606,157.068387 79.2413896,146.167742 L79.2413896,146.167742 Z M139.52526,179.034839 C135.726551,179.860645 131.927841,180.356129 127.96397,180.356129 C122.183325,180.356129 116.567841,179.365162 111.28268,177.713549 L124.330421,154.095484 C125.651712,152.609033 127.798809,151.948387 129.615583,152.939355 C130.441389,153.434839 131.102034,154.095484 131.597518,154.756129 L131.597518,154.756129 L144.314938,177.713549 C142.828486,178.209033 141.176873,178.539355 139.52526,179.034839 L139.52526,179.034839 Z M171.731712,156.07742 C167.60268,162.683871 162.152357,167.969033 155.876228,172.098065 L145.471067,147.15871 C144.975583,145.176774 145.801389,143.029678 147.783325,142.03871 C148.44397,141.708387 149.269776,141.543226 150.095583,141.543226 L176.521389,146.002581 C175.530421,149.636129 173.878809,152.939355 171.731712,156.07742 L171.731712,156.07742 Z" id="Shape" fill="#FFFFFF"></path>
        </g>
    </g>
</svg>