<?xml version="1.0" encoding="UTF-8"?>
<svg width="44px" height="44px" viewBox="0 0 44 44" version="1.1" xmlns="http://www.w3.org/2000/svg" xmlns:xlink="http://www.w3.org/1999/xlink">
    <!-- Generator: Sketch 54.1 (76490) - https://sketchapp.com -->
    <title>line</title>
    <desc>Created with Sketch.</desc>
    <g id="Page-1" stroke="none" stroke-width="1" fill="none" fill-rule="evenodd">
        <g id="line">
            <rect id="Rectangle" fill="#3ACE00" x="0" y="0" width="43.3492" height="43.3492" rx="4.70189735"></rect>
            <path d="M20.0690741,8.71571217 C12.729527,9.51847513 4.58721693,15.4818571 7.68358836,23.6241672 C10.5505989,31.3077556 19.6103524,31.6517968 20.2984349,32.2251989 C21.5599196,33.1426423 19.1516307,36.8124159 22.0186413,35.7802921 C27.0645799,33.8307249 36.1243333,26.6058582 36.3536942,20.6424762 C36.583055,13.0735683 28.0967037,7.79826878 20.0690741,8.71571217 Z M13.6469704,17.890146 L13.6469704,22.7067238 L16.1699397,22.7067238 C16.3993005,22.7067238 16.513981,22.7067238 16.6286614,22.8214042 C16.7433418,22.9360847 16.7433418,23.0507651 16.7433418,23.2801259 C16.7433418,23.3948063 16.7433418,23.5094868 16.6286614,23.6241672 C16.513981,23.7388476 16.3993005,23.7388476 16.1699397,23.7388476 L13.0735683,23.7388476 C12.8442074,23.7388476 12.6148466,23.7388476 12.5001661,23.6241672 C12.3854857,23.5094868 12.3854857,23.2801259 12.3854857,22.9360847 L12.3854857,17.890146 C12.3854857,17.6607852 12.3854857,17.4314243 12.5001661,17.3167439 C12.6148466,17.2020635 12.729527,17.0873831 12.9588878,17.0873831 C13.1882487,17.0873831 13.3029291,17.2020635 13.4176095,17.3167439 C13.5322899,17.4314243 13.6469704,17.6607852 13.6469704,17.890146 Z M17.6607852,23.0507651 L17.6607852,17.890146 C17.6607852,17.6607852 17.7754656,17.4314243 17.890146,17.3167439 C18.0048265,17.2020635 18.1195069,17.0873831 18.3488677,17.0873831 C18.4635481,17.0873831 18.5782286,17.2020635 18.8075894,17.3167439 C18.9222698,17.4314243 18.9222698,17.6607852 18.9222698,17.890146 L18.9222698,23.0507651 C18.9222698,23.3948063 18.9222698,23.5094868 18.8075894,23.7388476 C18.5782286,23.853528 18.4635481,23.853528 18.3488677,23.853528 C18.1195069,23.853528 18.0048265,23.853528 17.890146,23.7388476 C17.7754656,23.5094868 17.6607852,23.3948063 17.6607852,23.0507651 Z M22.0186413,17.890146 L24.4269302,21.7892804 L24.4269302,17.890146 C24.4269302,17.6607852 24.4269302,17.4314243 24.5416106,17.3167439 C24.656291,17.2020635 24.7709714,17.0873831 25.0003323,17.0873831 C25.1150127,17.0873831 25.3443735,17.2020635 25.3443735,17.3167439 C25.459054,17.4314243 25.5737344,17.6607852 25.5737344,17.890146 L25.5737344,23.0507651 C25.5737344,23.6241672 25.3443735,23.853528 24.8856519,23.853528 C24.7709714,23.853528 24.656291,23.853528 24.5416106,23.853528 C24.5416106,23.853528 24.4269302,23.7388476 24.3122497,23.6241672 C24.1975693,23.6241672 24.1975693,23.5094868 24.0828889,23.3948063 C24.0828889,23.2801259 23.9682085,23.1654455 23.853528,23.1654455 L21.5599196,19.2663111 L21.5599196,23.1654455 C21.5599196,23.3948063 21.4452392,23.6241672 21.3305587,23.7388476 C21.2158783,23.853528 21.1011979,23.853528 20.9865175,23.853528 C20.7571566,23.853528 20.6424762,23.853528 20.5277958,23.7388476 C20.4131153,23.6241672 20.2984349,23.3948063 20.2984349,23.1654455 L20.2984349,18.1195069 C20.2984349,17.890146 20.4131153,17.6607852 20.4131153,17.5461048 C20.5277958,17.4314243 20.5277958,17.3167439 20.6424762,17.2020635 C20.7571566,17.2020635 20.9865175,17.0873831 21.1011979,17.0873831 C21.2158783,17.0873831 21.3305587,17.0873831 21.3305587,17.2020635 C21.4452392,17.2020635 21.5599196,17.2020635 21.5599196,17.3167439 C21.6746,17.4314243 21.6746,17.4314243 21.7892804,17.5461048 C21.7892804,17.6607852 21.9039608,17.7754656 22.0186413,17.890146 Z M31.0783947,18.2341873 L28.2113841,18.2341873 L28.2113841,19.8397132 L30.8490339,19.8397132 C30.9637143,19.8397132 31.1930751,19.9543937 31.1930751,19.9543937 C31.3077556,20.0690741 31.422436,20.1837545 31.422436,20.2984349 C31.422436,20.5277958 31.3077556,20.6424762 31.1930751,20.7571566 C31.1930751,20.7571566 30.9637143,20.871837 30.8490339,20.871837 L28.2113841,20.871837 L28.2113841,22.7067238 L31.0783947,22.7067238 C31.3077556,22.7067238 31.5371164,22.8214042 31.5371164,22.8214042 C31.6517968,22.9360847 31.7664772,23.0507651 31.7664772,23.2801259 C31.7664772,23.3948063 31.6517968,23.5094868 31.5371164,23.6241672 C31.5371164,23.7388476 31.3077556,23.7388476 31.0783947,23.7388476 L27.7526624,23.7388476 C27.4086212,23.7388476 27.2939407,23.7388476 27.0645799,23.6241672 C26.9498995,23.5094868 26.9498995,23.2801259 26.9498995,22.9360847 L26.9498995,18.0048265 C26.9498995,17.890146 26.9498995,17.6607852 27.0645799,17.5461048 C27.0645799,17.4314243 27.1792603,17.3167439 27.2939407,17.3167439 C27.4086212,17.2020635 27.5233016,17.2020635 27.7526624,17.2020635 L31.0783947,17.2020635 C31.1930751,17.2020635 31.422436,17.3167439 31.5371164,17.3167439 C31.5371164,17.4314243 31.6517968,17.5461048 31.6517968,17.7754656 C31.6517968,17.890146 31.5371164,18.0048265 31.5371164,18.1195069 C31.422436,18.2341873 31.1930751,18.2341873 31.0783947,18.2341873 Z" id="Shape" fill="#FFFFFF"></path>
            <path d="M33.3720032,13.3029291 L43.3492,27.637982" id="Path"></path>
            <path d="M43.3492,27.637982 L35.3215704,16.1699397 C36.0096529,17.5461048 36.3536942,19.0369503 36.3536942,20.6424762 C36.1243333,26.6058582 27.0645799,33.8307249 22.0186413,35.7802921 C21.4452392,36.0096529 21.1011979,36.0096529 20.871837,35.8949725 L28.3260646,43.3492 L38.6473026,43.3492 L43.3492,38.6473026 L43.3492,27.637982 Z" id="Path" fill="#2FA700"></path>
            <path d="M24.4269302,21.7892804 L22.0186413,17.890146 L21.7892804,17.5461048 L21.5599196,17.3167439 C21.5599196,17.2020635 21.4452392,17.2020635 21.3305587,17.2020635 C21.3305587,17.0873831 21.2158783,17.0873831 21.1011979,17.0873831 C20.9865175,17.0873831 20.7571566,17.2020635 20.6424762,17.2020635 C20.5277958,17.3167439 20.5277958,17.4314243 20.4131153,17.5461048 C20.4131153,17.6607852 20.2984349,17.890146 20.2984349,18.1195069 L20.2984349,23.1654455 C20.2984349,23.3948063 20.4131153,23.6241672 20.5277958,23.7388476 C20.6424762,23.853528 20.7571566,23.853528 20.9865175,23.853528 C21.1011979,23.853528 21.2158783,23.853528 21.3305587,23.7388476 C21.4452392,23.6241672 21.5599196,23.3948063 21.5599196,23.1654455 L21.5599196,19.2663111 L23.853528,23.1654455 L24.0828889,23.3948063 L24.3122497,23.6241672 C24.4269302,23.7388476 24.5416106,23.853528 24.5416106,23.853528 C24.656291,23.853528 24.7709714,23.853528 24.8856519,23.853528 C25.3443735,23.853528 25.5737344,23.6241672 25.5737344,23.0507651 L25.5737344,17.890146 C25.5737344,17.6607852 25.459054,17.4314243 25.3443735,17.3167439 C25.3443735,17.2020635 25.1150127,17.0873831 25.0003323,17.0873831 C24.7709714,17.0873831 24.656291,17.2020635 24.5416106,17.3167439 C24.4269302,17.4314243 24.4269302,17.6607852 24.4269302,17.890146 L24.4269302,21.7892804 Z" id="Path" fill="#2FA700"></path>
            <path d="M18.9222698,23.0507651 L18.9222698,17.890146 C18.9222698,17.6607852 18.9222698,17.4314243 18.8075894,17.3167439 C18.5782286,17.2020635 18.4635481,17.0873831 18.3488677,17.0873831 C18.1195069,17.0873831 18.0048265,17.2020635 17.890146,17.3167439 C17.7754656,17.4314243 17.6607852,17.6607852 17.6607852,17.890146 L17.6607852,23.0507651 C17.6607852,23.3948063 17.7754656,23.5094868 17.890146,23.7388476 C18.0048265,23.853528 18.1195069,23.853528 18.3488677,23.853528 C18.4635481,23.853528 18.5782286,23.853528 18.8075894,23.7388476 C18.9222698,23.5094868 18.9222698,23.3948063 18.9222698,23.0507651 Z" id="Path" fill="#2FA700"></path>
            <path d="M13.6469704,22.7067238 L13.6469704,17.890146 C13.6469704,17.6607852 13.5322899,17.4314243 13.4176095,17.3167439 C13.3029291,17.2020635 13.1882487,17.0873831 12.9588878,17.0873831 C12.729527,17.0873831 12.6148466,17.2020635 12.5001661,17.3167439 C12.3854857,17.4314243 12.3854857,17.6607852 12.3854857,17.890146 L12.3854857,22.9360847 C12.3854857,23.2801259 12.3854857,23.5094868 12.5001661,23.6241672 C12.6148466,23.7388476 12.8442074,23.7388476 13.0735683,23.7388476 L16.1699397,23.7388476 C16.3993005,23.7388476 16.513981,23.7388476 16.6286614,23.6241672 C16.7433418,23.5094868 16.7433418,23.3948063 16.7433418,23.2801259 C16.7433418,23.0507651 16.7433418,22.9360847 16.6286614,22.8214042 C16.513981,22.7067238 16.3993005,22.7067238 16.1699397,22.7067238 L13.6469704,22.7067238 Z" id="Path" fill="#2FA700"></path>
            <path d="M26.9498995,18.0048265 L26.9498995,22.9360847 C26.9498995,23.2801259 26.9498995,23.5094868 27.0645799,23.6241672 C27.2939407,23.7388476 27.4086212,23.7388476 27.7526624,23.7388476 L31.0783947,23.7388476 C31.3077556,23.7388476 31.5371164,23.7388476 31.5371164,23.6241672 C31.6517968,23.5094868 31.7664772,23.3948063 31.7664772,23.2801259 C31.7664772,23.0507651 31.6517968,22.9360847 31.5371164,22.8214042 C31.5371164,22.8214042 31.3077556,22.7067238 31.0783947,22.7067238 L28.2113841,22.7067238 L28.2113841,20.871837 L30.8490339,20.871837 C30.9637143,20.871837 31.1930751,20.7571566 31.1930751,20.7571566 C31.3077556,20.6424762 31.422436,20.5277958 31.422436,20.2984349 C31.422436,20.1837545 31.3077556,20.0690741 31.1930751,19.9543937 C31.1930751,19.9543937 30.9637143,19.8397132 30.8490339,19.8397132 L28.2113841,19.8397132 L28.2113841,18.2341873 L31.0783947,18.2341873 C31.1930751,18.2341873 31.422436,18.2341873 31.5371164,18.1195069 C31.5371164,18.0048265 31.6517968,17.890146 31.6517968,17.7754656 C31.6517968,17.5461048 31.5371164,17.4314243 31.5371164,17.3167439 C31.422436,17.3167439 31.1930751,17.2020635 31.0783947,17.2020635 L27.7526624,17.2020635 C27.5233016,17.2020635 27.4086212,17.2020635 27.2939407,17.3167439 C27.1792603,17.3167439 27.0645799,17.4314243 27.0645799,17.5461048 C26.9498995,17.6607852 26.9498995,17.890146 26.9498995,18.0048265 Z" id="Path" fill="#2FA700"></path>
            <path d="M17.4314243,31.422436 L20.5277958,34.6334878 C20.6424762,33.7160444 20.871837,32.6839206 20.2984349,32.2251989 C20.0690741,31.9958381 18.9222698,31.8811577 17.4314243,31.422436 Z" id="Path" fill="#2FA700"></path>
        </g>
    </g>
</svg>