<?xml version="1.0" encoding="UTF-8"?>
<svg width="256px" height="291px" viewBox="0 0 256 291" version="1.1" xmlns="http://www.w3.org/2000/svg" xmlns:xlink="http://www.w3.org/1999/xlink">
    <!-- Generator: Sketch 54.1 (76490) - https://sketchapp.com -->
    <title>marathon</title>
    <desc>Created with Sketch.</desc>
    <g id="Page-1" stroke="none" stroke-width="1" fill="none" fill-rule="evenodd">
        <g id="marathon" fill-rule="nonzero">
            <polyline id="Path" fill="#FFFFFF" points="190.180109 177.16993 190.180109 113.804451 135.537556 145.539486 190.180109 177.16993"></polyline>
            <polyline id="Path" fill="#00AEDE" points="186.644918 107.621603 131.906739 75.9702412 131.906739 139.348669 186.644918 107.621603"></polyline>
            <polyline id="Path" fill="#00AEDE" points="124.792529 139.346677 124.792529 75.968249 70.0155019 107.619611 124.792529 139.346677"></polyline>
            <polyline id="Path" fill="#00AEDE" points="121.252358 69.8870039 66.5271284 38.052358 66.5271284 101.52442 121.252358 69.8870039"></polyline>
            <polyline id="Path" fill="#FFFFFF" points="186.644918 183.259144 131.906739 151.635673 131.906739 215.00414 186.644918 183.259144"></polyline>
            <polyline id="Path" fill="#FFFFFF" points="124.792529 215.005136 124.792529 151.633681 70.0155019 183.261136 124.792529 215.005136"></polyline>
            <polyline id="Path" fill="#00AEDE" points="252.113183 145.53849 197.295315 113.80744 197.295315 177.168934 252.113183 145.53849"></polyline>
            <polyline id="Path" fill="#00AEDE" points="59.3989728 101.52442 59.3989728 38.052358 4.2633463 69.8870039 59.3989728 101.52442"></polyline>
            <polyline id="Path" fill="#FFFFFF" points="121.252358 221.095346 66.5271284 189.375253 66.5271284 252.826397 121.252358 221.095346"></polyline>
            <polyline id="Path" fill="#00AEDE" points="59.3989728 252.827393 59.3989728 189.377245 4.2633463 221.097339 59.3989728 252.827393"></polyline>
            <polyline id="Path" fill="#FFFFFF" points="121.252358 145.53849 66.5271284 113.80744 66.5271284 177.168934 121.252358 145.53849"></polyline>
            <polyline id="Path" fill="#00AEDE" points="190.180109 101.52442 190.180109 38.052358 135.537556 69.8870039 190.180109 101.52442"></polyline>
            <polyline id="Path" fill="#FFFFFF" points="131.908732 0.318754864 131.908732 63.6762646 186.646911 31.9561712 131.908732 0.318754864"></polyline>
            <polyline id="Path" fill="#FFFFFF" points="70.0145058 31.9561712 124.791533 63.6762646 124.791533 0.318754864 70.0145058 31.9561712"></polyline>
            <polyline id="Path" fill="#FFFFFF" points="186.644918 258.91063 131.906739 227.294132 131.906739 290.641681 186.644918 258.91063"></polyline>
            <polyline id="Path" fill="#FFFFFF" points="124.792529 290.643673 124.792529 227.29214 70.0155019 258.912623 124.792529 290.643673"></polyline>
            <polyline id="Path" fill="#00AEDE" points="255.660327 215.005136 255.660327 151.633681 200.983907 183.261136 255.660327 215.005136"></polyline>
            <polyline id="Path" fill="#00AEDE" points="59.3989728 177.16993 59.3989728 113.70484 4.2633463 145.539486 59.3989728 177.16993"></polyline>
            <polyline id="Path" fill="#00AEDE" points="55.871751 183.259144 0.656435798 151.635673 0.656435798 215.00414 55.871751 183.259144"></polyline>
            <polyline id="Path" fill="#00AEDE" points="255.660327 139.346677 255.660327 75.968249 200.983907 107.619611 255.660327 139.346677"></polyline>
            <polyline id="Path" fill="#00AEDE" points="252.113183 69.8870039 197.295315 38.052358 197.295315 101.52442 252.113183 69.8870039"></polyline>
            <polyline id="Path" fill="#00AEDE" points="252.113183 221.095346 197.295315 189.375253 197.295315 252.826397 252.113183 221.095346"></polyline>
            <polyline id="Path" fill="#FFFFFF" points="190.180109 252.827393 190.180109 189.377245 135.537556 221.097339 190.180109 252.827393"></polyline>
            <polyline id="Path" fill="#00AEDE" points="55.871751 107.621603 0.656435798 75.9702412 0.656435798 139.348669 55.871751 107.621603"></polyline>
        </g>
    </g>
</svg>