<?xml version="1.0" encoding="UTF-8"?>
<svg width="520px" height="490px" viewBox="0 0 520 490" version="1.1" xmlns="http://www.w3.org/2000/svg" xmlns:xlink="http://www.w3.org/1999/xlink">
    <!-- Generator: Sketch 54.1 (76490) - https://sketchapp.com -->
    <title>matrix</title>
    <desc>Created with Sketch.</desc>
    <g id="Page-1" stroke="none" stroke-width="1" fill="none" fill-rule="evenodd">
        <g id="matrix" fill="#000000" fill-rule="nonzero">
            <polygon id="Path" points="17.7 15.9 17.7 474.1 49.4 474.1 49.4 490 0 490 0 0 49.4 0 49.4 15.9"></polygon>
            <path d="M166.3,139.2 L166.3,164.3 L167,164.3 C173.7,154.7 181.8,147.3 191.2,142.1 C200.6,136.8 211.5,134.2 223.7,134.2 C235.4,134.2 246.1,136.5 255.8,141 C265.5,145.5 272.8,153.6 277.9,165 C283.4,156.9 290.9,149.7 300.3,143.5 C309.7,137.3 320.9,134.2 333.8,134.2 C343.6,134.2 352.7,135.4 361.1,137.8 C369.5,140.2 376.6,144 382.6,149.3 C388.6,154.6 393.2,161.4 396.6,169.9 C399.9,178.4 401.6,188.6 401.6,200.6 L401.6,324.7 L350.7,324.7 L350.7,219.6 C350.7,213.4 350.5,207.5 350,202 C349.5,196.5 348.2,191.7 346.1,187.7 C343.9,183.6 340.8,180.4 336.6,178 C332.4,175.6 326.7,174.4 319.6,174.4 C312.4,174.4 306.6,175.8 302.2,178.5 C297.8,181.3 294.3,184.8 291.8,189.3 C289.3,193.7 287.6,198.7 286.8,204.4 C286,210 285.5,215.7 285.5,221.4 L285.5,324.7 L234.6,324.7 L234.6,220.7 C234.6,215.2 234.5,209.8 234.2,204.4 C234,199 232.9,194.1 231.1,189.5 C229.3,185 226.3,181.3 222.1,178.6 C217.9,175.9 211.8,174.5 203.6,174.5 C201.2,174.5 198,175 194.1,176.1 C190.2,177.2 186.3,179.2 182.6,182.2 C178.9,185.2 175.7,189.5 173.1,195.1 C170.5,200.7 169.2,208.1 169.2,217.2 L169.2,324.8 L118.3,324.8 L118.3,139.2 L166.3,139.2 Z" id="Path"></path>
            <polygon id="Path" points="502.3 474.1 502.3 15.9 470.6 15.9 470.6 0 520 0 520 490 470.6 490 470.6 474.1"></polygon>
        </g>
    </g>
</svg>