<?xml version="1.0" encoding="UTF-8"?>
<svg width="244px" height="62px" viewBox="0 0 244 62" version="1.1" xmlns="http://www.w3.org/2000/svg" xmlns:xlink="http://www.w3.org/1999/xlink">
    <!-- Generator: Sketch 54.1 (76490) - https://sketchapp.com -->
    <title>maven</title>
    <desc>Created with Sketch.</desc>
    <defs>
        <path d="M51.46875,16.78125 L51.46875,54.09375 L34.5,54.09375 L34.5,27.796875 C34.5,25.2343622 34.4375006,23.0546965 34.3125,21.2578125 C34.1874994,19.4609285 33.8437528,18.0000056 33.28125,16.875 C32.7187472,15.7499944 31.8671932,14.9296901 30.7265625,14.4140625 C29.5859318,13.8984349 27.9843853,13.640625 25.921875,13.640625 C24.2656167,13.640625 22.6562578,13.9765591 21.09375,14.6484375 C19.5312422,15.3203159 18.1250062,16.0312463 16.875,16.78125 L16.875,54.09375 L0,54.09375 L0,1.453125 L16.875,1.453125 L16.875,7.265625 C19.7812645,4.98436359 22.5624867,3.20313141 25.21875,1.921875 C27.8750133,0.640618594 30.8124839,0 34.03125,0 C37.5000173,0 40.5624867,0.773429766 43.21875,2.3203125 C45.8750133,3.86719523 47.9531175,6.14061 49.453125,9.140625 C52.8281419,6.29686078 56.1093591,4.06250812 59.296875,2.4375 C62.4843909,0.812491875 65.6093597,0 68.671875,0 C74.3594034,0 78.6796727,1.70310797 81.6328125,5.109375 C84.5859523,8.51564203 86.0625,13.421843 86.0625,19.828125 L86.0625,54.09375 L69.09375,54.09375 L69.09375,27.796875 C69.09375,25.203112 69.039063,23.0156339 68.9296875,21.234375 C68.820312,19.4531161 68.4843778,18.0000056 67.921875,16.875 C67.3906223,15.7499944 66.5468808,14.9296901 65.390625,14.4140625 C64.2343692,13.8984349 62.6093855,13.640625 60.515625,13.640625 C59.109368,13.640625 57.7343817,13.8828101 56.390625,14.3671875 C55.0468683,14.8515649 53.4062597,15.6562444 51.46875,16.78125 Z M138.525562,15.4865625 L121.6115,59.35375 L105.674,59.35375 L88.877125,15.4865625 L103.759937,15.4865625 L113.916187,45.6428125 L123.95525,15.4865625 L138.525562,15.4865625 Z M189.541187,40.0178125 L157.353687,40.0178125 C157.562022,43.4553297 158.870603,46.0855117 161.279469,47.9084375 C163.688335,49.7313633 167.236477,50.6428125 171.924,50.6428125 C174.892765,50.6428125 177.77034,50.1089637 180.556812,49.04125 C183.343285,47.9735363 185.543784,46.8277145 187.158375,45.60375 L188.720875,45.60375 L188.720875,56.8928125 C185.543776,58.1688605 182.549014,59.0933305 179.7365,59.66625 C176.923986,60.2391695 173.812038,60.525625 170.400562,60.525625 C161.598435,60.525625 154.853711,58.5464781 150.166187,54.588125 C145.478664,50.6297719 143.134937,44.9918074 143.134937,37.6740625 C143.134937,30.434443 145.354967,24.6988232 149.795094,20.4670312 C154.23522,16.2352393 160.322399,14.119375 168.056812,14.119375 C175.192265,14.119375 180.556795,15.9227424 184.150562,19.5295312 C187.74433,23.1363201 189.541187,28.3250703 189.541187,35.0959375 L189.541187,40.0178125 Z M175.556812,31.775625 C175.478687,28.832902 174.749528,26.6193824 173.369312,25.135 C171.989097,23.6506176 169.840681,22.9084375 166.924,22.9084375 C164.215653,22.9084375 161.989113,23.6115555 160.244312,25.0178125 C158.499512,26.4240695 157.522959,28.6766512 157.314625,31.775625 L175.556812,31.775625 Z M243.525562,59.35375 L229.384937,59.35375 L229.384937,37.5959375 C229.384937,35.8250953 229.293793,34.06079 229.1115,32.3029687 C228.929207,30.5451475 228.616711,29.2495875 228.174,28.41625 C227.653164,27.4527035 226.891453,26.7495855 225.888844,26.306875 C224.886235,25.8641645 223.486509,25.6428125 221.689625,25.6428125 C220.413577,25.6428125 219.118017,25.8511437 217.802906,26.2678125 C216.487796,26.6844812 215.062029,27.3485371 213.525562,28.26 L213.525562,59.35375 L199.463062,59.35375 L199.463062,15.4865625 L213.525562,15.4865625 L213.525562,20.3303125 C216.025575,18.3771777 218.427895,16.8797969 220.732594,15.838125 C223.037293,14.7964531 225.595861,14.275625 228.408375,14.275625 C233.147982,14.275625 236.852372,15.6558195 239.521656,18.41625 C242.19094,21.1766805 243.525562,25.3042434 243.525562,30.7990625 L243.525562,59.35375 Z" id="path-1"></path>
    </defs>
    <g id="Page-1" stroke="none" stroke-width="1" fill="none" fill-rule="evenodd">
        <g id="maven" transform="translate(0.000000, 0.646250)" fill="#000000" fill-rule="nonzero">
            <g id="Combined-Shape">
                <use xlink:href="#path-1"></use>
                <use xlink:href="#path-1"></use>
            </g>
        </g>
    </g>
</svg>