<?xml version="1.0" encoding="UTF-8"?>
<svg width="256px" height="100px" viewBox="0 0 256 100" version="1.1" xmlns="http://www.w3.org/2000/svg" xmlns:xlink="http://www.w3.org/1999/xlink">
    <!-- Generator: Sketch 54.1 (76490) - https://sketchapp.com -->
    <title>npm</title>
    <desc>Created with Sketch.</desc>
    <g id="Page-1" stroke="none" stroke-width="1" fill="none" fill-rule="evenodd">
        <g id="npm" fill-rule="nonzero">
            <polygon id="Path" fill="#CB3837" points="0 0 0 85.4980695 71.1660232 85.4980695 71.1660232 99.8301158 128 99.8301158 128 85.4980695 256 85.4980695 256 0"></polygon>
            <polygon id="Path" fill="#FFFFFF" points="42.5019305 14.3320463 14.3320463 14.3320463 14.3320463 28.6640927 14.3320463 71.1660232 42.5019305 71.1660232 42.5019305 28.6640927 56.8339768 28.6640927 56.8339768 71.1660232 71.1660232 71.1660232 71.1660232 28.6640927 71.1660232 14.3320463"></polygon>
            <path d="M85.4980695,14.3320463 L85.4980695,68.2007722 L85.4980695,71.1660232 L85.4980695,85.4980695 L114.162162,85.4980695 L114.162162,71.1660232 L142.332046,71.1660232 L142.332046,14.3320463 L85.4980695,14.3320463 L85.4980695,14.3320463 Z M128,56.8339768 L114.162162,56.8339768 L114.162162,28.6640927 L128,28.6640927 L128,56.8339768 L128,56.8339768 Z" id="Shape" fill="#FFFFFF"></path>
            <polygon id="Path" fill="#FFFFFF" points="184.833977 14.3320463 156.664093 14.3320463 156.664093 28.6640927 156.664093 71.1660232 184.833977 71.1660232 184.833977 28.6640927 199.166023 28.6640927 199.166023 71.1660232 213.498069 71.1660232 213.498069 28.6640927 227.830116 28.6640927 227.830116 71.1660232 242.162162 71.1660232 242.162162 28.6640927 242.162162 15.3204633 242.162162 14.3320463"></polygon>
        </g>
    </g>
</svg>