<?xml version="1.0" encoding="UTF-8"?>
<svg width="81px" height="115px" viewBox="0 0 81 115" version="1.1" xmlns="http://www.w3.org/2000/svg" xmlns:xlink="http://www.w3.org/1999/xlink">
    <!-- Generator: Sketch 54.1 (76490) - https://sketchapp.com -->
    <title>packer</title>
    <desc>Created with Sketch.</desc>
    <g id="Page-1" stroke="none" stroke-width="1" fill="none" fill-rule="evenodd">
        <g id="packer">
            <path d="M2.92,89.27 L2.92,87.15 L1,87.15 L1,89.26 L0,89.26 L0,84.19 L1,84.19 L1,86.32 L2.92,86.32 L2.92,84.19 L3.92,84.19 L3.92,89.27 L2.92,89.27 Z M7.53,89.27 L6.75,89.27 L6.68,89 C6.33744112,89.2112646 5.94246088,89.3221363 5.54,89.32 C4.84,89.32 4.54,88.86 4.54,88.23 C4.54,87.6 4.88,87.23 5.65,87.23 L6.57,87.23 L6.57,86.85 C6.57,86.44 6.45,86.3 5.84,86.3 C5.48395621,86.3025803 5.12898688,86.3394167 4.78,86.41 L4.66,85.71 C5.09686165,85.5916017 5.54737977,85.5310844 6,85.53 C7.2,85.53 7.55,85.94 7.55,86.85 L7.53,89.27 Z M6.53,87.89 L5.87,87.89 C5.56,87.89 5.47,87.97 5.47,88.25 C5.47,88.53 5.56,88.62 5.85,88.62 C6.1018736,88.6161142 6.3490049,88.550899 6.57,88.43 L6.53,87.89 Z M9.53,89.35 C9.08220689,89.343654 8.63765478,89.2729298 8.21,89.14 L8.34,88.44 C8.71144666,88.542578 9.09466685,88.5963633 9.48,88.6 C9.9,88.6 9.97,88.51 9.97,88.23 C9.97,87.95 9.97,87.89 9.3,87.75 C8.37,87.53 8.3,87.31 8.3,86.6 C8.3,85.89 8.64,85.54 9.73,85.54 C10.1136225,85.5413116 10.4959314,85.5849083 10.87,85.67 L10.78,86.4 C10.4497364,86.3393966 10.1155402,86.3026351 9.78,86.29 C9.36,86.29 9.29,86.38 9.29,86.61 C9.29,86.84 9.29,86.93 9.83,87.05 C10.9,87.32 11,87.46 11,88.21 C11,88.96 10.68,89.34 9.53,89.34 L9.53,89.35 Z M13.91,89.27 L13.91,86.71 C13.91,86.51 13.82,86.42 13.6,86.42 C13.2496854,86.457351 12.9100146,86.5626489 12.6,86.73 L12.6,89.27 L11.6,89.27 L11.6,84.12 L12.6,84.26 L12.6,85.88 C13.037085,85.6667933 13.5140042,85.5475635 14,85.53 C14.63,85.53 14.86,85.96 14.86,86.61 L14.86,89.27 L13.91,89.27 Z M15.67,85.09 L15.67,84.19 L16.67,84.19 L16.67,85.09 L15.67,85.09 Z M15.67,89.27 L15.67,85.6 L16.67,85.6 L16.67,89.26 L15.67,89.27 Z M17.39,85.64 C17.39,84.72 17.95,84.19 19.25,84.19 C19.7283394,84.1911602 20.2049046,84.2482138 20.67,84.36 L20.56,85.18 C20.1356073,85.0850369 19.7041777,85.0248375 19.27,85 C18.59,85 18.37,85.23 18.37,85.76 L18.37,87.69 C18.37,88.22 18.59,88.45 19.27,88.45 C19.6994649,88.4411015 20.1275154,88.3976276 20.55,88.32 L20.66,89.14 C20.1949046,89.2517862 19.7183394,89.3088398 19.24,89.31 C17.94,89.31 17.38,88.78 17.38,87.86 L17.39,85.64 Z M22.78,89.35 C21.47,89.35 21.12,88.66 21.12,87.91 L21.12,87 C21.12,86.25 21.47,85.56 22.78,85.56 C24.09,85.56 24.44,86.25 24.44,87 L24.44,87.93 C24.43,88.65 24.08,89.34 22.77,89.34 L22.78,89.35 Z M22.78,86.35 C22.27,86.35 22.07,86.57 22.07,86.98 L22.07,87.98 C22.07,88.39 22.27,88.61 22.78,88.61 C23.29,88.61 23.49,88.39 23.49,87.98 L23.49,86.98 C23.48,86.53 23.28,86.31 22.77,86.31 L22.78,86.35 Z M27.13,86.41 C26.7839249,86.5615001 26.4496601,86.7386604 26.13,86.94 L26.13,89.3 L25.13,89.3 L25.13,85.6 L26,85.6 L26,86 C26.3114843,85.7979821 26.6475491,85.6366709 27,85.52 L27.13,86.41 Z M30.95,88 C31.0030013,88.3502985 30.8886448,88.7051769 30.6410915,88.9586243 C30.3935383,89.2120716 30.0414485,89.3347454 29.69,89.29 C29.353999,89.2840727 29.0192554,89.2472509 28.69,89.18 L28.69,90.68 L27.69,90.82 L27.69,85.6 L28.45,85.6 L28.54,85.91 C28.8933346,85.659237 29.3167408,85.5262664 29.75,85.53 C30.52,85.53 30.93,85.97 30.93,86.8 L30.95,88 Z M28.67,88.41 C28.949421,88.4708132 29.2340946,88.5043042 29.52,88.51 C29.86,88.51 30,88.35 30,88.02 L30,86.78 C30,86.48 29.88,86.31 29.53,86.31 C29.2174606,86.3205152 28.9177594,86.4368698 28.68,86.64 L28.67,88.41 Z" id="Shape" fill="#000000" fill-rule="nonzero"></path>
            <path d="M0,93.36 L8.18,93.36 C13.03,93.36 14.82,95.36 14.82,99.03 L14.82,101.89 C14.82,105.54 12.82,107.52 7.99,107.52 L4,107.52 L4,114.32 L0,114.32 L0,93.36 Z M8,96.85 L4,96.85 L4,104 L8,104 C10.24,104 10.9,103.18 10.9,101.45 L10.9,99.34 C10.86,97.61 10.14,96.85 8,96.85 Z" id="Shape" fill="#000000" fill-rule="nonzero"></path>
            <path d="M28.24,114.32 L25.09,114.32 L24.81,113.32 C23.4522589,114.200907 21.8684738,114.66979 20.25,114.67 C17.45,114.67 16.25,112.75 16.25,110.11 C16.25,106.99 17.6,105.8 20.72,105.8 L24.4,105.8 L24.4,104.19 C24.4,102.49 23.93,101.89 21.47,101.89 C20.0412031,101.904521 18.6174445,102.061972 17.22,102.36 L16.75,99.43 C18.4589486,98.9480603 20.2244662,98.6958435 22,98.68 C26.82,98.68 28.23,100.38 28.23,104.22 L28.24,114.32 Z M24.4,108.53 L21.56,108.53 C20.3,108.53 19.95,108.88 19.95,110.04 C19.95,111.2 20.3,111.58 21.49,111.58 C22.5080364,111.566977 23.506016,111.295114 24.39,110.79 L24.4,108.53 Z" id="Shape" fill="#000000" fill-rule="nonzero"></path>
            <path d="M30.53,108.75 L30.53,104.56 C30.53,100.44 32.32,98.67 37.14,98.67 C38.4109115,98.678616 39.6739284,98.8705946 40.89,99.24 L40.42,102.39 C39.3791994,102.132002 38.3122037,101.994433 37.24,101.98 C35.04,101.98 34.38,102.64 34.38,104.53 L34.38,108.78 C34.38,110.67 35.04,111.33 37.24,111.33 C38.3128573,111.325077 39.3809793,111.187363 40.42,110.92 L40.89,114.07 C39.6757859,114.447539 38.4115548,114.639702 37.14,114.64 C32.33,114.64 30.53,112.87 30.53,108.75 Z" id="Path" fill="#000000" fill-rule="nonzero"></path>
            <path d="M43.31,114.32 L43.31,92.73 L47.15,92.19 L47.15,114.32 L43.31,114.32 Z M56.35,99 L51.85,106.59 L56.54,114.33 L52.32,114.33 L47.69,106.59 L52.07,99 L56.35,99 Z" id="Shape" fill="#000000" fill-rule="nonzero"></path>
            <path d="M64.34,111.49 C65.9303596,111.483542 67.5109398,111.240894 69.03,110.77 L69.63,113.67 C67.8228933,114.330399 65.9139959,114.668856 63.99,114.67 C59.17,114.67 57.51,112.43 57.51,108.75 L57.51,104.69 C57.51,101.45 58.96,98.69 63.87,98.69 C68.78,98.69 69.87,101.55 69.87,104.86 L69.87,108.13 L61.35,108.13 L61.35,108.92 C61.35,110.77 62,111.49 64.34,111.49 Z M61.34,105.04 L66.22,105.04 L66.22,104.28 C66.22,102.83 65.78,101.82 63.89,101.82 C62,101.82 61.34,102.82 61.34,104.28 L61.34,105.04 Z" id="Shape" fill="#000000" fill-rule="nonzero"></path>
            <path d="M80.14,102.2 C78.7310105,102.841017 77.3736398,103.589911 76.08,104.44 L76.08,114.32 L72.24,114.32 L72.24,99 L75.48,99 L75.73,100.7 C76.9704974,99.8618993 78.315221,99.1895374 79.73,98.7 L80.14,102.2 Z" id="Path" fill="#000000" fill-rule="nonzero"></path>
            <polygon id="Path" fill="#1DAEFF" points="16.41 9.46 41.5 23.96 41.5 77.41 16.41 62.92"></polygon>
            <path d="M53.92,15.71 L26.65,0 L26.65,10.91 L45.19,21.62 L45.19,54.35 L53.92,59.35 C59.32,62.47 63.74,60.6 63.74,55.2 L63.74,31.2 C63.74,25.8 59.32,18.83 53.92,15.71 Z" id="Path" fill="#1D94DD" fill-rule="nonzero"></path>
        </g>
    </g>
</svg>