<?xml version="1.0" standalone="no"?>
<!DOCTYPE svg PUBLIC "-//W3C//DTD SVG 20010904//EN"
    "http://www.w3.org/TR/2001/REC-SVG-20010904/DTD/svg10.dtd">
<svg version="1.0" xmlns="http://www.w3.org/2000/svg"
     width="661.000000pt" height="661.000000pt" viewBox="0 0 661.000000 661.000000"
     preserveAspectRatio="xMidYMid meet">

  <g transform="translate(0.000000,661.000000) scale(0.100000,-0.100000)"
     fill="#000000" stroke="none">
    <path d="M3145 5423 c-197 -17 -403 -94 -607 -227 -176 -115 -373 -371 -507
-658 -115 -245 -135 -394 -121 -914 9 -352 21 -483 60 -669 26 -125 96 -544
116 -690 8 -60 21 -207 29 -325 8 -118 17 -251 20 -295 6 -77 5 -83 -28 -150
-50 -103 -184 -275 -416 -535 -52 -58 -137 -158 -189 -223 -62 -77 -98 -115
-106 -109 -433 321 -771 712 -1005 1162 -186 360 -305 744 -347 1120 -8 80
-18 165 -22 190 l-6 45 -4 -40 c-2 -22 2 -85 8 -140 97 -858 492 -1611 1135
-2164 483 -415 1093 -688 1710 -765 109 -13 288 -29 222 -19 l-27 4 60 117
c104 203 254 451 383 632 111 155 232 361 252 429 6 20 4 23 -9 18 -20 -8 -20
-2 4 108 40 181 105 344 202 503 48 80 118 172 118 155 -1 -22 -39 -116 -53
-131 -19 -21 -22 -32 -8 -32 20 0 129 111 152 155 13 25 27 45 31 45 5 0 8
-45 8 -101 0 -126 14 -127 54 -3 17 49 31 91 32 93 7 9 84 -36 89 -51 7 -20
21 -24 27 -8 5 16 73 -39 107 -86 68 -95 101 -195 101 -306 -1 -84 -23 -148
-87 -250 -22 -35 -68 -121 -103 -191 -34 -70 -87 -166 -117 -215 -31 -48 -80
-132 -111 -187 -75 -136 -128 -213 -279 -406 -70 -91 -144 -188 -163 -217 -19
-28 -42 -53 -50 -56 -42 -13 123 9 250 34 951 188 1773 789 2245 1641 140 252
274 606 330 869 52 242 95 613 66 560 -5 -8 -11 -61 -15 -116 -3 -56 -18 -171
-32 -255 -98 -584 -342 -1116 -717 -1565 l-80 -96 -36 89 c-20 48 -54 115 -76
148 -53 80 -197 224 -320 320 -180 141 -264 216 -309 276 -24 32 -95 163 -159
291 -67 138 -148 284 -197 358 -90 134 -149 253 -199 393 l-31 89 0 421 0 422
-34 221 c-73 465 -150 693 -307 904 -94 127 -190 201 -364 285 -195 93 -340
118 -570 98z m-336 -795 c21 -157 44 -657 37 -793 -7 -118 -26 -258 -38 -270
-2 -3 -22 5 -44 16 -33 17 -52 20 -115 16 -42 -3 -87 -11 -100 -18 -23 -12
-23 -12 -4 -20 11 -4 14 -8 7 -8 -23 -2 -101 -61 -116 -88 -13 -26 -14 -25
-25 43 -7 38 -11 112 -9 164 l3 94 79 27 c43 15 125 33 182 40 57 7 104 16
104 21 0 14 -40 29 -78 30 -41 0 -178 -33 -235 -57 -20 -8 -39 -15 -42 -15
-10 0 -5 37 20 132 45 173 138 417 218 568 38 73 126 199 138 200 4 0 12 -37
18 -82z m861 -319 c74 -146 96 -205 166 -449 103 -360 109 -522 27 -722 -52
-126 -119 -223 -233 -338 -96 -97 -247 -217 -309 -246 -72 -35 -285 0 -435 70
-186 87 -268 190 -404 511 -49 114 -80 247 -55 232 6 -4 15 11 22 33 10 33 68
97 78 86 2 -2 -4 -19 -12 -39 -56 -135 55 -304 180 -273 45 12 94 64 110 120
16 57 22 176 10 219 -5 18 -4 27 4 27 6 0 11 -7 11 -15 0 -21 21 -19 27 4 3
12 38 33 101 60 53 23 130 62 171 87 40 24 75 44 77 44 2 0 -1 -12 -6 -26 -6
-14 -10 -27 -10 -30 0 -10 64 -2 122 16 34 11 64 20 66 20 1 0 -7 -13 -19 -29
-13 -18 -19 -36 -15 -47 5 -13 13 -7 37 30 36 54 76 87 139 115 33 14 39 20
22 20 -21 1 -21 2 8 29 26 23 32 39 43 112 l13 85 64 5 c71 5 63 15 -20 26
l-50 7 0 111 c0 61 -3 149 -6 196 -5 80 -4 84 11 65 9 -11 38 -63 65 -116z
m413 -793 c33 -31 41 -63 34 -134 -8 -71 -65 -189 -112 -231 -37 -32 -82 -41
-90 -18 -3 7 4 48 15 91 14 55 20 112 20 186 0 69 4 110 12 118 22 22 92 15
121 -12z m-1481 -103 c24 -21 23 -35 -5 -62 -28 -25 -42 -15 -45 33 -3 48 16
60 50 29z m145 -137 c-4 -9 -11 -16 -17 -16 -17 0 -24 31 -9 41 18 11 34 -5
26 -25z m867 -722 c7 -28 0 -33 -112 -84 -110 -49 -304 -100 -384 -100 l-56 0
-4 73 -3 73 127 -4 127 -4 63 35 c35 20 99 65 143 100 l80 65 7 -66 c4 -36 9
-75 12 -88z m160 -401 c-13 -43 -24 -81 -24 -85 0 -20 21 -3 69 56 l53 64 40
-41 c39 -41 40 -43 35 -102 -4 -52 -14 -75 -74 -176 -117 -196 -221 -547 -210
-710 5 -76 4 -78 -37 -151 -24 -41 -88 -135 -144 -210 -56 -74 -131 -185 -166
-245 -36 -60 -71 -114 -78 -120 -7 -6 -31 -13 -53 -16 -22 -4 -114 -29 -205
-57 -223 -68 -346 -87 -459 -73 -76 10 -194 42 -210 58 -9 10 69 153 146 267
71 104 83 128 64 128 -13 0 -139 -179 -196 -278 -27 -45 -52 -85 -57 -88 -14
-9 -102 53 -157 111 -61 65 -119 179 -128 254 l-6 53 75 71 c76 74 129 160
110 179 -7 7 -16 0 -27 -18 -15 -27 -16 -28 -10 -4 79 334 80 340 88 329 2 -2
22 -36 45 -75 22 -39 61 -93 86 -121 25 -28 46 -54 46 -59 0 -15 44 -54 61
-54 17 0 61 -72 128 -207 25 -52 48 -72 38 -33 -3 11 -1 18 4 14 16 -9 10 15
-16 66 -42 82 -56 162 -62 345 -4 147 -2 194 20 345 14 96 31 230 38 298 6 67
15 125 19 127 9 5 76 -146 109 -244 18 -51 71 -275 71 -296 0 -3 5 -5 10 -5
31 0 -18 326 -74 493 l-43 128 31 23 c49 36 237 102 258 90 4 -3 12 -30 18
-62 6 -31 13 -67 16 -80 6 -29 58 -52 116 -52 33 0 39 -3 30 -12 -7 -7 -12
-31 -12 -55 0 -37 5 -47 41 -80 63 -58 152 -123 170 -123 21 0 60 39 116 114
52 71 58 118 18 156 -14 13 -25 26 -25 29 0 3 21 15 48 26 50 20 240 143 262
169 7 9 14 16 15 16 2 0 -7 -35 -21 -77z m-404 -187 c0 -29 -13 -76 -21 -76
-5 0 -9 16 -9 36 0 33 -2 35 -27 34 -41 -3 -50 0 -28 10 33 14 85 12 85 -4z
m60 -10 c0 -3 -4 -8 -10 -11 -5 -3 -10 -1 -10 4 0 6 5 11 10 11 6 0 10 -2 10
-4z m-1121 -190 c-9 -8 -10 -5 -5 14 3 14 7 34 7 45 1 11 4 5 6 -14 3 -19 -1
-39 -8 -45z m32 -286 c13 -99 38 -205 74 -310 31 -91 9 -76 -30 20 -38 94 -63
207 -76 346 -13 131 -2 211 12 94 5 -36 13 -103 20 -150z m2376 -145 c34 -146
37 -173 37 -310 0 -259 -24 -313 -239 -535 -83 -85 -163 -171 -179 -190 -19
-24 -9 1 32 85 48 96 72 131 118 175 31 30 77 74 101 97 39 37 43 44 33 63 -6
11 -27 28 -46 37 -19 9 -34 21 -34 26 0 5 16 70 35 145 53 202 65 288 72 482
8 202 6 204 70 -75z m541 16 c45 -64 101 -154 124 -199 39 -77 42 -92 46 -176
3 -66 0 -109 -12 -148 -15 -52 -21 -59 -113 -130 -107 -82 -182 -134 -285
-196 l-66 -41 49 66 c170 224 218 537 139 918 l-18 90 26 -34 c15 -18 64 -85
110 -150z m-658 -121 c-11 -89 -51 -272 -84 -385 l-15 -50 -111 0 c-60 0 -110
2 -110 5 0 3 23 41 51 85 29 44 72 121 97 170 24 50 74 141 111 202 75 128 80
126 61 -27z m-3077 -630 c-16 -40 -27 -49 -37 -31 -5 8 39 71 49 71 2 0 -4
-18 -12 -40z"/>
    <path d="M3538 3760 c-52 -15 -108 -54 -134 -92 -31 -44 -42 -115 -24 -158 18
-42 31 -37 24 9 -7 46 9 101 37 126 19 18 19 18 4 -25 -32 -90 -13 -183 51
-246 65 -65 133 -67 197 -6 85 80 87 223 6 316 l-40 45 29 -9 c41 -11 64 -25
85 -50 18 -21 37 -19 37 5 0 21 -66 73 -107 84 -44 13 -126 13 -165 1z m-7
-187 c7 -18 3 -26 -16 -39 -13 -9 -29 -13 -35 -9 -11 7 -14 58 -3 69 14 13 46
1 54 -21z m134 -143 c-3 -5 -11 -10 -16 -10 -6 0 -7 5 -4 10 3 6 11 10 16 10
6 0 7 -4 4 -10z"/>
    <path d="M3100 3066 c0 -9 7 -16 16 -16 9 0 14 5 12 12 -6 18 -28 21 -28 4z"/>
    <path d="M3280 2804 c0 -17 22 -14 28 4 2 7 -3 12 -12 12 -9 0 -16 -7 -16 -16z"/>
    <path d="M3102 2788 c5 -15 98 -24 98 -10 0 5 -17 12 -37 16 -55 9 -65 8 -61
-6z"/>
    <path d="M3963 3445 c-3 -10 2 -42 11 -72 17 -52 17 -56 0 -74 -15 -17 -15
-19 0 -25 30 -12 49 16 41 61 -8 44 -9 82 -4 105 6 21 -39 26 -48 5z"/>
    <path d="M3623 23 c9 -2 23 -2 30 0 6 3 -1 5 -18 5 -16 0 -22 -2 -12 -5z"/>
    <path d="M3498 13 c12 -2 30 -2 40 0 9 3 -1 5 -23 4 -22 0 -30 -2 -17 -4z"/>
    <path d="M3293 3 c9 -2 23 -2 30 0 6 3 -1 5 -18 5 -16 0 -22 -2 -12 -5z"/>
  </g>
</svg>
