<?xml version="1.0" encoding="UTF-8"?>
<svg width="257px" height="257px" viewBox="0 0 257 257" version="1.1" xmlns="http://www.w3.org/2000/svg" xmlns:xlink="http://www.w3.org/1999/xlink">
    <!-- Generator: Sketch 54.1 (76490) - https://sketchapp.com -->
    <title>slack</title>
    <desc>Created with Sketch.</desc>
    <g id="Page-1" stroke="none" stroke-width="1" fill="none" fill-rule="evenodd">
        <g id="slack" fill-rule="nonzero">
            <g id="Group" transform="translate(0.000000, 135.000000)" fill="#E01E5A">
                <path d="M54.51,27.5 C54.51,42.41 42.42,54.5 27.51,54.5 C12.6,54.5 0.51,42.41 0.51,27.5 C0.51,12.59 12.6,0.5 27.51,0.5 L54.51,0.5 L54.51,27.5 Z" id="Path"></path>
                <path d="M68.01,27.5 C68.01,12.59 80.1,0.5 95.01,0.5 C109.92,0.5 122.01,12.59 122.01,27.5 L122.01,95 C122.01,109.91 109.92,122 95.01,122 C80.1,122 68.01,109.91 68.01,95 L68.01,27.5 Z" id="Path"></path>
            </g>
            <g id="Group" fill="#36C5F0">
                <path d="M95.01,54.5 C80.1,54.5 68.01,42.41 68.01,27.5 C68.01,12.59 80.1,0.5 95.01,0.5 C109.92,0.5 122.01,12.59 122.01,27.5 L122.01,54.5 L95.01,54.5 Z" id="Path"></path>
                <path d="M95.01,68 C109.92,68 122.01,80.09 122.01,95 C122.01,109.91 109.92,122 95.01,122 L27.51,122 C12.6,122 0.51,109.91 0.51,95 C0.51,80.09 12.6,68 27.51,68 L95.01,68 Z" id="Path"></path>
            </g>
            <g id="Group" transform="translate(135.000000, 0.000000)" fill="#2EB67D">
                <path d="M68.01,95 C68.01,80.09 80.1,68 95.01,68 C109.92,68 122.01,80.09 122.01,95 C122.01,109.91 109.92,122 95.01,122 L68.01,122 L68.01,95 Z" id="Path"></path>
                <path d="M54.51,95 C54.51,109.91 42.42,122 27.51,122 C12.6,122 0.51,109.91 0.51,95 L0.51,27.5 C0.51,12.59 12.6,0.5 27.51,0.5 C42.42,0.5 54.51,12.59 54.51,27.5 L54.51,95 Z" id="Path"></path>
            </g>
            <g id="Group" transform="translate(135.000000, 135.000000)" fill="#ECB22E">
                <path d="M27.51,68 C42.42,68 54.51,80.09 54.51,95 C54.51,109.91 42.42,122 27.51,122 C12.6,122 0.51,109.91 0.51,95 L0.51,68 L27.51,68 Z" id="Path"></path>
                <path d="M27.51,54.5 C12.6,54.5 0.51,42.41 0.51,27.5 C0.51,12.59 12.6,0.5 27.51,0.5 L95.01,0.5 C109.92,0.5 122.01,12.59 122.01,27.5 C122.01,42.41 109.92,54.5 95.01,54.5 L27.51,54.5 Z" id="Path"></path>
            </g>
        </g>
    </g>
</svg>