<?xml version="1.0" encoding="UTF-8"?>
<svg width="175px" height="168px" viewBox="0 0 175 168" version="1.1" xmlns="http://www.w3.org/2000/svg" xmlns:xlink="http://www.w3.org/1999/xlink">
    <!-- Generator: Sketch 54.1 (76490) - https://sketchapp.com -->
    <title>sonarqube</title>
    <desc>Created with Sketch.</desc>
    <g id="Page-1" stroke="none" stroke-width="1" fill="none" fill-rule="evenodd">
        <g id="sonarqube" fill="#000000" fill-rule="nonzero">
            <g id="Group" transform="translate(87.450000, 83.800000) scale(-1, 1) rotate(-180.000000) translate(-87.450000, -83.800000) translate(0.000000, 0.500000)">
                <path d="M114.2,164.6 C113.5,163.2 113,161.8 113,161.6 C113,161.4 116.7,158.7 121.3,155.5 C137.7,144 157.1,121.8 165.9,104.4 C167.6,100.9 169.2,98.1 169.5,98.1 C169.7,98.1 171,98.6 172.4,99.2 L174.9,100.4 L171.3,107.5 C160.5,128.9 139.7,151.6 117.9,165.5 C115.4,167.1 115.3,167 114.2,164.6 Z" id="Path"></path>
                <path d="M59.5,159.5 C59.2,157.5 59,155.8 59.2,155.7 C59.4,155.6 63.6,154 68.5,152.2 C109.3,137.2 143.3,101.9 155.6,61.6 L158.5,52.1 L161.5,52.7 C163.2,53 164.9,53.7 165.3,54.1 C166.6,55.2 159.8,74.5 154.4,85.2 C139.7,114.5 115.2,138.8 85.4,153.5 C77.3,157.5 63.1,163.1 61.1,163.1 C60.6,163.1 59.9,161.5 59.5,159.5 Z" id="Path"></path>
                <path d="M0.6,150.3 C0.3,150 0,147.9 0,145.6 L0,141.4 L9.5,140.7 C76.2,136 130.6,86.3 140.5,21.1 C141.3,15.9 142,9 142,5.9 L142,0.1 L147,0.1 C152.8,0.1 152.5,-1 151,14.2 C144.6,77.7 99.2,130.4 37.2,146 C26,148.9 1.9,151.7 0.6,150.3 Z" id="Path"></path>
            </g>
        </g>
    </g>
</svg>