<?xml version="1.0" encoding="UTF-8"?>
<svg width="578px" height="556px" viewBox="0 0 578 556" version="1.1" xmlns="http://www.w3.org/2000/svg" xmlns:xlink="http://www.w3.org/1999/xlink">
    <!-- Generator: Sketch 54.1 (76490) - https://sketchapp.com -->
    <title>volume_cache</title>
    <desc>Created with Sketch.</desc>
    <g id="Page-1" stroke="none" stroke-width="1" fill="none" fill-rule="evenodd">
        <g id="volume_cache" fill-rule="nonzero">
            <path d="M273.73,18.74 C282.43,15.35 297.78,15.35 306.48,18.74 L553.21,121.7 L306.48,224.55 C297.78,227.94 282.43,227.94 273.73,224.55 L27,120.53 L273.73,18.74 Z" id="Shape" stroke="#000000" fill="#75C5E2"></path>
            <path d="M273.1,323.2 C281.6,326.4 296.6,326.4 305.1,323.2 L563.2,220.8 C568.5,218.7 574.9,220.8 577.1,227.2 C579.2,232.5 577.1,238.9 570.7,241.1 L312.6,344.6 C306.2,346.7 297.7,348.9 289.1,348.9 C280.6,348.9 272,347.8 265.6,344.6 L7.5,240 C2.2,237.9 -1,231.5 1.1,226.1 C3.2,220.8 9.6,217.6 15,219.7 L273.1,323.2 L273.1,323.2 Z" id="Path" fill="#494949"></path>
            <path d="M305.1,24.6 C296.6,21.4 281.6,21.4 273.1,24.6 L32,120.6 L273.1,217.6 C281.6,220.8 296.6,220.8 305.1,217.6 L546.2,120.5 L305.1,24.6 Z M265.6,236.8 L19.2,138.7 C6.4,133.4 4.3,125.9 4.3,120.6 C4.3,116.3 6.4,107.8 19.2,102.5 L265.6,4.3 C278.4,-1 299.7,-1 313.6,4.3 L560,102.4 C572.8,107.7 574.9,116.3 574.9,120.5 C574.9,124.7 572.8,133.3 560,138.6 L313.6,236.7 C307.2,238.8 298.7,241 290.1,241 C281.5,241 272,240 265.6,236.8 Z" id="Shape" fill="#494949"></path>
            <path d="M312.6,447 C306.2,449.1 297.7,451.3 289.1,451.3 C280.6,451.3 272,450.2 265.6,447 L7.5,343.5 C2.2,341.4 -1,335 1.1,329.6 C3.2,324.2 9.6,321.1 15,323.2 L273.1,426.7 C281.6,429.9 296.6,429.9 305.1,426.7 L563.2,324.3 C568.5,322.2 574.9,324.3 577.1,330.7 C579.2,336 577.1,342.4 570.7,344.6 L312.6,447 Z" id="Path" fill="#494949"></path>
            <path d="M273.1,531.2 C281.6,534.4 296.6,534.4 305.1,531.2 L563.2,427.7 C568.5,425.6 574.9,427.7 577.1,434.1 C579.2,439.4 577.1,445.8 570.7,448 L312.6,551.5 C306.2,553.6 297.7,555.8 289.1,555.8 C280.6,555.8 272,554.7 265.6,551.5 L7.5,448 C2.2,445.9 -1,439.5 1.1,434.1 C3.2,428.7 9.6,425.6 15,427.7 L273.1,531.2 Z" id="Path" fill="#494949"></path>
        </g>
    </g>
</svg>