<?xml version="1.0" encoding="UTF-8"?>
<svg width="256px" height="240px" viewBox="0 0 256 240" version="1.1" xmlns="http://www.w3.org/2000/svg" xmlns:xlink="http://www.w3.org/1999/xlink">
    <!-- Generator: Sketch 54.1 (76490) - https://sketchapp.com -->
    <title>webhook</title>
    <desc>Created with Sketch.</desc>
    <g id="Page-1" stroke="none" stroke-width="1" fill="none" fill-rule="evenodd">
        <g id="webhook">
            <path d="M119.97568,100.73039 C109.32669,118.63149 99.12413,135.9671 88.70927,153.17176 C86.034621,157.5885 84.711186,161.18578 86.848127,166.80096 C92.747037,182.31114 84.425468,197.40465 68.784329,201.50195 C54.034078,205.36709 39.662802,195.67248 36.736165,179.88055 C34.142867,165.90213 44.990273,152.19952 60.40125,150.01496 C61.692938,149.83043 63.010421,149.80861 65.181092,149.64591 C72.732808,136.98299 80.469051,124.01253 88.623951,110.33572 C73.879653,95.67475 65.10371,78.535567 67.046204,57.299095 C68.419243,42.286936 74.322121,29.314493 85.111987,18.681376 C105.77702,-1.6800807 137.30335,-4.9777557 161.63512,10.651478 C185.00455,25.663637 195.70712,54.906197 186.58394,79.9344 C179.70486,78.069289 172.77816,76.188305 165.16295,74.122794 C168.02808,60.207875 165.909,47.71163 156.52391,37.007083 C150.32341,29.939504 142.36693,26.235076 133.31916,24.869973 C115.18194,22.129847 97.3741,33.782823 92.09028,51.584712 C86.092162,71.789421 95.169697,88.293666 119.97568,100.73039 Z" id="path4232" fill="#C73A63"></path>
            <path d="M150.3869,79.561378 C157.88902,92.79574 165.50621,106.23049 173.05594,119.54222 C211.21532,107.73647 239.98565,128.85984 250.30725,151.47531 C262.77374,178.79322 254.25176,211.14893 229.76722,228.00239 C204.63584,245.30428 172.85355,242.34787 150.58731,220.12329 C156.262,215.37321 161.96449,210.60131 168.05784,205.504 C190.05027,219.74829 209.28473,219.07764 223.56473,202.21029 C235.74153,187.82115 235.47764,166.36643 222.94766,152.27888 C208.4871,136.02266 189.11772,135.52662 165.70463,151.13204 C155.99215,133.90159 146.11104,116.80805 136.70612,99.4526 C133.53543,93.60329 130.03338,90.210376 122.88644,88.972246 C110.94973,86.902776 103.24325,76.652599 102.78094,65.168276 C102.32656,53.81094 109.01716,43.544893 119.47567,39.544825 C129.83497,35.582456 141.99192,38.780924 148.96029,47.588612 C154.65483,54.785163 156.46439,62.884508 153.4683,71.759659 C152.63496,74.233907 151.55558,76.628788 150.3869,79.561378 Z" id="path4234" fill="#4B4B4B"></path>
            <path d="M168.31777,187.7537 C153.22822,187.7537 138.08312,187.7537 122.38048,187.7537 C117.97762,205.86313 108.46754,220.48441 92.080359,229.78219 C79.342047,237.0085 65.611656,239.45893 50.998312,237.09977 C24.093094,232.76041 2.0927197,208.53976 0.15617882,181.26549 C-2.0363187,150.37012 19.200153,122.90736 47.506189,116.7386 C49.460587,123.83594 51.434828,131.00075 53.389226,138.08023 C27.418547,151.33046 18.430298,168.02518 25.698279,188.90054 C32.097198,207.27189 50.27211,217.3415 70.006571,213.44659 C90.159692,209.47034 100.32058,192.72203 99.080478,165.84261 C118.18596,165.84261 137.30732,165.6442 156.41478,165.93981 C163.87523,166.05688 169.63525,165.28306 175.25637,158.70556 C184.5105,147.88197 201.54253,148.85818 211.50898,159.08057 C221.69367,169.52717 221.20557,186.33698 210.42761,196.34311 C200.02862,205.99803 183.59977,205.48215 173.87143,195.07919 C171.87139,192.93432 170.29597,190.38864 168.31777,187.75368 L168.31777,187.7537 Z" id="path4236" fill="#4A4A4A"></path>
        </g>
    </g>
</svg>