<?xml version="1.0" encoding="UTF-8"?>
<svg width="256px" height="256px" viewBox="0 0 256 256" version="1.1" xmlns="http://www.w3.org/2000/svg" xmlns:xlink="http://www.w3.org/1999/xlink">
    <!-- Generator: Sketch 54.1 (76490) - https://sketchapp.com -->
    <title>wechat</title>
    <desc>Created with Sketch.</desc>
    <g id="Page-1" stroke="none" stroke-width="1" fill="none" fill-rule="evenodd">
        <g id="wechat" fill-rule="nonzero">
            <path d="M256,217.6 C256,238.808747 238.807893,256 217.6,256 L38.4,256 C17.1912533,256 0,238.808747 0,217.6 L0,38.4 C0,17.1921067 17.1921067,0 38.4,0 L217.6,0 C238.807893,0 256,17.1921067 256,38.4 L256,217.6 Z" id="Path" fill="#2DC100"></path>
            <g id="Group" transform="translate(16.213333, 31.573333)" fill="#FFFFFF">
                <path d="M155.13856,63.8976 C134.4768,64.9770667 116.509867,71.2405333 101.922987,85.39136 C87.1850667,99.6881067 80.4573867,117.20704 82.29632,138.924373 C74.2203733,137.924267 66.86464,136.823467 59.4670933,136.200533 C56.9122133,135.985493 53.88032,136.290987 51.7162667,137.512107 C44.5329067,141.56544 37.6465067,146.141867 29.4843733,151.243947 C30.9819733,144.470187 31.95136,138.538667 33.6674133,132.83328 C34.9294933,128.64 34.34496,126.306133 30.48192,123.575467 C5.67893333,106.064213 -4.77610667,79.8574933 3.04810667,52.8768 C10.2869333,27.9168 28.0635733,12.77952 52.2180267,4.88874667 C85.18656,-5.88032 122.23744,5.10464 142.2848,31.2797867 C149.525333,40.73472 153.965227,51.3467733 155.13856,63.8976 Z M60.0456533,55.49056 C60.2359467,50.5557333 55.9598933,46.1098667 50.8808533,45.9613867 C45.68064,45.80864 41.4037333,49.7826133 41.25184,54.90688 C41.09824,60.1002667 45.0705067,64.2619733 50.3082667,64.3950933 C55.5008,64.5265067 59.8536533,60.5474133 60.0456533,55.49056 Z M109.659307,45.9579733 C104.561493,46.05184 100.253867,50.3936 100.34432,55.3480533 C100.437333,60.4834133 104.66304,64.5009067 109.905067,64.43776 C115.160747,64.3746133 119.146667,60.3144533 119.097173,55.07072 C119.053653,49.9234133 114.84672,45.8632533 109.659307,45.9579733 Z" id="Shape"></path>
                <path d="M201.558187,192.708267 C195.01568,189.794987 189.014187,185.424213 182.624427,184.756907 C176.259413,184.09216 169.568427,187.764053 162.909013,188.445013 C142.624427,190.52032 124.45184,184.866987 109.467307,171.009707 C80.9685333,144.65024 85.04064,104.23296 118.012587,82.63168 C147.316907,63.4333867 190.293333,69.8333867 210.95424,96.4718933 C228.98432,119.716693 226.865493,150.573227 204.854613,170.100907 C198.485333,175.752533 196.19328,180.4032 200.279893,187.853653 C201.03424,189.229227 201.120427,190.97088 201.558187,192.708267 L201.558187,192.708267 Z M127.084373,120.602453 C131.249493,120.60672 134.67904,117.346987 134.836907,113.233067 C135.003307,108.877653 131.500373,105.224533 127.138987,105.206613 C122.82112,105.186987 119.20384,108.891307 119.354027,113.181867 C119.49568,117.28128 122.94912,120.597333 127.084373,120.602453 Z M175.09376,105.22368 C171.052373,105.19552 167.61856,108.503893 167.453867,112.587093 C167.278933,116.9536 170.67264,120.539307 174.99392,120.5504 C179.173547,120.564053 182.475947,117.403307 182.62784,113.24416 C182.789973,108.867413 179.39456,105.253547 175.09376,105.22368 L175.09376,105.22368 Z" id="Shape"></path>
            </g>
        </g>
    </g>
</svg>