<?xml version="1.0" encoding="UTF-8"?>
<svg width="27px" height="27px" viewBox="0 0 27 27" version="1.1" xmlns="http://www.w3.org/2000/svg" xmlns:xlink="http://www.w3.org/1999/xlink">
    <!-- Generator: Sketch 53 (72520) - https://sketchapp.com -->
    <title>Group 3</title>
    <desc>Created with Sketch.</desc>
    <g id="Landing" stroke="none" stroke-width="1" fill="none" fill-rule="evenodd">
        <g id="dron-landing" transform="translate(-46.000000, -117.000000)" fill="#1E375A" fill-rule="nonzero">
            <g id="Group-4" transform="translate(46.000000, 117.000000)">
                <g id="Group-3">
                    <path d="M5.37454926,3 L5.26000478,3.11409195 L9.93534601,7.77096239 C9.27426198,8.79904344 8.89349967,10.0616612 8.89349967,11.4978625 C8.89349967,15.4905146 11.8362018,18.1416357 15.5636244,18.1416357 C16.9564574,18.1416357 18.2397192,17.7714579 19.3008151,17.0994316 L24,21.7800514 C21.5651806,24.9832679 17.6961954,27 13.3402495,27 C5.97379305,27 0,21.2323287 0,13.7124535 C0,9.24044687 2.11268034,5.38812133 5.37454926,3 Z M8,1.25931487 C9.73166561,0.448837014 11.670416,0 13.7171405,0 C21.0519063,0 27,5.76424413 27,13.279651 C27,15.3467459 26.5500195,17.2813632 25.7449714,19 L21.5350159,14.7910614 C22.1932559,13.7635912 22.5723802,12.5017237 22.5723802,11.0663759 C22.5723802,7.07609611 19.6423377,4.42655034 15.9309504,4.42655034 C14.5441095,4.42655034 13.2663682,4.79650816 12.2098372,5.46813515 L8,1.25931487 Z M16,15 C13.7647059,15 12,13.4038461 12,11 C12,8.59615385 13.7647059,7 16,7 C18.2352941,7 20,8.59615385 20,11 C20,13.4038461 18.2352941,15 16,15 Z" id="Combined-Shape"></path>
                </g>
            </g>
        </g>
    </g>
</svg>