<svg width="24" height="25" viewBox="0 0 24 25" fill="none" xmlns="http://www.w3.org/2000/svg">
<path fill-rule="evenodd" clip-rule="evenodd" d="M20.125 16.3405L16.4127 19.7672C16.1849 19.9775 15.8156 19.9775 15.5878 19.7672L11.8755 16.3405C11.6477 16.1302 11.6477 15.7892 11.8755 15.579C12.1033 15.3687 12.4726 15.3687 12.7004 15.579L15.4169 18.0865L15.4169 6.46339C15.4169 6.166 15.6781 5.92493 16.0003 5.92493C16.3224 5.92493 16.5836 6.166 16.5836 6.46339L16.5836 18.0865L19.3001 15.579C19.5279 15.3687 19.8972 15.3687 20.125 15.579C20.3528 15.7892 20.3528 16.1302 20.125 16.3405Z" fill="#0278D5"/>
<path fill-rule="evenodd" clip-rule="evenodd" d="M3.87544 9.50939L7.58775 6.08264C7.81556 5.87236 8.18491 5.87236 8.41271 6.08264L12.125 9.50939C12.3528 9.71967 12.3528 10.0606 12.125 10.2709C11.8972 10.4812 11.5279 10.4812 11.3001 10.2709L8.58357 7.76335L8.58357 19.3865C8.58357 19.6838 8.3224 19.9249 8.00023 19.9249C7.67807 19.9249 7.4169 19.6838 7.4169 19.3865L7.4169 7.76335L4.7004 10.2709C4.4726 10.4812 4.10325 10.4812 3.87544 10.2709C3.64764 10.0606 3.64764 9.71967 3.87544 9.50939Z" fill="#9293AB"/>
</svg>
