<svg id="Layer_1" xmlns="http://www.w3.org/2000/svg" width="72" height="72" viewBox="0 0 72 72"><style>.st0{fill:#fff;stroke:#fff;stroke-width:7.391647e-2;stroke-miterlimit:10}.st1{fill:#1d3649}.st2{fill:#00b4a0}.st3{fill:#5aaafa}.st4{fill:#5a6464}.st5{fill:#fff}.st6{fill:#00b29f}.st7{fill:#1c3649}</style><g id="Bluemix-icon-lightbg-large"><path class="st1" d="M23 35.9c0 2.4.5 4.7 1.4 6.9.9 2.1 2.2 4 3.8 5.7.4.4.7.7 1.1 1V22.2c-.4.3-.8.7-1.1 1-1.6 1.6-2.9 3.5-3.8 5.7-1 2.2-1.4 4.5-1.4 7z"/><path class="st2" d="M53.4 23.2c-1.6-1.6-3.5-2.9-5.7-3.8-2.2-.9-4.5-1.4-6.9-1.4-2.1 0-4.1.4-6.1 1.1l23.7 13.7c-.2-1.3-.6-2.6-1.1-3.8-.9-2.2-2.2-4.1-3.9-5.8zM32.5 20s0 .1 0 0l8.7 15.1h17.4v-.6L33.1 19.8c-.2.1-.4.2-.6.2z"/><path class="st3" d="M58.7 36.6H41.3l-8.7 15.1c.2.1.3.2.5.3l25.6-14.8c-.1-.2-.1-.4 0-.6zM47.8 52.3c2.1-.9 4-2.2 5.7-3.8 1.6-1.6 2.9-3.5 3.8-5.7.5-1.2.9-2.5 1.1-3.9L34.7 52.6c2 .7 4 1.1 6.1 1.1 2.4 0 4.8-.5 7-1.4z"/><path class="st1" d="M39.9 35.9l-8.7-15.1c-.1 0-.5.3-.5.3v29.5c.2.1.3.2.5.3l8.7-15z"/><path class="st4" d="M41.2 36.6z"/><path class="st2" d="M40.8 16.6c9.9 0 18 7.4 19.1 17 0 .3.1.5.1.8l8.8-15.2-9.2-15.9H41.2l-8.8 15.3c.3-.1.5-.3.8-.4 2.3-1 4.9-1.6 7.6-1.6z"/><path class="st3" d="M60 37.2c0 .3 0 .6-.1.8-1.1 9.6-9.2 17-19.1 17-2.7 0-5.3-.6-7.6-1.6-.3-.1-.5-.2-.8-.4l8.8 15.3h18.4l9.2-15.9L60 37.2z"/><path class="st1" d="M30.1 19.9H12.4L3.2 35.8l9.2 15.9H30c-.2-.2-.5-.3-.7-.5-4.7-3.5-7.7-9.1-7.7-15.4 0-6.3 3-11.9 7.7-15.4.3-.1.5-.3.8-.5z"/></g></svg>