<?xml version="1.0" standalone="no"?>
<!DOCTYPE svg PUBLIC "-//W3C//DTD SVG 20010904//EN"
 "http://www.w3.org/TR/2001/REC-SVG-20010904/DTD/svg10.dtd">
<svg version="1.0" xmlns="http://www.w3.org/2000/svg"
 width="187.000000pt" height="187.000000pt" viewBox="0 0 187.000000 187.000000"
 preserveAspectRatio="xMidYMid meet">

<g transform="translate(0.000000,187.000000) scale(0.100000,-0.100000)"
fill="#000000" stroke="none">
<path d="M775 1641 c-93 -54 -248 -142 -342 -195 l-173 -97 -2 -400 -3 -401
343 -195 342 -195 330 189 c181 103 330 190 330 193 0 3 -46 35 -102 72 l-102
67 -41 -23 c-22 -12 -124 -71 -228 -130 l-187 -109 -228 130 -227 130 -3 269
-2 269 197 110 c109 60 215 120 237 133 l38 24 218 -131 c120 -72 221 -131
225 -131 8 0 225 121 225 125 0 6 -644 388 -660 391 -8 2 -91 -41 -185 -95z"/>
<path d="M777 1245 l-168 -103 0 -198 0 -199 170 -102 169 -103 174 103 173
103 0 199 0 199 -170 103 c-93 56 -172 102 -175 101 -3 0 -81 -46 -173 -103z"/>
</g>
</svg>
