<svg xmlns="http://www.w3.org/2000/svg" viewBox="0 0 24 24">
  <defs>
    <style>
      .cls-1 {
        fill: #0045ff;
      }
    </style>
  </defs>
  <path id="ic_fandogh" class="cls-1" d="M21.481,5.127a2.49,2.49,0,0,0-.214-1.009,3.574,3.574,0,0,0,.527-.271,3.4,3.4,0,0,0,1.6-3.071.679.679,0,0,0-1.357,0,2.071,2.071,0,0,1-.921,1.9,2.579,2.579,0,0,1-.794.336,2.519,2.519,0,0,0-1.37-.4,2.545,2.545,0,0,0-1.255.332A9.346,9.346,0,0,0,8.943.4,11.194,11.194,0,0,0,5.265,2.011a2.549,2.549,0,0,0-.514.377h0A2.507,2.507,0,0,0,4.3,5.459a15.521,15.521,0,0,0-3.093,4.847A15.813,15.813,0,0,0,.123,15.28a16.524,16.524,0,0,0,.391,4.7A2.486,2.486,0,0,0,0,21.5a2.53,2.53,0,0,0,3.846,2.153,16.307,16.307,0,0,0,3.891.451c.313,0,.638-.008.971-.029a15.953,15.953,0,0,0,4.99-1.083A15.479,15.479,0,0,0,18.564,19.9a2.541,2.541,0,0,0,1.251.332,2.515,2.515,0,0,0,1.933-.9l.008,0a10.83,10.83,0,0,0,2-4.178A9.309,9.309,0,0,0,21.143,6.37,2.444,2.444,0,0,0,21.481,5.127Zm-2.53-1.169a1.169,1.169,0,1,1-1.172,1.169A1.173,1.173,0,0,1,18.951,3.959ZM6.5,3.044A1.169,1.169,0,1,1,5.327,4.213,1.149,1.149,0,0,1,5.656,3.4c.049-.037.156-.123.325-.238A1.087,1.087,0,0,1,6.5,3.044ZM2.53,22.665A1.169,1.169,0,1,1,3.7,21.5,1.173,1.173,0,0,1,2.53,22.665Zm10.7-.943a14.622,14.622,0,0,1-4.545,1,15.952,15.952,0,0,1-3.826-.238,2.483,2.483,0,0,0,.2-.988,2.528,2.528,0,0,0-3.344-2.386,15.708,15.708,0,0,1-.239-3.752A14.476,14.476,0,0,1,2.468,10.8a14.056,14.056,0,0,1,2.8-4.392,2.526,2.526,0,0,0,2.517-.033A18.424,18.424,0,0,1,11.6,8.539a18.321,18.321,0,0,1,3.41,3.223,16.739,16.739,0,0,1,2.661,4.613,2.5,2.5,0,0,0-.383,1.333,2.466,2.466,0,0,0,.321,1.226A14.038,14.038,0,0,1,13.229,21.722Zm6.59-2.842a1.169,1.169,0,1,1,1.172-1.169A1.173,1.173,0,0,1,19.819,18.88Zm2.629-4.072a9.223,9.223,0,0,1-.5,1.546,2.532,2.532,0,0,0-2.127-1.16,2.577,2.577,0,0,0-1.065.234,18.032,18.032,0,0,0-2.711-4.535,19.6,19.6,0,0,0-3.682-3.469,19.855,19.855,0,0,0-3.6-2.091,2.489,2.489,0,0,0,.263-1.115,2.517,2.517,0,0,0-1.1-2.083A9.3,9.3,0,0,1,9.251,1.72a7.637,7.637,0,0,1,3.665.021,9.052,9.052,0,0,1,3.821,2.165,2.489,2.489,0,0,0-.321,1.226,2.529,2.529,0,0,0,2.53,2.522,2.558,2.558,0,0,0,1.234-.32A7.954,7.954,0,0,1,22.447,14.808Z" transform="translate(0 -0.1)"/>
</svg>