<?xml version="1.0" encoding="iso-8859-1" standalone="yes"?><!-- Generator: Adobe Illustrator 19.0.0, SVG Export Plug-In . SVG Version: 6.00 Build 0)  --><svg xmlns="http://www.w3.org/2000/svg" xmlns:xlink="http://www.w3.org/1999/xlink" version="1.1" id="Capa_1" x="0px" y="0px" viewBox="0 0 487.478 487.478" style="enable-background:new 0 0 487.478 487.478;zoom: 1;" xml:space="preserve"><g><g><path style="fill:#010002;" d="M387.196,459.652 c-5.63,11.368 -20.6,20.708 -33.284,20.708 H22.024 c-12.705,0 -18.486,-9.34 -12.899,-20.708 l89.26,-180.828 c5.587,-11.368 20.579,-20.686 33.284,-20.686 h331.888 c12.727,0 18.465,9.319 12.899,20.686 L387.196,459.652  z "></path><polygon style="fill:#010002;" points="328.803,196.575 233.223,196.575 233.223,235.057 367.307,235.057"></polygon><path style="fill:#010002;" d="M0,180.871V425.98l77.676-157.359c2.955-5.91,7.507-11.152,12.619-15.876V151.729H29.164 C13.137,151.729,0,164.844,0,180.871z"></path><path style="fill:#010002;" d="M161.781,10.354L59.773,112.362h57.119v106.495h89.756V112.362h57.119L161.781,10.354z"></path><path style="fill:#010002;" d="M385.491,215.665L283.483,113.656h57.098V7.118h89.734v106.517h57.163L385.491,215.665z"></path></g><g></g><g></g><g></g><g></g><g></g><g></g><g></g><g></g><g></g><g></g><g></g><g></g><g></g><g></g><g></g></g><g></g><g></g><g></g><g></g><g></g><g></g><g></g><g></g><g></g><g></g><g></g><g></g><g></g><g></g><g></g><text stroke="none" style="outline-style:none;" id="text1" stroke-width="1px" x="244.657074px" text-rendering="geometricPrecision" font-family="Helvetica" fill="snow" font-size="100px" y="397.510284px" transform="" text-anchor="middle">FTPS</text></svg>