<?xml version="1.0" encoding="UTF-8" standalone="no"?>
<!-- Created with Inkscape (http://www.inkscape.org/) -->
<svg
   xmlns:svg="http://www.w3.org/2000/svg"
   xmlns="http://www.w3.org/2000/svg"
   version="1.0"
   width="100mm"
   height="30.113001mm"
   viewBox="0 0 100 30.113"
   id="svg2"
   xml:space="preserve">
 <defs
   id="defs4">
  <style
   type="text/css"
   id="style6" />
 </defs>
 <g
   id="Ebene_x0020_1">
  
  <g
   id="GnuPG">
   <path
   d="M 0,14.4741 L 1.5909,14.4741 L 1.5909,9.7014 C 1.5909,4.3321 5.9375,-0.0003 11.2926,-0.0003 C 16.6477,-0.0003 20.9943,4.3321 20.9943,9.7014 L 20.9943,14.4315 C 20.9659,14.4457 20.9517,14.4599 20.9233,14.4741 L 20.9233,14.4741 L 20.9091,14.4883 L 20.9091,14.4883 L 20.9091,14.4883 L 20.9091,14.4883 L 20.8949,14.4883 L 20.8949,14.5025 L 20.8949,14.5025 L 20.8807,14.5025 L 20.8807,14.5025 L 20.8807,14.5025 L 20.8665,14.5167 L 20.8665,14.5167 L 20.8665,14.5167 L 20.8665,14.5167 L 20.8665,14.5167 L 20.8523,14.5167 L 20.8523,14.5309 L 20.8381,14.5309 L 20.8381,14.5309 L 20.8381,14.5309 L 20.8239,14.5451 L 20.8239,14.5451 L 20.8239,14.5451 L 20.8097,14.5451 L 20.8097,14.5593 L 20.7955,14.5593 L 20.7955,14.5593 L 20.7813,14.5735 L 20.7813,14.5735 L 20.7813,14.5735 L 20.767,14.5735 L 20.767,14.5878 L 20.767,14.5878 L 20.7528,14.5878 L 20.7528,14.5878 L 20.7528,14.5878 L 20.7528,14.5878 L 20.7528,14.5878 L 20.7528,14.5878 L 20.7386,14.602 L 20.7386,14.602 L 20.7386,14.602 L 20.7244,14.602 L 20.7244,14.602 L 20.7244,14.6162 L 20.7102,14.6162 L 20.7102,14.6162 L 20.7102,14.6162 L 20.7102,14.6162 L 20.7102,14.6162 L 20.7102,14.6162 L 20.696,14.6304 L 20.696,14.6304 L 20.696,14.6304 L 20.696,14.6304 L 20.6818,14.6304 L 20.6534,14.6446 L 20.6534,14.6588 L 20.6534,14.6588 L 20.6392,14.6588 L 20.6392,14.6588 L 20.6108,14.673 L 20.6108,14.673 L 20.6108,14.673 L 20.6108,14.673 L 20.6108,14.673 L 20.6108,14.6872 L 20.6108,14.6872 L 20.5966,14.6872 L 20.5966,14.6872 L 20.5966,14.6872 L 20.5966,14.6872 L 20.5824,14.7014 L 20.5824,14.7014 L 20.5682,14.7014 L 20.554,14.7156 L 20.5398,14.7156 L 20.5256,14.7298 L 20.5114,14.744 L 20.4688,14.7582 L 20.4545,14.7724 L 20.4403,14.7866 L 20.4261,14.7866 L 20.3835,14.815 L 20.3551,14.8292 L 20.3409,14.8292 L 20.3267,14.8434 L 20.2983,14.8576 L 20.2699,14.8718 L 20.2557,14.886 L 20.1847,14.9287 L 20.1705,14.9287 L 20.1563,14.9429 L 20.142,14.9571 L 20.1278,14.9571 L 20.1136,14.9713 L 20.0568,14.9997 L 20.0284,15.0139 C 20,15.0281 19.9716,15.0423 19.9432,15.0565 L 19.929,15.0565 L 19.929,15.0707 L 19.8864,15.0849 L 19.858,15.0991 L 19.858,15.0991 L 19.8153,15.1275 L 19.8153,15.1275 L 19.8011,15.1275 L 19.7869,15.1417 L 19.7585,15.1559 L 19.7301,15.1701 L 19.7159,15.1701 C 19.6875,15.1843 19.6591,15.1985 19.6449,15.2127 L 19.6165,15.227 C 19.5881,15.2412 19.5597,15.2554 19.517,15.2696 L 19.517,15.2696 C 19.4886,15.2838 19.4602,15.3122 19.4318,15.3264 L 19.4034,15.3406 C 19.3608,15.3548 19.3324,15.369 19.2898,15.3832 L 19.2898,15.3832 C 17.3722,16.3065 14.2756,17.2866 8.4091,17.7127 C 4.2188,18.011 1.6619,19.8576 2.6645353e-14,22.0877 L 2.6645353e-14,14.4741 L 0,14.4741 z M 6.0653,14.4741 L 16.5199,14.4741 L 16.5199,9.7014 C 16.5199,6.8037 14.1761,4.4599 11.2926,4.4599 C 8.4091,4.4599 6.0653,6.8037 6.0653,9.7014 L 6.0653,14.4741 L 6.0653,14.4741 z M 19.6165,15.227 C 19.5881,15.2412 19.5597,15.2554 19.517,15.2696 M 15.6818,2.3434 C 14.446,1.5906 12.983,1.1645 11.4347,1.1645 C 7.1733,1.1645 3.6648,4.3747 3.1818,8.5082 C 4.4318,4.602 8.0966,1.7753 12.4148,1.7753 C 13.5653,1.7753 14.6591,1.9741 15.6818,2.3434 z M 22.5852,16.3065 L 22.5852,29.9997 L 3.267,29.9997 C 5.3977,28.8065 6.9886,28.9343 9.6165,29.0196 C 13.196,29.1332 17.1449,27.6275 19.0909,25.6389 C 21.0369,23.6644 18.9205,25.1701 16.7045,25.7383 C 14.5028,26.2923 10.2415,26.3491 7.4006,25.5963 C 16.3778,25.7241 19.858,22.8264 21.8466,20.2269 C 23.8352,17.6275 20.9943,19.7724 19.1477,20.6673 C 17.3011,21.5622 14.1051,22.2014 10.5682,21.7326 C 15.9091,21.7326 19.9716,19.0622 22.5852,16.3065 L 22.5852,16.3065 z "
   style="fill:#0093dd"
   id="_141270560" />
   <path
   d="M 40.3267,28.565 C 39.4176,28.9769 38.4375,29.3321 37.3722,29.6446 C 36.321,29.9428 35.2983,30.0849 34.304,30.0849 C 33.0256,30.0849 31.8608,29.9144 30.7955,29.5593 C 29.7301,29.2042 28.821,28.6786 28.0682,27.9826 C 27.3153,27.2582 26.733,26.3775 26.321,25.3122 C 25.9091,24.2326 25.696,22.9826 25.696,21.548 C 25.696,18.9343 26.4631,16.8605 27.9972,15.3548 C 29.5313,13.8349 31.6335,13.0679 34.304,13.0679 C 35.2415,13.0679 36.1932,13.1815 37.1591,13.4088 C 38.1392,13.636 39.1903,14.0054 40.3125,14.5451 L 40.3125,17.1304 L 40.1136,17.1304 C 39.8864,16.9599 39.5597,16.7326 39.1193,16.4343 C 38.6932,16.1502 38.267,15.9088 37.8409,15.7241 C 37.3295,15.4968 36.7614,15.3122 36.108,15.1559 C 35.4688,15.0139 34.7443,14.9287 33.9347,14.9287 C 32.0881,14.9287 30.6392,15.5252 29.5597,16.7042 C 28.5085,17.8832 27.9688,19.4741 27.9688,21.4912 C 27.9688,23.6076 28.5227,25.2554 29.6449,26.4485 C 30.767,27.6133 32.2869,28.2099 34.2045,28.2099 C 34.9148,28.2099 35.6108,28.1389 36.3068,27.9968 C 37.017,27.8548 37.6278,27.6843 38.1676,27.4571 L 38.1676,23.4372 L 33.7642,23.4372 L 33.7642,21.5196 L 40.3267,21.5196 L 40.3267,28.565 L 40.3267,28.565 z "
   style="fill:#0093dd"
   id="_141270896" />
   <path
   d="M 54.2614,29.7724 L 52.1875,29.7724 L 52.1875,22.7696 C 52.1875,22.2014 52.1591,21.6758 52.0881,21.1787 C 52.017,20.6815 51.9034,20.2838 51.7187,20.0139 C 51.5483,19.7014 51.2784,19.4741 50.9375,19.3321 C 50.5824,19.1758 50.142,19.0906 49.5881,19.0906 C 49.0199,19.0906 48.4233,19.2326 47.8125,19.5167 C 47.2017,19.7866 46.6051,20.1559 46.0369,20.5821 L 46.0369,29.7724 L 43.9631,29.7724 L 43.9631,17.4713 L 46.0369,17.4713 L 46.0369,18.8349 C 46.6903,18.2951 47.358,17.869 48.0398,17.5707 C 48.7358,17.2724 49.446,17.1162 50.1705,17.1162 C 51.5057,17.1162 52.5142,17.5281 53.2102,18.3235 C 53.9062,19.119 54.2614,20.2838 54.2614,21.7894 L 54.2614,29.7724 L 54.2614,29.7724 z "
   style="fill:#0093dd"
   id="_141965712" />
   <path
   d="M 68.4517,29.7724 L 66.3778,29.7724 L 66.3778,28.4088 C 65.6818,28.9627 65.0142,29.3747 64.375,29.673 C 63.7358,29.9713 63.0256,30.1133 62.2585,30.1133 C 60.9659,30.1133 59.9574,29.7156 59.233,28.9343 C 58.5227,28.1389 58.1534,26.9741 58.1534,25.4542 L 58.1534,17.4713 L 60.2273,17.4713 L 60.2273,24.4741 C 60.2273,25.0991 60.2557,25.6389 60.3125,26.0792 C 60.3835,26.5196 60.4972,26.9031 60.696,27.2156 C 60.8949,27.5423 61.1506,27.7696 61.4631,27.9258 C 61.7756,28.0679 62.2443,28.1389 62.8409,28.1389 C 63.3807,28.1389 63.9631,27.9968 64.5881,27.7269 C 65.2273,27.4429 65.8239,27.0877 66.3778,26.6474 L 66.3778,17.4713 L 68.4517,17.4713 L 68.4517,29.7724 L 68.4517,29.7724 z "
   style="fill:#0093dd"
   id="_141965784" />
   <path
   d="M 83.4233,18.3235 C 83.4233,19.048 83.2955,19.7298 83.0398,20.3548 C 82.7841,20.9656 82.4432,21.5054 81.9886,21.9599 C 81.4205,22.5281 80.7528,22.9542 79.9716,23.2383 C 79.2045,23.5224 78.2386,23.6502 77.0597,23.6502 L 74.8722,23.6502 L 74.8722,29.7724 L 72.6989,29.7724 L 72.6989,13.3662 L 77.1449,13.3662 C 78.125,13.3662 78.9631,13.4514 79.6449,13.6218 C 80.3267,13.7781 80.9375,14.0338 81.4631,14.3889 C 82.0881,14.815 82.571,15.3264 82.9119,15.9514 C 83.2528,16.5764 83.4233,17.3718 83.4233,18.3235 M 81.1506,18.3804 C 81.1506,17.8122 81.0511,17.315 80.8523,16.9031 C 80.6534,16.477 80.3551,16.136 79.9574,15.8804 C 79.6023,15.6531 79.2045,15.4826 78.7358,15.3974 C 78.2955,15.2838 77.7273,15.2412 77.0312,15.2412 L 74.8722,15.2412 L 74.8722,21.7894 L 76.7187,21.7894 C 77.5994,21.7894 78.3097,21.7184 78.8636,21.5622 C 79.4176,21.4059 79.858,21.1502 80.2131,20.8093 C 80.554,20.4542 80.7955,20.0849 80.9375,19.6872 C 81.0795,19.3037 81.1506,18.8633 81.1506,18.3804 L 81.1506,18.3804 z "
   style="fill:#0093dd"
   id="_141965808" />
   <path
   d="M 100,28.565 C 99.1051,28.9769 98.125,29.3321 97.0597,29.6446 C 95.9943,29.9428 94.9716,30.0849 93.9773,30.0849 C 92.6989,30.0849 91.5341,29.9144 90.4687,29.5593 C 89.4034,29.2042 88.4943,28.6786 87.7415,27.9826 C 86.9886,27.2582 86.4062,26.3775 85.9943,25.3122 C 85.5824,24.2326 85.3693,22.9826 85.3693,21.548 C 85.3693,18.9343 86.1364,16.8605 87.6705,15.3548 C 89.2045,13.8349 91.3068,13.0679 93.9773,13.0679 C 94.9148,13.0679 95.8665,13.1815 96.8324,13.4088 C 97.8125,13.636 98.8636,14.0054 99.9858,14.5451 L 99.9858,17.1304 L 99.7869,17.1304 C 99.5597,16.9599 99.233,16.7326 98.7926,16.4343 C 98.3665,16.1502 97.9403,15.9088 97.5142,15.7241 C 97.017,15.4968 96.4347,15.3122 95.7812,15.1559 C 95.142,15.0139 94.4176,14.9287 93.608,14.9287 C 91.7756,14.9287 90.3125,15.5252 89.2472,16.7042 C 88.1818,17.8832 87.642,19.4741 87.642,21.4912 C 87.642,23.6076 88.2102,25.2554 89.3182,26.4485 C 90.4403,27.6133 91.9602,28.2099 93.8778,28.2099 C 94.5881,28.2099 95.2841,28.1389 95.9801,27.9968 C 96.6903,27.8548 97.3011,27.6843 97.8409,27.4571 L 97.8409,23.4372 L 93.4375,23.4372 L 93.4375,21.5196 L 100,21.5196 L 100,28.565 L 100,28.565 z "
   style="fill:#0093dd"
   id="_140191952" />
  </g>
 </g>
</svg>