<?xml version="1.0" ?><!DOCTYPE svg  PUBLIC '-//W3C//DTD SVG 1.1//EN'  'http://www.w3.org/Graphics/SVG/1.1/DTD/svg11.dtd'><svg height="2048px" style="shape-rendering:geometricPrecision; text-rendering:geometricPrecision; image-rendering:optimizeQuality; fill-rule:evenodd; clip-rule:evenodd" viewBox="0 0 2048 2048" width="2048px" xml:space="preserve" xmlns="http://www.w3.org/2000/svg" xmlns:xlink="http://www.w3.org/1999/xlink"><defs><style type="text/css">
   <![CDATA[
    .fil6 {fill:none}
    .fil2 {fill:#097BC2}
    .fil5 {fill:#0EB937}
    .fil1 {fill:#EBE5DF}
    .fil3 {fill:#FD0035}
    .fil4 {fill:#FFC801}
    .fil0 {fill:#333333;fill-rule:nonzero}
   ]]>
  </style></defs><g id="Layer_x0020_1"><path class="fil0" d="M1437.76 1206.68c-7.7315,4.24489 -10.5567,13.9559 -6.31182,21.6874 4.24489,7.7315 13.9559,10.5567 21.6874,6.31182 59.0256,-32.4992 108.471,-81.0071 142.806,-139.892 33.1276,-56.817 52.1788,-123.259 52.1788,-194.256l-0.0625985 0c0.0011811,-91.8509 -31.8189,-175.981 -84.73,-241.456 -53.9717,-66.789 -129.86,-114.226 -216.324,-130.762 -8.66339,-1.65591 -17.0315,4.02402 -18.6874,12.6874 -1.65591,8.66339 4.02402,17.0315 12.6874,18.6874 78.8977,15.0898 148.166,58.4008 197.45,119.388 48.5386,60.065 77.7284,137.226 77.7284,221.456l-0.0625985 0c0,65.2418 -17.4532,126.206 -47.8016,178.257 -31.389,53.8323 -76.5934,98.1792 -130.558,127.892z"/><path class="fil0" d="M1025.18 333.128c316.062,0.0531496 543.856,128.558 660.862,298.142 49.95,72.3957 79.7682,152.315 87.7383,233.053 7.99725,81.006 -5.97048,162.741 -43.6217,238.475 -78.019,156.939 -257.561,287.83 -553.702,331.826 -141.426,202.769 -531.198,279.492 -532.328,279.72l-1.12559 0.187795c-8.76733,1.11969 -17.3232,-0.49252 -24.5114,-4.67244 -7.17756,-4.17402 -12.8528,-10.7079 -15.9473,-19.4362l-0.0295276 -0.170079c-0.369685,-1.09488 -0.570473,-2.2748 -0.623623,-3.53032l-0.284646 -1.61221 0 -0.00590552 0.298819 0c1.3937,-24.1087 53.3835,-73.9217 110.452,-128.591 47.7851,-45.776 99.4229,-95.2442 124.654,-128.066 -280.038,-51.2481 -447.756,-176.544 -521.113,-324.901 -37.6323,-76.1068 -50.4225,-158.13 -40.8083,-239.33 9.57284,-80.8371 41.3811,-160.832 92.9989,-233.277 120.747,-169.465 350.319,-297.761 657.093,-297.81zm634.613 316.268c-111.608,-161.763 -330.189,-284.34 -634.613,-284.392 -295.416,0.0484252 -515.769,122.582 -631.092,284.436 -48.4571,68.0091 -78.2989,142.944 -87.2493,218.525 -8.9067,75.2186 2.90315,151.117 37.6831,221.456 71.1792,143.952 238.612,265.252 521.658,311.712l13.4374 2.20512 0 13.5449 0 0.00590552 -1.7504 7.12441 -0.0755906 0.151181 0 0.0625985c-17.6929,34.9488 -83.4355,97.93 -143.31,155.288 -53.5004,51.2516 -101.894,97.6123 -101.812,100.285 0.419292,1.18228 1.06417,1.99606 1.82126,2.43662 1.05827,0.615355 2.48386,0.859843 4.10079,0.715749 17.5181,-3.53622 384.384,-79.4729 513.663,-269.401l1.85669 -2.71181 3.98268 -5.81811 6.95434 -0.994489c288.551,-41.2949 462.231,-165.989 536.485,-315.353 34.9453,-70.291 47.9115,-146.112 40.4965,-221.224 -7.44213,-75.3804 -35.3894,-150.154 -82.2367,-218.053z"/><path class="fil1" d="M1341 559.687c-8.66339,-1.65591 -14.3433,-10.024 -12.6874,-18.6874 1.65591,-8.66339 10.024,-14.3433 18.6874,-12.6874 86.4638,16.5366 162.352,63.9733 216.324,130.762 52.9111,65.4756 84.7312,149.606 84.73,241.456l0.0625985 0c0,70.9973 -19.0512,137.439 -52.1788,194.256 -34.3347,58.8851 -83.7804,107.393 -142.806,139.892 -7.7315,4.24489 -17.4425,1.41969 -21.6874,-6.31182 -4.24489,-7.7315 -1.41969,-17.4425 6.31182,-21.6874 53.9646,-29.713 99.169,-74.0599 130.558,-127.892 30.3484,-52.0512 47.8016,-113.015 47.8016,-178.257l0.0625985 0c0,-84.2292 -29.1898,-161.391 -77.7284,-221.456 -49.2839,-60.9874 -118.552,-104.299 -197.45,-119.388zm-461.385 857.195l0 0zm780.175 -767.487c-111.608,-161.763 -330.189,-284.34 -634.613,-284.392 -295.416,0.0484252 -515.769,122.582 -631.092,284.436 -48.4571,68.0091 -78.2989,142.944 -87.2493,218.525 -8.9067,75.2186 2.90315,151.117 37.6831,221.456 71.1792,143.952 238.612,265.252 521.658,311.712l13.4374 2.20512 0 13.5508 -1.7504 7.12441 -0.0755906 0.151181 0 0.0625985c-17.6929,34.9488 -83.4355,97.93 -143.31,155.288 -53.5004,51.2516 -101.894,97.6123 -101.812,100.285 0.419292,1.18228 1.06417,1.99606 1.82126,2.43662 1.05827,0.615355 2.48386,0.859843 4.10079,0.715749 17.5181,-3.53622 384.384,-79.4729 513.663,-269.401l1.85669 -2.71181 3.98268 -5.81811 6.95434 -0.994489c288.551,-41.2949 462.231,-165.989 536.485,-315.353 34.9453,-70.291 47.9115,-146.112 40.4965,-221.224 -7.44213,-75.3804 -35.3894,-150.154 -82.2367,-218.053z"/><path class="fil1" d="M924.124 953.55l0.131102 -12.848 -16.2957 3.72284 -3.38977 0.798426 -3.26929 0.793701 -3.27166 0.823229 -3.00591 0.78189 -3.07205 0.825591 -2.80866 0.780709 -2.86181 0.825591 -2.69764 0.809056 -2.62323 0.816142 -2.53229 0.817323 -2.44016 0.819686 -2.41536 0.843308 -2.14961 0.78189 -2.25473 0.855119 -2.10709 0.831497 -2.03386 0.839764 -1.9689 0.84567 -1.89567 0.850394 -1.81654 0.852757 -1.75394 0.861024 -1.70315 0.871654 -1.61221 0.864568 -1.57677 0.885827 -1.50118 0.884646 -1.44331 0.889371 -1.40079 0.908268 -1.33465 0.907087 -1.27795 0.911812 -1.2378 0.927166 -1.19055 0.938977 -1.13268 0.941339 -1.08071 0.943702 -1.05709 0.970867 -0.986221 0.956694 -0.95315 0.973229 -0.915355 0.987402 -0.858662 0.975591 -0.829134 0.996851c-0.3,0.370866 -0.595276,0.744095 -0.878741,1.12795l-0.576378 0.780709c-0.270473,0.366142 -0.525591,0.741733 -0.780709,1.1185l-0.740552 1.13504 -0.483071 0.783071 -0.659056 1.12441 -0.576378 1.06536 -0.564567 1.12559 -0.426378 0.89882 -0.447638 1.01339 -0.42874 1.03701 -0.390945 1.03347 -0.354331 1.00748 -0.324803 1.00039 -0.308268 1.02402 -0.276378 1.02874 -0.218504 0.88819 -0.248032 1.08425 -0.201969 1.00748 -0.159449 0.894095 -0.154725 0.967324 -0.154725 1.07717 -0.105118 0.912993 -0.0933072 0.918898 -0.0921261 1.04764 -0.0555119 0.903544 -0.046063 0.957875 -0.0354331 0.983859 -0.0188977 1.50591 0.0188977 1.34528 0.034252 0.895276 0.0590552 1.08307 0.0720473 0.902363 0.0980316 0.990946 0.134646 1.12087 0.137008 0.912993 0.185433 1.10197 0.198425 1.01811 0.226772 1.02756 0.257481 1.04055 0.288189 1.0441 0.279921 0.912993c0.284646,0.929528 0.0791339,0.334252 0.444095,1.32165l0.340158 0.920079 0.370866 0.918898c0.39567,0.982678 0.134646,0.38504 0.584646,1.33347l0.370866 0.780709c0.196063,0.412205 0.407481,0.814961 0.623623,1.21772l0.588189 1.05354 0.654331 1.08662 0.7063 1.07953 0.777166 1.10197 0.823229 1.08189 0.895276 1.08189 0.976772 1.09134 1.03465 1.06536 1.1374 1.07835c0.405118,0.366142 0.819686,0.722835 1.24016,1.07126 0.45,0.373229 0.90945,0.735827 1.37717,1.08662 0.483071,0.362599 0.972048,0.715749 1.47284,1.05473 0.542126,0.368504 1.0937,0.724016 1.65473,1.06417 0.597638,0.361418 1.20473,0.707481 1.82008,1.03819 0.683859,0.367323 1.37835,0.711024 2.0811,1.03819 0.787796,0.366142 1.58622,0.708662 2.3941,1.0252 0.950788,0.372048 1.91457,0.711024 2.88898,1.01575 1.22244,0.382677 2.46142,0.713386 3.71221,0.994489 1.99252,0.448819 4.01339,0.768898 6.04489,0.975591 1.92638,0.197244 3.86339,0.290551 5.79922,0.290551 1.70197,0 3.40394,-0.10748 5.0941,-0.309449 1.84961,-0.219685 3.6874,-0.550394 5.50158,-0.972048 1.18937,-0.277559 2.36929,-0.596457 3.53859,-0.949607 0.954331,-0.28937 1.90158,-0.6 2.84173,-0.934253 0.818505,-0.291733 1.6311,-0.598819 2.4378,-0.922442 0.726379,-0.291733 1.44803,-0.594095 2.16378,-0.90945l1.97835 -0.907087 1.82717 -0.900001 1.70197 -0.895276 1.6063 -0.890552 1.52717 -0.891733 1.42795 -0.874016 1.39252 -0.889371 1.3252 -0.878741 1.32047 -0.912993 1.09961 -0.780709 1.31575 -0.972048 1.02992 -0.78189 1.12795 -0.883465 1.0689 -0.862205 1.04882 -0.868111 1.01693 -0.863386 0.99567 -0.868111 0.988583 -0.887009 0.912993 -0.833859 0.946064 -0.88819 0.896457 -0.862205 0.874016 -0.857481 0.859843 -0.863386 0.836221 -0.858662 0.804331 -0.840946 3.03071 -3.21142 1.08425 -63.7595z"/><path class="fil2" d="M687.981 830.179l2.04685 -92.4591 -42.528 0 -2.04331 92.5678 -34.6465 -1.02284 0 26.8607 35.0681 0 -1.74449 89.2666 -0.18189 9.10394 -0.116929 7.83071 -0.147638 15.7028 -0.0732284 18.3354 -0.00354331 11.0669 0.0153543 1.92284 0.011811 0.559843 0.0448819 1.88977 0.0744095 1.85433 0.0259843 0.584646 0.103937 1.82244 0.0389764 0.576378 0.140551 1.87205 0.167717 1.8189 0.0590552 0.584646 0.20315 1.81772 0.23504 1.78465 0.0850394 0.588189 0.184252 1.23307 0.090945 0.569292 0.311811 1.80591 0.340158 1.76929 0.383859 1.78347 0.122835 0.531496 0.290551 1.21299 0.13937 0.539764 0.316536 1.21063 0.151181 0.533859 0.346063 1.2 0.166536 0.536221 0.372048 1.18583 0.393307 1.14921 0.193701 0.555119 0.42874 1.15984 0.200788 0.518504 0.465355 1.17165 0.478347 1.11969 0.242126 0.546851 0.526772 1.13858 0.256299 0.526772 0.283465 0.574016 0.282284 0.555119 0.584646 1.10315 0.63189 1.11024 0.318898 0.539764 0.322441 0.529134 0.347244 0.557481 0.354331 0.546851 0.422835 0.644882c10.9654,16.702 30.1252,21.2421 49.0807,21.2421 11.8051,0 23.8855,-3.52796 34.2331,-9.07914l12.6402 -6.78189 -8.93977 -18.9165 -0.166536 0.0992127 -1.14095 0.657875 -1.46693 0.806694 -1.4811 0.772442 -1.59803 0.777166 -1.79291 0.804331c-0.664961,0.283465 -1.33347,0.553937 -2.00906,0.810237 -0.780709,0.295276 -1.56851,0.575197 -2.36339,0.829134 -0.973229,0.311811 -1.95591,0.592914 -2.94685,0.839764 -1.49764,0.370866 -3.01418,0.661418 -4.5437,0.863386 -1.68898,0.223229 -3.38977,0.337796 -5.09292,0.337796 -1.76339,0 -3.52677,-0.106299 -5.27481,-0.340158 -1.55197,-0.206693 -3.09095,-0.519685 -4.59804,-0.947245 -0.992127,-0.281103 -1.9689,-0.615355 -2.92559,-1.00039 -1.77992,-0.71693 -0.617717,-0.188977 -2.2748,-1.04055 -1.3937,-0.71693 -0.480709,-0.191339 -1.87795,-1.06181 -1.21299,-0.757087 -0.43937,-0.23504 -1.57795,-1.06654 -1.04882,-0.765355 -0.386221,-0.246851 -1.3748,-1.07599 -0.890552,-0.747638 -0.318898,-0.232677 -1.20591,-1.07717 -0.804331,-0.767717 -0.294095,-0.251575 -1.06063,-1.07362 -0.729922,-0.78189 -0.259843,-0.255118 -0.920079,-1.04055 -0.622441,-0.739371 -0.199606,-0.206693 -0.825591,-1.02756 -0.62126,-0.81378 -0.239764,-0.301181 -0.744095,-1.02874 -0.54567,-0.787796 -0.186614,-0.249213 -0.670867,-1.01693l-0.601182 -1.00039c-0.388583,-0.675591 -0.16063,-0.223229 -0.628347,-1.15512l-0.409843 -0.81378 -0.433465 -0.944883 -0.39567 -0.929528 -0.359055 -0.921261 -0.323622 -0.900001 -0.298819 -0.900001 -0.275197 -0.907087 -0.251575 -0.921261 -0.201969 -0.78189 -0.220866 -0.960237 -0.17126 -0.811418 -0.166536 -0.865749 -0.129921 -0.744095 -0.140551 -0.87756 -0.109843 -0.78189 -0.103937 -0.811418 -0.0814961 -0.722835 -0.0862205 -0.840946 -0.068504 -0.779528 -0.0555119 -0.737008 -0.0519685 -0.827953 -0.0354331 -0.709843 -0.0318898 -0.741733 -0.0271654 -0.823229 -0.0141732 -0.699213 -0.0106299 -0.734646 -0.00354331 -0.735827 0.0248032 -22.3736 0.00354331 -0.638977 0.111024 -18.4654 0.0921261 -8.57363 0.00944883 -0.635434 0.0814961 -5.96811 0.011811 -0.62126 0.00826772 -0.68504 0.166536 -9.23859 0.0283465 -1.30039 0.011811 -0.664961 0.0141732 -0.637796 1.68543 -84.2233 57.2209 0 0 -26.9788 -57.6473 1.03228z"/><path class="fil3" d="M897.051 821.826c-14.5299,0 -26.961,2.91969 -40.2674,8.76261 -18.965,8.32678 -37.6429,21.4961 -54.3071,34.6642l16.5709 18.5705 0.301181 -0.226772c12.1051,-9.10985 25.839,-18.9331 39.6414,-25.2957 8.40001,-3.87166 16.6205,-6.27638 25.9169,-6.27638 25.8059,0 38.2063,13.0075 39.58,39.0343l0.0484252 0.933072 0.0307087 0.826772 0.0283465 0.87756 0.0177165 0.875198 0.0106299 0.839764 0.00590552 0.975591 0 25.3677 -9.45473 1.59567 -4.52953 0.772442 -4.31103 0.767717 -4.08426 0.767717 -3.92481 0.767717 -3.76536 0.765355 -3.61654 0.765355 -3.4937 0.765355 -3.31536 0.762993 -3.20788 0.764174 -3.09921 0.761812 -2.99764 0.760631 -2.81575 0.748819 -2.85709 0.783071 -2.60315 0.733465 -2.67166 0.783071 -2.42244 0.734646 -2.52047 0.783071 -2.23229 0.718111 -2.34803 0.783071 -2.12008 0.722835 -2.14606 0.759449 -2.12008 0.773623 -1.98071 0.735827 -1.86732 0.72756 -1.90158 0.754725 -1.89331 0.773623 -1.71024 0.724016 -1.71614 0.737008 -1.60394 0.720473 -1.63228 0.747638 -1.55433 0.732284 -1.58622 0.770079 -1.44331 0.712205 -1.42323 0.735827 -1.38307 0.722835 -1.30866 0.712205 -1.34764 0.745276 -1.24016 0.711024 -1.2626 0.739371 -1.18819 0.715749 -1.14803 0.713386 -1.14567 0.724016 -1.11142 0.731103 -0.966142 0.641339 -1.12323 0.780709 -0.993308 0.694489 -0.972048 0.71693 -0.944883 0.698032 -0.902363 0.700394 -0.896457 0.698032 -0.874016 0.71693 -0.833859 0.683859 -0.812599 0.703938 -0.788977 0.683859 -0.751182 0.687402 -0.852757 0.78189 -0.630709 0.616536 -0.688583 0.66378 -0.664961 0.680315 -0.762993 0.78189 -0.527953 0.574016 -0.719292 0.780709 -0.490158 0.565748 -0.608268 0.700394 -0.537402 0.644882 -0.570473 0.700394 -0.519685 0.659056 -0.499607 0.651969 -0.51378 0.689764 -0.472441 0.654331 -0.473622 0.672048 -0.896457 1.33701 -0.421654 0.669686 -0.405118 0.64252 -0.380315 0.646063 -0.401575 0.683859 -0.349607 0.630709 -0.379134 0.694489 -0.34252 0.651969 -0.329528 0.649607 -0.375591 0.760631 -0.263386 0.572835 -0.303544 0.650788 -0.570473 1.3252 -0.250394 0.616536 -0.277559 0.703938 -0.240945 0.635434 -0.246851 0.690945 -0.193701 0.52441 -0.472441 1.45512 -0.193701 0.636615 -0.19252 0.662599 -0.190158 0.670867 -0.350788 1.33701 -0.314173 1.35118 -0.138189 0.644882 -0.140551 0.693308 -0.133465 0.664961 -0.233858 1.33583 -0.205512 1.35236 -0.0956694 0.690945 -0.17126 1.3689 -0.135827 1.3748 -0.0555119 0.636615 -0.103937 1.41732 -0.0744095 1.3937 -0.0259843 0.647245 -0.0413386 1.43622 -0.0165354 1.60984 0.0212599 1.89685 0.0425197 1.40906 0.0259843 0.688583 0.0767717 1.42559 0.0425197 0.635434 0.109843 1.45394 0.0614174 0.644882 0.0744095 0.734646 0.0732284 0.69567 0.17126 1.41142 0.0862205 0.634252 0.211417 1.42559 0.236221 1.40079 0.114567 0.625985 0.27874 1.42441 0.298819 1.37008 0.152362 0.643701 0.174803 0.713386 0.17126 0.681497 0.37441 1.38543 0.186614 0.636615 0.206693 0.692127 0.210236 0.676772 0.223229 0.689764 0.226772 0.682678 0.480709 1.36536 0.511418 1.34291 0.26811 0.657875 0.288189 0.702756 0.270473 0.633071 0.303544 0.686221 0.312992 0.690945 0.305906 0.647245 0.334252 0.689764 0.330709 0.656693 0.348425 0.675591 0.35315 0.654331 0.375591 0.687402 0.377953 0.659056 0.392126 0.675591 0.396851 0.650788 0.419292 0.677953 0.413386 0.637796 0.458268 0.693308 0.452363 0.659056 0.473622 0.672048 0.475985 0.656693 0.487796 0.647245 0.52441 0.681497 0.525591 0.654331 0.624804 0.767717 0.452363 0.519685 0.624804 0.713386 0.590552 0.650788 0.625985 0.667323 0.733465 0.765355 0.509056 0.499607 0.760631 0.732284 0.784253 0.733465 0.595276 0.529134 0.902363 0.783071 0.708662 0.594095 0.765355 0.611811 1.01102 0.78189 0.806694 0.601182 0.840946 0.601182 1.15276 0.783071 0.950788 0.618898 1.08662 0.677953 1.10669 0.659056 1.18819 0.670867 1.28622 0.68504 1.32638 0.667323 1.43504 0.677953 1.52835 0.676772 1.65354 0.681497 1.79882 0.676772c0.662599,0.240945 1.32992,0.467717 1.99961,0.688583 0.721654,0.238583 1.44803,0.465355 2.17795,0.677953 0.840946,0.245669 1.68543,0.474804 2.53347,0.690945 0.980316,0.248032 1.96536,0.480709 2.95512,0.690945 1.23662,0.262205 2.47914,0.49252 3.72638,0.69567 1.7941,0.290551 3.59646,0.522048 5.40473,0.698032 3.00118,0.290551 6.01536,0.433465 9.02953,0.433465 2.35984,0 4.71969,-0.140551 7.06418,-0.413386 1.46929,-0.17126 2.9315,-0.396851 4.38544,-0.672048 1.05,-0.199606 2.09528,-0.422835 3.13465,-0.675591 0.8563,-0.207874 1.70788,-0.437008 2.55473,-0.679134 0.750001,-0.214961 1.49764,-0.441733 2.23937,-0.682678l1.9878 -0.680315 1.8 -0.677953 1.69016 -0.686221 1.57441 -0.687402 1.47874 -0.683859 1.42913 -0.702756 1.32874 -0.682678 1.28622 -0.696851 1.23425 -0.69567 1.18228 -0.693308 1.06654 -0.649607 1.17874 -0.746457 1.08071 -0.7063 1.03465 -0.698032 1.01221 -0.702756 0.980316 -0.701575 0.95315 -0.703938 0.933072 -0.7063 0.908268 -0.705119 0.883465 -0.705119 0.846851 -0.690945 0.852757 -0.712205 0.840946 -0.719292 0.83504 -0.726379 0.768898 -0.686221 0.784253 -0.71693 0.764174 -0.709843 0.758268 -0.720473 0.740552 -0.715749 0.729922 -0.720473 0.711024 -0.712205 0.699213 -0.715749 0.688583 -0.718111 0.677953 -0.718111 0.667323 -0.720473 0.669686 -0.734646 0.643701 -0.714567 0.622441 -0.7063 0.887009 -1.02402 12.9638 -14.9008 4.5437 20.1898 0.146457 0.595276 0.164173 0.617717 0.179528 0.636615 0.18189 0.609449 0.196063 0.607087 0.204331 0.602363 0.217323 0.598819 0.236221 0.612993 0.248032 0.611811 0.261024 0.612993 0.26811 0.598819 0.283465 0.596457 0.296457 0.592914 0.314173 0.594095 0.335433 0.607087 0.340158 0.585827 0.362599 0.589371 0.390945 0.608268 0.396851 0.589371 0.416929 0.587008 0.446457 0.597638 0.455906 0.584646 0.480709 0.581103 0.602363 0.693308 0.361418 0.393307 0.755906 0.783071 0.511418 0.500788 0.633071 0.590552 0.669686 0.588189 0.732284 0.604725 0.755906 0.588189 0.800788 0.582284 0.896457 0.611811 0.940158 0.590552 1.03465 0.604725 1.13504 0.605906 1.23307 0.598819 1.39725 0.605906c0.532678,0.217323 1.07244,0.420473 1.61575,0.611811 0.630709,0.223229 1.26614,0.431103 1.90748,0.618898 0.794883,0.233858 1.60039,0.438189 2.40945,0.620079 1.1563,0.261024 2.32559,0.468898 3.50079,0.625985 1.96181,0.264567 3.94016,0.392126 5.91969,0.392126 2.12244,0 4.23071,-0.125197 6.33662,-0.398032 1.27795,-0.165354 2.54764,-0.382677 3.80906,-0.648426 0.933072,-0.197244 1.86024,-0.420473 2.78268,-0.664961 0.784253,-0.207874 1.56496,-0.434646 2.34095,-0.673229 0.696851,-0.21378 1.39134,-0.441733 2.0811,-0.679134l1.92992 -0.693308 1.7941 -0.696851 1.71142 -0.705119 1.64528 -0.71693 1.49055 -0.679134 1.58504 -0.751182 1.46575 -0.722835 1.41496 -0.718111 1.42087 -0.741733 1.33937 -0.718111 1.34291 -0.73819 1.31339 -0.735827 1.29921 -0.746457 1.27087 -0.739371 1.25315 -0.745276 1.36772 -0.826772 -6.85749 -14.4154 -0.50315 0.206693c-0.747638,0.305906 -1.49764,0.602363 -2.25355,0.887009 -0.883465,0.333071 -1.77284,0.650788 -2.67166,0.940158 -1.39016,0.448819 -2.80512,0.833859 -4.24252,1.09961 -2.93977,0.54567 -1.3689,0.382677 -3.97323,0.382677 -2.56181,0 -1.69606,0.0921261 -4.11733,-0.514961 -1.5,-0.375591 -2.94213,-0.949607 -4.30276,-1.68543 -1.65709,-0.895276 -0.799607,-0.35315 -2.36693,-1.49291 -1.23662,-0.900001 -0.51378,-0.311811 -1.72677,-1.3878 -1.00984,-0.896457 -0.370866,-0.283465 -1.35,-1.28976 -0.890552,-0.915355 -0.316536,-0.292914 -1.12913,-1.23898 -0.779528,-0.907087 -0.261024,-0.271654 -0.97441,-1.19882 -0.297638,-0.387402 -0.587008,-0.78189 -0.865749,-1.18347l-0.741733 -1.11969 -0.696851 -1.14921 -0.602363 -1.08307 -0.548032 -1.07008c-0.19252,-0.390945 -0.380315,-0.78189 -0.553937,-1.17992l-0.34252 -0.783071c-0.431103,-0.986221 -0.187795,-0.394488 -0.526772,-1.31102l-0.338977 -0.912993 -0.347244 -1.02047 -0.316536 -1.00512 -0.295276 -1.02638 -0.282284 -1.09252 -0.217323 -0.907087 -0.216142 -1.01457 -0.199606 -1.05827 -0.155906 -0.907087 -0.157087 -1.08307 -0.125197 -0.990946 -0.100394 -0.946064 -0.0814961 -0.902363 -0.068504 -1.06654 -0.0472441 -0.977954 -0.0271654 -0.96378 -0.011811 -1.01221 0 -0.69567 0.00708662 -1.6252 0.0248032 -2.39528 0.0236221 -1.60984 0.0484252 -2.41418 0.0850394 -3.18071 0.0496063 -1.6063 0.0543308 -1.59213 0.180709 -4.74331 0.557481 -12.7925 2.06457 -74.4981 0.0472441 -0.62126 0.0507874 -0.720473 0.0921261 -1.46693 0.0779528 -1.4752 0.0318898 -0.724016 0.056693 -1.48937 0.022441 -0.735827 0.0389764 -1.48937 0.0283465 -1.50473 0.0188977 -1.51536 0.0188977 -2.28662 0.00590552 -1.54488 0.00472441 -5.45433c0.0200788,-22.6169 -8.12363,-43.7422 -28.2166,-55.6571 -9.9567,-5.90315 -21.4843,-8.63032 -33.0107,-8.63032l-6.33189 0zm-2.02914 125.796l3.00591 -0.78189 3.27166 -0.823229 3.26929 -0.793701 3.38977 -0.798426 16.2957 -3.72284 -0.131102 12.848 -1.08425 63.7595 -3.03071 3.21142 -0.804331 0.840946 -0.836221 0.858662 -0.859843 0.863386 -0.874016 0.857481 -0.896457 0.862205 -0.946064 0.88819 -0.912993 0.833859 -0.988583 0.887009 -0.99567 0.868111 -1.01693 0.863386 -1.04882 0.868111 -1.0689 0.862205 -1.12795 0.883465 -1.02992 0.78189 -1.31575 0.972048 -1.09961 0.780709 -1.32047 0.912993 -1.3252 0.878741 -1.39252 0.889371 -1.42795 0.874016 -1.52717 0.891733 -1.6063 0.890552 -1.70197 0.895276 -1.82717 0.900001 -1.97835 0.907087c-0.715749,0.315355 -1.4374,0.617717 -2.16378,0.90945 -0.806694,0.323622 -1.61929,0.630709 -2.4378,0.922442 -0.940158,0.334252 -1.8874,0.644882 -2.84173,0.934253 -1.16929,0.35315 -2.34921,0.672048 -3.53859,0.949607 -1.81417,0.421654 -3.65197,0.752363 -5.50158,0.972048 -1.69016,0.201969 -3.39213,0.309449 -5.0941,0.309449 -1.93583,0 -3.87284,-0.0933072 -5.79922,-0.290551 -2.0315,-0.206693 -4.05237,-0.526772 -6.04489,-0.975591 -1.25079,-0.281103 -2.48977,-0.611811 -3.71221,-0.994489 -0.97441,-0.304725 -1.93819,-0.643701 -2.88898,-1.01575 -0.807875,-0.316536 -1.6063,-0.659056 -2.3941,-1.0252 -0.702756,-0.327166 -1.39725,-0.670867 -2.0811,-1.03819 -0.615355,-0.330709 -1.22244,-0.676772 -1.82008,-1.03819 -0.561024,-0.340158 -1.1126,-0.69567 -1.65473,-1.06417 -0.500788,-0.338977 -0.989765,-0.692127 -1.47284,-1.05473 -0.467717,-0.350788 -0.927166,-0.713386 -1.37717,-1.08662 -0.420473,-0.348425 -0.83504,-0.705119 -1.24016,-1.07126l-1.1374 -1.07835 -1.03465 -1.06536 -0.976772 -1.09134 -0.895276 -1.08189 -0.823229 -1.08189 -0.777166 -1.10197 -0.7063 -1.07953 -0.654331 -1.08662 -0.588189 -1.05354c-0.216142,-0.402756 -0.427559,-0.805512 -0.623623,-1.21772l-0.370866 -0.780709c-0.45,-0.948426 -0.188977,-0.350788 -0.584646,-1.33347l-0.370866 -0.918898 -0.340158 -0.920079c-0.364961,-0.987402 -0.159449,-0.392126 -0.444095,-1.32165l-0.279921 -0.912993 -0.288189 -1.0441 -0.257481 -1.04055 -0.226772 -1.02756 -0.198425 -1.01811 -0.185433 -1.10197 -0.137008 -0.912993 -0.134646 -1.12087 -0.0980316 -0.990946 -0.0720473 -0.902363 -0.0590552 -1.08307 -0.034252 -0.895276 -0.0188977 -1.34528 0.0188977 -1.50591 0.0354331 -0.983859 0.046063 -0.957875 0.0555119 -0.903544 0.0921261 -1.04764 0.0933072 -0.918898 0.105118 -0.912993 0.154725 -1.07717 0.154725 -0.967324 0.159449 -0.894095 0.201969 -1.00748 0.248032 -1.08425 0.218504 -0.88819 0.276378 -1.02874 0.308268 -1.02402 0.324803 -1.00039 0.354331 -1.00748 0.390945 -1.03347 0.42874 -1.03701 0.447638 -1.01339 0.426378 -0.89882 0.564567 -1.12559 0.576378 -1.06536 0.659056 -1.12441 0.483071 -0.783071 0.740552 -1.13504c0.255118,-0.376772 0.510237,-0.752363 0.780709,-1.1185l0.576378 -0.780709c0.283465,-0.383859 0.578741,-0.757087 0.878741,-1.12795l0.829134 -0.996851 0.858662 -0.975591 0.915355 -0.987402 0.95315 -0.973229 0.986221 -0.956694 1.05709 -0.970867 1.08071 -0.943702 1.13268 -0.941339 1.19055 -0.938977 1.2378 -0.927166 1.27795 -0.911812 1.33465 -0.907087 1.40079 -0.908268 1.44331 -0.889371 1.50118 -0.884646 1.57677 -0.885827 1.61221 -0.864568 1.70315 -0.871654 1.75394 -0.861024 1.81654 -0.852757 1.89567 -0.850394 1.9689 -0.84567 2.03386 -0.839764 2.10709 -0.831497 2.25473 -0.855119 2.14961 -0.78189 2.41536 -0.843308 2.44016 -0.819686 2.53229 -0.817323 2.62323 -0.816142 2.69764 -0.809056 2.86181 -0.825591 2.80866 -0.780709 3.07205 -0.825591z"/><polygon class="fil4" points="1055.21,702.893 1052.28,1067.32 1094.83,1067.32 1097.74,702.893 "/><polygon class="fil5" points="1173.66,702.893 1170.73,1067.32 1213.18,1067.32 1213.18,940.716 1213.18,939.202 1213.19,938.72 1213.64,902.692 1216.13,702.893 "/><polygon class="fil5" points="1335.29,817.808 1232.49,945.086 1292.95,1028.73 1329.61,1079.44 1364.09,1055.62 1280.4,948.67 1275.26,942.087 1283.15,933.244 1364.2,842.047 "/></g><rect class="fil6" height="2048" width="2048"/></svg>