<?xml version="1.0" standalone="no"?>
<!DOCTYPE svg PUBLIC "-//W3C//DTD SVG 20010904//EN"
 "http://www.w3.org/TR/2001/REC-SVG-20010904/DTD/svg10.dtd">
<svg version="1.0" xmlns="http://www.w3.org/2000/svg"
 width="1522.000000pt" height="1578.000000pt" viewBox="0 0 1522.000000 1578.000000"
 preserveAspectRatio="xMidYMid meet">
<metadata>
Created by potrace 1.13, written by Peter Selinger 2001-2015
</metadata>
<g transform="translate(0.000000,1578.000000) scale(0.100000,-0.100000)"
fill="#000000" stroke="none">
<path d="M7560 15706 c-61 -20 -96 -43 -146 -99 -43 -47 -134 -187 -134 -206
0 -4 -9 -27 -21 -50 -20 -43 -63 -164 -81 -231 -36 -136 -44 -180 -75 -390
-26 -181 -26 -729 1 -910 31 -218 41 -267 67 -352 17 -54 2 -68 -75 -68 -33 0
-95 -5 -136 -11 -41 -6 -111 -14 -155 -19 -120 -15 -215 -29 -239 -36 -11 -4
-45 -10 -76 -14 -30 -5 -86 -16 -125 -25 -38 -9 -88 -21 -110 -25 -22 -5 -62
-14 -90 -19 -27 -6 -61 -15 -75 -20 -14 -5 -45 -14 -70 -21 -183 -50 -583
-189 -657 -229 -23 -12 -103 -47 -162 -71 -80 -32 -404 -201 -461 -240 -44
-30 -120 -70 -134 -70 -12 0 -28 27 -55 95 -16 38 -121 250 -152 305 -153 274
-347 529 -578 761 -173 172 -318 284 -464 358 -120 61 -188 81 -277 81 -120 0
-191 -53 -233 -176 -29 -84 -14 -363 24 -436 5 -10 9 -26 9 -35 1 -21 34 -120
44 -130 3 -3 6 -15 6 -25 0 -10 4 -26 10 -36 5 -9 16 -33 24 -52 37 -90 113
-250 139 -295 7 -11 27 -43 45 -72 17 -30 32 -56 32 -59 0 -3 35 -58 77 -123
145 -219 317 -427 490 -593 47 -46 92 -89 99 -96 21 -20 18 -28 -23 -64 -47
-41 -184 -172 -272 -258 -69 -69 -258 -280 -327 -365 -146 -180 -312 -407
-367 -501 -6 -10 46 -53 88 -74 11 -5 77 -48 215 -139 47 -31 92 -60 102 -66
75 -45 279 -178 283 -186 12 -19 41 -8 59 23 11 17 25 39 32 47 7 9 37 51 66
93 73 106 212 282 274 348 28 30 68 75 89 100 121 142 427 420 610 554 22 17
42 33 45 36 6 7 107 80 132 95 10 6 62 40 117 78 55 37 103 67 106 67 3 0 30
15 58 34 72 45 140 83 287 156 206 102 221 110 231 110 4 0 34 12 66 26 102
46 121 54 132 54 6 0 19 4 29 9 22 13 142 56 212 76 30 9 65 21 78 26 13 5 33
9 45 9 13 0 27 4 33 9 9 9 71 27 139 41 22 4 72 16 110 25 72 17 95 22 250 50
141 25 398 51 638 63 239 12 686 -18 932 -63 50 -9 113 -20 140 -25 28 -5 79
-16 115 -25 36 -9 83 -20 105 -25 22 -4 65 -15 95 -24 30 -9 69 -21 85 -26 17
-5 55 -16 85 -25 30 -9 66 -19 80 -22 14 -3 30 -9 35 -13 6 -4 53 -22 105 -40
52 -18 99 -37 104 -41 6 -5 16 -9 24 -9 7 0 39 -12 70 -26 31 -14 80 -36 107
-49 154 -70 340 -166 440 -226 17 -10 44 -26 60 -35 46 -25 220 -140 315 -208
355 -253 767 -656 1000 -976 30 -41 62 -83 71 -93 18 -20 57 -77 143 -209 31
-49 61 -88 67 -88 6 0 74 39 152 88 158 97 169 104 214 127 18 9 37 23 44 31
6 8 15 14 20 14 5 0 64 34 132 75 67 42 128 79 136 84 37 19 33 35 -31 132
-36 53 -67 102 -71 110 -5 14 -69 102 -191 265 -52 70 -152 191 -241 293 -55
63 -328 350 -335 353 -4 2 -29 23 -55 47 -36 33 -45 47 -39 61 5 9 56 58 114
107 172 148 335 332 501 563 74 103 138 200 152 230 4 8 15 29 25 45 74 121
202 378 202 406 0 5 4 17 9 27 21 42 41 94 41 107 0 9 4 23 9 33 10 20 28 84
43 157 17 81 21 324 7 370 -39 123 -110 175 -236 175 -119 0 -268 -59 -428
-170 -388 -268 -817 -819 -1039 -1332 -9 -21 -23 -53 -31 -72 -8 -19 -15 -41
-15 -49 0 -9 -4 -19 -10 -22 -5 -3 -10 -15 -10 -25 0 -10 -4 -21 -9 -25 -11
-6 -70 25 -171 90 -36 23 -92 57 -125 75 -33 18 -76 42 -95 53 -19 11 -80 43
-135 72 -55 28 -109 56 -120 62 -26 14 -134 63 -140 63 -5 0 -175 78 -197 90
-10 6 -26 10 -36 10 -10 0 -22 4 -27 9 -6 5 -39 19 -75 31 -111 39 -129 46
-136 53 -4 4 -16 7 -26 7 -10 0 -26 4 -36 9 -9 5 -42 17 -72 25 -109 32 -165
49 -185 57 -11 4 -31 10 -45 13 -14 3 -54 13 -90 21 -36 9 -83 21 -105 25 -22
5 -69 17 -105 25 -36 9 -78 19 -95 21 -76 11 -224 36 -263 45 -23 5 -64 9 -90
9 -51 1 -178 23 -189 33 -3 4 0 30 6 59 72 319 85 449 85 818 0 287 -9 434
-39 590 -9 47 -20 105 -25 130 -4 25 -16 70 -25 100 -9 30 -19 66 -22 80 -3
14 -11 39 -19 57 -8 17 -14 36 -14 42 0 6 -4 19 -9 29 -5 9 -23 46 -40 82 -72
150 -154 257 -223 292 -77 39 -118 44 -178 24z"/>
<path d="M90 7770 c0 -1111 0 -2023 0 -2027 0 -5 236 -9 525 -11 l525 -2 0
803 c0 611 3 806 12 815 9 9 157 12 608 12 327 0 601 -4 607 -8 10 -6 13 -184
15 -813 l3 -804 525 0 525 0 3 1995 c1 1097 0 2010 -3 2028 l-6 32 -522 -2
-522 -3 -5 -755 -5 -755 -615 0 -615 0 -3 758 -2 757 -525 0 -525 0 0 -2020z"/>
<path d="M4335 9778 c-3 -7 -4 -920 -3 -2028 l3 -2015 1335 0 1335 0 3 434 c2
341 0 436 -10 443 -7 4 -372 8 -810 8 l-798 0 0 365 c0 352 1 365 20 375 13 7
230 10 656 10 507 0 639 2 646 12 4 7 8 203 8 436 l0 422 -652 0 c-359 0 -659
4 -666 8 -9 7 -12 80 -10 333 l3 324 773 3 772 2 0 440 0 440 -1300 0 c-1031
0 -1302 -3 -1305 -12z"/>
<path d="M7835 9778 c-3 -7 -4 -920 -3 -2028 l3 -2015 1295 0 1295 0 3 434 c2
341 0 436 -10 443 -7 4 -354 8 -770 8 l-758 0 0 1585 0 1585 -525 0 c-411 0
-527 -3 -530 -12z"/>
<path d="M11160 7760 l0 -2030 465 2 466 3 -1 778 c0 460 -4 797 -10 825 -5
26 -15 106 -21 177 -21 245 -26 300 -38 390 -6 50 -16 115 -21 146 -6 30 -10
75 -10 100 0 24 -7 78 -16 119 -16 79 -13 120 10 120 20 0 46 -28 46 -48 0
-10 9 -42 21 -72 11 -30 24 -68 29 -85 4 -16 15 -50 24 -75 10 -25 21 -58 25
-75 5 -16 16 -50 25 -75 10 -25 21 -58 25 -75 5 -16 16 -50 25 -75 10 -25 21
-58 25 -75 5 -16 16 -50 25 -75 10 -25 21 -58 25 -75 5 -16 16 -50 25 -75 10
-25 21 -58 26 -75 14 -51 32 -100 41 -109 5 -6 9 -18 9 -28 0 -10 4 -26 9 -36
8 -15 27 -64 51 -127 4 -11 15 -37 24 -58 9 -21 16 -44 16 -52 0 -9 4 -23 9
-33 8 -15 21 -48 51 -127 4 -11 13 -33 20 -50 7 -16 20 -55 30 -85 10 -30 23
-68 30 -85 7 -16 16 -39 20 -50 4 -11 13 -33 20 -50 7 -16 20 -55 30 -85 10
-30 23 -68 30 -85 7 -16 16 -39 20 -50 4 -11 13 -33 20 -50 6 -16 19 -50 27
-75 8 -25 24 -64 34 -87 l19 -43 270 0 c231 0 271 2 284 16 9 8 16 22 16 29 0
8 7 31 16 52 9 21 20 47 24 58 4 11 13 33 19 50 7 16 22 56 33 90 11 33 24 64
29 70 5 5 9 17 9 27 0 10 4 26 9 36 8 15 21 48 51 127 4 11 13 34 20 50 7 17
20 55 30 85 10 30 23 69 30 85 7 17 16 39 20 50 4 11 13 34 20 50 7 17 20 55
30 85 10 30 23 69 30 85 7 17 16 39 20 50 4 11 13 34 20 50 7 17 20 55 30 85
10 30 23 69 30 85 23 56 28 70 33 90 3 11 20 58 37 105 17 47 34 94 37 105 2
11 8 29 13 40 5 11 11 29 13 40 3 11 20 58 37 105 17 47 34 94 37 105 2 11 8
29 13 40 5 11 11 29 13 40 3 11 20 58 37 105 17 47 34 94 37 105 2 11 8 29 13
40 5 11 11 32 14 47 7 29 41 47 59 29 8 -8 7 -33 -3 -88 -13 -77 -19 -126 -39
-330 -5 -57 -13 -107 -16 -113 -6 -10 -12 -64 -35 -343 -5 -65 -14 -143 -19
-174 -7 -35 -11 -343 -11 -827 l0 -771 467 0 468 0 3 2028 2 2027 -559 0
c-435 0 -561 -3 -568 -12 -5 -7 -17 -35 -26 -63 -9 -27 -30 -88 -47 -135 -17
-47 -34 -94 -37 -105 -2 -11 -8 -29 -13 -40 -5 -11 -16 -42 -25 -70 -9 -27
-21 -58 -26 -67 -5 -10 -9 -24 -9 -33 0 -8 -7 -31 -16 -52 -23 -53 -31 -75
-37 -98 -3 -11 -20 -58 -37 -105 -17 -47 -40 -110 -50 -140 -10 -30 -33 -93
-50 -140 -17 -47 -34 -94 -37 -105 -2 -11 -8 -29 -13 -40 -5 -11 -16 -42 -25
-70 -9 -27 -21 -58 -26 -67 -5 -10 -9 -27 -9 -37 0 -11 -4 -22 -9 -26 -5 -3
-13 -20 -17 -37 -3 -18 -10 -39 -14 -48 -4 -8 -13 -31 -19 -50 -35 -103 -72
-219 -80 -245 -16 -59 -44 -150 -51 -170 -4 -11 -15 -47 -25 -80 -9 -33 -21
-71 -25 -85 -4 -14 -15 -52 -25 -85 -9 -33 -21 -70 -26 -83 -5 -13 -9 -32 -9
-42 0 -11 -9 -29 -21 -41 -26 -26 -41 -15 -59 43 -7 24 -18 61 -25 83 -7 22
-18 60 -25 85 -7 25 -18 63 -25 85 -7 22 -19 60 -25 85 -7 25 -23 77 -35 115
-12 39 -29 95 -38 125 -26 88 -44 143 -57 175 -7 17 -16 39 -20 50 -4 11 -13
34 -20 50 -7 17 -20 55 -31 85 -30 91 -45 129 -52 136 -4 4 -7 18 -7 30 0 13
-4 25 -9 29 -5 3 -13 20 -17 37 -3 18 -10 39 -14 48 -4 8 -16 35 -25 60 -9 25
-21 53 -26 62 -5 10 -9 24 -9 33 0 8 -7 31 -16 52 -9 21 -20 47 -24 58 -4 11
-13 34 -20 50 -7 17 -20 55 -31 85 -30 91 -45 129 -52 136 -4 4 -7 17 -7 29 0
11 -4 25 -9 31 -5 5 -19 38 -31 74 -39 111 -46 129 -53 136 -4 4 -7 18 -7 30
0 13 -4 25 -9 29 -5 3 -13 20 -17 37 -3 18 -10 39 -14 48 -4 8 -15 33 -23 55
-9 22 -21 55 -29 73 l-13 32 -562 0 -563 0 0 -2030z"/>
<path d="M11349 5088 c-42 -61 -177 -232 -230 -293 -320 -368 -611 -624 -1009
-889 -69 -45 -150 -96 -180 -113 -30 -17 -80 -45 -110 -62 -53 -30 -365 -185
-405 -201 -11 -5 -37 -16 -57 -24 -21 -9 -55 -23 -75 -31 -21 -9 -46 -20 -55
-25 -10 -6 -27 -10 -37 -10 -11 0 -22 -4 -26 -9 -3 -5 -20 -13 -37 -17 -18 -3
-39 -10 -48 -14 -24 -12 -142 -52 -180 -61 -19 -4 -60 -15 -90 -24 -30 -10
-71 -21 -90 -26 -140 -34 -171 -42 -217 -49 -28 -4 -56 -11 -61 -14 -16 -9
-198 -36 -377 -56 -55 -5 -130 -15 -168 -20 -88 -13 -628 -13 -731 0 -45 6
-124 15 -176 21 -188 21 -343 45 -380 58 -14 5 -43 12 -65 15 -55 7 -198 42
-295 71 -30 9 -66 19 -80 22 -14 2 -34 8 -45 13 -11 5 -47 18 -80 29 -170 57
-262 92 -363 137 -29 13 -55 24 -59 24 -7 0 -314 152 -368 183 -598 337 -1095
771 -1494 1302 -46 61 -89 111 -97 113 -7 2 -46 -20 -86 -48 -358 -250 -444
-310 -515 -357 -45 -30 -87 -61 -94 -69 -9 -11 0 -29 42 -86 29 -40 55 -75 58
-78 3 -3 26 -32 50 -65 139 -188 375 -447 599 -659 39 -37 72 -76 72 -86 0 -9
-28 -44 -62 -76 -86 -81 -223 -237 -317 -358 -74 -97 -231 -328 -231 -340 0
-3 -15 -29 -32 -59 -18 -29 -38 -61 -45 -72 -26 -45 -102 -205 -139 -295 -8
-19 -19 -43 -24 -52 -6 -10 -10 -26 -10 -36 0 -10 -3 -22 -6 -25 -10 -10 -43
-109 -44 -130 0 -9 -4 -25 -9 -35 -19 -38 -35 -143 -39 -261 -2 -99 0 -133 15
-175 42 -123 113 -176 233 -176 197 0 453 152 741 439 231 232 425 487 578
761 37 66 137 268 145 293 7 24 35 21 76 -6 19 -13 60 -38 90 -54 30 -17 80
-45 110 -62 51 -29 421 -213 465 -231 11 -4 38 -15 60 -25 52 -21 71 -29 120
-49 22 -10 48 -21 57 -26 10 -6 24 -10 32 -10 7 0 27 -7 42 -15 16 -8 37 -15
46 -15 9 0 19 -4 22 -9 3 -5 18 -11 33 -14 16 -3 53 -14 83 -25 30 -10 82 -27
115 -37 33 -10 71 -21 85 -25 14 -4 54 -15 90 -25 36 -9 73 -21 82 -26 10 -5
32 -9 49 -9 16 0 38 -4 48 -10 17 -9 74 -21 181 -38 25 -4 50 -11 56 -15 6 -3
49 -12 95 -18 125 -16 197 -26 264 -38 33 -6 87 -11 120 -11 33 -1 87 -7 120
-13 68 -15 66 -11 46 -127 -41 -238 -46 -306 -46 -635 0 -329 3 -378 45 -630
7 -47 27 -136 48 -215 18 -67 61 -188 81 -231 12 -23 21 -46 21 -50 0 -3 19
-39 42 -79 103 -177 229 -261 346 -230 64 18 88 34 154 103 58 60 72 82 136
212 19 39 38 78 43 87 5 10 9 23 9 29 0 6 6 25 14 42 8 18 16 43 19 57 3 14
13 50 22 80 9 30 21 75 25 100 5 25 16 83 25 130 30 156 39 303 40 590 0 284
-11 442 -40 595 -9 44 -18 103 -21 130 l-6 50 98 14 c344 46 340 45 494 81 19
4 71 16 115 25 93 19 180 42 213 56 13 5 32 9 43 9 10 0 27 4 37 9 9 5 46 17
82 26 36 9 72 20 80 25 9 4 30 11 48 14 17 4 34 12 37 17 4 5 15 9 26 9 10 0
27 4 37 9 9 5 53 22 97 36 44 15 90 33 102 41 12 8 27 14 32 14 6 0 36 12 68
26 32 14 67 30 78 34 29 12 189 87 265 125 58 28 95 48 215 115 17 9 56 31 88
49 32 18 111 66 175 107 l117 74 23 -25 c12 -15 22 -33 22 -41 0 -8 4 -22 10
-32 5 -9 35 -71 66 -137 216 -457 626 -962 979 -1205 160 -111 309 -170 428
-170 126 0 197 52 236 175 14 46 10 289 -7 370 -15 73 -33 137 -43 157 -5 10
-9 24 -9 33 0 13 -20 65 -41 107 -5 10 -9 22 -9 27 0 28 -128 285 -202 406
-10 17 -21 37 -25 45 -26 56 -192 292 -292 415 -120 147 -245 280 -341 361
-38 33 -70 66 -70 74 0 8 68 84 150 168 83 84 205 219 273 300 127 151 327
411 327 425 0 4 -24 23 -52 42 -29 19 -91 61 -138 94 -47 33 -130 90 -184 127
-55 37 -149 102 -210 146 -61 43 -116 78 -122 78 -6 0 -31 -28 -55 -62z"/>
</g>
</svg>
