<?xml version="1.0" encoding="utf-8"?><!-- Generator: Adobe Illustrator 17.1.0, SVG Export Plug-In . SVG Version: 6.00 Build 0)  --><!DOCTYPE svg PUBLIC "-//W3C//DTD SVG 1.1//EN" "http://www.w3.org/Graphics/SVG/1.1/DTD/svg11.dtd"><svg xmlns="http://www.w3.org/2000/svg" xmlns:xlink="http://www.w3.org/1999/xlink" version="1.1" id="Layer_1" x="0px" y="0px" viewBox="0 0 1024 768" enable-background="new 0 0 1024 768" xml:space="preserve">
<g>
	<path fill="#1D5080" d="M682.3,422.4c0-6.5-5.3-12.5-12.5-12.5c-3,0-5.7,1.1-8.4,3c-31.6,28.1-85.2,53.2-149.8,53.6h-0.4   c-64.6,0-116.7-26.2-149.8-53.6c-2.3-1.9-6.1-3-8.4-3c-7.6,0-12.2,6.5-12.2,13.7c0,5.7,3.8,10.3,7.2,15.2   c18.6,27.8,76.4,75.3,163.1,75.3h1.5c86.7,0,144.5-47.5,163.1-75.3C678.5,434.2,682.3,427.7,682.3,422.4z"/>
	<path fill="#1D5080" d="M768.6,639.5c-22.1-12.5-43-33.8-52.5-63.1c-1.9-5.7-0.4-10.3,4.2-13.7c63.9-49.4,104.2-121.3,104.2-201.1   C824.5,212.5,684.6,92,512,92c-172.6,0-312.5,120.9-312.5,269.6c0,149,139.9,269.9,312.5,269.9c22.4,0,44.5-1.9,65.8-6.1   c5.3-1.1,9.5,0.4,12.9,2.3c43,26.2,106.5,48.3,162.3,48.3c17.9,0,25.1-11.4,25.1-21.7C777.8,647.9,774,642.9,768.6,639.5z    M685,613.6c1.1,1.1,1.5,2.3,1.5,3.8c0,1.9-1.9,3-3.8,3c-15.6,0-63.9-25.9-89.3-47.5c-3.4-3-8.4-4.2-15.2-2.7   c-21.3,4.6-43.3,7.2-66.5,7.2c-143.7,0-260.4-96.2-260.4-214.8s116.3-214.8,260.4-214.8c143.7,0,260.1,96.2,260.1,214.8   c0,70.7-41.4,133.4-105.3,172.6c-4.2,2.7-8.7,7.6-8.7,13.7C657.6,561.6,669.4,592.7,685,613.6z"/>
</g>
</svg>
