<?xml version="1.0" encoding="UTF-8"?>
<svg width="161.78mm" height="162.64mm" version="1.1" viewBox="0 0 161.78261 162.64316" xmlns="http://www.w3.org/2000/svg">
 <g transform="translate(-14.25 -3.2558)" stroke-width=".86055">
  <path d="m26.728 162.49c-4.4987-2.163-5.7751-3.2541-8.4949-7.2619l-2.2619-3.3331v-136.33l2.4994-3.4503c1.3746-1.8976 3.9886-4.376 5.8087-5.5075l3.3093-2.0573h135.11l3.2455 2.0178c9.7882 6.0856 9.3223 13.899-1.9653 32.957-3.2954 5.5639-3.6681 6.5104-1.6458 4.1805 1.4378-1.6566 4.4317-6.1913 6.6532-10.077 2.2215-3.8859 4.5231-7.2621 5.1147-7.5028 0.85411-0.34739 1.0757 11.278 1.0757 56.437 0 62.895 0.2901 60.141-5.2414 49.763-10.959-20.561-34.17-37.693-61.459-45.363-8.3165-2.3375-10.296-4.0455-5.8006-5.0041 10.062-2.1454 27.007-9.009 31.625-12.81 0.9466-0.7791-0.98963-0.0924-4.3027 1.526-7.5389 3.6826-21.295 8.1209-27.389 8.8372-5.9876 0.70372-5.7155 1.9874-5.73-27.036-0.0077-15.445-0.30673-23.318-0.8723-22.969-0.54158 0.33472-0.86055 9.7517-0.86055 25.407 0 28.754 0.73179 26.656-9.3019 26.656-14.211 0-15.897 2.9028-2.2191 3.819 5.0227 0.33645 9.6696 0.81797 10.327 1.07 0.98248 0.37701 1.1944 5.0894 1.1944 26.562 0 16.474 0.31745 26.3 0.86055 26.636 0.56585 0.34971 0.86457-7.8106 0.8723-23.829 0.01542-31.965-0.89195-30.149 13.258-26.53 27.42 7.0129 48.504 24.163 60.083 48.872 5.915 12.622 4.6679 18.315-5.1871 23.679l-4.2884 2.334-65.285-0.0189c-62.628-0.0181-65.425-0.0863-68.727-1.6739zm132.2-114.27c1.0704-1.3649 1.04-1.3953-0.3249-0.3249-1.4335 1.1242-1.8893 1.8309-1.181 1.8309 0.17869 0 0.85637-0.67768 1.506-1.506z" fill="#faecd2"/>
  <path d="m28.971 162.88c-4.3325-1.351-10.065-6.4528-11.81-10.511-0.97944-2.2779-1.1907-14.478-1.1907-68.768v-65.999l2.2268-3.7997c1.2815-2.1867 3.9102-4.8673 6.1923-6.3146l3.9655-2.5149h66.567c72.233 0 68.778-0.21538 74.093 4.6185 10.376 9.4379-9.155 42.817-33.335 56.972-11.65 6.8198-29.206 12.943-35.148 12.26l-2.3782-0.27343-0.43027-24.742c-0.57666-33.16-2.0077-33.064-2.5816 0.173-0.49899 28.895 0.51841 26.466-11.404 27.236-14.1 0.91157-14.132 4.1508-0.04798 4.8696 12.412 0.63347 11.452-1.8192 11.452 29.272 0 20.196 0.23114 25.647 1.0757 25.365 0.82092-0.27338 1.1298-6.3366 1.304-25.601 0.25016-27.652 0.2566-27.685 5.2033-26.926 27.707 4.253 52.987 22.622 65.481 47.58 7.7806 15.542 5.7625 23.295-7.0547 27.101-6.1846 1.8366-126.29 1.838-132.18 2e-3zm139.81-34.356c-13.102-19.692-31.476-33.269-55.407-40.943-11.6-3.7194-11.633-3.9623-1.003-7.44 25.869-8.4638 44.665-24.108 59.9-49.856 1.9297-3.2613 2.0473 0.12188 1.8286 52.635l-0.22176 53.265z" fill="#fddea7"/>
  <path d="m28.449 162.02c-12.472-4.4142-12.467-4.3879-12.473-78.783l-0.0048-63.296 2.2403-4.4958c2.2847-4.5848 5.6205-7.6763 10.239-9.4894 1.9216-0.75429 19.373-0.95486 68.125-0.78294l65.541 0.23112 3.6898 2.5936c2.0294 1.4265 4.4341 3.8681 5.3439 5.4259l1.6542 2.8323-2.6869 7.4598c-9.5082 26.398-31.675 45.584-61.299 53.054-11.126 2.8057-10.169 4.9721-10.437-23.634l-0.22885-24.496-1.9362-0.27499-1.9362-0.27499v25.395c0 16.726-0.30689 25.585-0.89902 25.951-0.49446 0.3056-5.0446 0.81251-10.111 1.1265l-9.2124 0.57085v5.1633l9.0391 0.46373c12.364 0.6343 11.184-2.3091 11.184 27.893 0 21.031 0.22421 26.19 1.1537 26.547 2.9123 1.1176 3.1207-0.53352 3.3511-26.548l0.22821-25.774 3.2837 0.25945c29.136 2.3021 63.808 31.508 70.694 59.548 1.0609 4.3204-5.7874 11.858-12.53 13.792-5.0539 1.4494-127.83 1.0246-132.01-0.4568zm140.34-33.496c-13.102-19.692-31.476-33.269-55.407-40.943-11.6-3.7194-11.633-3.9623-1.003-7.44 25.869-8.4638 44.665-24.108 59.9-49.856 1.9297-3.2613 2.0473 0.12188 1.8286 52.635l-0.22176 53.265z" fill="#fec661"/>
  <path d="m27.511 161.23c-10.99-4.7847-10.807-3.4088-10.507-78.947l0.25786-65.113 2.6198-3.731c1.4409-2.0521 4.3453-4.6992 6.4541-5.8824l3.8342-2.1514h129.94l3.5491 1.8985c9.5161 5.0904 9.8854 9.6065 2.062 25.213-11.551 23.042-43.751 45.605-65.083 45.605-0.99359 0-1.1966-4.1318-1.1966-24.353 0-25.155-0.16848-26.419-3.5222-26.419-2.3578 0-2.5016 1.5571-2.5016 27.086 0 28.091 1.0804 25.408-10.232 25.408-15.326 0-15.403 5.9834-0.09409 7.3146l9.8963 0.86055 0.43027 26.677 0.43027 26.677 2.054 0.29042c3.3394 0.47217 3.5125-0.86747 3.5263-27.28l0.0132-25.269 4.0876 0.61152c26.972 4.0352 51.749 22.396 64.008 47.433 6.6914 13.666 5.8701 18.805-3.7493 23.462-4.7868 2.3172-131.06 2.8829-136.28 0.61044zm141.27-32.704c-13.102-19.692-31.476-33.269-55.407-40.943-11.6-3.7194-11.633-3.9623-1.003-7.44 25.869-8.4638 44.665-24.108 59.9-49.856 1.9297-3.2613 2.0473 0.12188 1.8286 52.635l-0.22176 53.265z" fill="#febe49"/>
  <path d="m30.384 161.24c-13.777-3.7064-13.66-3.0108-13.365-79.343l0.24213-62.722 1.9283-3.6075c2.1453-4.0136 6.0391-7.2705 10.463-8.7516 4.2962-1.4384 126.35-1.3787 131.16 0.06415 12.116 3.6301 12.348 12.988 0.78409 31.622-11.979 19.303-38.764 36.879-58.059 38.098l-3.6651 0.23162-0.22832-24.728-0.22831-24.728-2.2721-0.57026c-4.3678-1.0962-4.5859 0.20144-4.5859 27.282v24.688l-9.9013 0.61865c-9.3853 0.58642-9.9272 0.72216-10.4 2.6047-0.92905 3.7016 0.95351 5.5885 5.5758 5.5885 2.2804 0 6.5265 0.24879 9.4357 0.55287l5.2895 0.55286v25.529c0 27.547 0.20663 28.891 4.3509 28.306l2.1032-0.29687 0.22792-26.141 0.22792-26.141 4.5051 0.59015c27.818 3.644 57.112 27.456 66.041 53.684l2.1052 6.1837-1.6865 3.1317c-2.0478 3.8025-6.4144 6.8074-11.612 7.991-6.0692 1.382-123.2 1.1155-128.44-0.29215zm138.4-32.713c-13.102-19.692-31.476-33.269-55.407-40.943-11.6-3.7194-11.633-3.9623-1.003-7.44 25.869-8.4638 44.665-24.108 59.9-49.856 1.9297-3.2613 2.0473 0.12188 1.8286 52.635l-0.22176 53.265z" fill="#adacab"/>
  <path d="m30.384 161.24c-13.777-3.7064-13.66-3.0108-13.365-79.343l0.24213-62.722 1.9283-3.6075c2.1453-4.0136 6.0391-7.2705 10.463-8.7516 4.2962-1.4384 126.35-1.3787 131.16 0.06415 12.116 3.6301 12.348 12.988 0.78409 31.622-11.979 19.303-38.764 36.879-58.059 38.098l-3.6651 0.23162-0.22832-24.728-0.22831-24.728-2.2721-0.57026c-4.3678-1.0962-4.5859 0.20144-4.5859 27.282v24.688l-9.9013 0.61865c-9.3853 0.58642-9.9272 0.72216-10.4 2.6047-0.92905 3.7016 0.95351 5.5885 5.5758 5.5885 2.2804 0 6.5265 0.24879 9.4357 0.55287l5.2895 0.55286v25.529c0 27.547 0.20663 28.891 4.3509 28.306l2.1032-0.29687 0.22792-26.141 0.22792-26.141 4.5051 0.59015c27.818 3.644 57.112 27.456 66.041 53.684l2.1052 6.1837-1.6865 3.1317c-2.0478 3.8025-6.4144 6.8074-11.612 7.991-6.0692 1.382-123.2 1.1155-128.44-0.29215zm138.89-34.652c-10.077-16.415-32.379-32.82-54.824-40.329-3.755-1.2562-6.9489-2.3993-7.0974-2.5402-0.14856-0.14086 2.3685-1.1195 5.5936-2.1747 21.796-7.1317 42.527-22.742 54.542-41.07 2.5598-3.9047 4.9493-7.0995 5.31-7.0995 0.85073 0 0.8611 97.016 0.0104 97.53-0.35497 0.21472-1.9456-1.7276-3.5347-4.3162z" fill="#999"/>
  <path d="m30.384 161.24c-13.777-3.7064-13.66-3.0108-13.365-79.343l0.24213-62.722 1.9283-3.6075c2.1453-4.0136 6.0391-7.2705 10.463-8.7516 4.2962-1.4384 126.35-1.3787 131.16 0.06415 12.116 3.6301 12.348 12.988 0.78409 31.622-11.979 19.303-38.764 36.879-58.059 38.098l-3.6651 0.23162-0.22832-24.728-0.22831-24.728-2.2721-0.57026c-4.3678-1.0962-4.5859 0.20144-4.5859 27.282v24.688l-9.9013 0.61865c-9.3853 0.58642-9.9272 0.72216-10.4 2.6047-0.92905 3.7016 0.95351 5.5885 5.5758 5.5885 2.2804 0 6.5265 0.24879 9.4357 0.55287l5.2895 0.55286v25.529c0 27.547 0.20663 28.891 4.3509 28.306l2.1032-0.29687 0.22792-26.141 0.22792-26.141 4.5051 0.59015c27.818 3.644 57.112 27.456 66.041 53.684l2.1052 6.1837-1.6865 3.1317c-2.0478 3.8025-6.4144 6.8074-11.612 7.991-6.0692 1.382-123.2 1.1155-128.44-0.29215z" fill="#fea501"/>
 </g>
</svg>
