<?xml version="1.0" encoding="UTF-8" ?>
<!DOCTYPE svg PUBLIC "-//W3C//DTD SVG 1.1//EN" "http://www.w3.org/Graphics/SVG/1.1/DTD/svg11.dtd">
<svg width="256px" height="256px" viewBox="0 0 256 256" version="1.1" xmlns="http://www.w3.org/2000/svg">
<path fill="#f1f1f1" d=" M 0.00 0.00 L 256.00 0.00 L 256.00 256.00 L 0.00 256.00 L 0.00 0.00 Z" />
<path fill="#0002ff" d=" M 103.10 31.23 C 122.67 25.79 144.02 27.17 163.07 34.11 C 155.76 54.87 147.82 75.43 139.98 95.99 C 139.42 96.06 138.28 96.20 137.71 96.27 C 128.52 93.32 118.09 94.87 110.07 100.20 C 103.12 104.62 98.17 111.83 96.03 119.73 C 95.54 121.07 95.05 122.41 94.61 123.78 C 74.96 121.39 55.31 118.84 35.66 116.43 C 33.62 116.13 31.48 116.15 29.55 115.35 C 29.84 113.52 29.96 111.68 30.02 109.84 C 35.94 73.25 64.71 41.88 100.27 31.80 L 101.17 31.98 C 101.65 31.79 102.62 31.41 103.10 31.23 Z" />
<path fill="#0063ff" d=" M 101.29 31.17 C 101.74 31.19 102.65 31.21 103.10 31.23 C 102.62 31.41 101.65 31.79 101.17 31.98 L 101.29 31.17 Z" />
<path fill="#0063ff" d=" M 163.07 34.11 C 170.77 36.94 178.07 40.84 184.84 45.45 C 173.53 62.82 161.36 79.64 149.76 96.83 C 148.82 98.15 148.02 99.69 146.50 100.45 C 143.82 98.58 140.77 97.37 137.71 96.27 C 138.28 96.20 139.42 96.06 139.98 95.99 C 147.82 75.43 155.76 54.87 163.07 34.11 Z" />
<path fill="#00e3cb" d=" M 184.84 45.45 C 197.93 54.79 209.13 66.96 216.50 81.30 C 196.84 91.68 177.19 102.09 157.52 112.46 C 154.82 107.70 151.19 103.35 146.50 100.45 C 148.02 99.69 148.82 98.15 149.76 96.83 C 161.36 79.64 173.53 62.82 184.84 45.45 Z" />
<path fill="#00ff8d" d=" M 157.52 112.46 C 177.19 102.09 196.84 91.68 216.50 81.30 C 220.61 89.08 223.42 97.43 225.77 105.89 C 225.51 105.40 224.97 104.43 224.70 103.94 C 203.34 109.08 182.03 114.49 160.73 119.90 C 160.74 120.42 160.78 121.48 160.79 122.01 C 160.12 118.70 159.23 115.40 157.52 112.46 Z" />
<path fill="#f1f1f1" d=" M 110.07 100.20 C 118.09 94.87 128.52 93.32 137.71 96.27 C 140.77 97.37 143.82 98.58 146.50 100.45 C 151.19 103.35 154.82 107.70 157.52 112.46 C 159.23 115.40 160.12 118.70 160.79 122.01 C 163.85 137.69 154.07 154.46 138.87 159.39 C 128.71 163.26 116.51 161.22 108.08 154.38 C 105.94 152.68 103.93 150.82 102.23 148.68 C 95.94 140.58 93.42 129.69 96.03 119.73 C 98.17 111.83 103.12 104.62 110.07 100.20 Z" />
<path fill="#00e3f9" d=" M 160.73 119.90 C 182.03 114.49 203.34 109.08 224.70 103.94 C 224.97 104.43 225.51 105.40 225.77 105.89 C 228.64 119.68 228.97 134.10 226.15 147.93 C 219.28 183.61 191.23 214.42 156.13 224.03 C 150.13 203.65 144.25 183.24 138.29 162.86 C 137.73 161.64 137.83 160.30 138.87 159.39 C 154.07 154.46 163.85 137.69 160.79 122.01 C 160.78 121.48 160.74 120.42 160.73 119.90 Z" />
<path fill="#0063ff" d=" M 28.52 119.01 C 29.32 116.00 28.53 112.66 30.02 109.84 C 29.96 111.68 29.84 113.52 29.55 115.35 C 31.48 116.15 33.62 116.13 35.66 116.43 C 55.31 118.84 74.96 121.39 94.61 123.78 C 95.05 122.41 95.54 121.07 96.03 119.73 C 93.42 129.69 95.94 140.58 102.23 148.68 C 86.01 161.24 70.07 174.17 53.92 186.83 C 52.48 187.93 51.03 189.08 50.19 190.72 C 34.05 170.81 26.09 144.50 28.52 119.01 Z" />
<path fill="#0002ff" d=" M 53.92 186.83 C 70.07 174.17 86.01 161.24 102.23 148.68 C 103.93 150.82 105.94 152.68 108.08 154.38 C 108.29 154.62 108.70 155.10 108.90 155.34 C 96.00 173.40 83.34 191.64 70.35 209.64 C 62.80 204.29 56.04 197.88 50.19 190.72 C 51.03 189.08 52.48 187.93 53.92 186.83 Z" />
<path fill="#00ff8d" d=" M 108.08 154.38 C 116.51 161.22 128.71 163.26 138.87 159.39 C 137.83 160.30 137.73 161.64 138.29 162.86 C 144.25 183.24 150.13 203.65 156.13 224.03 C 127.29 232.60 94.83 227.10 70.35 209.64 C 83.34 191.64 96.00 173.40 108.90 155.34 C 108.70 155.10 108.29 154.62 108.08 154.38 Z" />
</svg>
