<?xml version="1.0" standalone="no"?>
<!DOCTYPE svg PUBLIC "-//W3C//DTD SVG 20010904//EN"
 "http://www.w3.org/TR/2001/REC-SVG-20010904/DTD/svg10.dtd">
<svg version="1.0" xmlns="http://www.w3.org/2000/svg"
 width="175.000000pt" height="167.000000pt" viewBox="0 0 175.000000 167.000000"
 preserveAspectRatio="xMidYMid meet">

<g transform="translate(0.000000,167.000000) scale(0.100000,-0.100000)"
fill="#000000" stroke="none">
<path d="M1142 1645 c-7 -14 -12 -28 -12 -30 0 -2 37 -29 83 -61 164 -115 358
-337 446 -511 17 -35 33 -63 36 -63 2 0 15 5 29 11 l25 12 -36 71 c-108 214
-316 441 -534 580 -25 16 -26 15 -37 -9z"/>
<path d="M595 1594 c-3 -20 -5 -37 -3 -38 2 -1 44 -17 93 -35 408 -150 748
-503 871 -906 l29 -95 30 6 c17 3 34 10 38 14 13 11 -55 204 -109 311 -147
293 -392 536 -690 683 -81 40 -223 96 -243 96 -5 0 -12 -16 -16 -36z"/>
<path d="M6 1502 c-3 -3 -6 -24 -6 -47 l0 -42 95 -7 c667 -47 1211 -544 1310
-1196 8 -52 15 -121 15 -152 l0 -58 50 0 c58 0 55 -11 40 141 -64 635 -518
1162 -1138 1318 -112 29 -353 57 -366 43z"/>
</g>
</svg>
