<?xml version="1.0" encoding="UTF-8"?>
<svg xmlns="http://www.w3.org/2000/svg" xmlns:xlink="http://www.w3.org/1999/xlink" width="258pt" height="256pt" viewBox="0 0 258 256" version="1.1">
<g id="surface1">
<path style=" stroke:none;fill-rule:nonzero;fill:rgb(33.333333%,34.509804%,68.627451%);fill-opacity:1;" d="M 218.371094 97.78125 C 220.480469 99.898438 222.972656 101.582031 225.726562 102.757812 C 231.46875 105.171875 237.933594 105.171875 243.6875 102.757812 C 249.234375 100.386719 253.65625 95.964844 256.007812 90.398438 C 258.410156 84.640625 258.410156 78.152344 256.007812 72.378906 C 253.644531 66.816406 249.234375 62.378906 243.6875 60.023438 C 237.945312 57.609375 231.476562 57.609375 225.726562 60.023438 C 220.179688 62.390625 215.757812 66.816406 213.40625 72.378906 C 211.003906 78.140625 211.003906 84.628906 213.40625 90.398438 C 214.578125 93.148438 216.265625 95.660156 218.371094 97.78125 Z M 211.609375 119.277344 L 211.609375 189.066406 L 223.203125 189.066406 C 227.1875 189.042969 231.152344 188.675781 235.066406 187.933594 C 238.996094 187.238281 242.789062 185.914062 246.300781 184 C 249.613281 182.195312 252.476562 179.652344 254.675781 176.589844 C 256.980469 173.1875 258.140625 169.132812 257.976562 165.011719 L 257.976562 119.277344 Z M 174.035156 90.019531 C 177.113281 90.042969 180.167969 89.421875 183.007812 88.203125 C 188.554688 85.835938 192.964844 81.410156 195.316406 75.847656 C 197.71875 70.085938 197.71875 63.597656 195.304688 57.828125 C 192.941406 52.261719 188.53125 47.828125 182.984375 45.46875 C 180.148438 44.25 177.09375 43.632812 174.003906 43.652344 C 170.9375 43.632812 167.90625 44.25 165.089844 45.46875 C 162.984375 46.371094 162.324219 47.542969 159.433594 48.957031 L 159.433594 84.714844 C 162.335938 86.140625 162.984375 87.300781 165.089844 88.203125 C 167.914062 89.433594 170.960938 90.042969 174.035156 90.019531 Z M 159.433594 207.519531 C 162.335938 208.152344 163.375 208.640625 165.433594 208.921875 C 167.6875 209.25 169.964844 209.410156 172.238281 209.421875 C 175.75 209.402344 179.257812 209.03125 182.691406 208.292969 C 186.191406 207.585938 189.550781 206.269531 192.605469 204.414062 C 195.605469 202.566406 198.132812 200.042969 199.996094 197.054688 C 202.054688 193.566406 203.0625 189.542969 202.910156 185.488281 L 202.910156 104.734375 L 159.433594 104.734375 Z M 0 229.78125 L 150.734375 255.953125 L 150.734375 0.046875 L 0 26.21875 Z M 0 229.78125 "/>
<path style=" stroke:none;fill-rule:nonzero;fill:rgb(100%,100%,100%);fill-opacity:1;" d="M 110.148438 78.5625 L 40.585938 82.8125 L 40.585938 98.910156 L 66.671875 97.855469 L 66.671875 172.492188 L 84.0625 173.511719 L 84.0625 97.171875 L 110.148438 96.007812 Z M 110.148438 78.5625 "/>
</g>
</svg>
