<?xml version="1.0" standalone="no"?>
<!DOCTYPE svg PUBLIC "-//W3C//DTD SVG 20010904//EN"
 "http://www.w3.org/TR/2001/REC-SVG-20010904/DTD/svg10.dtd">
<svg version="1.0" xmlns="http://www.w3.org/2000/svg"
 width="200.000000pt" height="200.000000pt" viewBox="0 0 200.000000 200.000000"
 preserveAspectRatio="xMidYMid meet">
<metadata>
Created by potrace 1.16, written by Peter Selinger 2001-2019
</metadata>
<g transform="translate(0.000000,200.000000) scale(0.100000,-0.100000)"
fill="#000000" stroke="none">
<path d="M90 1053 c0 -251 1 -259 24 -309 41 -88 109 -124 236 -124 100 0 161
21 203 71 52 61 57 90 57 368 l0 251 -49 0 -50 0 -3 -257 c-3 -283 -6 -298
-63 -333 -41 -26 -144 -28 -185 -4 -61 37 -65 54 -68 337 l-3 257 -50 0 -49 0
0 -257z"/>
<path d="M780 970 l0 -340 50 0 50 0 0 135 0 135 98 0 c176 1 242 57 242 205
0 101 -28 150 -105 186 -33 15 -66 19 -187 19 l-148 0 0 -340z m277 247 c37
-20 58 -59 58 -112 0 -88 -43 -123 -161 -132 l-74 -6 0 138 0 138 74 -6 c40
-3 87 -12 103 -20z"/>
<path d="M1406 1151 l106 -159 -121 -181 -121 -181 57 0 58 0 89 135 c49 74
92 135 95 135 3 0 46 -61 95 -135 l89 -135 53 0 c30 0 54 2 54 5 0 2 -51 82
-114 177 l-114 171 109 164 109 163 -57 0 -58 0 -79 -120 c-43 -66 -80 -120
-81 -120 -1 0 -38 54 -81 120 l-79 120 -58 0 -57 0 106 -159z"/>
</g>
</svg>
