<svg width="446" height="98" viewBox="0 0 446 98" fill="none" xmlns="http://www.w3.org/2000/svg">
<g clip-path="url(#clip0)">
<path d="M89.72 31.76L65.28 7.28997C62.3857 4.5538 58.9381 2.47029 55.17 1.17998C46.82 -1.60002 38.51 0.569969 31.78 7.28997L7.27997 31.76C4.5438 34.6543 2.46027 38.1019 1.16997 41.87C-1.62003 50.22 0.549972 58.53 7.27997 65.25L31.75 89.72C34.6397 92.4572 38.0842 94.5409 41.85 95.83C44.1313 96.6012 46.5219 96.9996 48.93 97.01C54.8 97.01 60.42 94.53 65.24 89.72L89.7 65.25C92.4398 62.3566 94.5267 58.909 95.82 55.14C98.6 46.79 96.43 38.49 89.7 31.76H89.72ZM50.38 14.39C52.2285 14.9826 53.932 15.957 55.38 17.25L62.61 24.49L48.51 38.58L34.41 24.48L41.68 17.2C43.63 15.26 46.38 13.2 50.4 14.38L50.38 14.39ZM14.4 46.61C14.9945 44.7601 15.9725 43.0564 17.27 41.61L24.5 34.38L38.6 48.48L24.49 62.58L17.22 55.3C15.27 53.36 13.22 50.61 14.39 46.59L14.4 46.61ZM46.62 82.59C44.7691 82.0026 43.0646 81.0276 41.62 79.73L34.41 72.58L48.51 58.47L62.61 72.57L55.34 79.85C53.39 81.79 50.65 83.85 46.62 82.67V82.59ZM82.62 50.44C82.0257 52.2878 81.0515 53.9909 79.76 55.44L72.53 62.58L58.43 48.48L72.53 34.38L79.8 41.65C81.75 43.59 83.8 46.34 82.63 50.36" fill="#00ABE4"/>
<path d="M142.49 82.96H155.12V47.91C155.12 37.1 148.55 29.12 137.34 29.12C131.88 29.12 126.03 31.54 122.99 35.99V9.98999H110.37V82.93H122.99V55.28C122.99 48.82 126.23 40.74 133.8 40.74C140.47 40.74 142.49 44.47 142.49 50.54V82.96ZM193.49 62.23C193.49 69.94 187.98 74.15 180.17 74.15C176.26 74.15 172.75 71.65 172.75 67.64C172.75 63.43 176.46 61.13 180.27 60.83L193.49 59.83V62.23ZM204.01 83.77C206.166 83.8403 208.303 83.3584 210.22 82.37V73.15C209.695 73.2734 209.159 73.3405 208.62 73.35C206.52 73.35 205.72 72.45 205.72 70.04V50.71C205.878 47.1398 205.366 43.5717 204.21 40.19C201.21 32.37 193.59 29.57 184.68 29.57C173.05 29.57 163.73 34.78 163.03 46.5H175.16C175.46 41.69 178.86 39.09 184.68 39.09C191.79 39.09 193.49 42.39 193.49 47.3V50.51L178.15 51.58C168.23 52.28 160.52 57.99 160.52 67.91C160.52 76.43 166.93 84.24 179.36 84.24C186.77 84.24 192.78 80.64 195.19 76.43C195.59 80.34 198.59 83.74 204 83.74L204.01 83.77ZM243.36 41.96C244.029 41.9649 244.696 42.0083 245.36 42.09V30.29C244.82 30.29 244.28 30.17 243.75 30.17C237.63 30.17 231.42 32.67 229.02 38.68L227.91 30.87H217.28V82.97H229.91V56.72C229.91 48.3 234.52 41.99 243.33 41.99L243.36 41.96ZM282.88 82.99H295.41V48.2C295.41 37.38 288.89 29.57 277.77 29.57C271.77 29.57 265.55 32.07 262.44 37.57L261.54 30.86H251.05V82.96H263.57V61.73C263.57 57.32 263.47 51.91 265.28 47.8C266.98 43.99 269.89 41.19 274.28 41.19C280.89 41.19 282.89 44.9 282.89 51.01L282.88 82.99ZM336.53 51.73H314.01C313.955 48.7925 314.912 45.9254 316.72 43.61C317.761 42.31 319.092 41.2713 320.606 40.5768C322.12 39.8824 323.775 39.5513 325.44 39.61C326.895 39.5323 328.35 39.7589 329.712 40.2755C331.074 40.7921 332.313 41.5872 333.35 42.61C335.35 44.82 336.46 47.82 336.56 51.73H336.53ZM349.08 57.34C349.28 50.83 348.38 44.92 344.57 39.2C340.27 32.69 333.25 29.59 325.57 29.59C322.493 29.5002 319.429 30.0402 316.568 31.1768C313.706 32.3135 311.107 34.0228 308.93 36.2C303.93 41.31 301.42 48.72 301.42 57.04C301.42 65.56 304.22 72.87 309.42 77.88C311.595 79.9903 314.169 81.6446 316.993 82.7454C319.816 83.8462 322.831 84.3713 325.86 84.29C332.47 84.29 338.98 82.19 343.39 76.98C345.39 74.57 347.5 70.47 347.8 67.36H335.8C335.379 69.0304 334.511 70.5548 333.29 71.77C331.49 73.57 329.29 74.27 325.68 74.27C322.786 74.2604 320.012 73.1107 317.96 71.07C316.663 69.7154 315.656 68.1103 315.001 66.353C314.346 64.5957 314.056 62.7231 314.15 60.85H348.98C348.98 59.74 349.08 57.34 349.08 57.34ZM365.9 45.42C365.93 44.2044 366.328 43.0266 367.043 42.0426C367.757 41.0586 368.754 40.3149 369.9 39.91C371.626 39.2627 373.47 38.99 375.31 39.11C377.799 39.0407 380.225 39.8957 382.12 41.51C383.43 42.8128 384.183 44.5731 384.22 46.42H396.15C396 42.3976 394.357 38.5755 391.54 35.7C387.74 31.58 381.43 29.58 375.22 29.58C368.7 29.58 363.22 31.48 359.39 34.79C357.68 36.2179 356.314 38.0134 355.395 40.0428C354.475 42.0721 354.026 44.2828 354.08 46.51C354.08 53.12 358.89 58.93 366 60.44C370.61 61.44 375.82 61.74 380.43 62.44C383.63 62.94 385.64 64.94 385.64 67.95C385.64 73.66 379.23 74.56 375.02 74.56C371.41 74.56 369.11 73.86 367.1 72.26C365.715 71.0194 364.786 69.3506 364.46 67.52H352.66C353.144 71.6298 355.064 75.4368 358.08 78.27C362.39 82.38 368.3 84.27 374.92 84.27C382.03 84.27 388.54 82.47 392.75 78.27C394.246 76.7752 395.419 74.9899 396.199 73.024C396.978 71.0582 397.346 68.9536 397.28 66.84C397.28 58.62 391.28 53.41 383.05 52.11C377.94 51.31 376.64 51.21 371.93 50.61C369.13 50.21 365.93 49.1 365.93 45.4L365.9 45.42ZM432.29 46.4H444.18C444.03 42.3776 442.387 38.5555 439.57 35.68C435.76 31.58 429.45 29.58 423.28 29.58C416.77 29.58 411.28 31.48 407.45 34.79C405.74 36.2179 404.374 38.0134 403.455 40.0428C402.535 42.0721 402.086 44.2828 402.14 46.51C402.14 53.12 406.95 58.93 414.06 60.44C418.67 61.44 423.88 61.74 428.49 62.44C431.69 62.94 433.7 64.94 433.7 67.95C433.7 73.66 427.28 74.56 423.08 74.56C419.47 74.56 417.17 73.86 415.16 72.26C413.775 71.0194 412.846 69.3506 412.52 67.52H400.68C401.164 71.6321 403.087 75.4404 406.11 78.27C410.41 82.38 416.32 84.27 422.94 84.27C430.05 84.27 436.56 82.47 440.77 78.27C442.262 76.7735 443.432 74.9874 444.208 73.0216C444.983 71.0559 445.348 68.9521 445.28 66.84C445.28 58.62 439.28 53.41 431.05 52.11C425.94 51.31 424.64 51.21 419.93 50.61C417.13 50.21 413.93 49.1 413.93 45.4C413.96 44.1844 414.359 43.0066 415.073 42.0226C415.787 41.0387 416.784 40.2949 417.93 39.89C419.656 39.2427 421.5 38.97 423.34 39.09C425.829 39.0207 428.255 39.8757 430.15 41.49C431.463 42.7918 432.219 44.5519 432.26 46.4" fill="white"/>
</g>
<defs>
<clipPath id="clip0">
<rect width="445.28" height="97.01" fill="white"/>
</clipPath>
</defs>
</svg>
