<?xml version="1.0" encoding="UTF-8" standalone="no"?>
<svg width="256px" height="315px" viewBox="0 0 256 315" version="1.1" xmlns="http://www.w3.org/2000/svg" xmlns:xlink="http://www.w3.org/1999/xlink" preserveAspectRatio="xMidYMid">
	<g>
		<g>
			<path d="M255.878566,127.868028 C255.878566,198.323171 198.768494,255.43274 128.312347,255.43274 C57.8622265,255.43274 0.746127325,198.323171 0.746127325,127.868028 C0.746127325,57.4179077 57.8622265,0.301808544 128.312347,0.301808544 C198.768494,0.301808544 255.878566,57.4179077 255.878566,127.868028" fill="#1A1918"></path>
			<path d="M130.459863,78.228885 L163.47146,159.705138 L113.608007,120.427335 L130.459863,78.228885 Z M189.104342,178.474123 L138.32577,56.2720498 C136.876246,52.7476854 133.977698,50.8827909 130.459863,50.8827909 C126.935499,50.8827909 123.826002,52.7476854 122.376477,56.2720498 L66.6436045,190.312411 L85.708924,190.312411 L107.771234,135.047143 L173.610097,188.23707 C176.258016,190.378208 178.168617,191.346566 180.652297,191.346566 C185.626186,191.346566 189.973756,187.617782 189.973756,182.235555 C189.973756,181.359612 189.664363,179.969354 189.104342,178.474123 L189.104342,178.474123 Z" fill="#FFFFFF"></path>
		</g>
	</g>
</svg>
