<svg width="640" height="640" xmlns="http://www.w3.org/2000/svg" xmlns:xlink="http://www.w3.org/1999/xlink" preserveAspectRatio="xMidYMid meet">
 <defs>
  <path id="bns1966NM" d="m20.33,23.18c-2.64,2.9 -5.68,7.26 -6.73,9.77c-4.1,9.63 1.58,19.01 11.74,19.14c4.76,0.13 5.81,-0.4 7.26,-3.3c1.46,-2.91 1.32,-4.62 -0.26,-10.17c-1.85,-5.94 -1.85,-7.26 0,-12.4c3.17,-9.38 1.98,-15.58 -4.49,-21.39c-2.64,-2.37 -2.64,-2.37 -1.85,2.25c1.06,6.73 -0.13,10.16 -5.67,16.1z"/>
  <path id="cxhXBzxv4" d="m36.3,38.76c1.85,6.6 1.85,7.65 -0.13,12.67c-2.77,7.13 -1.59,11.61 3.69,13.86c10.56,4.49 20.07,-6.6 15.71,-18.09c-0.66,-1.84 -4.09,-6.07 -7.52,-9.37c-6.21,-6.07 -6.21,-6.2 -5.41,-13.33c0.39,-3.96 0.52,-7.26 0.26,-7.26c-0.26,0 -1.98,1.98 -3.7,4.22c-4.75,6.34 -5.28,9.38 -2.9,17.3z"/>
  <path id="dYgueZnpb" d="m17.56,69.78c8.31,8.58 25.74,9.24 32.34,1.32c1.18,-1.59 0.26,-1.85 -5.68,-1.85c-7.79,0.13 -12.94,-3.17 -14.39,-9.24c-0.66,-2.25 -1.71,-3.17 -3.83,-3.17c-1.71,0 -5.94,-1.45 -9.24,-3.17c-0.41,-0.2 -2.48,-1.21 -6.2,-3.03l0,3.69c1.5,7.04 3.83,12.19 7,15.45z"/>
 </defs>
 <g>
  <title>background</title>
  <rect fill="none" id="canvas_background" height="402" width="582" y="-1" x="-1"/>
 </g>
 <g>
  <title>Layer 1</title>
  <g stroke="null" id="svg_1">
   <g stroke="null" id="svg_2">
    <g stroke="null" id="svg_3">
     <use x="13.346042" y="-0.120235" transform="matrix(8.317072868347168,0,0,8.317072868347168,-69.5121922492981,-17.999999535258212) " stroke="null" id="svg_4" fill="#cc0404" xlink:href="#bns1966NM"/>
     <g stroke="null" id="svg_5">
      <use x="13.346042" y="-0.120235" transform="matrix(8.317072868347168,0,0,8.317072868347168,-69.5121922492981,-17.999999535258212) " stroke="#000000" id="svg_6" stroke-opacity="0" fill-opacity="0" xlink:href="#bns1966NM"/>
     </g>
    </g>
    <g stroke="null" id="svg_7">
     <use x="13.346042" y="-0.120235" transform="matrix(8.317072868347168,0,0,8.317072868347168,-69.5121922492981,-17.999999535258212) " stroke="null" id="svg_8" fill="#cc0404" xlink:href="#cxhXBzxv4"/>
     <g stroke="null" id="svg_9">
      <use x="13.346042" y="-0.120235" transform="matrix(8.317072868347168,0,0,8.317072868347168,-69.5121922492981,-17.999999535258212) " stroke="#000000" id="svg_10" stroke-opacity="0" fill-opacity="0" xlink:href="#cxhXBzxv4"/>
     </g>
    </g>
    <g stroke="null" id="svg_11">
     <use x="13.346042" y="-0.120235" transform="matrix(8.317072868347168,0,0,8.317072868347168,-69.5121922492981,-17.999999535258212) " stroke="null" id="svg_12" fill="#cc0404" xlink:href="#dYgueZnpb"/>
     <g stroke="null" id="svg_13">
      <use x="13.346042" y="-0.120235" transform="matrix(8.317072868347168,0,0,8.317072868347168,-69.5121922492981,-17.999999535258212) " stroke="#000000" id="svg_14" stroke-opacity="0" fill-opacity="0" xlink:href="#dYgueZnpb"/>
     </g>
    </g>
   </g>
  </g>
 </g>
</svg>