<svg id="Work_area" xmlns="http://www.w3.org/2000/svg" viewBox="0 0 512 512"><style>.st0{fill:#008cdb}</style><path class="st0" d="M197.2 174.8c-.1 16.2 7.7 30.8 20.4 41.2 15.7 12.8 28.6 38.6 29.3 66.9.8 31.3-1.3 67.6-2.6 86-16.8 2.4-28.6 8-28.6 14.5 0 8.7 20.9 18.7 46.6 18.7s46.6-10 46.6-18.7c0-6.5-11.8-12.1-28.6-14.5-1.3-18.4-3.5-54.7-2.6-86 .8-28.2 13.6-54.1 29.3-66.9 12.7-10.3 20.5-25 20.4-41.2-.3-30.8-29.4-55.7-65.1-55.7s-64.9 24.9-65.1 55.7zm189 223.4c2.5-1 5.1-1.8 7.7-2.2 2.9-.6 5.9-1 8.9-1.1 0 0-.1-1-.4-2.5-.3-1.9-.8-3.7-1.5-5.4-.4-1-.7-1.9-1-2.8s-.9-1.7-1.2-2.4l-1.3-2.3c-3.1-.5-6.2-1.2-9.2-2.1-2.8-.8-5.6-1.7-8.3-2.9-4.7-2.1-9.1-4.4-11.5-7-2.2-1.7-3.4-4.4-3.2-7.2.2-1.2.7-2.3 1.5-3.2.9-1.1 2.1-2 3.3-2.6l-2.8-1.6c-.8-.5-1.8-1-2.8-1.5L361 350c-2.4-1.1-4.7-2.2-6.6-3l-3.1-1.3c-2.4.3-4.8.5-7.2.5-2.6 0-5.2 0-7.8-.2-4.9-.3-9.9-1.2-14.6-2.5-2.1-.5-4.1-1.2-6-2.1-1.6-.6-3.1-1.4-4.5-2.4-2.4-1.7-4-3.4-3.9-5.2l-3.5-.6c-2.2-.4-6.9-1-9.8-1.4-.1.5-.4 1-.5 1.8l-.8 3.6c-1.6 7.3 2.7 14.6 9.8 16.7 17.5 5.1 30.7 13.5 34.5 23.8 7.7 20.8-24.7 41.2-74 41.2s-81.7-20.3-74-41.2c3.7-10 16.4-18.3 33.3-23.4 7.5-2.3 11.9-9.9 10.3-17.6l-1-5c-2 .2-4.2.5-6.6.8-2.9.3-5.7.8-7.9 1.2l-3.6.6c.2 1.7-1.1 3.6-3.4 5.2-1.3.9-2.7 1.8-4.2 2.5-1.9.8-3.8 1.6-5.8 2.2-2.3.7-4.6 1.2-7 1.6-2.5.5-5 .8-7.6 1-5.1.5-10.2.5-15.3-.1l-.9.4c-.5.2-1.4.5-2.2 1l-6.5 3.1c-2.3 1.2-4.4 2.4-6.1 3.4l-2 1.1-.7.5c3.3 1.5 5.1 3.6 5.5 5.8.8 2.3-.3 4.8-2.5 7.4-1.4 1.4-3 2.7-4.6 3.8-2.1 1.4-4.3 2.6-6.6 3.5-5.6 2.5-11.5 4.4-17.5 5.4-.4.7-.8 1.5-1 2.3-.5 1.4-1.2 3.3-1.9 5.3-.3 2-.6 4-.8 5.5-.2.8-.2 1.7-.2 2.5 5.9 0 11.8 1 17.3 3 4.3 1.3 8.2 3.9 10.9 7.5 1.9 3.4 2.7 7 1 11.2-1.2 4.1-4.5 8.6-9.9 12.7l.8.7 2.4 1.8c2.1 1.5 4.9 3.5 8 5.4l9.3 5.1c1.3.7 2.6 1.2 3.4 1.6l1.3.6c7.7-3.1 15.8-5.1 24-5.8 4-.4 8-.5 11.9-.3 3.9.1 7.8.6 11.6 1.4 3.6.8 7 1.9 10.4 3.3 3 1.4 6 3.1 8.7 5 5.4 3.7 9.5 8.9 11.3 14.3l6.9.3c4.2.1 9.7.5 15.3.2s11.1-.3 15.2-.5l6.8-.6c.6-2.9 1.8-5.6 3.6-7.9.9-1.2 1.8-2.4 2.9-3.4 1.1-1.1 2.2-2.2 3.4-3.2 2.5-2 5.3-3.7 8.3-5 3.2-1.6 6.5-2.8 10-3.6 3.7-.8 7.5-1.4 11.3-1.8 4-.2 7.9-.2 11.9 0 8.3.5 16.5 2.2 24.3 5.1l4.2-2.4c3-1.6 5.8-3.3 8.5-5.3s5.6-3.9 7.3-5.5l2.8-2.6c-4.7-3.1-8.5-7.3-11-12.2-.8-1.8-1.3-3.7-1.3-5.7-.2-1.8.3-3.7 1.3-5.2 1.8-3.3 5.6-5.7 9.9-7.7zM219.6 295.9s7.3-27.7-24.5-63.5l-1.1-1.1c-31.4-37.2-26.7-92.8 10.5-124.2 15.9-13.5 36.1-20.8 57-20.8h2c48.7-.1 88.2 39.2 88.3 87.9 0 20.9-7.3 41.1-20.8 57-.1.2-.5.6-1.1 1.1-28.2 28.3-24.5 63.5-24.5 63.5 51.6-17.8 86.3-66.1 86.7-120.7.4-68-54.5-126-122.3-129.2h-2.5c-1 0-4.8.1-4.8.1s-3.8-.1-4.8-.1h-2.5c-67.8 3.3-122.7 61.2-122.4 129.2.4 54.7 35.2 103.1 86.8 120.8z"/></svg>