<svg xmlns="http://www.w3.org/2000/svg" width="256" height="256"><g fill="none" fill-rule="nonzero"><path fill="#FFF" d="M234.218 139.315L202.105 120.9l-5.539-2.396-131.368.899v66.694h169.02z"/><path fill="#F38020" d="M175.757 179.96c1.572-5.39.973-10.33-1.647-13.997-2.395-3.369-6.437-5.315-11.303-5.54l-92.145-1.197c-.599 0-1.123-.3-1.422-.749-.3-.449-.375-1.048-.225-1.647.3-.898 1.198-1.572 2.171-1.646l92.968-1.198c11.004-.524 22.98-9.432 27.172-20.36l5.315-13.848c.224-.6.3-1.198.15-1.797-5.989-27.097-30.166-47.307-59.06-47.307-26.648 0-49.254 17.216-57.338 41.094-5.24-3.892-11.902-5.988-19.088-5.314-12.8 1.272-23.055 11.527-24.327 24.327-.3 3.294-.075 6.513.673 9.507-20.884.599-37.576 17.665-37.576 38.7 0 1.87.15 3.742.374 5.613.15.898.898 1.572 1.797 1.572h170.067c.974 0 1.872-.674 2.171-1.647l1.273-4.566z"/><path fill="#FAAE40" d="M205.1 120.75c-.824 0-1.722 0-2.546.076-.598 0-1.122.449-1.347 1.048l-3.593 12.5c-1.572 5.39-.973 10.33 1.647 13.998 2.395 3.368 6.437 5.315 11.303 5.54l19.611 1.197c.6 0 1.123.3 1.423.748.3.45.374 1.123.224 1.647-.3.898-1.197 1.572-2.17 1.647l-20.436 1.198c-11.078.524-22.98 9.431-27.172 20.36l-1.497 3.817c-.299.749.225 1.497 1.048 1.497h70.213c.824 0 1.572-.524 1.797-1.347 1.197-4.341 1.871-8.908 1.871-13.623 0-27.696-22.606-50.302-50.377-50.302"/></g></svg>
