<?xml version="1.0" encoding="UTF-8" standalone="no"?>
<svg
   xmlns:dc="http://purl.org/dc/elements/1.1/"
   xmlns:cc="http://creativecommons.org/ns#"
   xmlns:rdf="http://www.w3.org/1999/02/22-rdf-syntax-ns#"
   xmlns="http://www.w3.org/2000/svg"
   viewBox="0 0 800 800"
   height="800"
   width="800"
   xml:space="preserve"
   id="svg2"
   version="1.1"><metadata
     id="metadata8"><rdf:RDF><cc:Work
         rdf:about=""><dc:format>image/svg+xml</dc:format><dc:type
           rdf:resource="http://purl.org/dc/dcmitype/StillImage" /></cc:Work></rdf:RDF></metadata><defs
     id="defs6" /><g
     transform="matrix(1.3333333,0,0,-1.3333333,0,800)"
     id="g10"><g
       transform="scale(0.1)"
       id="g12"><path
         id="path14"
         style="fill:#30642b;fill-opacity:1;fill-rule:evenodd;stroke:none"
         d="m 5219.99,4236.62 c 0,0 -3115.4,338.38 -3431.66,-1039.14 -455.54,-1985.47 1508.85,-1530.43 1508.85,-1530.43 0,0 -2669.078,-1136.331 -2379.696,1501.71 195.876,1786.95 3705.856,1355.83 4302.506,1067.86 v 0" /><path
         id="path16"
         style="fill:#30642b;fill-opacity:1;fill-rule:evenodd;stroke:none"
         d="m 4948.82,3523.97 c 0,0 -1411.9,16.12 -1497.21,-594.99 -122.79,-880.53 740.13,-600.59 740.13,-600.59 0,0 -1151.05,-605.11 -1129.8,551.55 14.4,783.65 1607.39,743.96 1886.88,644.03 v 0" /><path
         id="path18"
         style="fill:#30642b;fill-opacity:1;fill-rule:evenodd;stroke:none"
         d="m 4976.52,3884.77 c 0,0 -2138.13,24.22 -2267.03,-900.62 -185.99,-1333.51 1120.43,-909.72 1120.43,-909.72 0,0 -1742.77,-916.18 -1710.51,835.49 21.73,1186.24 2433.85,1126.25 2857.11,974.85 v 0" /><path
         id="path20"
         style="fill:#acd11c;fill-opacity:1;fill-rule:evenodd;stroke:none"
         d="m 4182.44,2325.26 c 0,0 -1128.17,-591.76 -1224.48,421.31 139.45,-20.7 267.96,-36.02 391.96,-36.56 62.85,-741.73 832.52,-384.75 832.52,-384.75 v 0" /><path
         id="path22"
         style="fill:#acd11c;fill-opacity:1;fill-rule:evenodd;stroke:none"
         d="m 3389.22,3048.87 c -10.16,-38.89 -30.79,-127.79 -36.77,-162.03 -240.47,27.04 -138.84,2.05 -398.41,44.86 1.8,16.19 8.24,99.9 11.43,116.48 138,709.22 1723.54,575.39 1983.35,475.79 0,0 -1403.88,114.9 -1559.6,-475.1 v 0" /><path
         id="path24"
         style="fill:#acd11c;fill-opacity:1;fill-rule:evenodd;stroke:none"
         d="m 3816.32,2069.85 c 0,0 -1708.85,-896.15 -1854.12,638.06 210.83,-31.51 405.31,-54.91 593.27,-55.38 94.97,-1122.97 1260.85,-582.68 1260.85,-582.68 v 0" /><path
         id="path26"
         style="fill:#acd11c;fill-opacity:1;fill-rule:evenodd;stroke:none"
         d="m 2615.24,3165.28 c -15.39,-58.4 -46.97,-193.02 -55.74,-245.34 -364.19,40.97 -342.07,30.5 -603.44,68.14 2.43,24.54 12.62,151.11 17.22,176.34 209.12,1074.07 2609.99,871.2 3003.21,720.33 0.03,0.02 -2125.78,173.96 -2361.25,-719.47 v 0" /><path
         id="path28"
         style="fill:#acd11c;fill-opacity:1;fill-rule:evenodd;stroke:none"
         d="m 3276.15,1661.78 c 0,0 -2616.15,-1110.62 -2616.15,1224.49 303.375,-77.37 583.98,-139.7 857.84,-167.34 -16.72,-1707.6 1758.31,-1057.15 1758.31,-1057.15 v 0" /><path
         id="path30"
         style="fill:#acd11c;fill-opacity:1;fill-rule:evenodd;stroke:none"
         d="m 1675.96,3484.07 c -30.6,-85.73 -95.04,-284.67 -115.3,-362 -525.44,113.12 -388.31,65.03 -870.762,187.9 7.325,36.6 39.344,226.38 49.793,263.28 453.449,1591.11 3927.869,946.59 4480.309,663.4 -0.01,-0.03 -3077.08,562.41 -3544.04,-752.58 v 0" /></g></g></svg>