<svg xmlns="http://www.w3.org/2000/svg" width="300" height="300" style="background:#2d963d" viewBox="0 0 300 300">
  <path fill="#FFF" d="M136.683098,113.420381 L52.7881188,113.420381 C61.7433522,128.543425 70.2267327,145.083915 77.2971004,162.096461 L111.7029,162.096461 C122.072419,146.028028 130.556011,129.960871 136.683098,113.420381 Z M146.580552,94.9895373 L146.580552,59.0730265 L43.3620934,59.0730265 L43.3620934,94.9895373 L146.580552,94.9895373 Z M0,181 L0,162.569369 L56.5584866,162.569369 C49.4887553,147.446325 42.4185997,134.214274 34.8776521,123.344207 L49.488331,113.893076 L24.0369165,113.893076 L24.0369165,40.1690624 L167.318529,40.1690624 L167.318529,113.893076 L140.453678,113.893076 L155.064356,123.344207 C147.994625,138.467251 140.92447,151.699302 133.855163,162.569369 L189,162.569369 L189,181 L0,181 Z M184.286775,18.4306311 L5.65608204,18.4306311 L5.65608204,0 L184.286775,0 L184.286775,18.4306311 Z" transform="translate(56 60)"/>
</svg>
