<?xml version="1.0" standalone="no"?>
<!DOCTYPE svg PUBLIC "-//W3C//DTD SVG 20010904//EN"
 "http://www.w3.org/TR/2001/REC-SVG-20010904/DTD/svg10.dtd">
<svg version="1.0" xmlns="http://www.w3.org/2000/svg"
 width="500.000000pt" height="476.000000pt" viewBox="0 0 500.000000 476.000000"
 preserveAspectRatio="xMidYMid meet">

<g transform="translate(0.000000,476.000000) scale(0.100000,-0.100000)"
fill="#000000" stroke="none">
<path d="M2330 4754 c-312 -22 -598 -87 -747 -170 l-63 -35 0 -210 0 -209 23
5 c18 4 949 195 1565 321 113 24 125 24 147 10 30 -20 44 -68 51 -176 8 -111
-13 -210 -66 -317 -71 -143 -200 -256 -327 -284 l-53 -12 0 -46 c-1 -221 -166
-433 -391 -502 l-66 -20 -7 -68 c-12 -130 -58 -231 -153 -331 -101 -108 -171
-138 -453 -195 -124 -25 -235 -47 -247 -50 -21 -5 -23 -11 -23 -63 l0 -57 58
-32 c114 -62 297 -115 522 -150 145 -22 621 -25 770 -5 219 31 436 92 553 155
l57 32 -2 1105 -3 1105 -85 42 c-191 95 -477 149 -822 157 -101 2 -208 2 -238
0z"/>
<path d="M2915 4164 c-60 -13 -276 -57 -480 -99 -203 -42 -493 -101 -642 -132
l-273 -56 0 -582 0 -582 213 44 c116 24 231 53 254 64 62 30 128 106 149 172
10 31 16 59 13 61 -2 2 -58 -7 -124 -20 -136 -28 -167 -24 -210 27 -47 56 -27
150 39 183 17 9 144 38 281 66 138 27 270 58 294 67 53 19 126 83 151 133 23
45 36 110 22 110 -5 0 -54 -9 -107 -20 -53 -11 -110 -20 -127 -20 -66 0 -118
54 -118 122 0 37 29 92 57 106 10 6 142 35 293 67 171 35 287 64 307 76 62 38
118 119 141 202 13 45 19 44 -133 11z"/>
<path d="M1023 1552 c-26 -3 -35 -9 -40 -30 -5 -15 -8 -280 -8 -590 0 -489 2
-564 15 -572 18 -12 130 -13 148 -2 10 7 12 128 10 594 -2 323 -5 588 -8 591
-8 7 -82 13 -117 9z"/>
<path d="M320 1544 c-116 -5 -261 -26 -274 -40 -31 -30 -41 -199 -41 -665 0
-372 3 -459 14 -472 10 -13 30 -17 81 -17 109 0 100 -23 100 256 l0 243 260 3
c219 3 262 5 270 18 6 8 9 42 8 75 l-3 60 -269 3 -269 2 5 170 c3 94 8 173 12
177 14 14 121 22 346 23 129 2 249 5 265 9 l30 6 0 75 0 75 -235 1 c-129 0
-264 -1 -300 -2z"/>
<path d="M3715 1204 c-11 -2 -45 -9 -75 -15 -92 -19 -179 -58 -194 -88 -24
-46 -37 -131 -46 -300 -10 -170 -3 -268 25 -320 54 -104 208 -161 357 -131 62
12 151 50 163 70 12 19 23 10 30 -23 9 -41 19 -47 80 -47 84 0 80 -18 83 312
3 195 0 310 -7 344 -21 90 -81 149 -182 178 -56 16 -199 28 -234 20z m141
-165 c109 -20 104 -7 104 -249 l0 -209 -43 -25 c-95 -56 -222 -68 -302 -30
l-35 16 0 233 0 233 43 16 c74 27 142 32 233 15z"/>
<path d="M1233 1173 c-46 -9 -33 -52 144 -481 l125 -303 -80 -182 c-44 -100
-77 -186 -73 -190 5 -4 48 -7 96 -5 l89 3 212 487 c193 444 241 562 258 640 6
25 4 27 -39 34 -25 3 -65 3 -89 0 l-44 -7 -42 -122 c-50 -142 -182 -440 -191
-429 -3 4 -52 129 -109 279 -100 261 -105 271 -133 277 -32 6 -88 6 -124 -1z"/>
<path d="M2063 1173 c-16 -3 -23 -12 -23 -26 0 -12 46 -194 102 -405 115 -435
94 -397 218 -397 118 0 102 -21 215 289 55 151 103 272 106 268 4 -4 50 -124
104 -267 53 -143 103 -267 111 -275 17 -18 197 -21 214 -4 11 11 191 690 205
772 l6 40 -56 7 c-31 4 -75 4 -98 -1 l-41 -9 -70 -302 c-39 -167 -73 -300 -77
-295 -4 4 -56 138 -114 297 -59 160 -112 293 -119 297 -20 13 -124 9 -138 -5
-7 -8 -63 -148 -123 -312 l-110 -298 -36 154 c-20 85 -53 224 -73 310 -37 156
-37 157 -68 163 -33 6 -99 6 -135 -1z"/>
<path d="M4223 1173 c-43 -8 -30 -54 138 -462 71 -172 129 -318 129 -323 0 -6
-34 -87 -75 -181 -41 -93 -75 -176 -75 -184 0 -10 22 -13 90 -13 88 0 90 1
104 28 27 53 419 958 436 1007 9 28 20 67 24 87 l7 37 -46 6 c-25 4 -65 4 -89
1 l-44 -7 -32 -97 c-34 -99 -88 -232 -158 -381 l-39 -85 -30 80 c-199 521
-182 481 -215 488 -33 6 -89 6 -125 -1z"/>
</g>
</svg>
