<svg id="Layer_1" data-name="Layer 1" xmlns="http://www.w3.org/2000/svg" width="1020" height="970" viewBox="0 0 1020 970"><defs><style>.cls-1{fill:#c00;}</style></defs><title>Flyway</title><path d="M3.9,898.3C0,885.6,0,873.4,0,860.5V764.2C0,731.6.6,694.5,8.2,663c28-6.9,59.8-7.3,93.2-7.3h72.9a76.9,76.9,0,0,1,1.7,15.2,86.7,86.7,0,0,1-1.7,15.2c-10.2,3.3-20.4,3.3-30.9,3.3H103c-21.8,0-40.7,0-59.5,3.9-2.7,20.1-3.3,44-3.3,71H149.4a62.6,62.6,0,0,1,1.6,14.9,73.7,73.7,0,0,1-1.6,15.7c-10.5,3.3-20.4,3.3-31.6,3.3H40.2v100a81.8,81.8,0,0,1-17.7,1.7A150.8,150.8,0,0,1,3.9,898.3Z"/><path d="M199.9,898a234.4,234.4,0,0,1-1.9-33.5V689.6c0-11.6,0-23,3.6-34.3a74,74,0,0,1,30.6,0c3.3,11.2,3.3,23,3.3,34.6V864.1c0,10.8.3,21.1-2,33.9a59.7,59.7,0,0,1-16.1,2A72.8,72.8,0,0,1,199.9,898Z"/><path d="M273.2,967.7l33.2-75.9L259.8,778.7c-5.2-13.1-13.2-31.2-13.5-45.6a69.2,69.2,0,0,1,18.8-2.3,70,70,0,0,1,17.7,2l44,114.7,23.8-51.9c7.5-16.9,17.7-44.8,22.6-62.8a77.2,77.2,0,0,1,18.5-2,74.1,74.1,0,0,1,18,2c-2.2,21-14.1,45.6-26.3,73.3L313,967.7a89.3,89.3,0,0,1-19.4,2A94.1,94.1,0,0,1,273.2,967.7Z"/><path d="M457.8,898,423.9,771.1c-4-14.4-7.6-27.6-8.3-38.1a86.8,86.8,0,0,1,20.4-2.3,85.8,85.8,0,0,1,18.8,2l29.6,126.9L530.8,734a67,67,0,0,1,15.1-1.7A74.8,74.8,0,0,1,562,734l46.4,125.6,29.5-126.9a80.7,80.7,0,0,1,18.5-2,87.6,87.6,0,0,1,20.7,2.3c-1,12.1-4.2,24.9-8,38.4L636.3,898c-9.2,2.3-16.1,3.3-22.7,3.3s-14.2-1-24.4-3.3L546.4,783.9,504.7,898c-9.5,2.3-16.1,3.3-23,3.3S467.9,900.4,457.8,898Z"/><path d="M692.5,844.4V831.6c0-24.9,1.1-64.4,11.6-89.5,24.3-11.8,45.1-17.1,64.7-17.1,42.4,0,76,11.2,76,57.9v69.4a397.5,397.5,0,0,1-2.6,45.6,49.2,49.2,0,0,1-13.9,2,69.8,69.8,0,0,1-16-2l-3-16c-11.9,12.1-32.9,19.6-55,19.6S692.5,892.2,692.5,844.4ZM807,852.7V766.5c-7.5-6.3-23-9.2-38.5-9.2s-31.2,3-38.7,9.2v92.7c8.2,6.6,19,9.5,30.2,9.5C776.4,868.8,794.1,862.6,807,852.7Z"/><path d="M883.6,967.7l33.2-75.9L870.1,778.6c-5.3-13.2-13.2-31.2-13.5-45.6a69,69,0,0,1,18.7-2.3,71.4,71.4,0,0,1,17.8,2l44,114.7,23.7-52c7.5-16.8,17.8-44.7,22.7-62.7a77.2,77.2,0,0,1,18.5-2,75.3,75.3,0,0,1,18,2c-2.3,21-14.1,45.6-26.3,73.3L923.4,967.7a89.3,89.3,0,0,1-19.4,2A94.1,94.1,0,0,1,883.6,967.7Z"/><path class="cls-1" d="M429.4,374.9a58.6,58.6,0,0,0,9.5-28.4l-44.6,9.2a28.3,28.3,0,0,1-5,.5,25.1,25.1,0,0,1-5-49.6l101.2-20.8A60.2,60.2,0,0,0,523.6,260a61.2,61.2,0,0,0,9.8-28.7l-44.8,9.2a28.3,28.3,0,0,1-5,.5A25,25,0,0,1,459,220.8c-2.7-13.6,6.5-26.7,20.1-29.5l100-20.5c19.5-4,30.9-20,36-29.1a80.5,80.5,0,0,0,9-26.3L309.5,180V417.8l80.8-16.6A61.6,61.6,0,0,0,429.4,374.9Z"/><path class="cls-1" d="M510,.3c-88,0-164.9,17.8-200.6,43.4v85.1L654.4,58a13.6,13.6,0,0,1,16,10.5l2.3,11.3c5.8,28.3.8,59.7-13.9,86.2-16,28.8-40.8,47.9-69.9,53.9l-5.5,1.1a108.9,108.9,0,0,1-18.9,67.7c-16.3,24.2-41.7,40.5-70.2,46.4l-5.3,1.1a110.5,110.5,0,0,1-87.8,114L309.4,469v22.8C345.1,517.5,422,535.3,510,535.3s164.9-17.8,200.6-43.5V43.7C674.9,18.1,598,.3,510,.3Z"/></svg>