<?xml version="1.0" encoding="UTF-8"?>
<svg width="240px" height="240px" viewBox="0 0 240 240" version="1.1" xmlns="http://www.w3.org/2000/svg" xmlns:xlink="http://www.w3.org/1999/xlink">
    <g stroke="none" stroke-width="1" fill="none" fill-rule="evenodd">
        <circle id="circle" fill="#272636" cx="120" cy="120" r="120"></circle>
        <g id="mail" transform="translate(55.145572, 74.527020)">
            <path d="M24.6342695,28.3365069 L57.3424216,49.5774292 C58.7319765,50.4798167 59.1269037,52.3378032 58.2245162,53.7273581 C57.3221287,55.1169129 55.4641423,55.5118401 54.0745874,54.6094526 L21.3664353,33.3685303 C19.9768804,32.4661428 19.5819532,30.6081564 20.4843407,29.2186015 C21.3867282,27.8290466 23.2447146,27.4341194 24.6342695,28.3365069 Z" fill="#FFFFFF"></path>
            <path d="M109.123183,18.3944548 L54.2280052,49.3164122 C52.7610164,50.1427537 52.2446206,51.9966487 53.074603,53.4572024 C53.9045853,54.9177562 55.7666484,55.4318868 57.2336372,54.6055452 L112.128815,23.6835878 C113.595804,22.8572463 114.1122,21.0033513 113.282217,19.5427976 C112.452235,18.0822438 110.590172,17.5681132 109.123183,18.3944548 Z" fill="#FFFFFF"></path>
            <path d="M110.854428,75.1154842 C110.854428,76.528261 110.854428,78.6474262 110.854428,81.4729798 C110.854428,86.9958273 106.377276,91.4729798 100.854428,91.4729798 L10.8544285,91.4729798 C5.33158097,91.4729798 0.854428464,86.9958273 0.854428464,81.4729798 L0.854428464,10.4729798 C0.854428464,4.95013227 5.33158097,0.472979763 10.8544285,0.472979763 L100.854428,0.472979763 C106.377276,0.472979763 110.854428,4.95013227 110.854428,10.4729798 C110.854428,11.1482911 110.854428,11.6547746 110.854428,11.9924303 C110.854428,13.9602396 110.854428,16.9119537 110.854428,20.8475724" stroke="#FFFFFF" stroke-width="6" stroke-linecap="round"></path>
        </g>
        <path d="M146,120 L191,94 M165.5,122.5 L191,94 M165.5,122.5 L165.5,138.5 M146,120 L160,122 M191,95 L186,139 M185,139 L170,127" stroke="#FFFFFF" stroke-width="4" stroke-linecap="round"></path>
    </g>
</svg>