<svg width="150" height="150" viewBox="0 0 150 150" fill="none" xmlns="http://www.w3.org/2000/svg">
<path fill-rule="evenodd" clip-rule="evenodd" d="M84.3291 124.495H86.9338V122.464H84.3291V124.495ZM38.0231 134.225L36.393 131.167H35.5147V134.225H31.802V132.241H32.4983V124.447H31.802V122.464H35.5147V128.929H36.3723L38.3348 125.999H41.1961V127.982H40.7196L39.1144 129.788L40.8738 132.241H41.4019V134.225H38.0231ZM75.714 134.225L73.7198 127.982H73.14V125.999H77.4067V127.982H76.6475L77.6531 131.763H78.2901L79.2957 127.982H78.5368V125.999H82.5024V127.982H81.9208L79.9743 134.225H75.714ZM83.5696 134.225V132.241H84.2658V127.982H83.5696V125.999H87.2819V132.241H87.9785V134.225H83.5696ZM45.4488 134.448C44.6661 134.448 44.1012 134.215 43.7221 133.738C43.3318 133.246 43.1338 132.545 43.1338 131.656V127.982H42.4372V125.999H46.1499V130.908C46.1499 131.339 46.2554 131.671 46.4633 131.894C46.677 132.125 46.985 132.241 47.3794 132.241C47.7738 132.241 48.0818 132.125 48.2958 131.895C48.5041 131.671 48.6096 131.339 48.6096 130.908V127.982H47.7547V125.999H51.6257V132.241H52.3219V134.225H48.6096V132.386L48.0522 133.103C47.3481 134.008 46.4966 134.448 45.4488 134.448ZM58.3313 127.982C57.9369 127.982 57.6286 128.099 57.4152 128.329C57.207 128.552 57.1015 128.884 57.1015 129.316V130.908C57.1015 131.339 57.207 131.671 57.4156 131.895C57.6286 132.125 57.9369 132.241 58.3313 132.241C58.7258 132.241 59.0341 132.125 59.2474 131.894C59.4554 131.671 59.5612 131.339 59.5612 130.908V129.316C59.5612 128.884 59.4554 128.552 59.2471 128.329C59.0341 128.099 58.7258 127.982 58.3313 127.982ZM59.8664 134.448C59.3907 134.448 58.965 134.33 58.6012 134.098C58.2163 133.853 57.8998 133.572 57.6592 133.263L57.1015 132.545V134.225H53.3888V132.241H54.085V124.447H53.3888V122.464H57.1015V127.679L57.6592 126.961C57.8995 126.651 58.2163 126.37 58.6012 126.125C58.965 125.893 59.391 125.775 59.8664 125.775C60.8414 125.775 61.5513 126.126 62.0376 126.848C62.5426 127.598 62.7988 128.696 62.7988 130.112C62.7988 131.527 62.5426 132.625 62.0376 133.375C61.5513 134.097 60.8414 134.448 59.8664 134.448ZM68.2699 127.409C67.8755 127.409 67.5675 127.526 67.3538 127.756C67.1459 127.979 67.0404 128.311 67.0404 128.742V129.247H69.5001V128.742C69.5001 128.299 69.3932 127.963 69.1833 127.744C68.9692 127.522 68.6619 127.409 68.2699 127.409ZM68.2699 134.448C66.8604 134.448 65.7499 134.077 64.9693 133.345C64.1951 132.62 63.8024 131.532 63.8024 130.112C63.8024 128.691 64.1951 127.603 64.9693 126.878C65.7499 126.146 66.8604 125.775 68.2699 125.775C69.6553 125.775 70.6588 126.132 71.253 126.836C71.8601 127.554 72.1681 128.464 72.1681 129.538V130.371H67.0404V130.78C67.0404 131.272 67.1973 131.646 67.5066 131.894C67.7982 132.128 68.2396 132.241 68.8559 132.241C69.513 132.241 70.1477 132.191 70.7419 132.094C71.1628 132.024 71.5501 131.94 71.8992 131.842V133.771C71.563 133.928 71.1002 134.075 70.519 134.209C69.8322 134.367 69.0757 134.448 68.2699 134.448ZM93.4496 127.982C93.0555 127.982 92.7472 128.099 92.5335 128.329C92.3252 128.553 92.2197 128.884 92.2197 129.316V130.908C92.2197 131.339 92.3252 131.671 92.5332 131.894C92.7472 132.125 93.0555 132.241 93.4496 132.241C93.844 132.241 94.1523 132.125 94.366 131.894C94.5739 131.671 94.6791 131.339 94.6791 130.908V129.316C94.6791 128.884 94.5739 128.553 94.366 128.329C94.1523 128.099 93.844 127.982 93.4496 127.982ZM93.4496 134.448C92.0401 134.448 90.9297 134.077 90.149 133.345C89.3748 132.62 88.9821 131.532 88.9821 130.112C88.9821 128.691 89.3748 127.603 90.149 126.878C90.9297 126.146 92.0401 125.775 93.4496 125.775C94.8789 125.775 95.9937 126.151 96.7631 126.891C97.5288 127.627 97.9174 128.711 97.9174 130.112C97.9174 131.532 97.5247 132.62 96.7505 133.345C95.9699 134.077 94.8591 134.448 93.4496 134.448ZM101.964 134.448C101.182 134.448 100.616 134.215 100.237 133.738C99.847 133.245 99.6489 132.545 99.6489 131.656V127.982H98.9526V125.999H102.665V130.908C102.665 131.339 102.77 131.671 102.978 131.894C103.192 132.125 103.501 132.241 103.895 132.241C104.289 132.241 104.598 132.125 104.811 131.894C105.019 131.671 105.125 131.339 105.125 130.908V127.982H104.27V125.999H108.141V132.241H108.837V134.225H105.125V132.386L104.567 133.103C103.863 134.008 103.012 134.448 101.964 134.448ZM113.438 134.448C112.225 134.448 111.037 134.263 109.904 133.898V132.082H111.854C111.897 132.444 112.126 133.005 113.121 133.005C114.174 133.005 114.288 132.374 114.288 132.102C114.288 131.782 114.154 131.526 113.9 131.361C113.699 131.231 113.38 131.127 112.923 131.045L112.132 130.902C110.633 130.632 109.904 129.807 109.904 128.376C109.904 127.551 110.204 126.931 110.82 126.48C111.459 126.013 112.345 125.775 113.454 125.775C114.634 125.775 115.651 125.962 116.481 126.331V128.03H114.69C114.649 127.734 114.496 127.554 114.366 127.452C114.168 127.296 113.893 127.218 113.549 127.218C112.553 127.218 112.446 127.794 112.446 128.041C112.446 128.33 112.572 128.565 112.81 128.719C112.994 128.838 113.283 128.938 113.72 129.033L114.629 129.209C115.492 129.375 116.107 129.676 116.458 130.104C116.814 130.539 116.988 131.088 116.988 131.784C116.988 132.654 116.699 133.296 116.107 133.747C115.495 134.212 114.597 134.448 113.438 134.448Z" fill="#1E1E1E"/>
<path fill-rule="evenodd" clip-rule="evenodd" d="M25 82.833C26.0082 80.8815 27.8315 80.2586 30.3552 80.2617C60.3426 80.3005 90.3304 80.2841 120.318 80.2825C122.66 80.2825 124.321 81.191 124.843 82.7566C125.329 84.2146 124.672 85.8208 123.062 86.512C122.219 86.8737 121.16 87.0437 120.198 87.0477C110.376 87.0877 100.553 87.0785 90.7312 87.0782C70.5255 87.0775 50.3202 87.0548 30.1145 87.0954C27.5886 87.1004 25.8667 86.3892 25 84.4144V82.833Z" fill="#1E1E1E"/>
<path fill-rule="evenodd" clip-rule="evenodd" d="M31.8333 116.139V92.2206H116.833V116.089H85.8641C85.7714 114.107 85.8353 112.113 85.5574 110.168C84.7029 104.187 79.4696 100.17 73.2412 100.578C67.718 100.939 63.1294 105.87 62.9717 111.64C62.9319 113.095 62.9659 114.551 62.9659 116.139H31.8333Z" fill="#1E1E1E"/>
<path fill-rule="evenodd" clip-rule="evenodd" d="M145 42.0847C142.806 44.433 140.696 46.8673 138.388 49.0977C136.941 50.4964 134.854 50.2078 133.309 48.6758C129.845 45.2404 126.4 41.7843 122.948 38.3364C119.264 34.6563 115.582 30.9744 111.896 27.2966C109.384 24.7911 109.369 22.9914 111.847 20.5148C112.92 19.4424 113.962 18.3363 115.077 17.3089C115.967 16.4893 116.946 15.766 117.886 15H119.858C120.838 15.7814 121.9 16.4798 122.784 17.3575C129.454 23.9755 136.1 30.6184 142.723 37.2837C143.572 38.1381 144.245 39.1667 145 40.115V42.0847Z" fill="#1E1E1E"/>
<path fill-rule="evenodd" clip-rule="evenodd" d="M108.779 71.416L106.285 73.8601L104.457 70.8297C100.546 64.3438 95.7137 59.246 89.685 55.2445L86.6577 53.235L89.2014 50.582C89.7783 49.9804 91.1678 48.5212 92.8777 46.7238C87.6843 44.0991 81.7154 42.5185 75.0792 42.5016C54.0386 42.4474 38.756 58.5171 35 75.0031H115C114.45 72.5473 113.62 70.0556 112.525 67.5997C110.788 69.3881 109.404 70.8038 108.779 71.416Z" fill="#1E1E1E"/>
<path fill-rule="evenodd" clip-rule="evenodd" d="M128.333 50.8844C127.377 51.8307 126.427 52.909 125.334 53.8168C123.955 54.9628 122.489 54.6973 121.082 53.6644C119.284 55.3319 109.112 65.3667 107.258 67.086C103.647 61.4186 99.0449 56.7735 93.3333 53.1854C95.1034 51.4383 105.244 41.3296 106.949 39.6462C105.382 37.2275 105.509 36.1418 107.465 34.1827C108.176 33.4703 108.874 32.7467 109.524 32.0842C115.833 38.39 122.052 44.6064 128.333 50.8844Z" fill="#1E1E1E"/>
<path fill-rule="evenodd" clip-rule="evenodd" d="M79.6461 116.139C79.6666 114.533 79.6921 112.992 79.6088 111.46C79.4453 108.453 77.3894 106.099 74.9456 105.904C72.3624 105.698 69.9159 107.515 69.5674 110.403C69.3416 112.273 69.422 114.195 69.4744 116.139H79.6461Z" fill="#1E1E1E"/>
</svg>
