<?xml version="1.0" standalone="no"?><!DOCTYPE svg PUBLIC "-//W3C//DTD SVG 1.1//EN" "http://www.w3.org/Graphics/SVG/1.1/DTD/svg11.dtd"><svg t="1704365953775" class="icon" viewBox="0 0 1284 1024" version="1.1" xmlns="http://www.w3.org/2000/svg" p-id="5764" xmlns:xlink="http://www.w3.org/1999/xlink" width="642" height="512"><path d="M667.159475 538.478039c29.616525-28.750084 60.257025-56.712494 88.534505-86.801622 59.075514-62.77758 125.948997-113.031151 208.891018-139.575749a455.038995 455.038995 0 0 1 143.671651-19.691838 444.090333 444.090333 0 0 1 170.531318 40.17135c6.301388 2.993159 8.664409 4.489739 2.441788 10.71236-34.578868 34.736402-60.335792 75.537891-82.39065 119.253772-31.506941 62.462511-60.178257 126.421601-96.09617 186.678625-10.791127 8.979478-18.116491 21.030883-27.804876 31.191872a289.076184 289.076184 0 0 1-171.712828 87.983132c-51.671383 7.561666-101.846187-0.630139-151.548386-15.359633a1762.340744 1762.340744 0 0 1-243.39112-91.370129 26.7809 26.7809 0 0 1-4.726041-3.702066 831.231871 831.231871 0 0 0 117.678425-78.609818c15.75347-12.996613 31.900778-25.835692 45.921366-40.880256z" fill="#133C99" p-id="5765"></path><path d="M503.717219 657.889346h-0.157535a17.092515 17.092515 0 0 1-8.585641-2.67809 1586.216944 1586.216944 0 0 1-472.604115-344.449633l-1.49658-1.496579c-3.623298-3.938368-7.325364-8.113037-14.25689-5.513715-6.773992 2.67809-6.695225 8.113037-6.537691 13.547985v2.126718c0.157535 172.2642 0.236302 344.5284 0.157535 516.871367 0 27.804875 11.342499 48.756991 34.5001 63.565254 21.030883 13.39045 42.376836 26.387063 64.667997 37.808329 165.647742 85.38381 339.802359 107.438669 521.124804 66.164576 169.349808-38.67477 308.374185-127.603111 418.490943-261.743912 24.260345-28.828851 45.606297-59.863188 63.801556-92.866709-11.027429 8.979478-18.195258 21.030883-27.883643 31.191872a289.076184 289.076184 0 0 1-171.712828 87.983132c-51.671383 7.561666-101.846187-0.630139-151.548386-15.280866a1762.261977 1762.261977 0 0 1-243.39112-91.370129 26.7809 26.7809 0 0 1-4.726041-3.780833v-0.078767h0.157535z" fill="#3370FE" p-id="5766"></path><path d="M474.179462 262.162167a1578.655278 1578.655278 0 0 1 192.980013 276.315872c29.616525-28.750084 60.257025-56.712494 88.534505-86.801622 59.075514-62.77758 125.948997-113.031151 208.891018-139.575749A756.245351 756.245351 0 0 0 825.324319 29.956012 73.253638 73.253638 0 0 0 764.358388 0.024418H222.123934c-6.53769 0-12.996613 0-15.595936 7.325364s2.363021 10.869895 7.167829 14.25689l1.575347 1.181511A1607.641664 1607.641664 0 0 1 474.179462 262.162167z" fill="#00D5B8" p-id="5767"></path></svg>