<svg width="40" height="40" viewBox="0 0 40 40" fill="none" xmlns="http://www.w3.org/2000/svg">
<path fill-rule="evenodd" clip-rule="evenodd" d="M5.46447 17.4407C3.51185 19.3933 3.51184 22.5591 5.46446 24.5117L16.4407 35.4879C18.3933 37.4405 21.5591 37.4405 23.5117 35.4879L34.4879 24.5117C36.4405 22.5591 36.4405 19.3933 34.4879 17.4407L23.5117 6.46447C21.5591 4.51185 18.3933 4.51184 16.4407 6.46446L5.46447 17.4407ZM22.906 13.4265C23.4034 13.5932 23.6715 14.1316 23.5048 14.629L18.5469 29.4215C18.3802 29.9189 17.8418 30.187 17.3444 30.0203C16.847 29.8536 16.5789 29.3152 16.7456 28.8178L21.7035 14.0253C21.8702 13.5279 22.4086 13.2598 22.906 13.4265ZM14.6098 16.6418C14.9656 16.2563 14.9416 15.6554 14.5561 15.2995C14.1707 14.9437 13.5697 14.9678 13.2139 15.3532L8.82994 20.1025C8.49407 20.4664 8.49407 21.0272 8.82994 21.3911L13.2139 26.1404C13.5697 26.5258 14.1707 26.5499 14.5561 26.194C14.9416 25.8382 14.9656 25.2373 14.6098 24.8518L10.8206 20.7468L14.6098 16.6418ZM25.3429 24.8518C24.9871 25.2373 25.0111 25.8382 25.3966 26.194C25.782 26.5499 26.383 26.5258 26.7388 26.1404L31.1228 21.3911C31.4586 21.0272 31.4586 20.4664 31.1228 20.1025L26.7388 15.3532C26.383 14.9678 25.782 14.9437 25.3966 15.2995C25.0111 15.6554 24.9871 16.2563 25.3429 16.6418L29.1321 20.7468L25.3429 24.8518Z" fill="url(#paint0_linear_2851_391)"/>
<defs>
<linearGradient id="paint0_linear_2851_391" x1="5.5" y1="17" x2="31.5" y2="30.5" gradientUnits="userSpaceOnUse">
<stop stop-color="#73DFE7"/>
<stop offset="1" stop-color="#0095F7"/>
</linearGradient>
</defs>
</svg>
