<svg xmlns="http://www.w3.org/2000/svg" xmlns:xlink="http://www.w3.org/1999/xlink" xml:space="preserve" id="Layer_1" version="1.1" viewBox="150 100 250 300"><style>.st3,.st7{stroke:#3a4e55;stroke-miterlimit:10}.st3{fill:none;stroke-width:4.739;stroke-linecap:round;stroke-linejoin:round}.st7{fill:#bcbec0;stroke-width:3.1685}.st10{fill:#3a4e55}</style><path d="M325 301H218c-15 0-28-12-28-27V167c0-15 13-28 28-28h107c15 0 27 12 27 27v108c0 15-12 27-27 27z" style="fill:#e6e7e8"/><defs><path id="SVGID_1_" d="M325 301H218c-15 0-28-12-28-27V167c0-15 13-28 28-28h107c15 0 27 12 27 27v108c0 15-12 27-27 27z"/></defs><clipPath id="SVGID_2_"><use xlink:href="#SVGID_1_" style="overflow:visible"/></clipPath><path d="m284 277-6-15c-5-12 13-14 13-14s39-2 41-47c0 0-12 13-23 11-11-1-27-9-39 14-13-23-28-15-39-14-11 2-24-11-24-11 3 45 42 47 42 47s16 2 13 14l-5 15 4 6 4 4 5 1h3l5-4 4-6 2-1z" style="fill:#12a7dd"/><path d="M309 212c-11-2-27-9-39 14l-6-8c1 16 3 54 13 66h1l4-6 1-1-6-15c-5-12 14-14 14-14s39-2 41-47c0 0-12 13-23 11z" style="fill:#37b7ea"/><path d="M270 226c-13-23-28-15-39-14-11 2-24-11-24-11 3 45 42 47 42 47s16 2 13 14l-5 15m13-51c13-23 28-15 39-14 11 2 23-11 23-11-2 45-41 47-41 47s-18 2-13 14l6 15" class="st3"/><path d="m192 285 31-17h17l11 7 13 5 18-2 12-6 10-4 19 4s42 10 26 16l-10 9-25 7h-49l-60-5-13-14z" style="fill:#95d8f2"/><path d="M221 162h31v27h-31z" style="fill:#37b7ea;stroke:#3a4e55;stroke-width:2.4449;stroke-miterlimit:10" transform="rotate(-17 236 176)"/><path d="M276 173s-8 26-25 23l27 5 4-27-6-1z" style="fill:#e0e1e2"/><path d="M221 162h31v27h-31z" class="st7" transform="rotate(-17 236 176)"/><path d="M291 165h31v27h-31z" class="st7" transform="rotate(-4 306 179) scale(.99997)"/><path d="M250 172h31v27h-31z" class="st7" transform="rotate(9 265 185)"/><path d="M350 281c-20 0-20-13-40-13-19 0-19 13-39 13-19 0-19-13-39-13s-20 13-39 13" class="st3"/><path d="m298 174 1 11m7-12v12m7-12v12m-55-6-2 12m9-11-1 12m8-11-1 12m-44-21 4 12m3-14 4 12m3-14 4 12" style="fill:none;stroke-width:2.4449;stroke:#3a4e55;stroke-miterlimit:10"/><path d="M325 301H218c-15 0-28-12-28-27V167c0-15 13-28 28-28h107c15 0 27 12 27 27v108c0 15-12 27-27 27z" style="fill:none;stroke:#3a4e55;stroke-width:4.3778;stroke-linecap:round;stroke-linejoin:round;stroke-miterlimit:10"/><path d="M159 348v24c0 6-5 11-11 11s-10-5-10-11v-24c0-6 5-10 10-10 6 0 11 4 11 10zm-6 0c0-2-2-5-5-5-2 1-4 3-4 5v24c0 3 2 5 4 5 3 0 5-2 5-5v-24zm43 0v5c0 5-5 10-10 10h-5v18l-2 2h-3l-1-1v-43l1-1h10c5 0 10 4 10 10zm-6 0c0-2-2-5-4-5h-5v14h5c2 0 4-2 4-4v-5zm26-4v13h8l1 2v3l-1 1h-8v14h8l1 2v2l-1 2h-11c-2 0-3-1-3-3v-39c0-2 1-3 3-3h11l1 1v3l-1 2h-8z" class="st10"/><path d="M286 344v13h8l2 2v3l-2 1h-8v18l-1 2h-3l-1-1v-41c0-2 1-3 2-3h11l2 1v3l-2 2h-8zm47 4v34l-2 1h-3l-1-1v-19h-10v19l-1 1h-3l-2-1v-34a11 11 0 0 1 22 0zm-6 0c0-2-2-4-5-4s-5 2-5 4v10h10v-10zm43 0v34l-2 1h-3l-1-1v-19h-10v19l-1 1h-3l-2-1v-34c0-5 5-10 11-10s11 5 11 10zm-6 0c0-2-2-4-5-4s-5 2-5 4v10h10v-10zm35 3v-3a5 5 0 1 0-9 0v2l13 17 2 6c0 5-5 10-11 10-5 0-10-5-10-10v-4l1-1h3l2 1v4a5 5 0 1 0 9 0v-2l-13-17-2-6c0-6 5-10 11-10 5 0 10 4 10 10v3l-1 2h-3l-2-2z" style="fill:#036fa5"/><path d="m252 338-5 1-2-1h-3l-1 1v42l1 2h3l2-1v-34c0-2 2-4 5-4 2 0 4 2 4 5v33l2 1h3l1-1v-33c0-6-5-11-10-11z" class="st10"/></svg>