<?xml version="1.0" encoding="utf-8"?>
<svg width="363px" height="92px" viewBox="0 0 100 100" version="1.1" xmlns="http://www.w3.org/2000/svg">
  <title>logo</title>
  <desc>Created with Sketch.</desc>
  <g id="Page-1" stroke="none" stroke-width="1" fill="none" fill-rule="evenodd">
    <g id="logo">
      <path d="M 11.564 67.684 C 16.486 67.684 20.476 71.675 20.476 76.595 C 20.476 81.516 16.486 85.507 11.564 85.507 C 6.643 85.507 2.653 81.516 2.653 76.595 C 2.653 71.675 6.643 67.684 11.564 67.684" id="Fill-10" fill="#000000"/>
      <path d="M 11.564 41.089 C 16.486 41.089 20.476 45.079 20.476 50 C 20.476 54.921 16.486 58.911 11.564 58.911 C 6.643 58.911 2.653 54.921 2.653 50 C 2.653 45.079 6.643 41.089 11.564 41.089" id="Fill-12" fill="#000000"/>
      <path d="M 11.564 14.493 C 16.486 14.493 20.476 18.483 20.476 23.404 C 20.476 28.325 16.486 32.315 11.564 32.315 C 6.643 32.315 2.653 28.325 2.653 23.404 C 2.653 18.483 6.643 14.493 11.564 14.493" id="Fill-14" fill="#FFFFFF" stroke="#000000" stroke-width="2px"/>
      <path d="M 37.188 67.684 C 42.108 67.684 46.1 71.675 46.1 76.595 C 46.1 81.516 42.108 85.507 37.188 85.507 C 32.268 85.507 28.278 81.516 28.278 76.595 C 28.278 71.675 32.268 67.684 37.188 67.684" id="Fill-16" fill="#000000"/>
      <path d="M 37.188 41.089 C 42.108 41.089 46.1 45.079 46.1 50 C 46.1 54.921 42.108 58.911 37.188 58.911 C 32.268 58.911 28.278 54.921 28.278 50 C 28.278 45.079 32.268 41.089 37.188 41.089" id="Fill-18" fill="#000000"/>
      <path d="M 37.188 14.493 C 42.108 14.493 46.1 18.483 46.1 23.404 C 46.1 28.325 42.108 32.315 37.188 32.315 C 32.268 32.315 28.278 28.325 28.278 23.404 C 28.278 18.483 32.268 14.493 37.188 14.493" id="Fill-20" fill="#000000"/>
      <path d="M 62.812 67.684 C 67.732 67.684 71.722 71.675 71.722 76.595 C 71.722 81.516 67.732 85.507 62.812 85.507 C 57.891 85.507 53.9 81.516 53.9 76.595 C 53.9 71.675 57.891 67.684 62.812 67.684" id="Fill-22" fill="#000000"/>
      <path d="M 62.812 41.089 C 67.732 41.089 71.722 45.079 71.722 50 C 71.722 54.921 67.732 58.911 62.812 58.911 C 57.891 58.911 53.9 54.921 53.9 50 C 53.9 45.079 57.891 41.089 62.812 41.089" id="Fill-24" fill="#FFFFFF" stroke="#000000" stroke-width="2px"/>
      <path d="M 62.812 14.493 C 67.732 14.493 71.722 18.483 71.722 23.404 C 71.722 28.325 67.732 32.315 62.812 32.315 C 57.891 32.315 53.9 28.325 53.9 23.404 C 53.9 18.483 57.891 14.493 62.812 14.493" id="Fill-26" fill="#000000"/>
      <path d="M 88.436 67.684 C 93.356 67.684 97.346 71.675 97.346 76.595 C 97.346 81.516 93.356 85.507 88.436 85.507 C 83.514 85.507 79.524 81.516 79.524 76.595 C 79.524 71.675 83.514 67.684 88.436 67.684" id="Fill-28" fill="#000000"/>
      <path d="M 88.436 41.089 C 93.356 41.089 97.346 45.079 97.346 50 C 97.346 54.921 93.356 58.911 88.436 58.911 C 83.514 58.911 79.524 54.921 79.524 50 C 79.524 45.079 83.514 41.089 88.436 41.089" id="Fill-30" fill="#000000"/>
      <path d="M 88.436 14.493 C 93.356 14.493 97.346 18.483 97.346 23.404 C 97.346 28.325 93.356 32.315 88.436 32.315 C 83.514 32.315 79.524 28.325 79.524 23.404 C 79.524 18.483 83.514 14.493 88.436 14.493" id="Fill-32" fill="#000000"/>
    </g>
  </g>
</svg>
