<?xml version="1.0" encoding="UTF-8"?>
<svg width="600px" height="600px" viewBox="0 0 600 600" version="1.1" xmlns="http://www.w3.org/2000/svg" xmlns:xlink="http://www.w3.org/1999/xlink">
    <title>TestRail Logo Square</title>
    <defs>
        <polygon id="path-1" points="1.05608686 0.399798584 90.8625621 0.399798584 90.8625621 90.205071 1.05608686 90.205071"></polygon>
        <polygon id="path-3" points="0.783201416 0.38493 90.5881731 0.38493 90.5881731 90.9996967 0.783201416 90.9996967"></polygon>
    </defs>
    <g id="TestRail-Logo-Square" stroke="none" stroke-width="1" fill="none" fill-rule="evenodd">
        <g id="Group-2" transform="translate(45.000000, 420.294851)" fill="#0B3754">
            <g id="TestRail-Logo" transform="translate(0.000000, 0.705149)">
                <path d="M75.3409091,7.47111105 L75.3409091,14.6029003 C75.3409091,15.7099766 74.8197971,16.2644875 73.7794016,16.2644875 L43.2047553,16.2644875 C42.7933511,16.2644875 42.5830779,16.4892104 42.5830779,16.9260094 L42.5830779,120.338413 C42.5830779,121.444516 42.0647086,122 41.0215703,122 L33.06867,122 C32.0282744,122 31.5071624,121.444516 31.5071624,120.338413 L31.5071624,16.9260094 C31.5071624,16.4892104 31.2987176,16.2644875 30.885485,16.2644875 L1.55876482,16.2644875 C0.518369298,16.2644875 0,15.7099766 0,14.6029003 L0,7.47111105 C0,6.36403477 0.518369298,5.80952381 1.55876482,5.80952381 L73.7794016,5.80952381 C74.8197971,5.80952381 75.3409091,6.36403477 75.3409091,7.47111105" id="Fill-14"></path>
                <path d="M144.886364,78.9256815 L144.886364,83.8986698 C144.886364,84.9359243 144.363123,85.455463 143.318477,85.455463 L92.7266051,85.455463 C92.3061766,85.455463 92.1023881,85.6660129 92.1023881,86.0779981 C92.3061766,91.7783406 92.6256288,95.4615968 93.0387136,97.1177404 C94.1880073,101.783563 96.642649,105.464996 100.399885,108.161129 C104.159874,110.857261 108.967263,112.204416 114.811036,112.204416 C119.195243,112.204416 123.058045,111.217293 126.403114,109.248514 C129.742675,107.281559 132.357961,104.485164 134.237955,100.852039 C134.862173,99.9168693 135.589202,99.7145227 136.430059,100.231327 L142.535452,103.807941 C143.371719,104.325657 143.580098,105.047542 143.165177,105.984535 C140.552645,110.957523 136.633847,114.875939 131.414291,117.721553 C126.191982,120.576282 120.192154,122 113.401958,122 C105.992135,121.897915 99.7756677,120.133306 94.767244,116.717111 C89.7514766,113.294536 86.1502951,108.528452 83.9572738,102.408832 C82.078197,97.4303752 81.1363636,90.27897 81.1363636,80.9445908 C81.1363636,76.591403 81.2171447,73.0403102 81.3731989,70.2940467 C81.5292532,67.5477831 81.9221427,65.0795184 82.5509496,62.9020131 C84.3226244,56.1625931 87.8990208,50.7721508 93.2746309,46.7270404 C98.6557489,42.685576 105.156786,40.6666667 112.776823,40.6666667 C122.275938,40.6666667 129.584785,43.051076 134.70061,47.8162488 C139.817354,52.5887134 143.006369,59.3263105 144.262147,68.0354204 C144.675231,70.9393685 144.886364,74.5724937 144.886364,78.9256815 M100.012503,54.2712898 C96.61511,56.9172914 94.4000575,60.4738531 93.3526581,64.9291256 C92.7266051,67.1057195 92.3061766,70.6294682 92.1023881,75.5021946 C92.1023881,75.9196486 92.3061766,76.1219952 92.7266051,76.1219952 L133.294286,76.1219952 C133.714715,76.1219952 133.925847,75.9196486 133.925847,75.5021946 C133.714715,70.8391066 133.397098,67.5231734 132.982178,65.5489262 C131.83472,60.8831038 129.508594,57.1770608 126.008388,54.4289743 C122.510019,51.6817993 118.100109,50.3100348 112.776823,50.3100348 C107.660998,50.3100348 103.405306,51.6325799 100.012503,54.2712898" id="Fill-16"></path>
                <path d="M166.024624,119.165745 C161.110077,117.273778 157.326294,114.746228 154.667311,111.597877 C152.010316,108.442135 150.681818,104.926106 150.681818,101.034086 L150.681818,99.1421194 C150.681818,98.0954404 151.245212,97.571639 152.378956,97.571639 L160.518861,97.571639 C161.643662,97.571639 162.211031,98.0954404 162.211031,99.1421194 L162.211031,100.405894 C162.211031,103.875732 164.161548,106.897521 168.0596,109.467566 C171.963615,112.045926 176.848352,113.328177 182.72375,113.328177 C188.603122,113.328177 193.34875,112.096735 196.969577,109.627386 C200.587422,107.158036 202.392867,104.027237 202.392867,100.246075 C202.392867,97.6224486 201.461826,95.4662714 199.589807,93.7849335 C197.728718,92.1054433 195.527804,90.7908588 192.98309,89.8411801 C190.436389,88.8988918 186.513495,87.6933171 181.198511,86.2189132 C174.867033,84.5375753 169.672279,82.8580851 165.602327,81.1767472 C161.534362,79.497257 158.110276,77.1572411 155.344974,74.160395 C152.571723,71.1644726 151.193543,67.3555957 151.193543,62.7300689 C151.193543,56.0084127 154.013495,50.6493793 159.669298,46.6594352 C165.319139,42.6630244 172.777406,40.6666667 182.048074,40.6666667 C188.265284,40.6666667 193.771047,41.6089549 198.576294,43.5009219 C203.379553,45.3956604 207.081858,47.9924959 209.683209,51.3071334 C212.279592,54.6171519 213.581262,58.3179428 213.581262,62.4159729 L213.581262,62.8926599 C213.581262,63.9439579 213.017867,64.4705308 211.884123,64.4705308 L203.916119,64.4705308 C202.785356,64.4705308 202.21898,63.9439579 202.21898,62.8926599 L202.21898,62.4159729 C202.21898,58.8454394 200.385713,55.8485933 196.716198,53.4300534 C193.038734,51.0189041 188.093384,49.8077865 181.874187,49.8077865 C176.115046,49.8077865 171.480705,50.8840275 167.975141,53.0392809 C164.471564,55.1954582 162.719775,58.1664376 162.719775,61.9429811 C162.719775,65.5218288 164.413933,68.2470743 167.803241,70.1390413 C171.19553,72.0310083 176.452883,73.9229753 183.571325,75.8149423 C190.12836,77.60529 195.438376,79.2847802 199.508329,80.8626511 C203.578281,82.4349792 207.081858,84.7223377 210.021047,87.7182601 C212.960236,90.7151062 214.431818,94.6283739 214.431818,99.463606 C214.431818,106.291501 211.546286,111.753077 205.779195,115.848336 C200.020053,119.948214 192.389887,122 182.89565,122 C176.564171,122 170.942152,121.050321 166.024624,119.165745" id="Fill-18"></path>
                <path d="M259.082814,48.4570987 L239.751429,48.4570987 C239.292185,48.4570987 239.069582,48.6764632 239.069582,49.1113436 L239.069582,97.5389371 C239.069582,102.78829 240.292897,106.483812 242.74454,108.620691 C245.194178,110.751798 249.045615,111.819757 254.293836,111.819757 L258.56842,111.819757 C259.709512,111.819757 260.281061,112.36913 260.281061,113.463066 L260.281061,120.190243 C260.281061,121.285141 259.709512,121.833552 258.56842,121.833552 C257.202719,121.939386 255.085983,122 252.240272,122 C244.023004,122 237.807161,120.517366 233.589732,117.565566 C229.370299,114.613767 227.261584,109.140239 227.261584,101.147868 L227.261584,49.1113436 C227.261584,48.6764632 227.030959,48.4570987 226.579737,48.4570987 L216.135435,48.4570987 C215.003367,48.4570987 214.431818,47.9086875 214.431818,46.8137894 L214.431818,40.4060377 C214.431818,39.3188366 215.003367,38.7713876 216.135435,38.7713876 L226.579737,38.7713876 C227.030959,38.7713876 227.261584,38.5520231 227.261584,38.1084835 L227.261584,19.066108 C227.261584,17.9769826 227.833133,17.4285714 228.974225,17.4285714 L237.356941,17.4285714 C238.49703,17.4285714 239.069582,17.9769826 239.069582,19.066108 L239.069582,38.1084835 C239.069582,38.5520231 239.292185,38.7713876 239.751429,38.7713876 L259.082814,38.7713876 C260.223906,38.7713876 260.795455,39.3188366 260.795455,40.4060377 L260.795455,46.8137894 C260.795455,47.9086875 260.223906,48.4570987 259.082814,48.4570987" id="Fill-20"></path>
                <path d="M333.885584,120.50958 L312.466185,72.7013515 C312.249347,72.263565 311.925992,72.0398075 311.49612,72.0398075 L292.02636,72.0398075 C291.484266,72.0398075 291.212267,72.3170722 291.212267,72.8696561 L291.212267,120.007585 C291.212267,120.563088 291.022059,121.034924 290.644494,121.421149 C290.263126,121.811265 289.806625,122 289.26453,122 L274.3341,122 C273.794859,122 273.333603,121.811265 272.955088,121.421149 C272.57467,121.034924 272.386364,120.563088 272.386364,120.007585 L272.386364,7.79902012 C272.386364,7.24643631 272.57467,6.77459977 272.955088,6.39032053 C273.333603,6.00409558 273.794859,5.80952381 274.3341,5.80952381 L318.958007,5.80952381 C325.56015,5.80952381 331.395752,7.22016912 336.487638,10.0365954 C341.567161,12.8588589 345.51304,16.8436887 348.333835,21.9910848 C351.140364,27.1365352 352.552663,33.0291411 352.552663,39.6669569 C352.552663,47.3058445 350.630604,53.8035686 346.787438,59.1727765 C342.946174,64.5419844 337.625086,68.2787352 330.804203,70.3781646 C330.587365,70.3781646 330.425688,70.4880976 330.322024,70.7089366 C330.209801,70.933667 330.209801,71.1545059 330.322024,71.3704806 L353.199373,119.677786 C353.415259,120.122382 353.522727,120.453154 353.522727,120.670102 C353.522727,121.563186 352.927374,122 351.741423,122 L336.157626,122 C335.075339,122 334.321161,121.501896 333.885584,120.50958 M291.212267,23.2343984 L291.212267,56.2687929 C291.212267,56.8233225 291.484266,57.1005872 292.02636,57.1005872 L316.36356,57.1005872 C321.561012,57.1005872 325.745603,55.5187188 328.94206,52.3637376 C332.128055,49.2107021 333.729613,45.0361648 333.729613,39.8352615 C333.729613,34.6343582 332.128055,30.4277166 328.94206,27.2192282 C325.745603,24.0107397 321.561012,22.4026041 316.36356,22.4026041 L292.02636,22.4026041 C291.484266,22.4026041 291.212267,22.6798688 291.212267,23.2343984" id="Fill-22"></path>
                <path d="M412.914062,44.0665221 C418.014336,46.3258567 421.945174,49.4399036 424.715924,53.4023316 C427.473587,57.3575239 428.863636,61.8608173 428.863636,66.902263 L428.863636,118.909469 C428.863636,119.423201 428.675741,119.861863 428.30743,120.221837 C427.92977,120.586333 427.473587,120.761798 426.949164,120.761798 L412.275593,120.761798 C411.737147,120.761798 411.289378,120.586333 410.920131,120.221837 C410.543407,119.861863 410.362055,119.423201 410.362055,118.909469 L410.362055,113.97294 C410.362055,113.665425 410.250814,113.483629 410.043288,113.434788 C409.830153,113.38233 409.616084,113.459209 409.402949,113.665425 C404.189564,119.216985 396.641981,122 386.759265,122 C378.780738,122 372.211892,120.045468 367.052725,116.134594 C361.896363,112.221911 359.318182,106.407154 359.318182,98.6948457 C359.318182,90.6704995 362.219804,84.4161764 368.014635,79.9454434 C373.808532,75.4701881 381.96841,73.2334649 392.495204,73.2334649 L409.561865,73.2334649 C410.094702,73.2334649 410.362055,72.9747901 410.362055,72.4619627 L410.362055,68.7573052 C410.362055,64.7424187 409.133727,61.6356075 406.693896,59.4187823 C404.240978,57.2091928 400.573754,56.1030414 395.688484,56.1030414 C391.644535,56.1030414 388.373666,56.792238 385.874943,58.1805801 C383.37622,59.574349 381.812298,61.5035567 381.169155,63.9709165 C380.851323,65.2082143 380.105351,65.7219461 378.93685,65.5157298 L363.464959,63.663401 C362.931188,63.5621018 362.486222,63.3812103 362.116976,63.1234399 C361.737447,62.8656695 361.606575,62.5328292 361.712207,62.1185877 C362.562876,55.8452711 366.040336,50.6970994 372.160478,46.6903531 C378.273142,42.67818 385.96001,40.6666667 395.209866,40.6666667 C401.90678,40.6666667 407.810983,41.8053786 412.914062,44.0665221 M404.779424,103.787845 C408.498062,101.11246 410.362055,97.7153183 410.362055,93.6045594 L410.362055,86.3508109 C410.362055,85.8352701 410.094702,85.5774998 409.561865,85.5774998 L396.162428,85.5774998 C390.527448,85.5774998 386.088078,86.6085812 382.843384,88.6616996 C379.597755,90.7202446 377.984288,93.6534001 377.984288,97.457548 C377.984288,100.7552 379.229443,103.299438 381.728166,105.100213 C384.225019,106.895561 387.443539,107.800019 391.378117,107.800019 C396.590567,107.800019 401.055176,106.464135 404.779424,103.787845" id="Fill-24"></path>
                <path d="M449.510436,20.5848668 C447.333942,18.3319444 446.25,15.4628804 446.25,11.9756968 C446.25,8.49444706 447.333942,5.62340505 449.510436,3.37246064 C451.689801,1.12745019 454.46519,0 457.841387,0 C461.209931,0 463.984364,1.12745019 466.160858,3.37246064 C468.341179,5.62340505 469.431818,8.49444706 469.431818,11.9756968 C469.431818,15.4628804 468.341179,18.3319444 466.160858,20.5848668 C463.984364,22.8358112 461.209931,23.9583164 457.841387,23.9583164 C454.46519,23.9583164 451.689801,22.8358112 449.510436,20.5848668 M448.614008,121.409572 C448.236111,121.015954 448.041901,120.536293 448.041901,119.974546 L448.041901,37.6261775 C448.041901,37.0654193 448.236111,36.5916925 448.614008,36.19214 C448.993818,35.8024773 449.457818,35.6017121 450.001224,35.6017121 L465.020471,35.6017121 C465.56579,35.6017121 466.025006,35.8024773 466.407687,36.19214 C466.788454,36.5916925 466.979794,37.0654193 466.979794,37.6261775 L466.979794,119.974546 C466.979794,120.536293 466.788454,121.015954 466.407687,121.409572 C466.025006,121.808136 465.56579,122 465.020471,122 L450.001224,122 C449.457818,122 448.993818,121.808136 448.614008,121.409572" id="Fill-26"></path>
                <path d="M487.518496,121.41825 C487.050059,121.032038 486.818182,120.559244 486.818182,120.006679 L486.818182,7.80187197 C486.818182,7.24736101 487.050059,6.77456745 487.518496,6.39127391 C487.983421,6.00700754 488.543204,5.80952381 489.216584,5.80952381 L507.601598,5.80952381 C508.259753,5.80952381 508.827734,6.00700754 509.300857,6.39127391 C509.765781,6.77456745 510,7.24736101 510,7.80187197 L510,120.006679 C510,120.559244 509.765781,121.032038 509.300857,121.41825 C508.827734,121.810299 508.259753,122 507.601598,122 L489.216584,122 C488.543204,122 487.983421,121.810299 487.518496,121.41825" id="Fill-28"></path>
            </g>
        </g>
        <g id="Group-15" transform="translate(137.000000, 52.000000)">
            <path d="M17.0356605,341 L72.9763938,341 C82.3817177,341 90,333.376456 90,323.97509 L90,268.027923 C90,258.626557 82.3817177,251 72.9763938,251 L17.0356605,251 C7.62430939,251 0,258.626557 0,268.027923 L0,323.97509 C0,333.376456 7.62430939,341 17.0356605,341" id="Fill-1" fill="#049474"></path>
            <path d="M142.02377,217 L197.964178,217 C207.373954,217 215,209.376967 215,199.97623 L215,144.032809 C215,134.623033 207.373954,127 197.964178,127 L142.02377,127 C132.623033,127 125,134.623033 125,144.032809 L125,199.97623 C125,209.376967 132.623033,217 142.02377,217" id="Fill-3" fill="#FCC200"></path>
            <path d="M17.0356605,217 L72.9763938,217 C82.3817177,217 90,209.376967 90,199.97623 L90,144.032809 C90,134.623033 82.3817177,127 72.9763938,127 L17.0356605,127 C7.62430939,127 0,134.623033 0,144.032809 L0,199.97623 C0,209.376967 7.62430939,217 17.0356605,217" id="Fill-5" fill="#049474"></path>
            <g id="Group-9">
                <mask id="mask-2" fill="white">
                    <use xlink:href="#path-1"></use>
                </mask>
                <g id="Clip-8"></g>
                <path d="M18.0460947,90.205071 L73.8695471,90.205071 C83.254647,90.205071 90.8625621,82.5971559 90.8625621,73.2150631 L90.8625621,17.3916107 C90.8625621,8.00951786 83.254647,0.398595751 73.8695471,0.398595751 L18.0460947,0.398595751 C8.66400189,0.398595751 1.05608686,8.00951786 1.05608686,17.3916107 L1.05608686,73.2150631 C1.05608686,82.5971559 8.66400189,90.205071 18.0460947,90.205071" id="Fill-7" fill="#049474" mask="url(#mask-2)"></path>
            </g>
            <path d="M142.02377,341 L197.964178,341 C207.373954,341 215,333.377732 215,323.97794 L215,268.02206 C215,258.622268 207.373954,251 197.964178,251 L142.02377,251 C132.623033,251 125,258.622268 125,268.02206 L125,323.97794 C125,333.377732 132.623033,341 142.02377,341" id="Fill-10" fill="#049474"></path>
            <g id="Group-14" transform="translate(251.000000, 251.000000)">
                <mask id="mask-4" fill="white">
                    <use xlink:href="#path-3"></use>
                </mask>
                <g id="Clip-13"></g>
                <path d="M17.7822305,90.9996967 L73.6056829,90.9996967 C82.9877758,90.9996967 90.5896766,83.3253633 90.5896766,73.8613633 L90.5896766,17.5232633 C90.5896766,8.05926333 82.9877758,0.38493 73.6056829,0.38493 L17.7822305,0.38493 C8.39111644,0.38493 0.783201416,8.05926333 0.783201416,17.5232633 L0.783201416,73.8613633 C0.783201416,83.3253633 8.39111644,90.9996967 17.7822305,90.9996967" id="Fill-12" fill="#E4006D" mask="url(#mask-4)"></path>
            </g>
        </g>
    </g>
</svg>