<svg xmlns="http://www.w3.org/2000/svg" xmlns:xlink="http://www.w3.org/1999/xlink" version="1.1" x="0" y="0" viewBox="0 0 577.44 555.47" xml:space="preserve" enable-background="new 0 0 577.43744 555.47498">
  <style type="text/css">
    .st0{fill:#75C5E2;}
    .st1{fill:#494949;}
  </style>
  <path stroke="null" d="m273.73 18.74c8.7-3.39 24.05-3.39 32.75 0l246.73 102.96-246.73 102.85c-8.7 3.39-24.05 3.39-32.75 0l-246.73-104.02 246.73-101.79zM273.1 323.2 273.1 323.2" class="st0"/>
  <path d="m273.1 323.2c8.5 3.2 23.5 3.2 32 0l258.1-102.4c5.3-2.1 11.7 0 13.9 6.4 2.1 5.3 0 11.7-6.4 13.9l-258.1 103.5c-6.4 2.1-14.9 4.3-23.5 4.3-8.5 0-17.1-1.1-23.5-4.3l-258.1-104.6c-5.3-2.1-8.5-8.5-6.4-13.9 2.1-5.3 8.5-8.5 13.9-6.4l258.1 103.5z" class="st1"/>
  <path d="m305.1 24.6c-8.5-3.2-23.5-3.2-32 0l-241.1 96 241.1 97c8.5 3.2 23.5 3.2 32 0l241.1-97.1-241.1-95.9zm-39.5 212.2l-246.4-98.1c-12.8-5.3-14.9-12.8-14.9-18.1 0-4.3 2.1-12.8 14.9-18.1l246.4-98.2c12.8-5.3 34.1-5.3 48 0l246.4 98.1c12.8 5.3 14.9 13.9 14.9 18.1s-2.1 12.8-14.9 18.1l-246.4 98.1c-6.4 2.1-14.9 4.3-23.5 4.3s-18.1-1-24.5-4.2z" class="st1"/>
  <path d="m312.6 447c-6.4 2.1-14.9 4.3-23.5 4.3-8.5 0-17.1-1.1-23.5-4.3l-258.1-103.5c-5.3-2.1-8.5-8.5-6.4-13.9s8.5-8.5 13.9-6.4l258.1 103.5c8.5 3.2 23.5 3.2 32 0l258.1-102.4c5.3-2.1 11.7 0 13.9 6.4 2.1 5.3 0 11.7-6.4 13.9l-258.1 102.4z" class="st1"/>
  <path d="m273.1 531.2c8.5 3.2 23.5 3.2 32 0l258.1-103.5c5.3-2.1 11.7 0 13.9 6.4 2.1 5.3 0 11.7-6.4 13.9l-258.1 103.5c-6.4 2.1-14.9 4.3-23.5 4.3-8.5 0-17.1-1.1-23.5-4.3l-258.1-103.5c-5.3-2.1-8.5-8.5-6.4-13.9s8.5-8.5 13.9-6.4l258.1 103.5z" class="st1"/>
</svg>
