<svg version="1.1" id="Layer_1" xmlns="http://www.w3.org/2000/svg" xmlns:xlink="http://www.w3.org/1999/xlink" x="0px" y="0px"
	 width="100%" viewBox="0 0 500 500" enable-background="new 0 0 500 500" xml:space="preserve">
<path fill="#F0EBE3" opacity="1.000000" stroke="none" 
	d="
M261.000000,501.000000 
	C174.000015,501.000000 87.500038,501.000000 1.000046,501.000000 
	C1.000031,334.333405 1.000031,167.666794 1.000015,1.000136 
	C167.666565,1.000091 334.333130,1.000091 500.999756,1.000045 
	C500.999847,167.666519 500.999847,334.333038 500.999939,500.999786 
	C421.166656,501.000000 341.333344,501.000000 261.000000,501.000000 
M163.068649,259.468842 
	C184.382767,312.191925 205.730301,364.901550 226.931198,417.670135 
	C228.257355,420.970856 229.835632,422.134399 233.422470,422.091614 
	C250.416168,421.888763 267.416931,421.819305 284.407440,422.127991 
	C288.687439,422.205780 290.366913,420.625519 291.849945,416.945038 
	C336.409760,306.362213 381.073090,195.821045 425.712372,85.270233 
	C429.181519,76.678780 432.594299,68.064560 436.217926,58.998932 
	C418.448395,58.998932 401.305603,58.987637 384.162811,59.002560 
	C370.825439,59.014172 363.645172,63.981205 358.807098,76.538315 
	C336.867615,133.481476 314.723480,190.347092 293.095551,247.408371 
	C283.028839,273.967529 273.874908,300.875549 264.533112,327.704071 
	C262.675079,333.040192 261.845520,338.734406 260.254883,345.479736 
	C259.527802,343.388702 259.188507,342.512054 258.916229,341.615082 
	C255.054199,328.891235 251.909256,315.897156 247.220093,303.486328 
	C229.589371,256.823151 211.474030,210.342926 193.504456,163.807968 
	C182.063568,134.179993 170.531326,104.587288 159.100998,74.955246 
	C155.622696,65.938103 149.437103,59.612556 139.702255,59.305222 
	C120.748161,58.706837 101.761803,59.129906 82.120605,59.129906 
	C109.132980,125.926102 135.986465,192.329391 163.068649,259.468842 
M236.223999,121.739571 
	C232.637268,137.263565 232.135223,152.987518 232.895905,168.831802 
	C232.981552,170.615891 231.826080,172.914612 230.502975,174.223373 
	C226.965179,177.722839 223.084045,180.888168 219.223373,184.044449 
	C215.719299,186.909164 213.916641,190.348816 214.855240,194.925186 
	C216.988892,205.328598 219.043533,215.750763 221.428772,226.096497 
	C221.699799,227.272034 223.876938,228.008087 225.170242,228.947922 
	C225.933929,227.718887 227.173584,226.563278 227.376495,225.247772 
	C228.135895,220.324127 228.364700,215.317322 229.157547,210.400574 
	C229.945663,205.513245 232.788300,202.175064 237.813232,200.569229 
	C240.341354,210.621399 244.671753,218.156799 256.801636,215.687378 
	C257.156372,220.239304 257.466278,224.215546 257.776154,228.191772 
	C258.467346,228.148209 259.158539,228.104645 259.849762,228.061081 
	C260.028015,224.089493 260.206268,220.117889 260.409546,215.589386 
	C272.979401,217.862778 277.226471,210.070282 279.427124,199.833801 
	C285.301239,202.111710 288.028473,206.351379 288.811035,211.967850 
	C289.406494,216.241440 289.567413,220.581238 290.298645,224.826645 
	C290.507080,226.037018 291.975220,227.823410 292.970093,227.894974 
	C294.092468,227.975708 296.193634,226.583282 296.389343,225.551025 
	C298.521332,214.305466 300.576324,203.033417 302.093811,191.693848 
	C302.378296,189.567871 300.726715,186.577972 299.048706,184.914902 
	C295.046051,180.947906 290.304382,177.730225 286.261078,173.798645 
	C284.735199,172.314911 283.398102,169.642487 283.521759,167.605850 
	C285.405853,136.573547 277.772034,107.962692 262.097046,81.329582 
	C260.786438,79.102760 259.200806,77.037796 257.209473,74.114494 
	C246.748154,88.814247 240.873032,104.543320 236.223999,121.739571 
M260.945374,265.462311 
	C260.499908,258.712769 261.525818,251.800095 259.983917,245.172104 
	C259.455231,245.223068 258.926544,245.274033 258.397858,245.324997 
	C258.397858,255.975708 258.397858,266.626404 258.397858,277.277130 
	C259.126770,277.286682 259.855652,277.296204 260.584564,277.305756 
	C260.692078,273.685883 260.799622,270.065979 260.945374,265.462311 
M270.112396,261.052307 
	C270.625305,262.079529 271.138184,263.106750 272.172089,265.177490 
	C274.055756,256.305054 273.297882,244.261124 270.100037,241.267181 
	C270.100037,248.164917 270.100037,254.149811 270.112396,261.052307 
M248.069077,245.129913 
	C247.630585,244.179932 247.192078,243.229950 246.443848,241.608917 
	C244.088196,247.819839 244.785248,261.697021 248.061783,264.831604 
	C248.061783,257.980621 248.061783,251.998901 248.069077,245.129913 
M245.137955,232.051224 
	C245.258072,234.697418 245.378174,237.343613 245.498276,239.989807 
	C248.919067,235.506180 248.563339,232.803329 245.137955,232.051224 
z"/>
<path fill="#F62D33" opacity="1.000000" stroke="none" 
	d="
M162.954300,259.100769 
	C135.986465,192.329391 109.132980,125.926102 82.120605,59.129906 
	C101.761803,59.129906 120.748161,58.706837 139.702255,59.305222 
	C149.437103,59.612556 155.622696,65.938103 159.100998,74.955246 
	C170.531326,104.587288 182.063568,134.179993 193.504456,163.807968 
	C211.474030,210.342926 229.589371,256.823151 247.220093,303.486328 
	C251.909256,315.897156 255.054199,328.891235 258.916229,341.615082 
	C259.188507,342.512054 259.527802,343.388702 260.254883,345.479736 
	C261.845520,338.734406 262.675079,333.040192 264.533112,327.704071 
	C273.874908,300.875549 283.028839,273.967529 293.095551,247.408371 
	C314.723480,190.347092 336.867615,133.481476 358.807098,76.538315 
	C363.645172,63.981205 370.825439,59.014172 384.162811,59.002560 
	C401.305603,58.987637 418.448395,58.998932 436.217926,58.998932 
	C432.594299,68.064560 429.181519,76.678780 425.712372,85.270233 
	C381.073090,195.821045 336.409760,306.362213 291.849945,416.945038 
	C290.366913,420.625519 288.687439,422.205780 284.407440,422.127991 
	C267.416931,421.819305 250.416168,421.888763 233.422470,422.091614 
	C229.835632,422.134399 228.257355,420.970856 226.931198,417.670135 
	C205.730301,364.901550 184.382767,312.191925 162.954300,259.100769 
z"/>
<path fill="#623B39" opacity="1.000000" stroke="none" 
	d="
M236.349564,121.342285 
	C240.873032,104.543320 246.748154,88.814247 257.209473,74.114494 
	C259.200806,77.037796 260.786438,79.102760 262.097046,81.329582 
	C277.772034,107.962692 285.405853,136.573547 283.521759,167.605850 
	C283.398102,169.642487 284.735199,172.314911 286.261078,173.798645 
	C290.304382,177.730225 295.046051,180.947906 299.048706,184.914902 
	C300.726715,186.577972 302.378296,189.567871 302.093811,191.693848 
	C300.576324,203.033417 298.521332,214.305466 296.389343,225.551025 
	C296.193634,226.583282 294.092468,227.975708 292.970093,227.894974 
	C291.975220,227.823410 290.507080,226.037018 290.298645,224.826645 
	C289.567413,220.581238 289.406494,216.241440 288.811035,211.967850 
	C288.028473,206.351379 285.301239,202.111710 279.427124,199.833801 
	C277.226471,210.070282 272.979401,217.862778 260.409546,215.589386 
	C260.206268,220.117889 260.028015,224.089493 259.849762,228.061081 
	C259.158539,228.104645 258.467346,228.148209 257.776154,228.191772 
	C257.466278,224.215546 257.156372,220.239304 256.801636,215.687378 
	C244.671753,218.156799 240.341354,210.621399 237.813232,200.569229 
	C232.788300,202.175064 229.945663,205.513245 229.157547,210.400574 
	C228.364700,215.317322 228.135895,220.324127 227.376495,225.247772 
	C227.173584,226.563278 225.933929,227.718887 225.170242,228.947922 
	C223.876938,228.008087 221.699799,227.272034 221.428772,226.096497 
	C219.043533,215.750763 216.988892,205.328598 214.855240,194.925186 
	C213.916641,190.348816 215.719299,186.909164 219.223373,184.044449 
	C223.084045,180.888168 226.965179,177.722839 230.502975,174.223373 
	C231.826080,172.914612 232.981552,170.615891 232.895905,168.831802 
	C232.135223,152.987518 232.637268,137.263565 236.349564,121.342285 
M235.302048,155.501053 
	C235.910904,170.427505 237.031387,185.285324 240.955444,199.763596 
	C246.339462,199.763596 251.439178,199.763596 257.388306,199.763596 
	C257.388306,189.788406 257.388306,180.077652 257.388306,170.366913 
	C258.065948,170.362213 258.743622,170.357513 259.421265,170.352814 
	C259.421265,180.105240 259.421265,189.857666 259.421265,199.858215 
	C265.061371,199.858215 269.537750,200.015778 273.986969,199.737854 
	C274.991241,199.675140 276.555847,198.224762 276.758331,197.195862 
	C282.064270,170.234406 282.565918,143.423874 274.902435,116.676865 
	C272.988129,109.995667 269.342987,106.659348 262.883789,106.410423 
	C257.946198,106.220139 252.932831,106.563721 248.035324,107.253304 
	C244.605087,107.736305 242.456299,109.959274 241.391449,113.703857 
	C237.591888,127.065117 235.547729,140.631363 235.302048,155.501053 
M234.830597,183.732101 
	C234.435486,181.318161 234.040375,178.904221 233.515182,175.695511 
	C229.864197,178.804520 226.781784,181.777893 223.349091,184.268463 
	C218.539383,187.758133 216.507477,191.894135 217.961365,197.938278 
	C220.029800,206.537140 221.604462,215.254776 223.390060,223.921661 
	C223.813812,223.850647 224.237564,223.779633 224.661316,223.708603 
	C224.795639,221.460785 224.767044,219.188812 225.096039,216.969864 
	C225.944901,211.244568 225.772430,204.587631 231.227631,201.237640 
	C237.005966,197.689178 237.165726,193.465958 235.400803,188.048859 
	C235.046265,186.960709 235.073090,185.748337 234.830597,183.732101 
M296.918243,210.324280 
	C297.749878,204.742065 298.701202,199.173492 299.340485,193.569336 
	C299.532959,191.882095 299.485901,189.447769 298.472717,188.465988 
	C293.805176,183.943130 288.757507,179.812592 283.275757,175.045288 
	C282.176666,182.173492 281.121429,188.055695 280.478516,193.982651 
	C280.346954,195.195419 281.428528,197.181000 282.517456,197.779404 
	C288.898315,201.285797 291.219086,207.035889 292.079895,213.759171 
	C292.448883,216.641251 292.908997,219.511688 293.327667,222.387421 
	C293.592987,222.429794 293.858307,222.472183 294.123627,222.514572 
	C295.006104,218.731384 295.888611,214.948181 296.918243,210.324280 
M247.629547,97.150993 
	C246.713852,99.518425 245.798172,101.885864 245.033020,103.864105 
	C253.668304,103.864105 261.745819,103.864105 270.605530,103.864105 
	C266.378754,95.699448 262.245300,87.715057 258.111877,79.730659 
	C257.545227,79.751556 256.978607,79.772446 256.411987,79.793343 
	C253.592178,85.349373 250.772369,90.905396 247.629547,97.150993 
z"/>
<path fill="#684544" opacity="1.000000" stroke="none" 
	d="
M260.926270,265.954224 
	C260.799622,270.065979 260.692078,273.685883 260.584564,277.305756 
	C259.855652,277.296204 259.126770,277.286682 258.397858,277.277130 
	C258.397858,266.626404 258.397858,255.975708 258.397858,245.324997 
	C258.926544,245.274033 259.455231,245.223068 259.983917,245.172104 
	C261.525818,251.800095 260.499908,258.712769 260.926270,265.954224 
z"/>
<path fill="#664140" opacity="1.000000" stroke="none" 
	d="
M270.106201,260.593506 
	C270.100037,254.149811 270.100037,248.164917 270.100037,241.267181 
	C273.297882,244.261124 274.055756,256.305054 272.172089,265.177490 
	C271.138184,263.106750 270.625305,262.079529 270.106201,260.593506 
z"/>
<path fill="#654140" opacity="1.000000" stroke="none" 
	d="
M248.065430,245.573547 
	C248.061783,251.998901 248.061783,257.980621 248.061783,264.831604 
	C244.785248,261.697021 244.088196,247.819839 246.443848,241.608917 
	C247.192078,243.229950 247.630585,244.179932 248.065430,245.573547 
z"/>
<path fill="#6B4847" opacity="1.000000" stroke="none" 
	d="
M245.391129,231.702423 
	C248.563339,232.803329 248.919067,235.506180 245.498276,239.989807 
	C245.378174,237.343613 245.258072,234.697418 245.391129,231.702423 
z"/>
<path fill="#FCFCFC" opacity="1.000000" stroke="none" 
	d="
M235.385956,155.004639 
	C235.547729,140.631363 237.591888,127.065117 241.391449,113.703857 
	C242.456299,109.959274 244.605087,107.736305 248.035324,107.253304 
	C252.932831,106.563721 257.946198,106.220139 262.883789,106.410423 
	C269.342987,106.659348 272.988129,109.995667 274.902435,116.676865 
	C282.565918,143.423874 282.064270,170.234406 276.758331,197.195862 
	C276.555847,198.224762 274.991241,199.675140 273.986969,199.737854 
	C269.537750,200.015778 265.061371,199.858215 259.421265,199.858215 
	C259.421265,189.857666 259.421265,180.105240 259.421265,170.352814 
	C258.743622,170.357513 258.065948,170.362213 257.388306,170.366913 
	C257.388306,180.077652 257.388306,189.788406 257.388306,199.763596 
	C251.439178,199.763596 246.339462,199.763596 240.955444,199.763596 
	C237.031387,185.285324 235.910904,170.427505 235.385956,155.004639 
M245.893738,145.377884 
	C246.599442,146.292160 247.234070,147.273529 248.022919,148.109329 
	C251.840302,152.153900 256.541687,153.152924 261.635956,151.350800 
	C266.749298,149.541962 269.710724,145.726913 270.145477,140.222656 
	C270.597107,134.504349 268.161499,130.246185 263.119293,127.630959 
	C258.237885,125.099121 253.454590,125.643776 249.233124,129.104370 
	C244.111008,133.303329 243.279968,138.712769 245.893738,145.377884 
z"/>
<path fill="#F9CD64" opacity="1.000000" stroke="none" 
	d="
M234.877335,184.162659 
	C235.073090,185.748337 235.046265,186.960709 235.400803,188.048859 
	C237.165726,193.465958 237.005966,197.689178 231.227631,201.237640 
	C225.772430,204.587631 225.944901,211.244568 225.096039,216.969864 
	C224.767044,219.188812 224.795639,221.460785 224.661316,223.708603 
	C224.237564,223.779633 223.813812,223.850647 223.390060,223.921661 
	C221.604462,215.254776 220.029800,206.537140 217.961365,197.938278 
	C216.507477,191.894135 218.539383,187.758133 223.349091,184.268463 
	C226.781784,181.777893 229.864197,178.804520 233.515182,175.695511 
	C234.040375,178.904221 234.435486,181.318161 234.877335,184.162659 
z"/>
<path fill="#F9CD64" opacity="1.000000" stroke="none" 
	d="
M296.844666,210.744629 
	C295.888611,214.948181 295.006104,218.731384 294.123627,222.514572 
	C293.858307,222.472183 293.592987,222.429794 293.327667,222.387421 
	C292.908997,219.511688 292.448883,216.641251 292.079895,213.759171 
	C291.219086,207.035889 288.898315,201.285797 282.517456,197.779404 
	C281.428528,197.181000 280.346954,195.195419 280.478516,193.982651 
	C281.121429,188.055695 282.176666,182.173492 283.275757,175.045288 
	C288.757507,179.812592 293.805176,183.943130 298.472717,188.465988 
	C299.485901,189.447769 299.532959,191.882095 299.340485,193.569336 
	C298.701202,199.173492 297.749878,204.742065 296.844666,210.744629 
z"/>
<path fill="#F26161" opacity="1.000000" stroke="none" 
	d="
M247.791046,96.806213 
	C250.772369,90.905396 253.592178,85.349373 256.411987,79.793343 
	C256.978607,79.772446 257.545227,79.751556 258.111877,79.730659 
	C262.245300,87.715057 266.378754,95.699448 270.605530,103.864105 
	C261.745819,103.864105 253.668304,103.864105 245.033020,103.864105 
	C245.798172,101.885864 246.713852,99.518425 247.791046,96.806213 
z"/>
<path fill="#634445" opacity="1.000000" stroke="none" 
	d="
M245.670776,145.070084 
	C243.279968,138.712769 244.111008,133.303329 249.233124,129.104370 
	C253.454590,125.643776 258.237885,125.099121 263.119293,127.630959 
	C268.161499,130.246185 270.597107,134.504349 270.145477,140.222656 
	C269.710724,145.726913 266.749298,149.541962 261.635956,151.350800 
	C256.541687,153.152924 251.840302,152.153900 248.022919,148.109329 
	C247.234070,147.273529 246.599442,146.292160 245.670776,145.070084 
M261.967865,130.258987 
	C256.420349,128.383881 252.247360,129.259079 249.507492,133.038452 
	C246.839249,136.719040 246.361206,140.651764 248.938324,144.567245 
	C251.364731,148.253769 255.190155,150.300690 259.168427,148.718628 
	C262.171967,147.524200 265.389587,144.732330 266.666473,141.837448 
	C268.532959,137.605774 266.691650,133.428757 261.967865,130.258987 
z"/>
<path fill="#8CDEF7" opacity="1.000000" stroke="none" 
	d="
M262.291199,130.471619 
	C266.691650,133.428757 268.532959,137.605774 266.666473,141.837448 
	C265.389587,144.732330 262.171967,147.524200 259.168427,148.718628 
	C255.190155,150.300690 251.364731,148.253769 248.938324,144.567245 
	C246.361206,140.651764 246.839249,136.719040 249.507492,133.038452 
	C252.247360,129.259079 256.420349,128.383881 262.291199,130.471619 
M259.097473,132.133575 
	C257.146729,132.629196 255.195969,133.124817 253.245224,133.620438 
	C253.391678,134.138412 253.538116,134.656372 253.684570,135.174347 
	C256.383026,135.347397 259.081451,135.520432 262.985992,135.770828 
	C261.443848,134.133484 260.631866,133.271378 259.097473,132.133575 
z"/>
<path fill="#5C4042" opacity="1.000000" stroke="none" 
	d="
M259.458679,132.271423 
	C260.631866,133.271378 261.443848,134.133484 262.985992,135.770828 
	C259.081451,135.520432 256.383026,135.347397 253.684570,135.174347 
	C253.538116,134.656372 253.391678,134.138412 253.245224,133.620438 
	C255.195969,133.124817 257.146729,132.629196 259.458679,132.271423 
z"/>
</svg>