<svg xmlns="http://www.w3.org/2000/svg" xmlns:xlink="http://www.w3.org/1999/xlink" viewBox="0 0 1920 429.89"><defs><style>.cls-1{fill:url(#linear-gradient);}.cls-2{fill:url(#linear-gradient-2);}.cls-3{fill:url(#linear-gradient-3);}.cls-36,.cls-4{opacity:0.61;}.cls-20,.cls-21,.cls-22,.cls-23,.cls-24,.cls-26,.cls-33,.cls-34,.cls-36,.cls-37,.cls-38,.cls-39,.cls-4{isolation:isolate;}.cls-4{fill:url(#radial-gradient);}.cls-5{fill:url(#linear-gradient-4);}.cls-6{fill:url(#linear-gradient-5);}.cls-7{fill:url(#linear-gradient-6);}.cls-8{fill:url(#linear-gradient-7);}.cls-9{fill:url(#linear-gradient-8);}.cls-10{fill:url(#linear-gradient-9);}.cls-11{fill:url(#linear-gradient-10);}.cls-12{fill:url(#linear-gradient-11);}.cls-13{fill:url(#linear-gradient-12);}.cls-14{fill:url(#linear-gradient-13);}.cls-15{fill:url(#linear-gradient-14);}.cls-16{opacity:0.75;}.cls-17{fill:url(#linear-gradient-15);}.cls-18{fill:url(#linear-gradient-16);}.cls-19{fill:url(#linear-gradient-17);}.cls-20{opacity:0.78;fill:url(#linear-gradient-18);}.cls-21{opacity:0.84;fill:url(#linear-gradient-19);}.cls-22{opacity:0.82;fill:url(#linear-gradient-20);}.cls-23,.cls-29{opacity:0.35;}.cls-23{fill:url(#linear-gradient-21);}.cls-24{opacity:0.8;fill:url(#linear-gradient-22);}.cls-25{fill:url(#linear-gradient-23);}.cls-26{opacity:0.58;fill:url(#linear-gradient-24);}.cls-27{fill:url(#linear-gradient-25);}.cls-28{fill:url(#linear-gradient-26);}.cls-30{fill:url(#linear-gradient-27);}.cls-31{fill:url(#linear-gradient-28);}.cls-32{fill:url(#linear-gradient-29);}.cls-33{opacity:0.74;fill:url(#linear-gradient-30);}.cls-34{opacity:0.79;fill:url(#linear-gradient-31);}.cls-35{fill:url(#linear-gradient-32);}.cls-36{fill:url(#radial-gradient-2);}.cls-37{opacity:0.44;fill:url(#radial-gradient-3);}.cls-38{opacity:0.52;fill:url(#radial-gradient-4);}.cls-39{opacity:0.5;fill:url(#radial-gradient-5);}</style><linearGradient id="linear-gradient" x1="894.77" y1="186.7" x2="1045.01" y2="-738.32" gradientTransform="matrix(1, 0, 0, -1, 0, 51.78)" gradientUnits="userSpaceOnUse"><stop offset="0" stop-color="#fafcff"/><stop offset="1" stop-color="#b8ddfe"/></linearGradient><linearGradient id="linear-gradient-2" x1="705.84" y1="178.39" x2="577.89" y2="-606.49" gradientTransform="matrix(1, 0, 0, -1, 0, 51.78)" gradientUnits="userSpaceOnUse"><stop offset="0" stop-color="#fafcff"/><stop offset="0.36" stop-color="#e8f3ff"/><stop offset="1" stop-color="#bfe0fe"/></linearGradient><linearGradient id="linear-gradient-3" x1="694.9" y1="-328.43" x2="1920" y2="-328.43" gradientTransform="matrix(1, 0, 0, -1, 0, 51.78)" gradientUnits="userSpaceOnUse"><stop offset="0" stop-color="#fafcff" stop-opacity="0.8"/><stop offset="0.87" stop-color="#ecf5ff" stop-opacity="0.28"/><stop offset="1" stop-color="#e9f4ff" stop-opacity="0.2"/></linearGradient><radialGradient id="radial-gradient" cx="226.41" cy="29.95" r="325.91" gradientTransform="matrix(0.98, -0.18, -0.11, -0.62, -4.96, 266.35)" gradientUnits="userSpaceOnUse"><stop offset="0" stop-color="#b7c6fb"/><stop offset="0.28" stop-color="#bccafb" stop-opacity="0.72"/><stop offset="0.61" stop-color="#cad7fd" stop-opacity="0.39"/><stop offset="0.95" stop-color="#e0ebff" stop-opacity="0.05"/><stop offset="1" stop-color="#e4eeff" stop-opacity="0"/></radialGradient><linearGradient id="linear-gradient-4" x1="-44.3" y1="-107.03" x2="328.89" y2="-308.59" gradientTransform="matrix(1, 0, 0, -1, 0, 51.78)" gradientUnits="userSpaceOnUse"><stop offset="0" stop-color="#cfe4fd"/><stop offset="0.21" stop-color="#d9eafd"/><stop offset="0.75" stop-color="#bdd5f5"/><stop offset="1" stop-color="#cae0fa"/></linearGradient><linearGradient id="linear-gradient-5" x1="-162" y1="6.52" x2="331.58" y2="-113.82" gradientTransform="matrix(1, -0.08, -0.08, -1, 9.22, 160.52)" gradientUnits="userSpaceOnUse"><stop offset="0" stop-color="#dceffe"/><stop offset="0.23" stop-color="#e2f0fe"/><stop offset="1" stop-color="#dfecfd"/></linearGradient><linearGradient id="linear-gradient-6" x1="-60.53" y1="-22.65" x2="172.62" y2="-22.65" gradientTransform="matrix(1, -0.06, -0.06, -1, 8.62, 132.81)" gradientUnits="userSpaceOnUse"><stop offset="0" stop-color="#cfe4fd"/><stop offset="0.21" stop-color="#d9eafd"/><stop offset="0.75" stop-color="#c3dbf9"/><stop offset="1" stop-color="#d5e8fd"/></linearGradient><linearGradient id="linear-gradient-7" x1="-10.76" y1="90.24" x2="24.47" y2="24.92" gradientTransform="matrix(1, -0.06, -0.06, -1, 9.13, 138.83)" xlink:href="#linear-gradient-6"/><linearGradient id="linear-gradient-8" x1="-15.39" y1="47.52" x2="105.36" y2="-10.23" xlink:href="#linear-gradient-6"/><linearGradient id="linear-gradient-9" x1="264.18" y1="-1.29" x2="129.51" y2="-173.58" gradientTransform="matrix(1, -0.06, -0.06, -1, 9.13, 138.83)" gradientUnits="userSpaceOnUse"><stop offset="0" stop-color="#e0eefe" stop-opacity="0.6"/><stop offset="0.5" stop-color="#b7d4f3"/><stop offset="1" stop-color="#7badee"/></linearGradient><linearGradient id="linear-gradient-10" x1="341.63" y1="-279.11" x2="341.63" y2="-184.93" gradientTransform="matrix(1, 0, 0, -1, 0, 51.78)" gradientUnits="userSpaceOnUse"><stop offset="0" stop-color="#e0eefe" stop-opacity="0.6"/><stop offset="0.5" stop-color="#b7d4f3"/><stop offset="1" stop-color="#8ab6ee"/></linearGradient><linearGradient id="linear-gradient-11" x1="1904.57" y1="-24.2" x2="382.54" y2="-343.22" gradientTransform="matrix(1, 0, 0, -1, 0, 51.78)" gradientUnits="userSpaceOnUse"><stop offset="0" stop-color="#ebf5ff" stop-opacity="0.28"/><stop offset="0.58" stop-color="#fafcff" stop-opacity="0.8"/><stop offset="0.94" stop-color="#ecf5ff" stop-opacity="0.28"/><stop offset="1" stop-color="#e9f4ff" stop-opacity="0.2"/></linearGradient><linearGradient id="linear-gradient-12" x1="2405.11" y1="-194.64" x2="2418.69" y2="-276.41" gradientTransform="translate(3425.02 -97.41) rotate(174.55)" gradientUnits="userSpaceOnUse"><stop offset="0" stop-color="#d5eaff"/><stop offset="0.21" stop-color="#dff0ff"/><stop offset="0.75" stop-color="#c8e1ff"/><stop offset="1" stop-color="#dbeeff"/></linearGradient><linearGradient id="linear-gradient-13" x1="999.08" y1="-307.07" x2="1095.65" y2="-329.14" gradientTransform="matrix(1, 0, 0, -1, 0, 51.78)" gradientUnits="userSpaceOnUse"><stop offset="0" stop-color="#dff0ff"/><stop offset="1" stop-color="#c8e1ff"/></linearGradient><linearGradient id="linear-gradient-14" x1="979.87" y1="-314.11" x2="1139.07" y2="-311.07" gradientTransform="matrix(1, 0, 0, -1, 0, 51.78)" gradientUnits="userSpaceOnUse"><stop offset="0" stop-color="#c1dbf8" stop-opacity="0.5"/><stop offset="1" stop-color="#85b4f1"/></linearGradient><linearGradient id="linear-gradient-15" x1="1051.77" y1="-297.86" x2="1066.32" y2="-375.32" gradientTransform="matrix(1, 0, 0, -1, 0, 51.78)" gradientUnits="userSpaceOnUse"><stop offset="0" stop-color="#c1dbf8" stop-opacity="0.72"/><stop offset="1" stop-color="#7eb0f1"/></linearGradient><linearGradient id="linear-gradient-16" x1="976.21" y1="-315.53" x2="1055.73" y2="-360.66" xlink:href="#linear-gradient-15"/><linearGradient id="linear-gradient-17" x1="1674.74" y1="-144.24" x2="1678.93" y2="-185.43" gradientTransform="matrix(1, 0.03, 0.03, -1, -3.28, -11.74)" gradientUnits="userSpaceOnUse"><stop offset="0" stop-color="#d4e7fd"/><stop offset="0.21" stop-color="#dcecfe"/><stop offset="0.75" stop-color="#c8def9"/><stop offset="1" stop-color="#d9eafd"/></linearGradient><linearGradient id="linear-gradient-18" x1="1658.2" y1="-163.71" x2="1708.66" y2="-163.71" gradientTransform="matrix(1, 0.03, 0.03, -1, -3.28, -11.74)" gradientUnits="userSpaceOnUse"><stop offset="0" stop-color="#e8f2ff"/><stop offset="1" stop-color="#cfe2f9"/></linearGradient><linearGradient id="linear-gradient-19" x1="1669.96" y1="-140.38" x2="1682.57" y2="-182.2" gradientTransform="matrix(1, 0.03, 0.03, -1, -3.28, -11.74)" gradientUnits="userSpaceOnUse"><stop offset="0" stop-color="#e2f0fe" stop-opacity="0.6"/><stop offset="0.5" stop-color="#bed8f5"/><stop offset="1" stop-color="#9dc3f5"/></linearGradient><linearGradient id="linear-gradient-20" x1="1704.73" y1="-162.29" x2="1712.46" y2="-193.81" gradientTransform="matrix(1, 0.03, 0.03, -1, -3.28, -11.74)" gradientUnits="userSpaceOnUse"><stop offset="0" stop-color="#bed8f5"/><stop offset="1" stop-color="#87b5f0"/></linearGradient><linearGradient id="linear-gradient-21" x1="1678.35" y1="-182.96" x2="1678.35" y2="-158.44" gradientTransform="matrix(1, 0.03, 0.03, -1, -3.28, -11.74)" gradientUnits="userSpaceOnUse"><stop offset="0" stop-color="#e2f0fe" stop-opacity="0.6"/><stop offset="0.5" stop-color="#bed8f5"/><stop offset="1" stop-color="#87b5f0"/></linearGradient><linearGradient id="linear-gradient-22" x1="1653.29" y1="-159.22" x2="1653.29" y2="-191.44" gradientTransform="matrix(1, 0.03, 0.03, -1, -3.28, -11.74)" gradientUnits="userSpaceOnUse"><stop offset="0" stop-color="#e2f0fe" stop-opacity="0.6"/><stop offset="0.5" stop-color="#bed8f5"/><stop offset="1" stop-color="#aed0fa"/></linearGradient><linearGradient id="linear-gradient-23" x1="610.02" y1="-180.68" x2="614.61" y2="-236.34" gradientTransform="matrix(1, 0, 0, -1, 0, 51.78)" xlink:href="#linear-gradient-6"/><linearGradient id="linear-gradient-24" x1="578.12" y1="-205" x2="647.03" y2="-208.18" gradientTransform="matrix(1, 0, 0, -1, 0, 51.78)" gradientUnits="userSpaceOnUse"><stop offset="0" stop-color="#d9eafd"/><stop offset="1" stop-color="#c3dbf9"/></linearGradient><linearGradient id="linear-gradient-25" x1="640.39" y1="-198.73" x2="647.57" y2="-267.43" gradientTransform="matrix(1, 0, 0, -1, 0, 51.78)" gradientUnits="userSpaceOnUse"><stop offset="0" stop-color="#b7d4f3"/><stop offset="1" stop-color="#7badee"/></linearGradient><linearGradient id="linear-gradient-26" x1="567.37" y1="-175.55" x2="657.52" y2="-233.57" gradientTransform="matrix(1, 0, 0, -1, 0, 51.78)" xlink:href="#linear-gradient-9"/><linearGradient id="linear-gradient-27" x1="604.61" y1="-207.92" x2="604.61" y2="-233.43" gradientTransform="matrix(1, 0, 0, -1, 0, 51.78)" xlink:href="#linear-gradient-9"/><linearGradient id="linear-gradient-28" x1="1625.39" y1="-250.66" x2="1630.72" y2="-315.38" gradientTransform="translate(3420.21 74.97) rotate(-178.18)" gradientUnits="userSpaceOnUse"><stop offset="0" stop-color="#d7eafd"/><stop offset="0.21" stop-color="#e0f0fe"/><stop offset="0.75" stop-color="#cbe2fd"/><stop offset="1" stop-color="#dceefe"/></linearGradient><linearGradient id="linear-gradient-29" x1="1791.8" y1="-258.81" x2="1876.79" y2="-261.35" gradientTransform="matrix(0.99, 0.14, 0.14, -0.99, 4.75, -199.47)" gradientUnits="userSpaceOnUse"><stop offset="0" stop-color="#e0f0fe"/><stop offset="1" stop-color="#cbe2fd"/></linearGradient><linearGradient id="linear-gradient-30" x1="1659.34" y1="-278.81" x2="1675.97" y2="-340.25" gradientTransform="translate(3420.21 74.97) rotate(-178.18)" xlink:href="#linear-gradient-20"/><linearGradient id="linear-gradient-31" x1="1760.19" y1="-254.99" x2="1887.94" y2="-258.86" gradientTransform="matrix(0.99, 0.14, 0.14, -0.99, 4.75, -199.47)" gradientUnits="userSpaceOnUse"><stop offset="0" stop-color="#c5dcf7" stop-opacity="0.5"/><stop offset="1" stop-color="#87b5f0"/></linearGradient><linearGradient id="linear-gradient-32" x1="1618.91" y1="-282.34" x2="1618.91" y2="-312" gradientTransform="translate(3420.21 74.97) rotate(-178.18)" xlink:href="#linear-gradient-21"/><radialGradient id="radial-gradient-2" cx="1039.45" cy="-45.4" r="75.83" gradientTransform="matrix(1, -0.05, -0.01, -0.12, 13.06, 461.74)" gradientUnits="userSpaceOnUse"><stop offset="0" stop-color="#dbdff2"/><stop offset="0.52" stop-color="#dee4f6" stop-opacity="0.47"/><stop offset="1" stop-color="#e4eeff" stop-opacity="0"/></radialGradient><radialGradient id="radial-gradient-3" cx="1655.03" cy="-395.68" r="52.89" gradientTransform="matrix(0.86, 0.04, 0.01, -0.12, 247.81, 119.19)" xlink:href="#radial-gradient-2"/><radialGradient id="radial-gradient-4" cx="1772.41" cy="-215.58" r="65.17" gradientTransform="matrix(0.83, 0, 0, -0.14, 311.06, 307.99)" xlink:href="#radial-gradient-2"/><radialGradient id="radial-gradient-5" cx="619.84" cy="-177.83" r="49.87" gradientTransform="matrix(1, 0, 0, -0.12, -2.23, 272.13)" xlink:href="#radial-gradient-2"/></defs><title>Asset 1</title><g id="Layer_2" data-name="Layer 2"><g id="Layer_1-2" data-name="Layer 1"><path class="cls-1" d="M1596.8,19.79h-.2c-41.9-6.3-87-11.6-135.1-15.1a1741.21,1741.21,0,0,0-197.1-3.3c-119.3,4.7-237.5,22.6-356,43.2-45.2,7.8-90.4,16.1-135.8,24.2-249.7,44.4-503,83.6-772.6,21.1v340H1920V103.49S1795.9,49.89,1596.8,19.79Z"/><path class="cls-2" d="M797.6,353.59c-137.5-18.3-271-19.6-388.4-12.7h0c-146.4,8.6-267.5,29.9-339.5,46.8h0c-38.3,9-62.7,16.7-69.6,20.5V89.89c8.3,2,16.7,3.8,24.9,5.5l7.2,1.5c2.7.5,5.4,1.1,8,1.6l10.9,2.1c2.3.4,4.6.9,6.9,1.3h0c13.9,2.5,27.8,4.8,41.6,6.8h.1c27.6,4,55.2,7.1,82.5,9.3,15.7,1.3,31.4,2.2,47,2.9h.8c185.7,8.3,365.2-20.6,542.7-52.2q72.15-16.2,135.8-24.2c227.4-28.9,370.2,17.1,406.1,104.8C1357.1,253.39,1245.6,413.29,797.6,353.59Z"/><path class="cls-3" d="M1920,339.19v11.4c-52.8-4.4-106-5.9-159-5.7-57,.4-114,3-170.5,9.4-28.2,3.2-56.4,7.3-84.2,12.5l-20.9,4.1-20.7,4.6c-14,3.2-28,6.5-42.1,9.3-56.3,11.8-113.2,20.5-170.3,27.3s-114.3,11.2-171.5,14.8c-17,1-33.9,2-50.9,2.9h-335c14-1.1,28-2.2,42-3.1,57.2-3.8,114.4-6.8,171.5-9.7,114.3-5.5,228.5-10.7,341.8-23.4,56.6-6.4,113-14.6,168.8-26,14-2.7,27.8-5.9,41.7-9l21.2-4.6,21.3-4.1c28.4-5.1,57-8.9,85.6-11.8a1598.71,1598.71,0,0,1,172.2-7.4c28.7.4,57.4,1.3,86.1,2.9C1871.4,335,1895.7,336.79,1920,339.19Z"/><path class="cls-4" d="M409.2,340.89h0c-146.4,8.6-267.6,29.9-339.6,46.8h0a607.48,607.48,0,0,1-69.6-7V217.49c48.8-13,110.4-22.2,187.4-22.5,26.7-.1,55.1.8,85.6,3,15.9,1.2,32.4,2.7,49.4,4.6,2.7.8,5.3,1.7,7.8,2.5,11.7,3.9,22.2,8,31.8,12.3C440,252.29,452.9,307.89,409.2,340.89Z"/><path class="cls-5" d="M371.6,244.59c-1.1-18.5-12.8-35.7-32-50.6-13.7-10.7-31.2-20.3-51.4-28.5a386.29,386.29,0,0,0-59.3-18.3A494.77,494.77,0,0,0,163.6,137a512.87,512.87,0,0,0-70.2-1.6l-5.4.3q-6,.3-12,.9c-1.6.1-3.2.3-4.7.4l-14,1.5-4.7.6c-5.4.7-10.9,1.5-16.3,2.4-1.8.3-3.6.6-5.3.9-.6.1-1.2.3-1.8.4a22.11,22.11,0,0,0-2.5.5c-3.4.6-6.8,1.3-10.2,2s-6.6,1.3-9.8,2.1c-2,.5-3.9.9-5.9,1.4-.2.1-.5.1-.7.2v208.6c31.4,1.3,65.5.9,101.1-1.2,88-5.3,165.8-19.3,215.2-43.1a30.13,30.13,0,0,0,3.1-1.6c1.4-.7,2.7-1.4,4-2.1,20.2-10.8,34.8-23.4,42.4-38,.5-1,1-2,1.5-3.1a38.9,38.9,0,0,0,2.2-6A53,53,0,0,0,371.6,244.59Z"/><path class="cls-6" d="M288.2,165.49a388.43,388.43,0,0,0-59.2-18.3,509.58,509.58,0,0,0-140.9-11.5A514.37,514.37,0,0,0,0,148.89V274c29.7.6,62-.6,95.7-3.3,118.3-9.4,216.7-34.5,243.9-76.7C325.9,183.29,308.4,173.69,288.2,165.49Z"/><path class="cls-7" d="M62.8,121.89A309,309,0,0,0,0,134.69v50.4c19.4.8,43.1-.2,68.6-2.8,64.1-6.6,115.2-20.9,113.6-37.6S126.9,115.29,62.8,121.89Z"/><path class="cls-8" d="M27.4,134.59,12.6,57.49a1.53,1.53,0,0,1,1.3-1.7,1.73,1.73,0,0,1,1.9,1.1l18.8,76.4c.4,1.7-6.7,3.1-7.1,1.4A.1.1,0,0,1,27.4,134.59Z"/><path class="cls-9" d="M51.1,127.39s-6-27.7,5.9-28.9,32.4,24.3,32.4,24.3S82.4,132.39,51.1,127.39Z"/><path class="cls-10" d="M288.2,165.49c11.9,37.8-78,61.5-94.2,64.5a6.12,6.12,0,0,1-5.5-1.6c-3.7-3.6-12.1-11.4-24.5-22.4a2,2,0,0,1,.9-3.5c41.1-11.2,84.3-36,64.1-55.3A377.53,377.53,0,0,1,288.2,165.49Z"/><path class="cls-11" d="M369.5,262.49a48.38,48.38,0,0,1-2.2,6c-.5,1-1,2.1-1.5,3.1a70.37,70.37,0,0,1-11.6,15.8,96.49,96.49,0,0,1-10.5,9.3,154.36,154.36,0,0,1-20.3,12.9c-1.3.7-2.6,1.4-4,2.1-1,.5-2.1,1-3.1,1.6a123.28,123.28,0,0,1-2.3-16c-.2-3.1-.3-6.2-.2-9.1C314.8,234.39,361.9,223.29,369.5,262.49Z"/><path class="cls-12" d="M1831.9,204a35.07,35.07,0,0,1-3.3,8.3,69.57,69.57,0,0,1-4.7,6.9c-7.1,8.6-16.4,14.7-26,18.9a127.8,127.8,0,0,1-29.8,8.5,258.4,258.4,0,0,1-30.2,3.4,545.71,545.71,0,0,1-60-.2c-39.8-2-79.3-6.1-118.7-10.1-78.8-8-157.5-16.2-236.3-17.6a89.36,89.36,0,0,1-10.6,6.5c-4.8,2.3-9.6,4.4-14.5,6.5q-14.55,6.15-29.4,11.4-29.7,10.5-60,18.6t-61.1,14.3l-15.3,3.1-15.4,2.7c-5.2.9-10.3,1.9-15.4,2.7l-15.6,2.1c-41.6,5.3-83.2,7.4-124.8,8.6-41.6,1.4-83.1,1.6-124.7,1.7-83.1-.1-166.1-1.7-249.1-3.2L462.5,295c-30.2-.3-67.5-.6-101.5-.3-10.5.1-37.3.3-46.9.5-.2-3.2-.3-6.3-.2-9.3,12.9-.4,43.4-.6,57.8-.7,31.1-.3,63.8-.1,90.9,0l124.5,1.5c83,1.1,165.9,2.3,248.9,2,41.5-.3,82.9-.7,124.3-2.3,41.4-1.4,82.7-3.7,123.5-9.1l15.2-2.1c5.1-.8,10.2-1.9,15.2-2.8l15.2-2.8,15.2-3.2c20.2-4.2,40.2-9.2,60.1-14.7s39.6-10.9,58.9-18q14.55-5.25,28.5-11.4c4.7-2.1,9.3-4.2,13.9-6.4s16.9-9.3,16.9-9.3,79.7,3.8,119.3,7.3,79,7.9,118.3,12.3,78.7,8.8,118,11.1a575.6,575.6,0,0,0,58.7.8,252.64,252.64,0,0,0,28.9-3,123.69,123.69,0,0,0,27.3-7.5c8.5-3.6,16.3-8.7,22-15.5a47,47,0,0,0,3.8-5.3,22.1,22.1,0,0,0,2.3-5.5,27.68,27.68,0,0,0,.2-12.5c-1.6-8.7-6.1-17.2-11.5-24.9a144.8,144.8,0,0,0-19.1-21.6c-14.2-13.3-30.2-24.7-47-34.8a425,425,0,0,0-52.6-26.6c-36.2-15.5-74.2-26.7-112.8-34.9a798.84,798.84,0,0,0-117.3-15.9l.2-3.4c79.2,3.4,158.7,17,232.9,47.1a441.13,441.13,0,0,1,54,26.3c17.4,10.1,34.1,21.5,49.2,35.3a155,155,0,0,1,20.7,22.8c6.1,8.4,11.5,17.9,13.7,28.9A37.19,37.19,0,0,1,1831.9,204Z"/><path class="cls-13" d="M990.9,389.89c.5,5.5,10.8,7.6,32.6,7.2s68.2-7.5,72.7-11.7c3.2-2.9,5.4-13.7,4.3-23.2a38.56,38.56,0,0,0-.9-4.9,18.74,18.74,0,0,0-2.6-6.1c-6.3-9.3-44-21.5-76.5-13.9-13.4,3.2-20.9,11.7-25.1,21.1a50.73,50.73,0,0,0-3.4,10.9A77.57,77.57,0,0,0,990.9,389.89Z"/><path class="cls-14" d="M990.9,389.89c.5,5.5,10.8,7.6,32.6,7.2A320.28,320.28,0,0,0,1057,394a20.24,20.24,0,0,0,2.6-.4c17.6-2.5,33.9-5.8,36.6-8.2,3.2-2.9,5.4-13.7,4.3-23.2a38.56,38.56,0,0,0-.9-4.9,18.74,18.74,0,0,0-2.6-6.1c-6.3-9.3-44-21.5-76.5-13.9-13.4,3.2-20.9,11.7-25.1,21.1a50.73,50.73,0,0,0-3.4,10.9c-.6,3.1-1,6.1-1.3,8.8-.1,1.6-.2,3.1-.2,4.4C990.6,386.19,990.8,388.79,990.9,389.89Z"/><path class="cls-15" d="M992.1,369.49c13,2.8,33.7,3.7,63.8.2l2.6-.3c12-1.5,25.5-3.7,40.6-6.7l1.5-.3a38.56,38.56,0,0,0-.9-4.9c-.9.1-1.4.2-1.4.2s-70.4,8.7-102.8,1A54,54,0,0,0,992.1,369.49Z"/><g class="cls-16"><path class="cls-17" d="M1057.1,394.09a20.24,20.24,0,0,0,2.6-.4c-.2-10-.8-19.5-1.2-24.3l-2.6.3C1056.3,374.59,1056.9,384.09,1057.1,394.09Z"/></g><g class="cls-16"><path class="cls-18" d="M990.7,382.69a108,108,0,0,0,20.9,2.2h.2a2.19,2.19,0,0,0,2-2.2,2.14,2.14,0,0,0-2.2-2.1,111.92,111.92,0,0,1-20.6-2.3A36.12,36.12,0,0,0,990.7,382.69Z"/></g><path class="cls-19" d="M1699.9,224.39c-.1,3.2-16.9,3.8-29.6,3.3l-1.9-.1a6.15,6.15,0,0,1-1.4-.1c-11.5-.5-21.3-1.4-26.6-3.7a7.55,7.55,0,0,1-2.5-1.5c-3.7-3.1-4-9.7-2.1-15a25.5,25.5,0,0,1,1.3-2.9v-.1a9.08,9.08,0,0,1,2.8-2.7c6.9-4.9,23.8-9.9,39.5-7.2,7.8,1.3,12.7,6.2,15.7,11.6a32.8,32.8,0,0,1,2.4,5.5A44,44,0,0,1,1699.9,224.39Z"/><path class="cls-20" d="M1699.9,224.39c-.1,3.2-16.9,3.8-29.6,3.3l-1.9-.1a6.15,6.15,0,0,1-1.4-.1c-5.8-.2-11.2-.6-15.7-1.2a44.3,44.3,0,0,1-10.8-2.5,7.55,7.55,0,0,1-2.5-1.5c-3.3-2.8-3.9-8.4-2.6-13.4.2-.6.3-1.1.5-1.6a25.5,25.5,0,0,1,1.3-2.9v-.1a9.08,9.08,0,0,1,2.8-2.7c6.9-4.9,23.8-9.9,39.5-7.2,7.8,1.3,12.7,6.2,15.7,11.6a32.8,32.8,0,0,1,2.4,5.5c.6,1.7,1,3.4,1.4,4.9a22.31,22.31,0,0,1,.4,2.3A46.87,46.87,0,0,1,1699.9,224.39Z"/><path class="cls-21" d="M1697.6,211.69c-7,.4-17.9.8-28.9.6h-2.9c-12-.4-23.2-1.1-29.9-4.7a25.5,25.5,0,0,1,1.3-2.9c8.8,4.1,37.3,2.9,58,1.6A52.15,52.15,0,0,1,1697.6,211.69Z"/><path class="cls-22" d="M1699.4,218.89a17.65,17.65,0,0,1-4.6.6h-.1a1.13,1.13,0,0,1-1.1-1.2,1.07,1.07,0,0,1,1.2-1.1,14.11,14.11,0,0,0,4.2-.6C1699.1,217.39,1699.3,218.19,1699.4,218.89Z"/><path class="cls-23" d="M1668.4,227.69a6.15,6.15,0,0,1-1.4-.1,67.86,67.86,0,0,0,.3-15.4h1.4C1668.8,214.29,1669.4,221.29,1668.4,227.69Z"/><path class="cls-24" d="M1651.2,226.39a44.3,44.3,0,0,1-10.8-2.5,7.55,7.55,0,0,1-2.5-1.5c-3.3-2.8-3.9-8.4-2.6-13.4a35.76,35.76,0,0,0,8.3,3C1643.4,219.89,1646.4,224.69,1651.2,226.39Z"/><path class="cls-25" d="M650.9,268.79c-.1,3.8-7.2,10.7-22.1,11.4a222.72,222.72,0,0,1-23.7-.6c-10.1-.7-19.9-1.9-24.3-3.2a8.08,8.08,0,0,1-2.2-.9c-2.2-1.8-4.2-8.7-4-15,0-1.1.1-2.1.2-3.2a16.05,16.05,0,0,1,1.6-5.1,13.21,13.21,0,0,1,3.1-3.4l.1-.1c7.8-6.5,26.5-14.3,45.5-11.1a28.54,28.54,0,0,1,17.1,9.3,27.44,27.44,0,0,1,3.5,4.9,38.88,38.88,0,0,1,3.9,9.2A35.77,35.77,0,0,1,650.9,268.79Z"/><path class="cls-26" d="M650.9,268.79c-.1,3.8-7.2,10.7-22.1,11.4a212.49,212.49,0,0,1-23.1-.6h-.6a4.1,4.1,0,0,1-1.1-.1c-9.8-.8-19-1.9-23.2-3.1a6.86,6.86,0,0,1-2.2-.9c-2.2-1.8-4.2-8.7-4-15a30.28,30.28,0,0,1,.2-3.1,16.05,16.05,0,0,1,1.6-5.1,13.21,13.21,0,0,1,3.1-3.4l.1-.1c7.8-6.5,26.5-14.3,45.5-11.1a28.25,28.25,0,0,1,17.1,9.3,27.44,27.44,0,0,1,3.5,4.9,40.63,40.63,0,0,1,3.7,8.5c.1.2.1.5.2.7.2.9.4,1.7.6,2.5A32.06,32.06,0,0,1,650.9,268.79Z"/><path class="cls-27" d="M650.2,263.59c-2,2.9-6.1,6.6-14.3,8.6h-.3a1.42,1.42,0,0,1-1.5-1.2,1.49,1.49,0,0,1,1.1-1.8c9.6-2.2,13.1-6.8,14.1-8.8.1.2.1.5.2.7A9.55,9.55,0,0,1,650.2,263.59Z"/><path class="cls-28" d="M645.7,251.89c-1.9,4.6-9.8,11.6-40.4,11h-1.7c-7.5-.2-16.3-.9-26.6-2.1l-2.4-.3a30.28,30.28,0,0,1,.2-3.1,20.67,20.67,0,0,0,2.3.1c11.1.7,59,2.9,65.1-10.5A37.16,37.16,0,0,1,645.7,251.89Z"/><g class="cls-29"><path class="cls-30" d="M605.7,279.69h-.6a4.1,4.1,0,0,1-1.1-.1,146,146,0,0,1-.4-16.6h1.7A127.06,127.06,0,0,0,605.7,279.69Z"/></g><path class="cls-31" d="M1738.9,314.49c0,4.4,8,12.7,25.2,14.1,7.1.5,17.5.5,27.6.2,11.8-.5,23.2-1.5,28.3-2.8a8.35,8.35,0,0,0,2.5-.9c2.6-2,5.2-9.9,5.2-17.3a22.34,22.34,0,0,0-.2-3.7,17,17,0,0,0-1.7-5.9,18.72,18.72,0,0,0-3.4-4.1l-.1-.1c-8.8-7.8-30.3-17.6-52.4-14.6a32.6,32.6,0,0,0-20.2,10.2,31.51,31.51,0,0,0-4.3,5.5,48.76,48.76,0,0,0-4.9,10.5A38.31,38.31,0,0,0,1738.9,314.49Z"/><path class="cls-32" d="M1738.9,314.49c0,4.4,8,12.7,25.2,14.1a259.9,259.9,0,0,0,26.9.2h2c11.4-.5,22.1-1.5,27.1-2.7a8.35,8.35,0,0,0,2.5-.9c2.7-2,5.2-9.9,5.2-17.3,0-1.3-.1-2.5-.2-3.7a17,17,0,0,0-1.7-5.9,18.72,18.72,0,0,0-3.4-4.1l-.1-.1c-8.8-7.8-30.3-17.6-52.4-14.6a32.33,32.33,0,0,0-20.2,10.2,35.73,35.73,0,0,0-4.3,5.5,43,43,0,0,0-4.6,9.8c-.1.3-.2.5-.3.8-.3,1-.6,2-.8,2.9A31.6,31.6,0,0,0,1738.9,314.49Z"/><path class="cls-33" d="M1739.9,308.49c2.2,3.4,6.8,8,16.3,10.5.1,0,.2.1.3.1a1.72,1.72,0,0,0,1.8-1.3,1.81,1.81,0,0,0-1.2-2.2c-11.1-3-14.9-8.4-16.1-10.8-.1.3-.2.5-.3.8C1740.4,306.59,1740.1,307.59,1739.9,308.49Z"/><path class="cls-34" d="M1745.5,295.09c2,5.4,11,13.9,46.6,14.3h1.9c8.7,0,19-.4,31-1.4.9,0,1.8-.2,2.8-.3,0-1.3-.1-2.5-.2-3.7,0,0-.9,0-2.6.1-12.9.4-68.7,1.2-75.2-14.6A55.65,55.65,0,0,0,1745.5,295.09Z"/><g class="cls-29"><path class="cls-35" d="M1791.1,328.79h2a137.61,137.61,0,0,0,1-19.3h-1.9A160.72,160.72,0,0,1,1791.1,328.79Z"/></g><path class="cls-36" d="M1129,412.39c.2,4.6-34.1,10-76.7,12.1s-77.3.1-77.6-4.5,34.1-10,76.7-12.1S1128.8,407.79,1129,412.39Z"/><path class="cls-37" d="M1713.6,243.89c-.2,3.2-21,4.7-46.6,3.4s-46.2-5-46-8.2,21-4.7,46.6-3.4S1713.7,240.79,1713.6,243.89Z"/><ellipse class="cls-38" cx="1783.4" cy="339.19" rx="55.2" ry="8.5"/><ellipse class="cls-39" cx="617.8" cy="293.79" rx="50.8" ry="5.5"/><image width="106" height="8" transform="translate(0 413.89) scale(0.48)" xlink:href="../../../../var/folders/m0/v10mrw8s2t104qsq_2xzstbc0000gn/T/TemporaryItems/(A Document Being Saved By Illustrator CC)/Adobe/AISVG/55FCD0CF321E7213.png"/><image width="40" height="10" transform="translate(0 413.89) scale(0.48)" xlink:href="../../../../var/folders/m0/v10mrw8s2t104qsq_2xzstbc0000gn/T/TemporaryItems/(A Document Being Saved By Illustrator CC)/Adobe/AISVG/55FCD0CF321E7212.png"/></g></g></svg>